<svg xmlns="http://www.w3.org/2000/svg" width="74" height="60" viewBox="0 0 74 60">
  <g id="anaf1" transform="translate(0 -6)">
    <path id="Path_107" data-name="Path 107" d="M72.767,6H1.233A1.241,1.241,0,0,0,0,7.25v47.5A1.241,1.241,0,0,0,1.233,56H33.3v3.75H27.133V66H46.867V59.75H40.7V56H72.767A1.241,1.241,0,0,0,74,54.75V7.25A1.241,1.241,0,0,0,72.767,6ZM44.4,62.25V63.5H29.6V62.25h6.167V56h2.467v6.25ZM71.533,53.5H2.467V8.5H71.533Z" fill="#00418e"/>
    <path id="Path_108" data-name="Path 108" d="M64.567,39.833H48.995l-.1-.093a6.829,6.829,0,0,0-1.387-.956L41.8,35.1l-.118-.068a5.461,5.461,0,0,0-1.332-.4c-.134-.027-.31-.065-.453-.1V32.918c.056-.037.113-.078.173-.118a5.88,5.88,0,0,0,1.462-1.194,18.875,18.875,0,0,0,2.257-3.911,3.487,3.487,0,0,0,2.277-2.922V22a2.287,2.287,0,0,0-.592-1.475,2.579,2.579,0,0,1-.641-1.628V17.6C44.756,14.626,42.592,9,34.967,9s-9.789,5.626-9.867,8.633V18.9a2.572,2.572,0,0,1-.64,1.627A2.293,2.293,0,0,0,23.867,22v2.769a3.323,3.323,0,0,0,1.669,2.516c.821,2.486,3.308,4.335,4.5,5.1v1.637a9.071,9.071,0,0,1-1.746.99c-.271.129-.511.244-.715.356l-5.778,3.355a6.809,6.809,0,0,0-1.4,1.024l-.084.079H14v8.633H64.567ZM28.782,37.526c.144-.079.342-.173.565-.279,1.4-.668,3.154-1.5,3.154-3.019V30.966l-.643-.35c-.971-.529-3.591-2.346-4.056-4.375l-.112-.488-.421-.273c-.762-.492-.905-.745-.935-.707V22.133a.185.185,0,0,0,.02-.025A5.048,5.048,0,0,0,27.567,18.9V17.665c.006-.253.245-6.2,7.4-6.2,6.976,0,7.378,5.57,7.4,6.167V18.9A5.138,5.138,0,0,0,43.6,22.14v2.616a2,2,0,0,1-1.146.814l-.613.189-.2.612A14.874,14.874,0,0,1,39.582,30.1c-.127.126-.636.476-.909.665a5.247,5.247,0,0,0-.932.722l-.307.352V34.9c0,1.634,1.629,1.976,2.412,2.14a4.709,4.709,0,0,1,.691.176l4.045,2.617H24.805ZM62.1,46H16.467V42.3H62.1Z" transform="translate(3.267 0.7)" fill="#00418e"/>
    <path id="Path_109" data-name="Path 109" d="M56.4,10H49v7.4h7.4Zm-2.467,4.933H51.467V12.467h2.467Z" transform="translate(11.433 0.933)" fill="#ff5b83"/>
    <path id="Path_110" data-name="Path 110" d="M13.633,34H5v8.633h8.633Zm-2.467,6.167h-3.7v-3.7h3.7Z" transform="translate(1.167 7.08)" fill="#ff5b83"/>
  </g>
</svg>
