<svg xmlns="http://www.w3.org/2000/svg" width="60" height="60" viewBox="0 0 60 60">
  <g id="anaf3" transform="translate(0.121 -0.12)">
    <g id="Group_335" data-name="Group 335" transform="translate(-0.121 0.12)">
      <path id="Path_106" data-name="Path 106" d="M29.953.12a30.273,30.273,0,0,0-27.931,18h0v1C-4.2,34.5,3.636,51.884,18.98,58.12a28.186,28.186,0,0,0,10.973,2,30,30,0,0,0,0-60Zm23.941,45-2-1v-4c0-.155.067.14,0,0l-3.99-8v-4c0-.335.278-.814,0-1l-2.993-2a1.5,1.5,0,0,0-1,0l-3.99,1-5.985-3-1-6,2-2h5.985l1,3c.153.23.725-.045,1,0l5.985,1c.161.027-.154.052,0,0l5.985-2A27.845,27.845,0,0,1,53.894,45.12Zm-3.99-35-2,1-4.988-1-2.993-1c-.18-.061.184-.047,0,0l-3.99,1-2-1,2-2h2.993a4.782,4.782,0,0,0,1,0l2.993-2A32.142,32.142,0,0,1,49.9,10.12Zm-30.924-6,2,2a5.972,5.972,0,0,0,1,0l4.988,1-1,1-2,1c-.226.075-.875-.2-1,0l-2.993,5-3.99,3L9,18.12a1.142,1.142,0,0,0-1,1v3c0,.266-.187.812,0,1l2,1v2l-3.99-3-2-4A29.347,29.347,0,0,1,18.98,4.12Zm-2.993,33-3.99-1-2-3v-3l3.99-3,1,2c.169.34.619,1,1,1h5.985l2.993,5c.181.3.647,0,1,0h2.993l-1,4-3.99,3c-.188.188,0,.734,0,1v3l-3.99,2c-.252.189,0,.685,0,1v4l-1-1-2-4v-10C16.985,37.644,16.453,37.216,15.987,37.12Zm-2.993,15a27.144,27.144,0,0,1-9.975-30l1,2c.07.211-.185.876,0,1L9,28.12l-1,1c-.187.188,0,.734,0,1v3c0,.155-.069-.139,0,0l2,4c.138.277.694.94,1,1l3.99,1v9c0,.127-.047-.118,0,0l2,5a2.73,2.73,0,0,0,1,1l2.993,1c.1.034-.106,0,0,0a1,1,0,0,0,1-1v-4l3.99-3c.252-.189,0-.685,0-1v-3l3.99-3c.139-.14-.039-.806,0-1l1-5c.108-.543-.456-.891-1-1-.064-.013.066,0,0,0H26.96l-2.993-5c-.181-.3-.647,0-1,0H16.985l-2-3c-.144-.288-.68-.949-1-1s-.772-.231-1,0l-1,2v-2c0-.266.187-.812,0-1l-2-1v-2l5.985-1a6.694,6.694,0,0,0,1,0l4.988-3c.14-.084-.084-.859,0-1l2.993-4,2-1a2.39,2.39,0,0,0,1-1l1-3c.173-.526-.473-.826-1-1-.048-.016.05.009,0,0l-5.985-1-1-1a29.954,29.954,0,0,1,19.951,1l-2,1H34.94c-.381,0-.827-.341-1,0l-2,5c-.246.5.5.753,1,1,.042.021-.045-.015,0,0l2.993,1c.18.061-.184.047,0,0l3.99-1,2.993,1c.039.014-.041-.007,0,0l4.988,1a1.685,1.685,0,0,0,1,0l2-2a27.916,27.916,0,0,1,2.993,4l-4.988,2-4.988-1-2-3c-.184-.277-.665,0-1,0H34.94c-.265,0-.81-.188-1,0l-2.993,3c-.223.223-.045.688,0,1l1,7c.05.347.675.863,1,1l6.983,3c.2.087-.212.054,0,0l3.99-1,2,2v3c0,.155-.067-.14,0,0l3.99,8v4c0,.266-.187.812,0,1l2,2C42.622,59.516,25.36,61.42,12.994,52.12Z" transform="translate(0.121 -0.12)" fill="#00418e"/>
    </g>
    <path id="Path_124" data-name="Path 124" d="M3455.947,2306.6" transform="translate(-3414.121 -2301.88)" fill="none" stroke="#707070" stroke-width="1"/>
    <path id="Path_125" data-name="Path 125" d="M3465.225,2311.878a25.963,25.963,0,0,0-6.809-5.249l-2-.9-.6.636c-1.585,1.42-2.278,1.321-2.278,1.321l-4.919.132-1.684,4.226,3.434,1.09,3.566-1.255,8.683,2.311Z" transform="translate(-3414.121 -2301.88)" fill="#ff5b83"/>
    <path id="Path_126" data-name="Path 126" d="M3427.876,2327.36l-4.576,4.073-.39,3.683,2.232,3.683,4.91,1.786v9.095l2.678,5.413,2.678,1.339-.279-5.691,4.185-2.567-.279-4.073,4.129-2.567,1-5.245-4.129-.446-3.125-4.91h-6.026Z" transform="translate(-3414.121 -2301.88)" fill="#ff5b83"/>
  </g>
</svg>
