<svg xmlns="http://www.w3.org/2000/svg" width="60" height="60" viewBox="0 0 60 60">
  <g id="anaf2" transform="translate(-1750 -2462)">
    <g id="analysis" transform="translate(1750 2462)">
      <g id="Group_337" data-name="Group 337">
        <g id="Group_336" data-name="Group 336">
          <path id="Path_111" data-name="Path 111" d="M59.657,11.006,48.993.343A1.172,1.172,0,0,0,48.164,0h-34.8A3.52,3.52,0,0,0,9.844,3.516V5.75A15.5,15.5,0,0,0,0,20.167a1.172,1.172,0,0,0,1.172,1.172H15.479a1.172,1.172,0,0,0,1.172-1.172V5.859a1.172,1.172,0,0,0-1.172-1.172,15.473,15.473,0,0,0-3.292.354V3.516a1.173,1.173,0,0,1,1.172-1.172H46.992V9.492a3.52,3.52,0,0,0,3.516,3.516h7.148V56.484a1.173,1.173,0,0,1-1.172,1.172H13.359a1.173,1.173,0,0,1-1.172-1.172V46.445a1.172,1.172,0,0,0-2.344,0V56.484A3.52,3.52,0,0,0,13.359,60H56.484A3.52,3.52,0,0,0,60,56.484V11.834A1.172,1.172,0,0,0,59.657,11.006ZM14.307,7.083V19H2.4A13.158,13.158,0,0,1,14.307,7.083Zm36.2,3.581a1.173,1.173,0,0,1-1.172-1.172V4L56,10.664Z" fill="#00418e"/>
        </g>
      </g>
      <g id="Group_339" data-name="Group 339" transform="translate(9.842 41.01)">
        <g id="Group_338" data-name="Group 338">
          <path id="Path_112" data-name="Path 112" d="M86.007,350.345a1.175,1.175,0,1,0,.345.831A1.184,1.184,0,0,0,86.007,350.345Z" transform="translate(-84 -350)" fill="#00418e"/>
        </g>
      </g>
      <g id="Group_343" data-name="Group 343" transform="translate(17.891 36.906)">
        <g id="Group_342" data-name="Group 342">
          <path id="Path_114" data-name="Path 114" d="M187.321,315.605a3.528,3.528,0,0,0-3.249,4.9l-6.775,6.775a3.522,3.522,0,0,0-3.046-.016l-4.5-4.5a3.528,3.528,0,1,0-6.488.193l-4.315,4.315a3.528,3.528,0,1,0,1.665,1.661l4.291-4.291a3.516,3.516,0,0,0,3.3-.1l4.372,4.372a3.528,3.528,0,1,0,6.369.034l6.712-6.712a3.527,3.527,0,1,0,1.66-6.64Zm-29.888,16.032a1.176,1.176,0,1,1,.813-2.023l.014.015.018.016a1.175,1.175,0,0,1-.845,1.992Zm9.034-8.976a1.176,1.176,0,1,1,1.176-1.176A1.177,1.177,0,0,1,166.467,322.66Zm9.29,8.971a1.176,1.176,0,1,1,1.176-1.176A1.177,1.177,0,0,1,175.757,331.632Zm11.563-11.323a1.176,1.176,0,1,1,1.176-1.176A1.177,1.177,0,0,1,187.32,320.309Z" transform="translate(-153.905 -315.605)" fill="#00418e"/>
        </g>
      </g>
      <g id="Group_345" data-name="Group 345" transform="translate(38.101 27.535)">
        <g id="Group_344" data-name="Group 344">
          <path id="Path_115" data-name="Path 115" d="M332.693,235h-6.206a1.176,1.176,0,0,0,0,2.352h6.206a1.176,1.176,0,0,0,0-2.352Z" transform="translate(-325.311 -235)" fill="#00418e"/>
        </g>
      </g>
      <g id="Group_347" data-name="Group 347" transform="translate(49.607 27.535)">
        <g id="Group_346" data-name="Group 346">
          <path id="Path_116" data-name="Path 116" d="M425.627,235.345a1.175,1.175,0,1,0,.345.831A1.184,1.184,0,0,0,425.627,235.345Z" transform="translate(-423.62 -235)" fill="#00418e"/>
        </g>
      </g>
      <g id="Group_349" data-name="Group 349" transform="translate(38.047 16.287)">
        <g id="Group_348" data-name="Group 348">
          <path id="Path_117" data-name="Path 117" d="M340.851,139H326.487a1.176,1.176,0,0,0,0,2.352h14.364a1.176,1.176,0,0,0,0-2.352Z" transform="translate(-325.311 -139)" fill="#00418e"/>
        </g>
      </g>
      <g id="Group_351" data-name="Group 351" transform="translate(38.047 21.911)">
        <g id="Group_350" data-name="Group 350">
          <path id="Path_118" data-name="Path 118" d="M340.851,187H326.487a1.176,1.176,0,0,0,0,2.352h14.364a1.176,1.176,0,0,0,0-2.352Z" transform="translate(-325.311 -187)" fill="#00418e"/>
        </g>
      </g>
    </g>
    <g id="Group_354" data-name="Group 354" transform="matrix(0.914, -0.407, 0.407, 0.914, 1832.813, 2509.293)">
      <g id="Group_352" data-name="Group 352" transform="translate(-60 -55.615)">
        <path id="Path_120" data-name="Path 120" d="M4.2-55.615a11.2,11.2,0,0,1,6.463,6.966L0-45.234Z" transform="translate(11.2 55.615)" fill="none" stroke="#ff5b83" stroke-width="2"/>
        <path id="Path_121" data-name="Path 121" d="M10.666-18.3a11.2,11.2,0,0,1,.39,5.2L0-14.882Z" transform="translate(11.2 25.263)" fill="none" stroke="#ff5b83" stroke-width="2"/>
        <path id="Path_122" data-name="Path 122" d="M-11.052,1.787a11.2,11.2,0,0,1-5.982,8.2,11.2,11.2,0,0,1-10.148,0L-22.108,0Z" transform="translate(33.308 10.381)" fill="none" stroke="#ff5b83" stroke-width="2"/>
        <path id="Path_123" data-name="Path 123" d="M-53.874-14.416a11.2,11.2,0,0,1-5.663-6.8A11.2,11.2,0,0,1-58.5-30l9.7,5.6Z" transform="translate(60 34.781)" fill="none" stroke="#ff5b83" stroke-width="2"/>
      </g>
    </g>
  </g>
</svg>
