<svg id="host-f-icon4" xmlns="http://www.w3.org/2000/svg" width="40" height="40" viewBox="0 0 40 40">
  <g id="Group_851" data-name="Group 851">
    <g id="Group_850" data-name="Group 850">
      <path id="Path_797" data-name="Path 797" d="M147.349,16.769v-2.58a1.291,1.291,0,0,0-1.29-1.29h-1.935v-1.29h1.935a1.291,1.291,0,0,0,1.29-1.29V7.739a1.291,1.291,0,0,0-1.29-1.29h-1.935V5.16h1.935a1.291,1.291,0,0,0,1.29-1.29V1.29A1.291,1.291,0,0,0,146.059,0H129.29A1.291,1.291,0,0,0,128,1.29V3.87a1.291,1.291,0,0,0,1.29,1.29h1.935V6.45H129.29A1.291,1.291,0,0,0,128,7.739v2.58a1.291,1.291,0,0,0,1.29,1.29h1.935V12.9H129.29a1.291,1.291,0,0,0-1.29,1.29v2.58a1.291,1.291,0,0,0,1.29,1.29h16.769A1.291,1.291,0,0,0,147.349,16.769ZM129.29,3.87V1.29h16.769V3.87Zm13.544,1.29V6.45H132.515V5.16Zm-13.544,5.16V7.739h16.769v2.58Zm13.544,1.29V12.9H132.515v-1.29Zm-13.544,2.58h16.769v2.58H129.29Z" transform="translate(-117.674)" fill="#fff"/>
      <path id="Path_798" data-name="Path 798" d="M185.674,369.935h-3.6l-1.368-1.368a1.921,1.921,0,0,0-1.369-.567h-1.4A1.937,1.937,0,0,0,176,369.935v6.45a1.937,1.937,0,0,0,1.935,1.935h7.739a1.937,1.937,0,0,0,1.935-1.935V371.87A1.937,1.937,0,0,0,185.674,369.935Zm.645,2.58H178.58v1.29h7.739v2.58a.646.646,0,0,1-.645.645h-7.739a.646.646,0,0,1-.645-.645v-6.45a.646.646,0,0,1,.645-.645h1.4a.642.642,0,0,1,.457.189l1.746,1.746h4.137a.646.646,0,0,1,.645.645Z" transform="translate(-161.805 -338.319)" fill="#fff"/>
      <path id="Path_799" data-name="Path 799" d="M9.674,369.935h-3.6L4.7,368.567A1.921,1.921,0,0,0,3.335,368h-1.4A1.937,1.937,0,0,0,0,369.935v6.45a1.937,1.937,0,0,0,1.935,1.935H9.674a1.937,1.937,0,0,0,1.935-1.935V371.87A1.937,1.937,0,0,0,9.674,369.935Zm.645,2.58H2.58v1.29h7.739v2.58a.646.646,0,0,1-.645.645H1.935a.646.646,0,0,1-.645-.645v-6.45a.646.646,0,0,1,.645-.645h1.4a.642.642,0,0,1,.457.189l1.746,1.746H9.674a.646.646,0,0,1,.645.645Z" transform="translate(0 -338.319)" fill="#fff"/>
      <path id="Path_800" data-name="Path 800" d="M361.674,369.935h-3.6l-1.368-1.368a1.921,1.921,0,0,0-1.369-.567h-1.4A1.937,1.937,0,0,0,352,369.935v6.45a1.937,1.937,0,0,0,1.935,1.935h7.74a1.937,1.937,0,0,0,1.935-1.935V371.87A1.937,1.937,0,0,0,361.674,369.935Zm.645,2.58h-7.74v1.29h7.74v2.58a.646.646,0,0,1-.645.645h-7.74a.646.646,0,0,1-.645-.645v-6.45a.646.646,0,0,1,.645-.645h1.4a.642.642,0,0,1,.457.189l1.746,1.746h4.137a.646.646,0,0,1,.645.645Z" transform="translate(-323.609 -338.319)" fill="#fff"/>
      <path id="Path_801" data-name="Path 801" d="M225.29,240v5.923a1.935,1.935,0,1,0,1.29,0V240Zm.645,8.384a.645.645,0,1,1,.645-.645A.646.646,0,0,1,225.935,248.384Z" transform="translate(-205.935 -220.643)" fill="#fff"/>
      <path id="Path_802" data-name="Path 802" d="M386.58,107.225v14.308a1.935,1.935,0,1,0,1.29,0V107.225A3.228,3.228,0,0,0,384.645,104H384v1.29h.645A1.937,1.937,0,0,1,386.58,107.225Zm.645,15.479a.645.645,0,1,1-.645.645A.646.646,0,0,1,387.225,122.7Z" transform="translate(-353.029 -95.61)" fill="#fff"/>
      <path id="Path_803" data-name="Path 803" d="M49.935,125.284a1.93,1.93,0,0,0,.645-3.751V107.225a1.937,1.937,0,0,1,1.935-1.935h.645V104h-.645a3.228,3.228,0,0,0-3.225,3.225v14.308a1.93,1.93,0,0,0,.645,3.751Zm0-2.58a.645.645,0,1,1-.645.645A.646.646,0,0,1,49.935,122.7Z" transform="translate(-44.13 -95.61)" fill="#fff"/>
    </g>
  </g>
</svg>
