<svg xmlns="http://www.w3.org/2000/svg" width="40" height="40" viewBox="0 0 40 40">
  <g id="host-f-icon2" transform="translate(-190 -190)">
    <path id="WordPress" d="M0,20A20,20,0,1,0,20,0,20,20,0,0,0,0,20Zm1.541,0a18.422,18.422,0,0,1,1.6-7.512l8.8,24.123A18.458,18.458,0,0,1,1.541,20ZM20,38.458a18.479,18.479,0,0,1-5.215-.75l5.54-16.092L26,37.16a1.667,1.667,0,0,0,.13.251A18.36,18.36,0,0,1,20,38.458Zm14.917-18.8a17.435,17.435,0,0,0,1.405-6.611,13.735,13.735,0,0,0-.128-1.9A18.463,18.463,0,0,1,29.28,35.953Zm-3.98-5.676a9.734,9.734,0,0,1,1.523,5.091,17.224,17.224,0,0,1-1.4,5.968l-1.842,6.149L22.543,11.347c1.114-.061,2.112-.176,2.112-.176a.764.764,0,0,0-.116-1.523s-2.991.236-4.921.236c-1.814,0-4.86-.236-4.86-.236a.764.764,0,0,0-.118,1.523s.944.116,1.939.176l2.873,7.879L15.413,31.338,8.689,11.347c1.114-.061,2.114-.176,2.114-.176a.764.764,0,0,0-.118-1.523s-2.988.236-4.921.236c-.346,0-.753-.009-1.186-.021A18.449,18.449,0,0,1,32.464,6.39c-.079-.006-.158-.016-.237-.016a3.193,3.193,0,0,0-3.1,3.274C29.126,11.171,30,12.458,30.937,13.977Z" transform="translate(190 190)" fill="#fff"/>
  </g>
</svg>
