<svg xmlns="http://www.w3.org/2000/svg" width="40" height="40" viewBox="0 0 40 40">
  <g id="host-f-icon6" transform="translate(0.007 -0.024)">
    <path id="Path_821" data-name="Path 821" d="M176.047,432.094h1.268v1.268h-1.268Zm0,0" transform="translate(-162.308 -398.412)" fill="#fff"/>
    <path id="Path_822" data-name="Path 822" d="M208.047,432.094h1.268v1.268h-1.268Zm0,0" transform="translate(-191.81 -398.412)" fill="#fff"/>
    <path id="Path_823" data-name="Path 823" d="M240.047,432.094h1.268v1.268h-1.268Zm0,0" transform="translate(-221.311 -398.412)" fill="#fff"/>
    <path id="Path_824" data-name="Path 824" d="M144.047,432.094h1.268v1.268h-1.268Zm0,0" transform="translate(-132.807 -398.412)" fill="#fff"/>
    <path id="Path_825" data-name="Path 825" d="M176.047,368.094h1.268v1.268h-1.268Zm0,0" transform="translate(-162.308 -339.332)" fill="#fff"/>
    <path id="Path_826" data-name="Path 826" d="M208.047,368.094h1.268v1.268h-1.268Zm0,0" transform="translate(-191.81 -339.332)" fill="#fff"/>
    <path id="Path_827" data-name="Path 827" d="M240.047,368.094h1.268v1.268h-1.268Zm0,0" transform="translate(-221.311 -339.332)" fill="#fff"/>
    <path id="Path_828" data-name="Path 828" d="M144.047,368.094h1.268v1.268h-1.268Zm0,0" transform="translate(-132.807 -339.332)" fill="#fff"/>
    <path id="Path_829" data-name="Path 829" d="M176.047,304.094h1.268v1.268h-1.268Zm0,0" transform="translate(-162.308 -280.329)" fill="#fff"/>
    <path id="Path_830" data-name="Path 830" d="M144.047,304.094h1.268v1.268h-1.268Zm0,0" transform="translate(-132.807 -280.329)" fill="#fff"/>
    <path id="Path_831" data-name="Path 831" d="M208.047,304.094h1.268v1.268h-1.268Zm0,0" transform="translate(-191.81 -280.329)" fill="#fff"/>
    <path id="Path_832" data-name="Path 832" d="M240.047,304.094h1.268v1.268h-1.268Zm0,0" transform="translate(-221.311 -280.329)" fill="#fff"/>
    <path id="Path_833" data-name="Path 833" d="M128.047,496.094h3.8v1.268h-3.8Zm0,0" transform="translate(-118.066 -457.339)" fill="#fff"/>
    <path id="Path_834" data-name="Path 834" d="M336.047,496.094h3.8v1.268h-3.8Zm0,0" transform="translate(-309.844 -457.339)" fill="#fff"/>
    <path id="Path_835" data-name="Path 835" d="M272.047,432.094h7.61v1.268h-7.61Zm0,0" transform="translate(-250.875 -398.412)" fill="#fff"/>
    <path id="Path_836" data-name="Path 836" d="M272.047,368.094h7.61v1.268h-7.61Zm0,0" transform="translate(-250.875 -339.332)" fill="#fff"/>
    <path id="Path_837" data-name="Path 837" d="M272.047,304.094h7.61v1.268h-7.61Zm0,0" transform="translate(-250.875 -280.329)" fill="#fff"/>
    <path id="Path_838" data-name="Path 838" d="M34.967,11.3A6.875,6.875,0,0,0,24.244,6.218a10,10,0,0,0-19.2,2.8A6.867,6.867,0,0,0,6.871,22.5H8.746V37.487h22.5V22.5h3.125a5.618,5.618,0,0,0,.6-11.205Zm-4.974,24.94H10V32.493h20Zm0-4.994H10V27.5h20Zm0-4.994H10V22.5h20Zm4.374-4.994H26.243v-7.2l1.643-1.411a2.507,2.507,0,1,0-.788-.968l-2.1,1.8v7.779h-5V15.517L18.745,12.4V5.648H15.531a2.5,2.5,0,1,0,0,1.249h1.964v5.739l1.25,3.121v5.5h-5V11.267H9.152L6.322,13.528a2.559,2.559,0,1,0,.856.915L9.59,12.515H12.5v8.74H6.871A5.618,5.618,0,0,1,5.758,10.129l.475-.1L6.26,9.55A8.75,8.75,0,0,1,23.353,7.427l.289.93.727-.649a5.625,5.625,0,0,1,9.374,4.183v.624h.625a4.37,4.37,0,1,1,0,8.74ZM28.118,10.642a1.25,1.25,0,1,1,1.25,1.249A1.249,1.249,0,0,1,28.118,10.642ZM14.37,6.272a1.25,1.25,0,1,1-1.25-1.249A1.249,1.249,0,0,1,14.37,6.272ZM6.246,15.637A1.25,1.25,0,1,1,5,14.388,1.249,1.249,0,0,1,6.246,15.637Zm0,0" transform="translate(0 0)" fill="#fff"/>
  </g>
</svg>
