<svg xmlns="http://www.w3.org/2000/svg" width="44" height="40" viewBox="0 0 44 40">
  <g id="host-f-icon1" transform="translate(0 -3.005)">
    <path id="Path_788" data-name="Path 788" d="M34.292,10.63a13.723,13.723,0,0,0-25.871,4.1H8.25a8.277,8.277,0,0,0,0,16.555h3.443v6.2a2.068,2.068,0,0,0,2.063,2.069h4.656L18,41.625h-.812a.69.69,0,0,0,0,1.38h9.625a.69.69,0,0,0,0-1.38H26l-.413-2.069h4.656a2.068,2.068,0,0,0,2.063-2.069v-6.2h1.381a10.337,10.337,0,0,0,.6-20.655ZM30.932,35.417H13.068V25.079a.689.689,0,0,1,.688-.69H30.244a.689.689,0,0,1,.688.69ZM24.6,41.625H19.4l.413-2.069h4.372Zm5.646-3.449H13.755a.689.689,0,0,1-.687-.69V36.8h8.946a.691.691,0,1,0,.008,0h8.911v.69a.69.69,0,0,1-.688.69Zm3.443-8.27H32.307V25.079a2.068,2.068,0,0,0-2.062-2.069H13.756a2.068,2.068,0,0,0-2.062,2.069v4.827H8.25a6.9,6.9,0,0,1,0-13.8h.035c-.012.23-.035.457-.035.69a.688.688,0,1,0,1.375,0A12.373,12.373,0,0,1,34.1,14.175a12.543,12.543,0,0,1,.277,2.626.688.688,0,1,0,1.375,0,13.868,13.868,0,0,0-.308-2.916,13.688,13.688,0,0,0-.536-1.815,8.962,8.962,0,0,1-1.218,17.837Z" fill="#fff"/>
    <path id="Path_789" data-name="Path 789" d="M35.569,17.2a.695.695,0,0,0-.981,0L33.2,18.588a.693.693,0,1,0,.979.979l.2-.2v5.256a.693.693,0,0,0,1.385,0V19.365l.2.2a.693.693,0,1,0,.979-.979Z" transform="translate(-10.33 -4.352)" fill="#fff"/>
    <path id="Path_790" data-name="Path 790" d="M27.972,22.746l-.2.2V17.693a.693.693,0,1,0-1.385,0v5.256l-.2-.2a.693.693,0,0,0-.979.979l1.385,1.385a.695.695,0,0,0,.981,0l1.385-1.385a.693.693,0,0,0-.979-.979Z" transform="translate(-7.825 -4.352)" fill="#fff"/>
  </g>
</svg>
