<svg xmlns="http://www.w3.org/2000/svg" width="40" height="40" viewBox="0 0 40 40">
  <g id="host-f-icon5" transform="translate(0.023 -0.012)">
    <path id="Path_804" data-name="Path 804" d="M320.086,344.043h1.269v1.269h-1.269Zm0,0" transform="translate(-295.118 -317.168)" fill="#fff"/>
    <path id="Path_805" data-name="Path 805" d="M352.086,344.043h1.269v1.269h-1.269Zm0,0" transform="translate(-324.62 -317.168)" fill="#fff"/>
    <path id="Path_806" data-name="Path 806" d="M384.086,344.043h1.269v1.269h-1.269Zm0,0" transform="translate(-354.122 -317.168)" fill="#fff"/>
    <path id="Path_807" data-name="Path 807" d="M320.086,280.043h1.269v1.269h-1.269Zm0,0" transform="translate(-295.118 -258.165)" fill="#fff"/>
    <path id="Path_808" data-name="Path 808" d="M352.086,280.043h1.269v1.269h-1.269Zm0,0" transform="translate(-324.62 -258.165)" fill="#fff"/>
    <path id="Path_809" data-name="Path 809" d="M384.086,280.043h1.269v1.269h-1.269Zm0,0" transform="translate(-354.122 -258.165)" fill="#fff"/>
    <path id="Path_810" data-name="Path 810" d="M320.086,216.043h1.269v1.269h-1.269Zm0,0" transform="translate(-295.118 -199.163)" fill="#fff"/>
    <path id="Path_811" data-name="Path 811" d="M352.086,216.043h1.269v1.269h-1.269Zm0,0" transform="translate(-324.62 -199.163)" fill="#fff"/>
    <path id="Path_812" data-name="Path 812" d="M384.086,216.043h1.269v1.269h-1.269Zm0,0" transform="translate(-354.122 -199.163)" fill="#fff"/>
    <path id="Path_813" data-name="Path 813" d="M320.086,152.043h1.269v1.269h-1.269Zm0,0" transform="translate(-295.118 -140.16)" fill="#fff"/>
    <path id="Path_814" data-name="Path 814" d="M352.086,152.043h1.269v1.269h-1.269Zm0,0" transform="translate(-324.62 -140.16)" fill="#fff"/>
    <path id="Path_815" data-name="Path 815" d="M384.086,152.043h1.269v1.269h-1.269Zm0,0" transform="translate(-354.122 -140.16)" fill="#fff"/>
    <path id="Path_816" data-name="Path 816" d="M416.086,344.043h5.075v1.269h-5.075Zm0,0" transform="translate(-383.722 -317.168)" fill="#fff"/>
    <path id="Path_817" data-name="Path 817" d="M416.086,280.043h5.075v1.269h-5.075Zm0,0" transform="translate(-383.722 -258.165)" fill="#fff"/>
    <path id="Path_818" data-name="Path 818" d="M416.086,216.043h5.075v1.269h-5.075Zm0,0" transform="translate(-383.722 -199.163)" fill="#fff"/>
    <path id="Path_819" data-name="Path 819" d="M36.915,9.389a20,20,0,1,0,0,21.249h3.065V9.389Zm-1.493,0H22.48V22l-3.312-.947-1.687-3.372V15.626l1.492-1.194,1.548-6.191,2.433-1.352h5.624l2.954-1.641-.009-.016a18.8,18.8,0,0,1,3.9,4.157ZM1.235,20.013a18.674,18.674,0,0,1,4.788-12.5h2.5l2.085,1.562V13.91L9.534,15.789,7.055,17.029,5.609,19.2V22.85l3.874,2.582.777,1.812-.492,1.722L6.7,30.638H4.547A18.638,18.638,0,0,1,1.235,20.013ZM19.981,38.762a18.624,18.624,0,0,1-7.807-1.71l2.357-1.414h4.312l4.806-1.8,4.531,3.022a18.7,18.7,0,0,1-8.2,1.905Zm9.446-2.578L23.81,32.44l-5.192,1.947H14.182l-3.273,1.964.058.1a18.869,18.869,0,0,1-5.483-4.56H7.016l3.807-2.076.757-2.653-1.1-2.562L6.859,22.179v-2.6L7.912,18l2.52-1.261,1.426-2.493V8.452L8.941,6.264H7.254A18.744,18.744,0,0,1,30.426,4.432L28.255,5.639H22.631L19.441,7.412,17.864,13.72l-1.632,1.306v2.947L18.294,22.1l4.186,1.2v7.34H35.426a18.8,18.8,0,0,1-6,5.547Zm9.3-6.8h-15v-3.75h15Zm0-5h-15v-3.75h15Zm0-5h-15v-3.75h15Zm0-5h-15v-3.75h15Zm0,0" transform="translate(0)" fill="#fff"/>
    <path id="Path_820" data-name="Path 820" d="M416.086,152.043h5.075v1.269h-5.075Zm0,0" transform="translate(-383.722 -140.16)" fill="#fff"/>
  </g>
</svg>
