<svg xmlns="http://www.w3.org/2000/svg" width="46" height="40" viewBox="0 0 46 40">
  <g id="host-f-icon3" transform="translate(-1 -1)">
    <path id="Path_791" data-name="Path 791" d="M19.333,24.269V18.628a.705.705,0,0,0-.705-.705h-.705v-1.41h.705a.705.705,0,0,0,.705-.705V10.167a.705.705,0,0,0-.705-.705h-.705V8.051h.705a.705.705,0,0,0,.705-.705V1.705A.705.705,0,0,0,18.628,1H1.705A.705.705,0,0,0,1,1.705V7.346a.705.705,0,0,0,.705.705H2.41v1.41H1.705A.705.705,0,0,0,1,10.167v5.641a.705.705,0,0,0,.705.705H2.41v1.41H1.705A.705.705,0,0,0,1,18.628v5.641a.7.7,0,0,0,.705.705H18.628A.7.7,0,0,0,19.333,24.269ZM2.41,2.41H17.923V6.641H2.41Zm1.41,5.641H16.513v1.41H3.821ZM2.41,10.872H17.923V15.1H2.41Zm1.41,5.641H16.513v1.41H3.821Zm14.1,7.051H2.41V19.333H17.923Z" fill="#fff"/>
    <path id="Path_793" data-name="Path 793" d="M25.6,43.553l-1,1,2.322,2.322h-8.17a6.353,6.353,0,0,1-6.346-6.346V37H11v3.526a7.766,7.766,0,0,0,7.756,7.756h8.17L24.6,50.6l1,1,3.526-3.526a.7.7,0,0,0,0-1Z" transform="translate(-2.906 -10.601)" fill="#fff"/>
    <path id="Path_794" data-name="Path 794" d="M32.732,14.341l1-1-2.322-2.322h6.759a6.354,6.354,0,0,1,6.346,6.346v3.526h1.41V17.368a7.766,7.766,0,0,0-7.756-7.756H31.407L33.729,7.29l-1-1L29.207,9.819a.7.7,0,0,0,0,1Z" transform="translate(-8.143 -1.561)" fill="#fff"/>
    <g id="shopping-cart-empty-side-view" transform="translate(27.256 21.463)">
      <path id="Path_795" data-name="Path 795" d="M19.629,16.645a.635.635,0,0,0-.492-.267L6.89,15.857a.625.625,0,1,0-.054,1.249l11.418.486L16.008,24.5H6.018l-1.8-9.7a.627.627,0,0,0-.392-.469L.865,13.191a.637.637,0,0,0-.821.353.623.623,0,0,0,.358.81L3.03,15.374,4.867,25.24a.631.631,0,0,0,.623.512h.3l-.7,1.907a.514.514,0,0,0,.065.476.53.53,0,0,0,.432.221h.488a1.85,1.85,0,0,0-.488,1.25,1.9,1.9,0,0,0,3.8,0,1.85,1.85,0,0,0-.488-1.25h4.143a1.85,1.85,0,0,0-.488,1.25,1.9,1.9,0,0,0,3.8,0,1.851,1.851,0,0,0-.488-1.25h.593a.521.521,0,1,0,0-1.042H6.347l.57-1.562H16.47a.632.632,0,0,0,.6-.434l2.639-8.125A.617.617,0,0,0,19.629,16.645ZM7.5,30.44a.833.833,0,1,1,.845-.833A.84.84,0,0,1,7.5,30.44Zm6.968,0a.833.833,0,1,1,.845-.833A.84.84,0,0,1,14.464,30.44Z" transform="translate(0 -13.148)" fill="#fff"/>
    </g>
  </g>
</svg>
