<?xml version="1.0" encoding="UTF-8"?>
<svg version="1.1" xmlns="http://www.w3.org/2000/svg" width="64" height="64">
<path d="M0 0 C0.66209473 -0.00095673 1.32418945 -0.00191345 2.00634766 -0.00289917 C3.40852961 -0.00358076 4.8107147 -0.00172792 6.21289062 0.00244141 C8.36595713 0.00779004 10.51881502 0.0024958 12.671875 -0.00390625 C14.03125046 -0.00324546 15.3906258 -0.00196429 16.75 0 C18.61785156 0.00169189 18.61785156 0.00169189 20.5234375 0.00341797 C23.375 0.1328125 23.375 0.1328125 24.375 1.1328125 C24.47399561 2.93790623 24.50299151 4.74688178 24.50439453 6.5546875 C24.50754669 7.71258789 24.51069885 8.87048828 24.51394653 10.06347656 C24.5119223 11.32385742 24.50989807 12.58423828 24.5078125 13.8828125 C24.50876923 15.16639648 24.50972595 16.44998047 24.51071167 17.77246094 C24.51218831 20.49285074 24.51003519 23.21320775 24.50537109 25.93359375 C24.49967381 29.42765919 24.50295299 32.92164783 24.50894356 36.41571045 C24.51341754 39.73808403 24.51028885 43.06043673 24.5078125 46.3828125 C24.50983673 47.64319336 24.51186096 48.90357422 24.51394653 50.20214844 C24.50921829 51.93899902 24.50921829 51.93899902 24.50439453 53.7109375 C24.50359894 54.73606445 24.50280334 55.76119141 24.50198364 56.81738281 C24.375 59.1328125 24.375 59.1328125 23.375 60.1328125 C21.65634591 60.2264044 19.93384256 60.25025861 18.21264648 60.24633789 C17.11158066 60.24626236 16.01051483 60.24618683 14.87608337 60.24610901 C13.6781868 60.24094772 12.48029022 60.23578644 11.24609375 60.23046875 C10.02672623 60.2290538 8.8073587 60.22763885 7.55104065 60.22618103 C3.6381693 60.22056217 -0.27464581 60.20800646 -4.1875 60.1953125 C-6.83268147 60.19029993 -9.47786383 60.1857366 -12.12304688 60.18164062 C-18.62371974 60.17058661 -25.12435032 60.15330933 -31.625 60.1328125 C-31.625 55.1828125 -31.625 50.2328125 -31.625 45.1328125 C-29.975 44.4728125 -28.325 43.8128125 -26.625 43.1328125 C-24.79038169 41.15910267 -24.79038169 41.15910267 -23.25 38.8203125 C-20.07083403 34.53534967 -17.26300261 31.79536956 -12.625 29.1328125 C-9.9140625 29.01171875 -9.9140625 29.01171875 -7.625 29.1328125 C-7.63285522 27.86836304 -7.63285522 27.86836304 -7.64086914 26.57836914 C-7.65787826 23.46053314 -7.67043406 20.34272073 -7.67993164 17.22485352 C-7.68497057 15.87360864 -7.69180177 14.52236924 -7.70043945 13.17114258 C-7.71252419 11.23260816 -7.71769828 9.2940345 -7.72265625 7.35546875 C-7.72789307 6.18765869 -7.73312988 5.01984863 -7.73852539 3.81665039 C-7.5212242 -1.32053663 -4.47839025 0.00405651 0 0 Z M-10.6875 38.1953125 C-13.02968366 40.11275892 -13.02968366 40.11275892 -12.875 43.8203125 C-12.7925 44.9134375 -12.71 46.0065625 -12.625 47.1328125 C-11.305 47.1328125 -9.985 47.1328125 -8.625 47.1328125 C-7.39232652 46.12445188 -7.39232652 46.12445188 -7.52734375 44.06640625 C-7.53894531 43.24269531 -7.55054688 42.41898438 -7.5625 41.5703125 C-7.57152344 40.74402344 -7.58054687 39.91773438 -7.58984375 39.06640625 C-7.60144531 38.42832031 -7.61304688 37.79023437 -7.625 37.1328125 C-8.86351906 37.0564864 -8.86351906 37.0564864 -10.6875 38.1953125 Z " fill="#ECF1F7" transform="translate(35.625,1.8671875)"/>
<path d="M0 0 C0.66209473 -0.00095673 1.32418945 -0.00191345 2.00634766 -0.00289917 C3.40852961 -0.00358076 4.8107147 -0.00172792 6.21289062 0.00244141 C8.36595713 0.00779004 10.51881502 0.0024958 12.671875 -0.00390625 C14.03125046 -0.00324546 15.3906258 -0.00196429 16.75 0 C18.61785156 0.00169189 18.61785156 0.00169189 20.5234375 0.00341797 C23.375 0.1328125 23.375 0.1328125 24.375 1.1328125 C24.47399561 2.93790623 24.50299151 4.74688178 24.50439453 6.5546875 C24.50754669 7.71258789 24.51069885 8.87048828 24.51394653 10.06347656 C24.5119223 11.32385742 24.50989807 12.58423828 24.5078125 13.8828125 C24.50876923 15.16639648 24.50972595 16.44998047 24.51071167 17.77246094 C24.51218831 20.49285074 24.51003519 23.21320775 24.50537109 25.93359375 C24.49967381 29.42765919 24.50295299 32.92164783 24.50894356 36.41571045 C24.51341754 39.73808403 24.51028885 43.06043673 24.5078125 46.3828125 C24.50983673 47.64319336 24.51186096 48.90357422 24.51394653 50.20214844 C24.50921829 51.93899902 24.50921829 51.93899902 24.50439453 53.7109375 C24.50359894 54.73606445 24.50280334 55.76119141 24.50198364 56.81738281 C24.375 59.1328125 24.375 59.1328125 23.375 60.1328125 C21.65634591 60.2264044 19.93384256 60.25025861 18.21264648 60.24633789 C17.11158066 60.24626236 16.01051483 60.24618683 14.87608337 60.24610901 C13.6781868 60.24094772 12.48029022 60.23578644 11.24609375 60.23046875 C10.02672623 60.2290538 8.8073587 60.22763885 7.55104065 60.22618103 C3.6381693 60.22056217 -0.27464581 60.20800646 -4.1875 60.1953125 C-6.83268147 60.19029993 -9.47786383 60.1857366 -12.12304688 60.18164062 C-18.62371974 60.17058661 -25.12435032 60.15330933 -31.625 60.1328125 C-31.625 55.1828125 -31.625 50.2328125 -31.625 45.1328125 C-29.975 44.4728125 -28.325 43.8128125 -26.625 43.1328125 C-24.79038169 41.15910267 -24.79038169 41.15910267 -23.25 38.8203125 C-20.07083403 34.53534967 -17.26300261 31.79536956 -12.625 29.1328125 C-9.9140625 29.01171875 -9.9140625 29.01171875 -7.625 29.1328125 C-7.63285522 27.86836304 -7.63285522 27.86836304 -7.64086914 26.57836914 C-7.65787826 23.46053314 -7.67043406 20.34272073 -7.67993164 17.22485352 C-7.68497057 15.87360864 -7.69180177 14.52236924 -7.70043945 13.17114258 C-7.71252419 11.23260816 -7.71769828 9.2940345 -7.72265625 7.35546875 C-7.72789307 6.18765869 -7.73312988 5.01984863 -7.73852539 3.81665039 C-7.5212242 -1.32053663 -4.47839025 0.00405651 0 0 Z M15.375 1.1328125 C15.375 2.1228125 15.375 3.1128125 15.375 4.1328125 C14.39917969 4.060625 13.42335938 3.9884375 12.41796875 3.9140625 C11.14566406 3.82125 9.87335937 3.7284375 8.5625 3.6328125 C7.29792969 3.54 6.03335938 3.4471875 4.73046875 3.3515625 C2.61521483 3.21366469 0.49474408 3.1328125 -1.625 3.1328125 C-2.86421211 4.14918227 -2.86421211 4.14918227 -2.73852539 6.26586914 C-2.73328857 7.18231201 -2.72805176 8.09875488 -2.72265625 9.04296875 C-2.72015869 9.9337915 -2.71766113 10.82461426 -2.71508789 11.74243164 C-2.70598389 12.88188232 -2.69687988 14.02133301 -2.6875 15.1953125 C-2.666875 18.8046875 -2.64625 22.4140625 -2.625 26.1328125 C5.295 26.1328125 13.215 26.1328125 21.375 26.1328125 C21.375 26.7928125 21.375 27.4528125 21.375 28.1328125 C13.455 28.1328125 5.535 28.1328125 -2.625 28.1328125 C-2.625 29.1228125 -2.625 30.1128125 -2.625 31.1328125 C-0.975 31.1328125 0.675 31.1328125 2.375 31.1328125 C2.375 31.7928125 2.375 32.4528125 2.375 33.1328125 C0.725 33.1328125 -0.925 33.1328125 -2.625 33.1328125 C-2.625 33.7928125 -2.625 34.4528125 -2.625 35.1328125 C0.345 35.1328125 3.315 35.1328125 6.375 35.1328125 C6.375 35.7928125 6.375 36.4528125 6.375 37.1328125 C3.405 37.1328125 0.435 37.1328125 -2.625 37.1328125 C-2.625 38.7828125 -2.625 40.4328125 -2.625 42.1328125 C-1.635 41.6378125 -1.635 41.6378125 -0.625 41.1328125 C2.25410588 40.90007041 5.11646495 40.71308493 8 40.5703125 C8.80179688 40.52712891 9.60359375 40.48394531 10.4296875 40.43945312 C12.4112511 40.33329793 14.39310271 40.23254395 16.375 40.1328125 C16.375 42.1128125 16.375 44.0928125 16.375 46.1328125 C15.63636719 46.01679687 14.89773437 45.90078125 14.13671875 45.78125 C8.8568913 45.31163384 5.60566642 45.28867308 1.12890625 48.359375 C-1.62610808 50.78729998 -4.15791622 53.41319259 -6.625 56.1328125 C-6.295 57.1228125 -5.965 58.1128125 -5.625 59.1328125 C-1.65569011 59.15747131 2.31359034 59.17565273 6.28295898 59.18774414 C7.63420386 59.19278307 8.98544326 59.19961427 10.33666992 59.20825195 C12.27520434 59.22033669 14.213778 59.22551078 16.15234375 59.23046875 C17.32015381 59.23570557 18.48796387 59.24094238 19.69116211 59.24633789 C22.29391551 59.43942745 22.29391551 59.43942745 23.375 58.1328125 C23.47387792 56.38898715 23.50299032 54.64115707 23.50439453 52.89453125 C23.50754669 51.77667236 23.51069885 50.65881348 23.51394653 49.50708008 C23.5119223 48.29044678 23.50989807 47.07381348 23.5078125 45.8203125 C23.50876923 44.58112061 23.50972595 43.34192871 23.51071167 42.06518555 C23.51139374 39.43892969 23.51003538 36.81276617 23.50537109 34.18652344 C23.49967381 30.81352536 23.50295302 27.44060685 23.50894356 24.06761169 C23.5134177 20.86017573 23.51028882 17.6527495 23.5078125 14.4453125 C23.50983673 13.2286792 23.51186096 12.0120459 23.51394653 10.75854492 C23.51079437 9.64068604 23.50764221 8.52282715 23.50439453 7.37109375 C23.50359894 6.38149658 23.50280334 5.39189941 23.50198364 4.37231445 C23.62600848 2.16184 23.62600848 2.16184 22.375 1.1328125 C20.04202567 1.09188313 17.70794775 1.09039527 15.375 1.1328125 Z M-10.6875 38.1953125 C-13.02968366 40.11275892 -13.02968366 40.11275892 -12.875 43.8203125 C-12.7925 44.9134375 -12.71 46.0065625 -12.625 47.1328125 C-11.305 47.1328125 -9.985 47.1328125 -8.625 47.1328125 C-7.39232652 46.12445188 -7.39232652 46.12445188 -7.52734375 44.06640625 C-7.53894531 43.24269531 -7.55054688 42.41898438 -7.5625 41.5703125 C-7.57152344 40.74402344 -7.58054687 39.91773438 -7.58984375 39.06640625 C-7.60144531 38.42832031 -7.61304688 37.79023437 -7.625 37.1328125 C-8.86351906 37.0564864 -8.86351906 37.0564864 -10.6875 38.1953125 Z " fill="#F3C7AC" transform="translate(35.625,1.8671875)"/>
<path d="M0 0 C0.66209473 -0.00095673 1.32418945 -0.00191345 2.00634766 -0.00289917 C3.40852961 -0.00358076 4.8107147 -0.00172792 6.21289062 0.00244141 C8.36595713 0.00779004 10.51881502 0.0024958 12.671875 -0.00390625 C14.03125046 -0.00324546 15.3906258 -0.00196429 16.75 0 C18.61785156 0.00169189 18.61785156 0.00169189 20.5234375 0.00341797 C23.375 0.1328125 23.375 0.1328125 24.375 1.1328125 C24.47399561 2.93790623 24.50299151 4.74688178 24.50439453 6.5546875 C24.50754669 7.71258789 24.51069885 8.87048828 24.51394653 10.06347656 C24.5119223 11.32385742 24.50989807 12.58423828 24.5078125 13.8828125 C24.50876923 15.16639648 24.50972595 16.44998047 24.51071167 17.77246094 C24.51218831 20.49285074 24.51003519 23.21320775 24.50537109 25.93359375 C24.49967381 29.42765919 24.50295299 32.92164783 24.50894356 36.41571045 C24.51341754 39.73808403 24.51028885 43.06043673 24.5078125 46.3828125 C24.50983673 47.64319336 24.51186096 48.90357422 24.51394653 50.20214844 C24.50921829 51.93899902 24.50921829 51.93899902 24.50439453 53.7109375 C24.50359894 54.73606445 24.50280334 55.76119141 24.50198364 56.81738281 C24.375 59.1328125 24.375 59.1328125 23.375 60.1328125 C21.15644736 60.22064792 18.93511504 60.23975859 16.71484375 60.23046875 C15.71814415 60.22834633 15.71814415 60.22834633 14.7013092 60.22618103 C12.57166101 60.22056768 10.44211661 60.20801304 8.3125 60.1953125 C6.87174631 60.19029921 5.43099097 60.18573601 3.99023438 60.18164062 C0.45178898 60.17059395 -3.08659539 60.15332042 -6.625 60.1328125 C-6.625 59.1428125 -6.625 58.1528125 -6.625 57.1328125 C-6.295 57.4628125 -5.965 57.7928125 -5.625 58.1328125 C3.615 58.1328125 12.855 58.1328125 22.375 58.1328125 C22.375 39.6528125 22.375 21.1728125 22.375 2.1328125 C20.065 1.8028125 17.755 1.4728125 15.375 1.1328125 C15.375 2.1228125 15.375 3.1128125 15.375 4.1328125 C9.70833333 4.1328125 4.04166667 4.1328125 -1.625 4.1328125 C-1.955 11.3928125 -2.285 18.6528125 -2.625 26.1328125 C5.295 26.1328125 13.215 26.1328125 21.375 26.1328125 C21.375 26.7928125 21.375 27.4528125 21.375 28.1328125 C13.455 28.1328125 5.535 28.1328125 -2.625 28.1328125 C-2.625 29.1228125 -2.625 30.1128125 -2.625 31.1328125 C-0.975 31.1328125 0.675 31.1328125 2.375 31.1328125 C2.375 31.7928125 2.375 32.4528125 2.375 33.1328125 C0.725 33.1328125 -0.925 33.1328125 -2.625 33.1328125 C-2.625 33.7928125 -2.625 34.4528125 -2.625 35.1328125 C0.345 35.1328125 3.315 35.1328125 6.375 35.1328125 C6.375 35.7928125 6.375 36.4528125 6.375 37.1328125 C3.405 37.1328125 0.435 37.1328125 -2.625 37.1328125 C-2.563125 38.0609375 -2.50125 38.9890625 -2.4375 39.9453125 C-2.625 43.1328125 -2.625 43.1328125 -4 45.0078125 C-5.625 46.1328125 -5.625 46.1328125 -7.625 46.1328125 C-7.65027062 39.74244019 -7.66783317 33.35208067 -7.67993164 26.96166992 C-7.68497308 24.78588377 -7.69180607 22.61010103 -7.70043945 20.43432617 C-7.71251338 17.31428183 -7.71823005 14.19428212 -7.72265625 11.07421875 C-7.72781754 10.09505997 -7.73297882 9.11590118 -7.73829651 8.10707092 C-7.73837204 7.20621262 -7.73844757 6.30535431 -7.73852539 5.37719727 C-7.740746 4.57999771 -7.74296661 3.78279816 -7.74525452 2.96144104 C-7.46275374 -1.33435586 -3.44059064 0.00311648 0 0 Z " fill="#A3B0C2" transform="translate(35.625,1.8671875)"/>
<path d="M0 0 C0.66209473 -0.00095673 1.32418945 -0.00191345 2.00634766 -0.00289917 C3.40852961 -0.00358076 4.8107147 -0.00172792 6.21289062 0.00244141 C8.36595713 0.00779004 10.51881502 0.0024958 12.671875 -0.00390625 C14.03125046 -0.00324546 15.3906258 -0.00196429 16.75 0 C18.61785156 0.00169189 18.61785156 0.00169189 20.5234375 0.00341797 C23.375 0.1328125 23.375 0.1328125 24.375 1.1328125 C24.47399561 2.93790623 24.50299151 4.74688178 24.50439453 6.5546875 C24.50754669 7.71258789 24.51069885 8.87048828 24.51394653 10.06347656 C24.5119223 11.32385742 24.50989807 12.58423828 24.5078125 13.8828125 C24.50876923 15.16639648 24.50972595 16.44998047 24.51071167 17.77246094 C24.51218831 20.49285074 24.51003519 23.21320775 24.50537109 25.93359375 C24.49967381 29.42765919 24.50295299 32.92164783 24.50894356 36.41571045 C24.51341754 39.73808403 24.51028885 43.06043673 24.5078125 46.3828125 C24.50983673 47.64319336 24.51186096 48.90357422 24.51394653 50.20214844 C24.50921829 51.93899902 24.50921829 51.93899902 24.50439453 53.7109375 C24.50359894 54.73606445 24.50280334 55.76119141 24.50198364 56.81738281 C24.375 59.1328125 24.375 59.1328125 23.375 60.1328125 C21.15644736 60.22064792 18.93511504 60.23975859 16.71484375 60.23046875 C15.71814415 60.22834633 15.71814415 60.22834633 14.7013092 60.22618103 C12.57166101 60.22056768 10.44211661 60.20801304 8.3125 60.1953125 C6.87174631 60.19029921 5.43099097 60.18573601 3.99023438 60.18164062 C0.45178898 60.17059395 -3.08659539 60.15332042 -6.625 60.1328125 C-6.625 59.1428125 -6.625 58.1528125 -6.625 57.1328125 C-6.295 57.4628125 -5.965 57.7928125 -5.625 58.1328125 C3.615 58.1328125 12.855 58.1328125 22.375 58.1328125 C22.375 39.6528125 22.375 21.1728125 22.375 2.1328125 C20.065 1.8028125 17.755 1.4728125 15.375 1.1328125 C15.375 2.1228125 15.375 3.1128125 15.375 4.1328125 C10.755 4.1328125 6.135 4.1328125 1.375 4.1328125 C1.375 3.1428125 1.375 2.1528125 1.375 1.1328125 C-0.935 1.4628125 -3.245 1.7928125 -5.625 2.1328125 C-5.955 16.6528125 -6.285 31.1728125 -6.625 46.1328125 C-6.955 46.1328125 -7.285 46.1328125 -7.625 46.1328125 C-7.65027062 39.74244019 -7.66783317 33.35208067 -7.67993164 26.96166992 C-7.68497308 24.78588377 -7.69180607 22.61010103 -7.70043945 20.43432617 C-7.71251338 17.31428183 -7.71823005 14.19428212 -7.72265625 11.07421875 C-7.72781754 10.09505997 -7.73297882 9.11590118 -7.73829651 8.10707092 C-7.73837204 7.20621262 -7.73844757 6.30535431 -7.73852539 5.37719727 C-7.740746 4.57999771 -7.74296661 3.78279816 -7.74525452 2.96144104 C-7.46275374 -1.33435586 -3.44059064 0.00311648 0 0 Z " fill="#2B2E33" transform="translate(35.625,1.8671875)"/>
<path d="M0 0 C0.495 1.98 0.495 1.98 1 4 C-0.24716797 5.13888672 -0.24716797 5.13888672 -1.51953125 6.30078125 C-2.61722075 7.30465114 -3.71487516 8.3085594 -4.8125 9.3125 C-5.63331055 10.06176758 -5.63331055 10.06176758 -6.47070312 10.82617188 C-9.55572902 13.60295389 -9.55572902 13.60295389 -12.36328125 16.65039062 C-14.64593068 18.53262303 -16.17789242 18.34373597 -19.10546875 18.29296875 C-20.08837891 18.28330078 -21.07128906 18.27363281 -22.08398438 18.26367188 C-23.10814453 18.23853516 -24.13230469 18.21339844 -25.1875 18.1875 C-26.22326172 18.17396484 -27.25902344 18.16042969 -28.32617188 18.14648438 C-30.88433612 18.11111805 -33.44223329 18.05731096 -36 18 C-36 13.05 -36 8.1 -36 3 C-34.68 3 -33.36 3 -32 3 C-31.67 6.3 -31.34 9.6 -31 13 C-20.66226911 14.43737907 -20.66226911 14.43737907 -11.37109375 10.62109375 C-8.36108808 7.94816933 -5.69933145 4.98135115 -3 2 C-2.01 1.34 -1.02 0.68 0 0 Z " fill="#F1BAA1" transform="translate(40,44)"/>
<path d="M0 0 C0.66 0.33 1.32 0.66 2 1 C1.67 1.66 1.34 2.32 1 3 C4.29164829 3.02895225 7.58326399 3.0467823 10.875 3.0625 C11.81214844 3.07087891 12.74929687 3.07925781 13.71484375 3.08789062 C14.61074219 3.09111328 15.50664063 3.09433594 16.4296875 3.09765625 C17.25710449 3.10289307 18.08452148 3.10812988 18.93701172 3.11352539 C21.06411757 3.13352138 21.06411757 3.13352138 23 2 C23.04241723 4.33294775 23.04092937 6.66702567 23 9 C22 10 22 10 19.31616211 10.11352539 C18.14835205 10.10828857 16.98054199 10.10305176 15.77734375 10.09765625 C14.51728516 10.09443359 13.25722656 10.09121094 11.95898438 10.08789062 C10.61848891 10.07953403 9.27799412 10.07106907 7.9375 10.0625 C6.59310058 10.0574866 5.2486994 10.05292342 3.90429688 10.04882812 C0.60282059 10.03699488 -2.69856803 10.02050971 -6 10 C-6 6 -6 6 -4.6875 4.296875 C-4.130625 3.78640625 -3.57375 3.2759375 -3 2.75 C-2.1646875 1.96882813 -2.1646875 1.96882813 -1.3125 1.171875 C-0.879375 0.78515625 -0.44625 0.3984375 0 0 Z " fill="#D4DDE7" transform="translate(36,51)"/>
<path d="M0 0 C4.62 0 9.24 0 14 0 C14 1.65 14 3.3 14 5 C14.66 5 15.32 5 16 5 C16 6.65 16 8.3 16 10 C10.06 10 4.12 10 -2 10 C-1.33333333 6.66666667 -0.66666667 3.33333333 0 0 Z " fill="#DDE9EF" transform="translate(37,18)"/>
<path d="M0 0 C4.62 0 9.24 0 14 0 C14 1.65 14 3.3 14 5 C9.38 5 4.76 5 0 5 C0 3.35 0 1.7 0 0 Z " fill="#FCB94E" transform="translate(37,18)"/>
<path d="M0 0 C4.29 0 8.58 0 13 0 C13 1.98 13 3.96 13 6 C9.37 6 5.74 6 2 6 C1.34 4.02 0.68 2.04 0 0 Z " fill="#31CD76" transform="translate(39,42)"/>
<path d="M0 0 C-1 3 -1 3 -4 5 C-4.27028374 8.71640139 -4.180933 11.457201 -3 15 C-4.65 14.67 -6.3 14.34 -8 14 C-8.35040695 10.59975479 -8.530811 7.38657418 -8 4 C-3.61904762 0 -3.61904762 0 0 0 Z " fill="#F2BBA2" transform="translate(28,37)"/>
<path d="M0 0 C2.8203125 -0.29296875 2.8203125 -0.29296875 6.125 -0.1875 C7.76855469 -0.14689453 7.76855469 -0.14689453 9.4453125 -0.10546875 C10.28835937 -0.07066406 11.13140625 -0.03585938 12 0 C12 0.99 12 1.98 12 3 C7.38 3 2.76 3 -2 3 C-1.34 2.01 -0.68 1.02 0 0 Z " fill="#DBE3EC" transform="translate(40,48)"/>
<path d="M0 0 C0.99 0 1.98 0 3 0 C3.33 1.65 3.66 3.3 4 5 C2.35 5 0.7 5 -1 5 C-0.67 3.35 -0.34 1.7 0 0 Z " fill="#C4D5DD" transform="translate(36,23)"/>
</svg>
