<svg xmlns="http://www.w3.org/2000/svg" width="71" height="60" viewBox="0 0 71 60">
  <g id="pf5" transform="translate(0 -34.019)">
    <g id="Group_868" data-name="Group 868" transform="translate(49.08 34.019)">
      <g id="Group_867" data-name="Group 867" transform="translate(0 0)">
        <path id="Path_2925" data-name="Path 2925" d="M304.207,34.019a9.841,9.841,0,0,0,0,19.681,9.886,9.886,0,0,0,9.875-9.875A9.786,9.786,0,0,0,304.207,34.019Zm0,17.517a7.677,7.677,0,1,1,7.71-7.643A7.707,7.707,0,0,1,304.207,51.536Z" transform="translate(-294.4 -34.019)" fill="#04e2a3"/>
      </g>
    </g>
    <g id="Group_870" data-name="Group 870" transform="translate(55.708 37.468)">
      <g id="Group_869" data-name="Group 869">
        <path id="Path_2926" data-name="Path 2926" d="M339.89,62.332a1.767,1.767,0,0,0-.2-.541,1.7,1.7,0,0,0-.271-.473c-.135-.135-.2-.271-.338-.406a1.213,1.213,0,0,0-.473-.338,1.7,1.7,0,0,0-.473-.271c-.2-.068-.338-.2-.541-.271a4.661,4.661,0,0,1-.541-.2.513.513,0,0,1-.271-.135c-.068-.068-.2-.068-.271-.135s-.2-.068-.271-.135l-.2-.2a.351.351,0,0,1-.135-.271.407.407,0,0,1-.068-.271v-.338c0-.068.068-.2.068-.271.068-.068.068-.2.135-.271l.2-.2a.517.517,0,0,1,.338-.135.61.61,0,0,1,.338-.068h.406a.61.61,0,0,1,.338.068,2.928,2.928,0,0,1,.338.068c.068,0,.2.068.271.068.135,0,.2.068.271.068l.338.135.068-.406.135-1.082v-.271l-.271-.068c-.068,0-.2-.068-.271-.068s-.135-.068-.271-.068a2.93,2.93,0,0,0-.338-.068c-.135,0-.2-.068-.338-.068h-.068V54.419H335.9v1.353h-.068a2.4,2.4,0,0,0-.609.271,1.213,1.213,0,0,0-.473.338,2.939,2.939,0,0,0-.406.473,1.359,1.359,0,0,0-.271.541l-.2.609a2.3,2.3,0,0,0-.068.676,1.489,1.489,0,0,0,.068.541,1.767,1.767,0,0,0,.2.541c.068.135.2.338.271.473.135.135.2.271.338.406a1.213,1.213,0,0,0,.473.338,1.7,1.7,0,0,0,.473.271,4.016,4.016,0,0,1,.541.271,4.66,4.66,0,0,1,.541.2.513.513,0,0,1,.271.135c.068.068.2.068.271.135s.135.135.2.135l.2.2c.068.068.068.135.135.271a2.929,2.929,0,0,1,.068.338v.338a.513.513,0,0,1-.135.271l-.2.2a.933.933,0,0,1-.271.2c-.068.068-.2.068-.271.135a2.93,2.93,0,0,1-.338.068h-.879a2.93,2.93,0,0,1-.338-.068.961.961,0,0,1-.406-.135c-.135-.068-.271-.068-.406-.135-.068,0-.135-.068-.2-.068s-.135-.068-.2-.068l-.406-.2-.068.473-.135,1.217v.2l.2.068a.9.9,0,0,1,.609.068,1.254,1.254,0,0,0,.473.135c.135.068.338.068.541.135a1.489,1.489,0,0,0,.541.068h.135V67.2h1.623v-1.42h.068a2.4,2.4,0,0,0,.609-.271,2.373,2.373,0,0,0,.541-.338,2.941,2.941,0,0,0,.406-.473,3.778,3.778,0,0,0,.338-.541l.2-.609a2.085,2.085,0,0,0,.068-.676A1.489,1.489,0,0,0,339.89,62.332Z" transform="translate(-333.6 -54.419)" fill="#04e2a3"/>
      </g>
    </g>
    <g id="Group_872" data-name="Group 872" transform="translate(11.294 54.481)">
      <g id="Group_871" data-name="Group 871">
        <path id="Path_2927" data-name="Path 2927" d="M111.76,155.983a1.152,1.152,0,0,0-1.556-.2l-10.957,8.725-14.135-5.884a1.079,1.079,0,0,0-1.015.135l-15.15,10.821a1.081,1.081,0,0,0-.271,1.488.986.986,0,0,0,.879.473,1.091,1.091,0,0,0,.609-.2l14.677-10.483,14.2,5.884a1.217,1.217,0,0,0,1.082-.135l11.43-9.063A1.152,1.152,0,0,0,111.76,155.983Z" transform="translate(-68.489 -155.569)" fill="#04e2a3"/>
      </g>
    </g>
    <g id="Group_874" data-name="Group 874" transform="translate(0 59.458)">
      <g id="Group_873" data-name="Group 873" transform="translate(0)">
        <path id="Path_2928" data-name="Path 2928" d="M69.989,218.016H65.033V186.7a1.063,1.063,0,0,0-1.072-1.082H54.116a1.063,1.063,0,0,0-1.072,1.082v31.314H49.428V197.523a1.063,1.063,0,0,0-1.072-1.082H38.444a1.063,1.063,0,0,0-1.072,1.082v20.493H33.755V195.9a1.063,1.063,0,0,0-1.072-1.082H22.839a1.063,1.063,0,0,0-1.072,1.082v22.116H18.15V202.257a1.063,1.063,0,0,0-1.072-1.082H7.166a1.063,1.063,0,0,0-1.072,1.082v15.759H1.072a1.082,1.082,0,0,0,0,2.164h68.85a1.063,1.063,0,0,0,1.072-1.082A.973.973,0,0,0,69.989,218.016Zm-54.049,0h-7.7V203.339h7.7Zm15.672,0h-7.7V196.982h7.7Zm15.605,0h-7.7V198.6h7.7Zm15.672,0h-7.7V187.783h7.7Z" transform="translate(0 -185.619)" fill="#04e2a3"/>
      </g>
    </g>
  </g>
</svg>
