<svg xmlns="http://www.w3.org/2000/svg" width="70" height="60" viewBox="0 0 70 60">
  <path id="pf6" d="M104.888,133.954a4.371,4.371,0,1,1,4.4-4.371A4.388,4.388,0,0,1,104.888,133.954Zm.01-6.443a2.073,2.073,0,1,0,1.463,3.538,2.073,2.073,0,0,0-1.463-3.538Zm-24.959,6.443a4.371,4.371,0,1,1,4.4-4.371A4.388,4.388,0,0,1,79.938,133.954Zm.01-6.443a2.073,2.073,0,1,0,1.464.607A2.085,2.085,0,0,0,79.948,127.511Zm-2.964-5.281a5.083,5.083,0,0,1-4.311-2.352,4.854,4.854,0,0,1-.295-4.778,5.17,5.17,0,0,1,.777-1.188l.385-.438-11.194-27.4-3.34-2.4-.525.279a4.236,4.236,0,0,1-5.505-1.369,4.194,4.194,0,0,1,1.157-5.839A4.228,4.228,0,0,1,60.6,81.253l-.155.62,3.292,2.37,28.951,4.2.029-1.063a13.7,13.7,0,0,1,4.191-9.506A13.945,13.945,0,0,1,116.427,78l.672.669,3.184-3.167a1.161,1.161,0,0,1,1.635,0,1.145,1.145,0,0,1,0,1.625l-3.445,3.426.34.621a13.62,13.62,0,0,1,1.105,10.513,13.762,13.762,0,0,1-6.73,8.24l-.323.173-.122.345A17.086,17.086,0,0,1,98.73,111.687L76.311,114.6l-.047.011A2.688,2.688,0,0,0,74.4,116.2a2.636,2.636,0,0,0,.213,2.439,2.713,2.713,0,0,0,2.373,1.291H110a1.15,1.15,0,1,1,0,2.3Zm-1.406-9.863.71-.073c1.539-.157,3.12-.376,4.649-.587.706-.1,1.409-.195,2.107-.286l1.1-.143-3.176-10.9-10.4-.288Zm10.868-1.387L97.1,109.594l-1.542-8.814-12.182-.337ZM99.388,109.3l1-.267a14.862,14.862,0,0,0,8.528-6.065l1.122-1.67-2.01.2a14.318,14.318,0,0,1-1.436.073A13.9,13.9,0,0,1,99.281,99.5l-1.8-1.114Zm7.278-33.036a11.764,11.764,0,0,0-8.251,3.358,11.546,11.546,0,1,0,18.954,3.9l-.533-1.339-9.91,9.854a1.159,1.159,0,0,1-1.634,0l-4.214-4.189a1.153,1.153,0,0,1,1.634-1.626l3.4,3.378,9.345-9.293-.65-.668A11.234,11.234,0,0,0,106.666,76.267ZM82.7,98.14l12.452.344-.7-4.02-.074-.136A13.689,13.689,0,0,1,93.2,91.408l-.164-.6L80.017,88.921Zm-13.086-.362,10.675.295L77.52,88.559l-12.4-1.8ZM56.492,78.315a1.92,1.92,0,0,0-1.5,3.131,1.977,1.977,0,0,0,1.509.708h0a1.919,1.919,0,1,0-.007-3.838Z" transform="translate(-52.257 -73.954)" fill="#0472fa" fill-rule="evenodd"/>
</svg>
