<?xml version="1.0" encoding="UTF-8"?>
<svg version="1.1" xmlns="http://www.w3.org/2000/svg" width="64" height="64">
<path d="M0 0 C1.15757813 -0.00257812 2.31515625 -0.00515625 3.5078125 -0.0078125 C4.72210938 -0.00007812 5.93640625 0.00765625 7.1875 0.015625 C8.40179687 0.00789062 9.61609375 0.00015625 10.8671875 -0.0078125 C12.60355469 -0.00394531 12.60355469 -0.00394531 14.375 0 C15.44105469 0.00225586 16.50710937 0.00451172 17.60546875 0.00683594 C20.1875 0.265625 20.1875 0.265625 22.1875 2.265625 C22.44146729 4.31494141 22.44146729 4.31494141 22.44628906 6.8671875 C22.45259338 7.82157715 22.45889771 8.7759668 22.46539307 9.75927734 C22.4613446 10.79262207 22.45729614 11.8259668 22.453125 12.890625 C22.45503845 13.94846191 22.4569519 15.00629883 22.45892334 16.09619141 C22.46028602 18.33561439 22.45658382 20.57504526 22.44824219 22.81445312 C22.43754402 26.25148177 22.44813488 29.6879877 22.4609375 33.125 C22.45961592 35.29687616 22.45705356 37.46875199 22.453125 39.640625 C22.45717346 40.67396973 22.46122192 41.70731445 22.46539307 42.77197266 C22.45908875 43.7263623 22.45278442 44.68075195 22.44628906 45.6640625 C22.44390228 46.92742432 22.44390228 46.92742432 22.44146729 48.21630859 C22.1875 50.265625 22.1875 50.265625 20.1875 52.265625 C17.60546875 52.52441406 17.60546875 52.52441406 14.375 52.53125 C13.21742187 52.53382812 12.05984375 52.53640625 10.8671875 52.5390625 C9.65289063 52.53132813 8.43859375 52.52359375 7.1875 52.515625 C5.97320312 52.52335937 4.75890625 52.53109375 3.5078125 52.5390625 C1.77144531 52.53519531 1.77144531 52.53519531 0 52.53125 C-1.59908203 52.52786621 -1.59908203 52.52786621 -3.23046875 52.52441406 C-5.8125 52.265625 -5.8125 52.265625 -7.8125 50.265625 C-8.06646729 48.21630859 -8.06646729 48.21630859 -8.07128906 45.6640625 C-8.07759338 44.70967285 -8.08389771 43.7552832 -8.09039307 42.77197266 C-8.0863446 41.73862793 -8.08229614 40.7052832 -8.078125 39.640625 C-8.08003845 38.58278809 -8.0819519 37.52495117 -8.08392334 36.43505859 C-8.08528602 34.19563561 -8.08158382 31.95620474 -8.07324219 29.71679688 C-8.06254402 26.27976823 -8.07313488 22.8432623 -8.0859375 19.40625 C-8.08461592 17.23437384 -8.08205356 15.06249801 -8.078125 12.890625 C-8.08419769 11.34060791 -8.08419769 11.34060791 -8.09039307 9.75927734 C-8.08408875 8.8048877 -8.07778442 7.85049805 -8.07128906 6.8671875 C-8.06969788 6.02494629 -8.06810669 5.18270508 -8.06646729 4.31494141 C-7.46746027 -0.51857451 -4.01256734 0.00849092 0 0 Z M2.1875 2.265625 C2.5175 2.925625 2.8475 3.585625 3.1875 4.265625 C5.8275 4.265625 8.4675 4.265625 11.1875 4.265625 C11.5175 3.605625 11.8475 2.945625 12.1875 2.265625 C8.8875 2.265625 5.5875 2.265625 2.1875 2.265625 Z M-1.8125 13.265625 C-1.9108721 14.59606125 -1.94328592 15.93155844 -1.9453125 17.265625 C-1.94660156 18.07 -1.94789063 18.874375 -1.94921875 19.703125 C-1.94535156 20.54875 -1.94148437 21.394375 -1.9375 22.265625 C-1.94136719 23.11125 -1.94523438 23.956875 -1.94921875 24.828125 C-1.94792969 25.6325 -1.94664062 26.436875 -1.9453125 27.265625 C-1.94418457 28.008125 -1.94305664 28.750625 -1.94189453 29.515625 C-2.00192216 31.29388311 -2.00192216 31.29388311 -0.8125 32.265625 C1.8648138 32.36543714 4.51054175 32.40442375 7.1875 32.390625 C8.31285156 32.39642578 8.31285156 32.39642578 9.4609375 32.40234375 C13.12356117 32.74238041 13.12356117 32.74238041 16.1875 31.265625 C16.2858721 29.93518875 16.31828592 28.59969156 16.3203125 27.265625 C16.32160156 26.46125 16.32289062 25.656875 16.32421875 24.828125 C16.31841797 23.5596875 16.31841797 23.5596875 16.3125 22.265625 C16.31636719 21.42 16.32023437 20.574375 16.32421875 19.703125 C16.32228516 18.4965625 16.32228516 18.4965625 16.3203125 17.265625 C16.31918457 16.523125 16.31805664 15.780625 16.31689453 15.015625 C16.37692216 13.23736689 16.37692216 13.23736689 15.1875 12.265625 C12.5101862 12.16581286 9.86445825 12.12682625 7.1875 12.140625 C6.43726563 12.13675781 5.68703125 12.13289063 4.9140625 12.12890625 C1.25143883 11.78886959 1.25143883 11.78886959 -1.8125 13.265625 Z M2.1875 41.265625 C2.1875 42.255625 2.1875 43.245625 2.1875 44.265625 C5.4875 44.265625 8.7875 44.265625 12.1875 44.265625 C12.1875 43.275625 12.1875 42.285625 12.1875 41.265625 C8.8875 41.265625 5.5875 41.265625 2.1875 41.265625 Z " fill="#A1D2FD" transform="translate(8.8125,10.734375)"/>
<path d="M0 0 C1.05960938 -0.00386719 2.11921875 -0.00773438 3.2109375 -0.01171875 C4.86996094 0.00568359 4.86996094 0.00568359 6.5625 0.0234375 C8.22152344 0.00603516 8.22152344 0.00603516 9.9140625 -0.01171875 C10.97367188 -0.00785156 12.03328125 -0.00398437 13.125 0 C14.58099609 0.00507568 14.58099609 0.00507568 16.06640625 0.01025391 C18.5625 0.3984375 18.5625 0.3984375 20.37744141 1.63818359 C21.88707003 3.88054503 21.94959229 5.26834075 21.9609375 7.9609375 C21.96673828 9.27964844 21.96673828 9.27964844 21.97265625 10.625 C21.96105469 11.54023438 21.94945313 12.45546875 21.9375 13.3984375 C21.94910156 14.31367188 21.96070312 15.22890625 21.97265625 16.171875 C21.96878906 17.05101563 21.96492188 17.93015625 21.9609375 18.8359375 C21.95755371 19.63902344 21.95416992 20.44210938 21.95068359 21.26953125 C21.47001461 23.905653 20.67688831 24.7952582 18.5625 26.3984375 C16.0390625 26.76953125 16.0390625 26.76953125 13.1875 26.8359375 C8.30148848 27.13166978 6.22466219 28.05940727 2.5625 31.3984375 C-0.25 31.6484375 -0.25 31.6484375 -2.4375 31.3984375 C-2.499375 30.8209375 -2.56125 30.2434375 -2.625 29.6484375 C-3.26194341 27.14297002 -3.26194341 27.14297002 -5.95703125 25.88671875 C-8.74921342 23.0857423 -8.82723821 22.50718848 -9.03125 18.73828125 C-9.02594891 16.93723667 -8.99379537 15.13610985 -8.9375 13.3359375 C-8.94136719 11.96985352 -8.94136719 11.96985352 -8.9453125 10.57617188 C-8.84847691 4.00587689 -8.84847691 4.00587689 -7.24804688 1.64038086 C-4.75981842 -0.0664177 -3.00312207 0.01046905 0 0 Z M1.5625 11.3984375 C1.22916667 14.3984375 1.22916667 14.3984375 1.5625 17.3984375 C3.44750271 19.71406837 3.44750271 19.71406837 6.5625 19.6484375 C9.67749729 19.71406837 9.67749729 19.71406837 11.5625 17.3984375 C11.89583333 14.3984375 11.89583333 14.3984375 11.5625 11.3984375 C9.67749729 9.08280663 9.67749729 9.08280663 6.5625 9.1484375 C3.44750271 9.08280663 3.44750271 9.08280663 1.5625 11.3984375 Z " fill="#A0D1FC" transform="translate(41.4375,0.6015625)"/>
<path d="M0 0 C1.15757813 -0.00257812 2.31515625 -0.00515625 3.5078125 -0.0078125 C4.72210938 -0.00007812 5.93640625 0.00765625 7.1875 0.015625 C8.40179687 0.00789062 9.61609375 0.00015625 10.8671875 -0.0078125 C12.60355469 -0.00394531 12.60355469 -0.00394531 14.375 0 C15.44105469 0.00225586 16.50710937 0.00451172 17.60546875 0.00683594 C20.1875 0.265625 20.1875 0.265625 22.1875 2.265625 C22.44146729 4.31494141 22.44146729 4.31494141 22.44628906 6.8671875 C22.45259338 7.82157715 22.45889771 8.7759668 22.46539307 9.75927734 C22.4613446 10.79262207 22.45729614 11.8259668 22.453125 12.890625 C22.45503845 13.94846191 22.4569519 15.00629883 22.45892334 16.09619141 C22.46028602 18.33561439 22.45658382 20.57504526 22.44824219 22.81445312 C22.43754402 26.25148177 22.44813488 29.6879877 22.4609375 33.125 C22.45961592 35.29687616 22.45705356 37.46875199 22.453125 39.640625 C22.45717346 40.67396973 22.46122192 41.70731445 22.46539307 42.77197266 C22.45908875 43.7263623 22.45278442 44.68075195 22.44628906 45.6640625 C22.44390228 46.92742432 22.44390228 46.92742432 22.44146729 48.21630859 C22.1875 50.265625 22.1875 50.265625 20.1875 52.265625 C17.60546875 52.52441406 17.60546875 52.52441406 14.375 52.53125 C13.21742187 52.53382812 12.05984375 52.53640625 10.8671875 52.5390625 C9.65289063 52.53132813 8.43859375 52.52359375 7.1875 52.515625 C5.97320312 52.52335937 4.75890625 52.53109375 3.5078125 52.5390625 C1.77144531 52.53519531 1.77144531 52.53519531 0 52.53125 C-1.59908203 52.52786621 -1.59908203 52.52786621 -3.23046875 52.52441406 C-5.8125 52.265625 -5.8125 52.265625 -7.8125 50.265625 C-8.06646729 48.21630859 -8.06646729 48.21630859 -8.07128906 45.6640625 C-8.07759338 44.70967285 -8.08389771 43.7552832 -8.09039307 42.77197266 C-8.0863446 41.73862793 -8.08229614 40.7052832 -8.078125 39.640625 C-8.08003845 38.58278809 -8.0819519 37.52495117 -8.08392334 36.43505859 C-8.08528602 34.19563561 -8.08158382 31.95620474 -8.07324219 29.71679688 C-8.06254402 26.27976823 -8.07313488 22.8432623 -8.0859375 19.40625 C-8.08461592 17.23437384 -8.08205356 15.06249801 -8.078125 12.890625 C-8.08419769 11.34060791 -8.08419769 11.34060791 -8.09039307 9.75927734 C-8.08408875 8.8048877 -8.07778442 7.85049805 -8.07128906 6.8671875 C-8.06969788 6.02494629 -8.06810669 5.18270508 -8.06646729 4.31494141 C-7.46746027 -0.51857451 -4.01256734 0.00849092 0 0 Z M-4.8125 2.265625 C-6.38550328 3.83862828 -5.93975504 5.40246545 -5.94189453 7.5859375 C-5.94504669 8.50358887 -5.94819885 9.42124023 -5.95144653 10.36669922 C-5.9494223 11.36459473 -5.94739807 12.36249023 -5.9453125 13.390625 C-5.94626923 14.40785645 -5.94722595 15.42508789 -5.94821167 16.47314453 C-5.94889361 18.62858136 -5.94703835 20.78402022 -5.94287109 22.93945312 C-5.93752305 26.25134871 -5.94281563 29.56310867 -5.94921875 32.875 C-5.94855797 34.96354197 -5.94727681 37.05208385 -5.9453125 39.140625 C-5.94733673 40.13852051 -5.94936096 41.13641602 -5.95144653 42.16455078 C-5.94829437 43.08220215 -5.94514221 43.99985352 -5.94189453 44.9453125 C-5.94109894 45.75726074 -5.94030334 46.56920898 -5.93948364 47.40576172 C-6.01614189 49.28108253 -6.01614189 49.28108253 -4.8125 50.265625 C-3.04390807 50.36508953 -1.27138549 50.39642717 0.5 50.3984375 C1.57507813 50.39972656 2.65015625 50.40101562 3.7578125 50.40234375 C4.88960937 50.39847656 6.02140625 50.39460938 7.1875 50.390625 C8.31929687 50.39449219 9.45109375 50.39835937 10.6171875 50.40234375 C11.69226563 50.40105469 12.76734375 50.39976563 13.875 50.3984375 C14.86886719 50.39730957 15.86273437 50.39618164 16.88671875 50.39501953 C19.15125226 50.5239683 19.15125226 50.5239683 20.1875 49.265625 C20.28045815 47.82272713 20.30496513 46.37532715 20.30102539 44.92944336 C20.30091209 43.54812477 20.30091209 43.54812477 20.30079651 42.13890076 C20.29563522 41.13786819 20.29047394 40.13683563 20.28515625 39.10546875 C20.28303383 37.57606407 20.28303383 37.57606407 20.28086853 36.01576233 C20.27525097 32.74485393 20.2626955 29.47401287 20.25 26.203125 C20.24498726 23.99153744 20.24042396 21.77994882 20.23632812 19.56835938 C20.22527584 14.13409143 20.20852063 8.69986303 20.1875 3.265625 C18.5375 2.935625 16.8875 2.605625 15.1875 2.265625 C14.1975 3.750625 14.1975 3.750625 13.1875 5.265625 C10.4375 5.6640625 10.4375 5.6640625 7.1875 5.640625 C5.57875 5.65222656 5.57875 5.65222656 3.9375 5.6640625 C3.03 5.53257813 2.1225 5.40109375 1.1875 5.265625 C0.5275 4.275625 -0.1325 3.285625 -0.8125 2.265625 C-2.1325 2.265625 -3.4525 2.265625 -4.8125 2.265625 Z M2.1875 2.265625 C2.5175 2.925625 2.8475 3.585625 3.1875 4.265625 C5.8275 4.265625 8.4675 4.265625 11.1875 4.265625 C11.5175 3.605625 11.8475 2.945625 12.1875 2.265625 C8.8875 2.265625 5.5875 2.265625 2.1875 2.265625 Z " fill="#274D80" transform="translate(8.8125,10.734375)"/>
<path d="M0 0 C1.05960938 -0.00386719 2.11921875 -0.00773438 3.2109375 -0.01171875 C4.86996094 0.00568359 4.86996094 0.00568359 6.5625 0.0234375 C8.22152344 0.00603516 8.22152344 0.00603516 9.9140625 -0.01171875 C10.97367188 -0.00785156 12.03328125 -0.00398437 13.125 0 C14.58099609 0.00507568 14.58099609 0.00507568 16.06640625 0.01025391 C18.5625 0.3984375 18.5625 0.3984375 20.37744141 1.63818359 C21.88707003 3.88054503 21.94959229 5.26834075 21.9609375 7.9609375 C21.96673828 9.27964844 21.96673828 9.27964844 21.97265625 10.625 C21.96105469 11.54023438 21.94945313 12.45546875 21.9375 13.3984375 C21.94910156 14.31367188 21.96070312 15.22890625 21.97265625 16.171875 C21.96878906 17.05101563 21.96492188 17.93015625 21.9609375 18.8359375 C21.95755371 19.63902344 21.95416992 20.44210938 21.95068359 21.26953125 C21.47001461 23.905653 20.67688831 24.7952582 18.5625 26.3984375 C16.0390625 26.76953125 16.0390625 26.76953125 13.1875 26.8359375 C8.30148848 27.13166978 6.22466219 28.05940727 2.5625 31.3984375 C-0.25 31.6484375 -0.25 31.6484375 -2.4375 31.3984375 C-2.499375 30.8209375 -2.56125 30.2434375 -2.625 29.6484375 C-3.26194341 27.14297002 -3.26194341 27.14297002 -5.95703125 25.88671875 C-8.74921342 23.0857423 -8.82723821 22.50718848 -9.03125 18.73828125 C-9.02594891 16.93723667 -8.99379537 15.13610985 -8.9375 13.3359375 C-8.94136719 11.96985352 -8.94136719 11.96985352 -8.9453125 10.57617188 C-8.84847691 4.00587689 -8.84847691 4.00587689 -7.24804688 1.64038086 C-4.75981842 -0.0664177 -3.00312207 0.01046905 0 0 Z M-6.4375 5.3984375 C-6.79027018 8.14710514 -6.94733426 10.58971951 -6.9375 13.3359375 C-6.96585938 14.05201172 -6.99421875 14.76808594 -7.0234375 15.50585938 C-7.08804805 17.90485425 -7.08804805 17.90485425 -6.4375 21.3984375 C-4.10220471 23.80612222 -4.10220471 23.80612222 -1.4375 25.3984375 C-0.125 27.6484375 -0.125 27.6484375 0.5625 29.3984375 C1.160625 28.7590625 1.75875 28.1196875 2.375 27.4609375 C6.37297905 24.87400988 9.36140217 24.87846307 14.0390625 24.76953125 C16.53621946 24.55753497 16.53621946 24.55753497 18.375 23.37109375 C20.26744272 20.22739779 19.99447677 16.9563205 19.9375 13.3984375 C19.94910156 12.67398437 19.96070312 11.94953125 19.97265625 11.203125 C20.00524563 7.20245052 20.00524563 7.20245052 18.32275391 3.69287109 C16.08011564 2.0437077 14.76711089 2.01165918 12 2 C11.12085937 1.99613281 10.24171875 1.99226562 9.3359375 1.98828125 C7.96308594 2.00568359 7.96308594 2.00568359 6.5625 2.0234375 C5.64726563 2.01183594 4.73203125 2.00023437 3.7890625 1.98828125 C2.47035156 1.99408203 2.47035156 1.99408203 1.125 2 C0.32191406 2.00338379 -0.48117188 2.00676758 -1.30859375 2.01025391 C-3.97216767 2.49592851 -4.85141659 3.22691004 -6.4375 5.3984375 Z " fill="#294F82" transform="translate(41.4375,0.6015625)"/>
<path d="M0 0 C0.89460937 -0.00128906 1.78921875 -0.00257812 2.7109375 -0.00390625 C3.65195313 -0.00003906 4.59296875 0.00382812 5.5625 0.0078125 C6.97402344 0.00201172 6.97402344 0.00201172 8.4140625 -0.00390625 C9.75597656 -0.00197266 9.75597656 -0.00197266 11.125 0 C11.95128906 0.00112793 12.77757813 0.00225586 13.62890625 0.00341797 C15.5625 0.1328125 15.5625 0.1328125 16.5625 1.1328125 C16.6616657 2.75538794 16.69329777 4.38221081 16.6953125 6.0078125 C16.69724609 7.48507813 16.69724609 7.48507813 16.69921875 8.9921875 C16.69535156 10.02859375 16.69148438 11.065 16.6875 12.1328125 C16.69330078 13.68742187 16.69330078 13.68742187 16.69921875 15.2734375 C16.69792969 16.25828125 16.69664063 17.243125 16.6953125 18.2578125 C16.69418457 19.16789062 16.69305664 20.07796875 16.69189453 21.015625 C16.5625 23.1328125 16.5625 23.1328125 15.5625 24.1328125 C14.08597336 24.23162047 12.60482764 24.26360495 11.125 24.265625 C9.78308594 24.26755859 9.78308594 24.26755859 8.4140625 24.26953125 C7.47304688 24.26566406 6.53203125 24.26179688 5.5625 24.2578125 C4.15097656 24.26361328 4.15097656 24.26361328 2.7109375 24.26953125 C1.81632813 24.26824219 0.92171875 24.26695313 0 24.265625 C-0.82628906 24.26449707 -1.65257812 24.26336914 -2.50390625 24.26220703 C-4.4375 24.1328125 -4.4375 24.1328125 -5.4375 23.1328125 C-5.5366657 21.51023706 -5.56829777 19.88341419 -5.5703125 18.2578125 C-5.57160156 17.27296875 -5.57289063 16.288125 -5.57421875 15.2734375 C-5.57035156 14.23703125 -5.56648437 13.200625 -5.5625 12.1328125 C-5.56830078 10.57820313 -5.56830078 10.57820313 -5.57421875 8.9921875 C-5.57292969 8.00734375 -5.57164062 7.0225 -5.5703125 6.0078125 C-5.56918457 5.09773438 -5.56805664 4.18765625 -5.56689453 3.25 C-5.32940177 -0.63591927 -3.41460785 0.00466113 0 0 Z M-3.4375 3.1328125 C-3.5358721 4.46324875 -3.56828592 5.79874594 -3.5703125 7.1328125 C-3.57160156 7.9371875 -3.57289062 8.7415625 -3.57421875 9.5703125 C-3.57035156 10.4159375 -3.56648437 11.2615625 -3.5625 12.1328125 C-3.56636719 12.9784375 -3.57023438 13.8240625 -3.57421875 14.6953125 C-3.57292969 15.4996875 -3.57164063 16.3040625 -3.5703125 17.1328125 C-3.56918457 17.8753125 -3.56805664 18.6178125 -3.56689453 19.3828125 C-3.62692216 21.16107061 -3.62692216 21.16107061 -2.4375 22.1328125 C0.2398138 22.23262464 2.88554175 22.27161125 5.5625 22.2578125 C6.68785156 22.26361328 6.68785156 22.26361328 7.8359375 22.26953125 C11.49856117 22.60956791 11.49856117 22.60956791 14.5625 21.1328125 C14.6608721 19.80237625 14.69328592 18.46687906 14.6953125 17.1328125 C14.69660156 16.3284375 14.69789062 15.5240625 14.69921875 14.6953125 C14.69341797 13.426875 14.69341797 13.426875 14.6875 12.1328125 C14.69136719 11.2871875 14.69523437 10.4415625 14.69921875 9.5703125 C14.69728516 8.36375 14.69728516 8.36375 14.6953125 7.1328125 C14.69418457 6.3903125 14.69305664 5.6478125 14.69189453 4.8828125 C14.75192216 3.10455439 14.75192216 3.10455439 13.5625 2.1328125 C10.8851862 2.03300036 8.23945825 1.99401375 5.5625 2.0078125 C4.81226563 2.00394531 4.06203125 2.00007813 3.2890625 1.99609375 C-0.37356117 1.65605709 -0.37356117 1.65605709 -3.4375 3.1328125 Z " fill="#2A5083" transform="translate(10.4375,20.8671875)"/>
<path d="M0 0 C0.70125 0.00515625 1.4025 0.0103125 2.125 0.015625 C2.82625 0.01046875 3.5275 0.0053125 4.25 0 C6.125 0.265625 6.125 0.265625 8.125 2.265625 C8.77960854 8.70260902 7.68983487 11.91837269 4.125 17.265625 C1.8125 17.140625 1.8125 17.140625 -0.875 16.265625 C-4.17113995 11.60556507 -4.33308039 7.76258974 -3.875 2.265625 C-1.875 0.265625 -1.875 0.265625 0 0 Z " fill="#284F83" transform="translate(13.875,23.734375)"/>
<path d="M0 0 C2.64 0 5.28 0 8 0 C7.67 0.99 7.34 1.98 7 3 C7.825 3.70125 8.65 4.4025 9.5 5.125 C12 8 12 8 12.625 11 C11.77618008 15.0743356 10.32274404 16.54405875 7 19 C4 19.625 4 19.625 1 19 C-2.32274404 16.54405875 -3.77618008 15.0743356 -4.625 11 C-3.80695681 7.07339268 -2.00495843 5.55421467 1 3 C0.67 2.01 0.34 1.02 0 0 Z M-1 8 C-1.33333333 11 -1.33333333 11 -1 14 C0.88500271 16.31563087 0.88500271 16.31563087 4 16.25 C7.11499729 16.31563087 7.11499729 16.31563087 9 14 C9.33333333 11 9.33333333 11 9 8 C7.11499729 5.68436913 7.11499729 5.68436913 4 5.75 C0.88500271 5.68436913 0.88500271 5.68436913 -1 8 Z " fill="#2F5689" transform="translate(44,4)"/>
<path d="M0 0 C1.27875 0.00257812 2.5575 0.00515625 3.875 0.0078125 C5.15375 0.00523438 6.4325 0.00265625 7.75 0 C10.875 0.1328125 10.875 0.1328125 11.875 1.1328125 C12 3.6328125 12 3.6328125 11.875 6.1328125 C10.875 7.1328125 10.875 7.1328125 7.75 7.265625 C6.47125 7.26304688 5.1925 7.26046875 3.875 7.2578125 C2.59625 7.26039062 1.3175 7.26296875 0 7.265625 C-3.125 7.1328125 -3.125 7.1328125 -4.125 6.1328125 C-4.25 3.6328125 -4.25 3.6328125 -4.125 1.1328125 C-3.125 0.1328125 -3.125 0.1328125 0 0 Z M-1.125 2.1328125 C-1.125 3.1228125 -1.125 4.1128125 -1.125 5.1328125 C2.175 5.1328125 5.475 5.1328125 8.875 5.1328125 C8.875 4.1428125 8.875 3.1528125 8.875 2.1328125 C5.575 2.1328125 2.275 2.1328125 -1.125 2.1328125 Z " fill="#2D5486" transform="translate(12.125,49.8671875)"/>
<path d="M0 0 C1.67542976 0.28604898 3.34385343 0.61781233 5 1 C6.14947895 4.55293493 6.0868937 5.79976669 4.5625 9.3125 C3.7890625 10.6428125 3.7890625 10.6428125 3 12 C2.34 12 1.68 12 1 12 C-2.06476484 6.72860447 -2.06476484 6.72860447 -1.75 3.1875 C-1 1 -1 1 0 0 Z " fill="#92C1EE" transform="translate(14,26)"/>
<path d="M0 0 C0.66 0 1.32 0 2 0 C2 0.99 2 1.98 2 3 C2.99 3 3.98 3 5 3 C5 3.66 5 4.32 5 5 C3.35 5 1.7 5 0 5 C0 3.35 0 1.7 0 0 Z " fill="#274D80" transform="translate(47,11)"/>
</svg>
