<svg xmlns="http://www.w3.org/2000/svg" xmlns:xlink="http://www.w3.org/1999/xlink" width="66" zoomAndPan="magnify" viewBox="0 0 49.5 50.249999" height="67" preserveAspectRatio="xMidYMid meet" version="1.0"><defs><clipPath id="3fe7761253"><path d="M 0.117188 7 L 48.152344 7 L 48.152344 21 L 0.117188 21 Z M 0.117188 7 " clip-rule="nonzero"/></clipPath><clipPath id="fa6fb15f4c"><path d="M 0.117188 19 L 12 19 L 12 28 L 0.117188 28 Z M 0.117188 19 " clip-rule="nonzero"/></clipPath><clipPath id="35c6051c7e"><path d="M 37 19 L 48.152344 19 L 48.152344 28 L 37 28 Z M 37 19 " clip-rule="nonzero"/></clipPath><clipPath id="ef20f94c95"><path d="M 4 26 L 44 26 L 44 48.773438 L 4 48.773438 Z M 4 26 " clip-rule="nonzero"/></clipPath><clipPath id="463911fc2c"><path d="M 9 30 L 21 30 L 21 48.773438 L 9 48.773438 Z M 9 30 " clip-rule="nonzero"/></clipPath></defs><g clip-path="url(#3fe7761253)"><path fill="#5c3cbb" d="M 47.691406 20.84375 L 0.917969 20.84375 C 0.65625 20.84375 0.417969 20.710938 0.277344 20.492188 C 0.140625 20.273438 0.125 20 0.234375 19.765625 L 5.683594 8.324219 C 5.808594 8.0625 6.070312 7.894531 6.363281 7.894531 L 16.421875 7.894531 C 16.835938 7.894531 17.175781 8.230469 17.175781 8.648438 C 17.175781 9.066406 16.835938 9.402344 16.421875 9.402344 L 6.839844 9.402344 L 2.113281 19.335938 L 46.496094 19.335938 L 41.769531 9.402344 L 32.1875 9.402344 C 31.769531 9.402344 31.433594 9.066406 31.433594 8.648438 C 31.433594 8.230469 31.769531 7.894531 32.1875 7.894531 L 42.246094 7.894531 C 42.535156 7.894531 42.800781 8.0625 42.925781 8.324219 L 48.371094 19.765625 C 48.484375 20 48.46875 20.273438 48.328125 20.492188 C 48.191406 20.710938 47.949219 20.84375 47.691406 20.84375 Z M 47.691406 20.84375 " fill-opacity="1" fill-rule="evenodd"/></g><g clip-path="url(#fa6fb15f4c)"><path fill="#5c3cbb" d="M 5.679688 27.507812 L 5.507812 27.507812 C 2.5625 27.507812 0.164062 25.109375 0.164062 22.160156 L 0.164062 20.089844 C 0.164062 19.675781 0.5 19.335938 0.917969 19.335938 L 10.273438 19.335938 C 10.6875 19.335938 11.027344 19.675781 11.027344 20.089844 L 11.027344 22.160156 C 11.027344 25.109375 8.628906 27.507812 5.679688 27.507812 Z M 1.671875 20.84375 L 1.671875 22.160156 C 1.671875 24.277344 3.390625 26 5.507812 26 L 5.679688 26 C 7.796875 26 9.515625 24.277344 9.515625 22.160156 L 9.515625 20.84375 Z M 1.671875 20.84375 " fill-opacity="1" fill-rule="evenodd"/></g><path fill="#5c3cbb" d="M 15.035156 27.507812 L 14.863281 27.507812 C 11.914062 27.507812 9.515625 25.109375 9.515625 22.160156 L 9.515625 20.089844 C 9.515625 19.675781 9.855469 19.335938 10.269531 19.335938 L 19.625 19.335938 C 20.042969 19.335938 20.378906 19.675781 20.378906 20.089844 L 20.378906 22.160156 C 20.378906 25.109375 17.980469 27.507812 15.035156 27.507812 Z M 11.027344 20.84375 L 11.027344 22.160156 C 11.027344 24.277344 12.746094 26 14.863281 26 L 15.035156 26 C 17.148438 26 18.871094 24.277344 18.871094 22.160156 L 18.871094 20.84375 Z M 11.027344 20.84375 " fill-opacity="1" fill-rule="evenodd"/><path fill="#5c3cbb" d="M 24.390625 27.507812 L 24.21875 27.507812 C 21.269531 27.507812 18.871094 25.109375 18.871094 22.160156 L 18.871094 20.089844 C 18.871094 19.675781 19.210938 19.335938 19.625 19.335938 L 28.980469 19.335938 C 29.398438 19.335938 29.734375 19.675781 29.734375 20.089844 L 29.734375 22.160156 C 29.734375 25.109375 27.335938 27.507812 24.390625 27.507812 Z M 20.378906 20.84375 L 20.378906 22.160156 C 20.378906 24.277344 22.101562 26 24.21875 26 L 24.390625 26 C 26.503906 26 28.226562 24.277344 28.226562 22.160156 L 28.226562 20.84375 Z M 20.378906 20.84375 " fill-opacity="1" fill-rule="evenodd"/><path fill="#5c3cbb" d="M 33.742188 27.507812 L 33.574219 27.507812 C 30.625 27.507812 28.226562 25.109375 28.226562 22.160156 L 28.226562 20.089844 C 28.226562 19.675781 28.566406 19.335938 28.980469 19.335938 L 38.335938 19.335938 C 38.753906 19.335938 39.089844 19.675781 39.089844 20.089844 L 39.089844 22.160156 C 39.089844 25.109375 36.691406 27.507812 33.742188 27.507812 Z M 29.734375 20.84375 L 29.734375 22.160156 C 29.734375 24.277344 31.457031 26 33.574219 26 L 33.742188 26 C 35.859375 26 37.582031 24.277344 37.582031 22.160156 L 37.582031 20.84375 Z M 29.734375 20.84375 " fill-opacity="1" fill-rule="evenodd"/><g clip-path="url(#35c6051c7e)"><path fill="#5c3cbb" d="M 43.097656 27.507812 L 42.929688 27.507812 C 39.980469 27.507812 37.582031 25.109375 37.582031 22.160156 L 37.582031 20.089844 C 37.582031 19.675781 37.917969 19.335938 38.335938 19.335938 L 47.691406 19.335938 C 48.109375 19.335938 48.445312 19.675781 48.445312 20.089844 L 48.445312 22.160156 C 48.445312 25.109375 46.046875 27.507812 43.097656 27.507812 Z M 39.089844 20.84375 L 39.089844 22.160156 C 39.089844 24.277344 40.8125 26 42.929688 26 L 43.097656 26 C 45.214844 26 46.9375 24.277344 46.9375 22.160156 L 46.9375 20.84375 Z M 39.089844 20.84375 " fill-opacity="1" fill-rule="evenodd"/></g><g clip-path="url(#ef20f94c95)"><path fill="#5c3cbb" d="M 43.011719 49.105469 L 5.59375 49.105469 C 5.175781 49.105469 4.839844 48.765625 4.839844 48.347656 L 4.839844 26.835938 C 4.839844 26.421875 5.175781 26.082031 5.59375 26.082031 C 6.011719 26.082031 6.347656 26.421875 6.347656 26.835938 L 6.347656 47.59375 L 42.257812 47.59375 L 42.257812 26.835938 C 42.257812 26.421875 42.597656 26.082031 43.011719 26.082031 C 43.429688 26.082031 43.769531 26.421875 43.769531 26.835938 L 43.769531 48.347656 C 43.769531 48.765625 43.429688 49.105469 43.011719 49.105469 Z M 43.011719 49.105469 " fill-opacity="1" fill-rule="evenodd"/></g><g clip-path="url(#463911fc2c)"><path fill="#5c3cbb" d="M 19.777344 49.105469 L 10.722656 49.105469 C 10.308594 49.105469 9.96875 48.765625 9.96875 48.347656 L 9.96875 31.003906 C 9.96875 30.585938 10.308594 30.25 10.722656 30.25 L 19.777344 30.25 C 20.195312 30.25 20.53125 30.585938 20.53125 31.003906 L 20.53125 48.347656 C 20.53125 48.765625 20.195312 49.105469 19.777344 49.105469 Z M 11.480469 47.59375 L 19.023438 47.59375 L 19.023438 31.757812 L 11.480469 31.757812 Z M 11.480469 47.59375 " fill-opacity="1" fill-rule="evenodd"/></g><path fill="#5c3cbb" d="M 39.179688 43.679688 L 23.640625 43.679688 C 23.222656 43.679688 22.886719 43.34375 22.886719 42.925781 L 22.886719 31.003906 C 22.886719 30.585938 23.222656 30.25 23.640625 30.25 L 39.179688 30.25 C 39.597656 30.25 39.933594 30.585938 39.933594 31.003906 L 39.933594 42.925781 C 39.933594 43.34375 39.597656 43.679688 39.179688 43.679688 Z M 24.394531 42.171875 L 38.425781 42.171875 L 38.425781 31.757812 L 24.394531 31.757812 Z M 24.394531 42.171875 " fill-opacity="1" fill-rule="evenodd"/><path fill="#5c3cbb" d="M 24.304688 17.273438 C 21.996094 17.273438 19.828125 16.375 18.195312 14.746094 C 16.566406 13.117188 15.667969 10.953125 15.667969 8.648438 C 15.667969 6.34375 16.566406 4.179688 18.195312 2.550781 C 19.828125 0.921875 21.996094 0.0234375 24.304688 0.0234375 C 26.609375 0.0234375 28.78125 0.921875 30.410156 2.550781 C 32.042969 4.179688 32.941406 6.34375 32.941406 8.648438 C 32.941406 10.953125 32.042969 13.117188 30.410156 14.746094 C 28.78125 16.375 26.609375 17.273438 24.304688 17.273438 Z M 24.304688 1.53125 C 20.375 1.53125 17.175781 4.726562 17.175781 8.648438 C 17.175781 12.574219 20.375 15.765625 24.304688 15.765625 C 28.234375 15.765625 31.433594 12.574219 31.433594 8.648438 C 31.433594 4.726562 28.234375 1.53125 24.304688 1.53125 Z M 24.304688 1.53125 " fill-opacity="1" fill-rule="evenodd"/><path fill="#5c3cbb" d="M 22.96875 17.003906 C 22.96875 17.003906 22.964844 17.003906 22.964844 17.003906 C 22.546875 17 22.210938 16.660156 22.214844 16.242188 L 22.246094 12.25 C 22.25 11.835938 22.585938 11.503906 23 11.503906 C 23.003906 11.503906 23.003906 11.503906 23.007812 11.503906 C 23.421875 11.503906 23.757812 11.847656 23.753906 12.261719 L 23.722656 16.253906 C 23.722656 16.667969 23.382812 17.003906 22.96875 17.003906 Z M 22.96875 17.003906 " fill-opacity="1" fill-rule="evenodd"/><path fill="#5c3cbb" d="M 25.636719 17.003906 C 25.222656 17.003906 24.886719 16.667969 24.882812 16.253906 L 24.851562 12.261719 C 24.851562 11.847656 25.183594 11.503906 25.601562 11.503906 C 25.601562 11.503906 25.605469 11.503906 25.605469 11.503906 C 26.019531 11.503906 26.359375 11.835938 26.363281 12.25 L 26.390625 16.242188 C 26.394531 16.660156 26.058594 17 25.644531 17.003906 C 25.640625 17.003906 25.640625 17.003906 25.636719 17.003906 Z M 25.636719 17.003906 " fill-opacity="1" fill-rule="evenodd"/><path fill="#5c3cbb" d="M 24.800781 13.144531 L 23.804688 13.144531 C 22.003906 13.144531 20.535156 11.675781 20.535156 9.875 L 20.535156 9.292969 C 20.535156 8.875 20.875 8.539062 21.292969 8.539062 L 27.316406 8.539062 C 27.734375 8.539062 28.070312 8.875 28.070312 9.292969 L 28.070312 9.875 C 28.070312 11.675781 26.605469 13.144531 24.800781 13.144531 Z M 22.054688 10.046875 C 22.140625 10.9375 22.894531 11.632812 23.804688 11.632812 L 24.800781 11.632812 C 25.714844 11.632812 26.464844 10.9375 26.554688 10.046875 Z M 22.054688 10.046875 " fill-opacity="1" fill-rule="evenodd"/><path fill="#5c3cbb" d="M 24.304688 10.046875 C 23.886719 10.046875 23.550781 9.710938 23.550781 9.292969 L 23.550781 4.804688 C 23.550781 4.386719 23.886719 4.050781 24.304688 4.050781 C 24.71875 4.050781 25.058594 4.386719 25.058594 4.804688 L 25.058594 9.292969 C 25.058594 9.710938 24.71875 10.046875 24.304688 10.046875 Z M 24.304688 10.046875 " fill-opacity="1" fill-rule="evenodd"/><path fill="#5c3cbb" d="M 21.292969 10.046875 C 20.875 10.046875 20.535156 9.710938 20.535156 9.292969 L 20.535156 4.804688 C 20.535156 4.386719 20.875 4.050781 21.292969 4.050781 C 21.707031 4.050781 22.046875 4.386719 22.046875 4.804688 L 22.046875 9.292969 C 22.046875 9.710938 21.707031 10.046875 21.292969 10.046875 Z M 21.292969 10.046875 " fill-opacity="1" fill-rule="evenodd"/><path fill="#5c3cbb" d="M 27.316406 10.046875 C 26.898438 10.046875 26.5625 9.710938 26.5625 9.292969 L 26.5625 4.804688 C 26.5625 4.386719 26.898438 4.050781 27.316406 4.050781 C 27.734375 4.050781 28.070312 4.386719 28.070312 4.804688 L 28.070312 9.292969 C 28.070312 9.710938 27.734375 10.046875 27.316406 10.046875 Z M 27.316406 10.046875 " fill-opacity="1" fill-rule="evenodd"/><path fill="#5c3cbb" d="M 29.550781 38.347656 L 26.867188 38.347656 C 26.449219 38.347656 26.109375 38.007812 26.109375 37.59375 C 26.109375 37.175781 26.449219 36.839844 26.867188 36.839844 L 29.550781 36.839844 C 29.96875 36.839844 30.304688 37.175781 30.304688 37.59375 C 30.304688 38.007812 29.96875 38.347656 29.550781 38.347656 Z M 29.550781 38.347656 " fill-opacity="1" fill-rule="evenodd"/><path fill="#5c3cbb" d="M 28.207031 43.679688 C 27.792969 43.679688 27.453125 43.34375 27.453125 42.925781 L 27.453125 37.59375 C 27.453125 37.175781 27.792969 36.839844 28.207031 36.839844 C 28.625 36.839844 28.964844 37.175781 28.964844 37.59375 L 28.964844 42.925781 C 28.964844 43.34375 28.625 43.679688 28.207031 43.679688 Z M 28.207031 43.679688 " fill-opacity="1" fill-rule="evenodd"/><path fill="#5c3cbb" d="M 35.957031 38.347656 L 33.269531 38.347656 C 32.851562 38.347656 32.515625 38.007812 32.515625 37.59375 C 32.515625 37.175781 32.851562 36.839844 33.269531 36.839844 L 35.957031 36.839844 C 36.371094 36.839844 36.710938 37.175781 36.710938 37.59375 C 36.710938 38.007812 36.371094 38.347656 35.957031 38.347656 Z M 35.957031 38.347656 " fill-opacity="1" fill-rule="evenodd"/><path fill="#5c3cbb" d="M 34.613281 43.679688 C 34.195312 43.679688 33.859375 43.34375 33.859375 42.925781 L 33.859375 37.59375 C 33.859375 37.175781 34.195312 36.839844 34.613281 36.839844 C 35.027344 36.839844 35.367188 37.175781 35.367188 37.59375 L 35.367188 42.925781 C 35.367188 43.34375 35.027344 43.679688 34.613281 43.679688 Z M 34.613281 43.679688 " fill-opacity="1" fill-rule="evenodd"/></svg>