<svg xmlns="http://www.w3.org/2000/svg" width="90" height="90" viewBox="0 0 90 90">
  <g id="aa" transform="translate(-0.148 -0.148)">
    <path id="Path_212" data-name="Path 212" d="M96.1,274.178c0,1.461-.539,3-2,3a3.291,3.291,0,0,1-3-3c0-1.461,1.539-2,3-2S96.1,272.717,96.1,274.178Zm0,0" transform="translate(-74.951 -224.03)" fill="#a7d3f6"/>
    <path id="Path_213" data-name="Path 213" d="M211.937,90.275c-.865.459-1,1.02-1,2v22c0,.98.135,1.541,1,2a3.167,3.167,0,0,0,3,0l16-11a2.5,2.5,0,0,0,0-4l-16-11A3.165,3.165,0,0,0,211.937,90.275Zm4,7,9,6-9,6Zm0,0" transform="translate(-173.788 -74.127)" fill="#a7d3f6"/>
    <path id="Path_214" data-name="Path 214" d="M88.148,10.148c1.461,0,2-.539,2-2s-.539-3-2-3h-40v-3c0-1.461-1.539-2-3-2s-3,.539-3,2v3h-40c-1.461,0-2,1.539-2,3s.539,2,2,2h3v48h-3c-1.461,0-2,1.539-2,3s.539,3,2,3h37l-16,21h-4a3.291,3.291,0,0,0-3,3c0,1.461,1.539,2,3,2h5a2.524,2.524,0,0,0,2-1l16-20v19c0,1.461,1.539,2,3,2s3-.539,3-2v-19l16,20a2.524,2.524,0,0,0,2,1h5c1.461,0,3-.539,3-2a3.291,3.291,0,0,0-3-3h-4l-16-21h37c1.461,0,2-1.539,2-3s-.539-3-2-3h-3v-48Zm-8,48h-70v-48h70Zm0,0" fill="#a7d3f6"/>
    <path id="Path_215" data-name="Path 215" d="M150.518,274.178a3.291,3.291,0,0,0,3,3h43c1.461,0,2-1.539,2-3s-.539-2-2-2h-43C152.057,272.178,150.518,272.717,150.518,274.178Zm0,0" transform="translate(-124.369 -224.03)" fill="#a7d3f6"/>
  </g>
</svg>
