<svg xmlns="http://www.w3.org/2000/svg" width="80" height="90.003" viewBox="0 0 80 90.003">
  <g id="aaaa" transform="translate(-29.928)">
    <g id="Group_330" data-name="Group 330" transform="translate(55.779 18.058)">
      <g id="Group_329" data-name="Group 329">
        <path id="Path_216" data-name="Path 216" d="M203.722,112.941a1.758,1.758,0,0,0-1.419-1.2l-7.647-1.109-3.422-6.929a1.758,1.758,0,0,0-1.576-.979h0a1.758,1.758,0,0,0-1.576.98l-3.418,6.93-7.647,1.113a1.758,1.758,0,0,0-.973,3l5.535,5.392-1.3,7.616a1.758,1.758,0,0,0,2.551,1.852l6.839-3.6,6.841,3.594a1.758,1.758,0,0,0,2.55-1.854l-1.308-7.616,5.532-5.4A1.759,1.759,0,0,0,203.722,112.941Zm-9.092,5.326a1.758,1.758,0,0,0-.505,1.556l.862,5.016-4.506-2.367a1.758,1.758,0,0,0-1.636,0l-4.5,2.37.859-5.017a1.758,1.758,0,0,0-.506-1.556l-3.645-3.552,5.037-.733a1.758,1.758,0,0,0,1.323-.962l2.251-4.565,2.254,4.563a1.758,1.758,0,0,0,1.324.961l5.037.731Z" transform="translate(-175.512 -102.728)" fill="#ffb99f"/>
      </g>
    </g>
    <g id="Group_332" data-name="Group 332" transform="translate(29.928 0)">
      <g id="Group_331" data-name="Group 331" transform="translate(0 0)">
        <path id="Path_217" data-name="Path 217" d="M109.692,77.236,95.067,51.962a31.71,31.71,0,0,0,7.063-19.969,32.2,32.2,0,0,0-64.4,0,31.709,31.709,0,0,0,7.063,19.969L30.163,77.236a1.749,1.749,0,0,0,.065,1.856,1.775,1.775,0,0,0,1.7.762l11.415-1.523,4.38,10.583A1.769,1.769,0,0,0,49.245,90q.059,0,.118,0a1.771,1.771,0,0,0,1.532-.879L65.66,63.718l.006-.012a32.493,32.493,0,0,0,8.524,0l.006.012L88.96,89.124A1.772,1.772,0,0,0,90.492,90q.059,0,.118,0a1.769,1.769,0,0,0,1.518-1.085l4.38-10.583,11.415,1.523a1.773,1.773,0,0,0,1.7-.762A1.751,1.751,0,0,0,109.692,77.236ZM49.631,84.269l-3.188-7.7L49.3,71.927a1.751,1.751,0,0,0-.584-2.417,1.776,1.776,0,0,0-2.433.58l-2.891,4.688-8.374,1.117L47.278,54.713A32.254,32.254,0,0,0,61.989,63Zm20.3-23.8A28.478,28.478,0,1,1,98.591,31.993,28.6,28.6,0,0,1,69.927,60.471ZM96.46,74.777,93.569,70.09a1.776,1.776,0,0,0-2.433-.58,1.751,1.751,0,0,0-.584,2.417l2.861,4.639-3.188,7.7L77.866,63a32.253,32.253,0,0,0,14.711-8.289l12.257,21.182Z" transform="translate(-29.928 0)" fill="#ffb99f"/>
      </g>
    </g>
    <g id="Group_334" data-name="Group 334" transform="translate(57.901 9.141)">
      <g id="Group_333" data-name="Group 333">
        <path id="Path_218" data-name="Path 218" d="M199.316,52a22.863,22.863,0,0,0-11.193,2.924,1.758,1.758,0,0,0,1.724,3.064,19.345,19.345,0,0,1,26.929,25.184,1.758,1.758,0,1,0,3.173,1.515,22.65,22.65,0,0,0,2.219-9.835A22.878,22.878,0,0,0,199.316,52Z" transform="translate(-187.227 -52)" fill="#ffb99f"/>
      </g>
    </g>
    <g id="Group_336" data-name="Group 336" transform="translate(83.363 44.931)">
      <g id="Group_335" data-name="Group 335">
        <path id="Path_219" data-name="Path 219" d="M334.868,256.095a1.758,1.758,0,0,0-2.486.037l-.039.04a1.758,1.758,0,1,0,2.515,2.456l.046-.048A1.758,1.758,0,0,0,334.868,256.095Z" transform="translate(-331.843 -255.598)" fill="#ffb99f"/>
      </g>
    </g>
    <g id="Group_338" data-name="Group 338" transform="translate(47.011 21.5)">
      <g id="Group_337" data-name="Group 337" transform="translate(0)">
        <path id="Path_220" data-name="Path 220" d="M160.554,150.439a1.758,1.758,0,0,0-2.388-.691,19.346,19.346,0,0,1-26.925-24.955,1.758,1.758,0,1,0-3.2-1.457,22.86,22.86,0,0,0,31.821,29.491A1.758,1.758,0,0,0,160.554,150.439Z" transform="translate(-125.996 -122.306)" fill="#ffb99f"/>
      </g>
    </g>
    <g id="Group_340" data-name="Group 340" transform="translate(52.592 15.859)">
      <g id="Group_339" data-name="Group 339">
        <path id="Path_221" data-name="Path 221" d="M160.975,90.688a1.758,1.758,0,0,0-2.484.088l-.039.042a1.758,1.758,0,1,0,2.581,2.388l.031-.033A1.758,1.758,0,0,0,160.975,90.688Z" transform="translate(-157.984 -90.216)" fill="#ffb99f"/>
      </g>
    </g>
  </g>
</svg>
