<svg id="android" xmlns="http://www.w3.org/2000/svg" width="28" height="32" viewBox="0 0 28 32">
  <path id="Path_71" data-name="Path 71" d="M38.437,153.884a1.83,1.83,0,0,0-1.345.553,1.81,1.81,0,0,0-.553,1.327v7.924a1.887,1.887,0,0,0,1.9,1.9,1.8,1.8,0,0,0,1.336-.553,1.846,1.846,0,0,0,.544-1.345v-7.924a1.888,1.888,0,0,0-1.879-1.879Z" transform="translate(-36.539 -143.251)" fill="#fff"/>
  <path id="Path_72" data-name="Path 72" d="M106.494,171.58a1.855,1.855,0,0,0,.661,1.437,2.337,2.337,0,0,0,1.612.589H110.3l.021,4.183a1.736,1.736,0,0,0,.62,1.345,2.158,2.158,0,0,0,1.488.553,2.186,2.186,0,0,0,1.509-.553,1.736,1.736,0,0,0,.62-1.345v-4.183h2.852v4.183a1.737,1.737,0,0,0,.62,1.345,2.335,2.335,0,0,0,3.017,0,1.736,1.736,0,0,0,.62-1.345v-4.183h1.55a2.308,2.308,0,0,0,1.591-.589,1.855,1.855,0,0,0,.661-1.437V159.308h-18.97Z" transform="translate(-101.979 -147.687)" fill="#fff"/>
  <path id="Path_73" data-name="Path 73" d="M119.594,2.819,121.06.4a.231.231,0,0,0-.1-.368.3.3,0,0,0-.413.111l-1.487,2.432a11.516,11.516,0,0,0-8.3,0L109.27.147a.3.3,0,0,0-.413-.111.23.23,0,0,0-.1.368l1.466,2.414a8.784,8.784,0,0,0-3.552,2.828,6.6,6.6,0,0,0-1.322,3.971h19.1a6.6,6.6,0,0,0-1.322-3.971A8.811,8.811,0,0,0,119.594,2.819Zm-8.476,3.51a.823.823,0,0,1-.568.212.787.787,0,0,1-.558-.212.679.679,0,0,1,0-1.014.787.787,0,0,1,.558-.212.823.823,0,0,1,.568.212.659.659,0,0,1,0,1.014Zm8.7,0a.788.788,0,0,1-.558.212.823.823,0,0,1-.568-.212.66.66,0,0,1,0-1.014.823.823,0,0,1,.568-.212.787.787,0,0,1,.558.212.679.679,0,0,1,0,1.014Z" transform="translate(-100.906 0.001)" fill="#fff"/>
  <path id="Path_74" data-name="Path 74" d="M383.228,154.428a1.847,1.847,0,0,0-1.345-.544,1.825,1.825,0,0,0-1.326.544,1.8,1.8,0,0,0-.553,1.336v7.924a1.831,1.831,0,0,0,.553,1.345,1.808,1.808,0,0,0,1.326.553,1.887,1.887,0,0,0,1.9-1.9v-7.924A1.8,1.8,0,0,0,383.228,154.428Z" transform="translate(-355.781 -143.251)" fill="#fff"/>
</svg>
