<svg xmlns="http://www.w3.org/2000/svg" width="25" height="30" viewBox="0 0 25 30">
  <g id="apple" transform="translate(-27.875)">
    <path id="XMLID_229_" d="M29.165,76.214c-2.586,4.378-.942,11.022,1.918,15.051,1.428,2.014,2.873,3.822,4.853,3.822l.113,0A6.11,6.11,0,0,0,38.3,94.5a6.292,6.292,0,0,1,2.668-.617,5.917,5.917,0,0,1,2.539.6,5.489,5.489,0,0,0,2.433.569c2.23-.041,3.6-1.991,4.807-3.712a16.281,16.281,0,0,0,2.106-4.208l.009-.027a.243.243,0,0,0-.133-.3l-.018-.008a6.257,6.257,0,0,1-3.873-5.71,6.4,6.4,0,0,1,3.109-5.366l.024-.015a.244.244,0,0,0,.11-.157.24.24,0,0,0-.039-.186,7.3,7.3,0,0,0-5.691-3.015c-.162-.016-.329-.024-.5-.024a10.122,10.122,0,0,0-3.572.87,5.851,5.851,0,0,1-1.711.5,5.705,5.705,0,0,1-1.77-.5,8.749,8.749,0,0,0-3.119-.773H35.6A7.678,7.678,0,0,0,29.165,76.214Z" transform="translate(0 -65.087)" fill="#292929"/>
    <path id="XMLID_230_" d="M155.5,0a6.965,6.965,0,0,0-4.6,2.359A6.525,6.525,0,0,0,149.25,7.2a.25.25,0,0,0,.228.216c.106.008.215.013.323.013a5.891,5.891,0,0,0,4.34-2.226A6.88,6.88,0,0,0,155.759.223.252.252,0,0,0,155.5,0Z" transform="translate(-109.152 0)" fill="#292929"/>
  </g>
</svg>
