<svg xmlns="http://www.w3.org/2000/svg" width="23.156" height="20.841" viewBox="0 0 23.156 20.841">
  <g id="cart" transform="translate(0 0)">
    <path id="Path_1" data-name="Path 1" d="M.857,22.921H3.312L6.81,35.4a.855.855,0,0,0,.828.62H18.389a.859.859,0,0,0,.785-.507l3.912-8.87a.845.845,0,0,0-.071-.8.854.854,0,0,0-.714-.38H10.423a.845.845,0,1,0,0,1.69H20.988l-3.17,7.181H8.281l-3.5-12.475a.855.855,0,0,0-.828-.62H.857a.845.845,0,1,0,0,1.69Z" transform="translate(0 -21.231)" fill="#fff"/>
    <path id="Path_2" data-name="Path 2" d="M98.852,365.136a1.952,1.952,0,1,0-1.952-1.952A1.954,1.954,0,0,0,98.852,365.136Z" transform="translate(-92.022 -344.295)" fill="#fff"/>
    <path id="Path_3" data-name="Path 3" d="M339.871,365.053h.144a2.019,2.019,0,1,0-.144,0Z" transform="translate(-320.932 -344.212)" fill="#fff"/>
  </g>
</svg>
