<svg xmlns="http://www.w3.org/2000/svg" width="171.762" height="121.405" viewBox="0 0 171.762 121.405">
  <g id="cta-icon1" transform="translate(0 0)">
    <g id="Path_767" data-name="Path 767" transform="translate(27.257 0) rotate(20)" fill="none">
      <path d="M.784,0,127.379,3.851l-.884,44.661L0,45.029Z" stroke="none"/>
      <path d="M 1.766395568847656 1.030345916748047 L 1.01708984375 44.05655288696289 L 125.5148315429688 47.48477935791016 L 126.3592224121094 4.820865631103516 L 1.766395568847656 1.030345916748047 M 0.7841873168945313 3.814697265625e-06 L 127.3786010742188 3.851421356201172 L 126.4946899414063 48.51213836669922 L 7.62939453125e-06 45.02892303466797 L 0.7841873168945313 3.814697265625e-06 Z" stroke="none" fill="#fff"/>
    </g>
    <path id="Path_768" data-name="Path 768" d="M0,0,126.594,3.851l11.362,31.216L11.288,31.014Z" transform="translate(11.994 41.268) rotate(20)" fill="#ffcb70"/>
    <path id="Path_769" data-name="Path 769" d="M3.02,0,14.8,31.1,11.053,75.5,0,45.451Z" transform="matrix(0.951, 0.309, -0.309, 0.951, 157.684, 43.208)" fill="#8ff5fc"/>
  </g>
</svg>
