<svg xmlns="http://www.w3.org/2000/svg" xmlns:xlink="http://www.w3.org/1999/xlink" width="82" zoomAndPan="magnify" viewBox="0 0 61.5 47.25" height="63" preserveAspectRatio="xMidYMid meet" version="1.0"><defs><clipPath id="5e5c215466"><path d="M 0.234375 29 L 12 29 L 12 32 L 0.234375 32 Z M 0.234375 29 " clip-rule="nonzero"/></clipPath><clipPath id="90e879663f"><path d="M 46 29 L 60.035156 29 L 60.035156 40 L 46 40 Z M 46 29 " clip-rule="nonzero"/></clipPath><clipPath id="4ecd2f1b25"><path d="M 0.234375 35 L 11 35 L 11 37 L 0.234375 37 Z M 0.234375 35 " clip-rule="nonzero"/></clipPath><clipPath id="48150c9869"><path d="M 17 45 L 48 45 L 48 46.511719 L 17 46.511719 Z M 17 45 " clip-rule="nonzero"/></clipPath></defs><path fill="#f86f6f" d="M 32.222656 6.355469 C 32.226562 6.382812 32.246094 6.398438 32.273438 6.398438 C 32.480469 6.40625 32.679688 6.382812 32.878906 6.4375 C 33.308594 6.554688 33.722656 6.71875 34.117188 6.929688 C 34.566406 7.167969 34.828125 7.460938 35.144531 7.851562 C 35.71875 8.570312 36.640625 8.796875 37.472656 8.398438 C 38.457031 7.921875 38.957031 6.792969 38.976562 5.726562 C 38.980469 5.367188 38.976562 5.011719 38.964844 4.65625 C 38.964844 4.65625 38.964844 4.652344 38.964844 4.652344 C 38.964844 4.636719 38.949219 4.625 38.933594 4.625 C 38.039062 4.753906 37.152344 4.898438 36.269531 5.054688 C 36.007812 5.101562 35.867188 5.152344 35.882812 5.445312 C 35.902344 5.832031 35.929688 6.222656 35.953125 6.613281 C 35.957031 6.644531 35.945312 6.652344 35.917969 6.640625 C 35.683594 6.53125 35.46875 6.394531 35.277344 6.230469 C 34.714844 5.753906 34.796875 4.835938 35.335938 4.421875 C 35.671875 4.15625 36.265625 4.058594 36.71875 3.996094 C 38.015625 3.824219 39.3125 3.65625 40.613281 3.492188 C 40.765625 3.472656 40.890625 3.429688 40.992188 3.363281 C 41.226562 3.207031 41.417969 3 41.5625 2.75 C 41.570312 2.734375 41.570312 2.726562 41.550781 2.726562 L 38.832031 2.710938 C 38.808594 2.710938 38.785156 2.703125 38.773438 2.679688 C 38.394531 2.132812 37.953125 1.710938 37.441406 1.421875 C 34.917969 -0.0117188 31.875 1.90625 32.089844 4.839844 C 32.136719 5.515625 32.179688 6.019531 32.222656 6.355469 Z M 32.222656 6.355469 " fill-opacity="1" fill-rule="nonzero"/><path fill="#f86f6f" d="M 17.53125 16.792969 C 19.195312 17.394531 20.859375 17.996094 22.523438 18.597656 C 23.070312 18.796875 23.457031 18.894531 23.683594 18.898438 C 24.207031 18.902344 24.65625 18.667969 25.023438 18.199219 C 25.035156 18.183594 25.054688 18.175781 25.078125 18.183594 L 26.46875 18.523438 C 26.492188 18.53125 26.5 18.546875 26.492188 18.570312 C 26.113281 19.652344 26.195312 20.640625 26.734375 21.53125 C 27.25 22.378906 28.085938 22.949219 29.078125 22.957031 C 30.996094 22.972656 33.941406 22.941406 37.914062 22.867188 C 37.9375 22.867188 37.953125 22.878906 37.953125 22.898438 C 38.445312 25.699219 39.070312 28.488281 39.617188 31.265625 C 39.632812 31.339844 39.671875 31.359375 39.746094 31.332031 L 41.960938 30.390625 C 42.015625 30.367188 42.050781 30.308594 42.050781 30.25 C 41.9375 27.542969 41.800781 24.835938 41.640625 22.128906 C 41.613281 21.628906 41.554688 21.265625 41.472656 21.035156 C 41.203125 20.285156 40.644531 19.832031 39.785156 19.671875 C 38.941406 19.511719 37.8125 19.46875 37.066406 19.390625 C 35.539062 19.234375 34.011719 19.082031 32.476562 18.9375 C 32.449219 18.9375 32.441406 18.921875 32.449219 18.898438 L 33.523438 16.179688 C 33.53125 16.160156 33.527344 16.140625 33.515625 16.125 L 32.382812 14.3125 C 32.355469 14.265625 32.296875 14.25 32.253906 14.277344 L 27.417969 17.003906 C 27.402344 17.015625 27.382812 17.019531 27.367188 17.015625 C 26.777344 16.910156 26.1875 16.800781 25.597656 16.683594 C 25.570312 16.679688 25.5625 16.667969 25.574219 16.640625 L 28.238281 9.964844 C 28.257812 9.917969 28.3125 9.890625 28.359375 9.90625 L 29.378906 10.1875 C 29.398438 10.195312 29.40625 10.207031 29.398438 10.230469 C 29.292969 10.546875 29.210938 10.773438 29.15625 10.90625 C 28.511719 12.523438 27.820312 14.191406 27.089844 15.910156 C 27.085938 15.917969 27.085938 15.921875 27.089844 15.925781 C 27.09375 15.933594 27.101562 15.9375 27.109375 15.933594 L 32.605469 12.90625 C 32.644531 12.886719 32.683594 12.898438 32.707031 12.929688 C 33.417969 14.023438 34.109375 15.113281 34.777344 16.203125 C 35.070312 16.683594 35.300781 16.996094 35.46875 17.140625 C 36.027344 17.625 36.570312 17.660156 37.316406 17.652344 C 38.6875 17.636719 40.054688 17.621094 41.425781 17.59375 C 41.453125 17.59375 41.464844 17.578125 41.464844 17.550781 C 41.421875 16.820312 41.695312 16.230469 42.085938 15.636719 C 42.089844 15.632812 42.089844 15.628906 42.089844 15.621094 C 42.09375 15.601562 42.082031 15.582031 42.058594 15.578125 L 37.335938 14.859375 C 37.316406 14.859375 37.300781 14.847656 37.292969 14.832031 C 36.609375 13.300781 35.953125 11.753906 35.320312 10.191406 C 35.140625 9.746094 34.957031 9.351562 34.765625 9.003906 C 33.757812 7.136719 31.5 7.253906 30.238281 8.753906 C 30.222656 8.773438 30.203125 8.78125 30.179688 8.773438 L 28.910156 8.417969 C 28.886719 8.410156 28.875 8.398438 28.878906 8.371094 C 29 7.734375 28.835938 7.226562 28.390625 6.851562 C 28.253906 6.734375 28.046875 6.628906 27.765625 6.527344 C 26.050781 5.910156 24.339844 5.292969 22.625 4.679688 C 21.792969 4.382812 21.226562 4.285156 20.542969 4.722656 C 20.207031 4.933594 20.054688 5.179688 19.917969 5.542969 C 19.804688 5.851562 19.585938 6.289062 19.441406 6.648438 C 18.429688 9.144531 17.425781 11.640625 16.433594 14.144531 C 16.269531 14.554688 16.179688 14.851562 16.167969 15.03125 C 16.105469 15.890625 16.746094 16.507812 17.53125 16.792969 Z M 20.691406 6.421875 L 21.019531 5.699219 C 21.03125 5.667969 21.066406 5.652344 21.097656 5.664062 L 26.890625 7.742188 C 26.917969 7.75 26.925781 7.769531 26.914062 7.792969 L 26.585938 8.53125 C 26.574219 8.554688 26.558594 8.5625 26.535156 8.554688 C 24.574219 7.90625 22.632812 7.210938 20.707031 6.460938 C 20.691406 6.453125 20.683594 6.4375 20.691406 6.421875 Z M 20.691406 6.421875 " fill-opacity="1" fill-rule="nonzero"/><path fill="#f86f6f" d="M 7.953125 11.804688 C 10.007812 12.0625 12.058594 12.261719 14.105469 12.410156 C 14.960938 12.46875 15.222656 11.308594 14.355469 11.203125 C 14.199219 11.183594 14.007812 11.238281 13.835938 11.246094 C 11.863281 11.34375 9.914062 11.542969 7.957031 11.777344 C 7.949219 11.777344 7.945312 11.785156 7.945312 11.792969 C 7.941406 11.800781 7.949219 11.804688 7.953125 11.804688 Z M 7.953125 11.804688 " fill-opacity="1" fill-rule="nonzero"/><path fill="#f86f6f" d="M 58.832031 34.304688 C 58.816406 34.277344 58.785156 34.261719 58.75 34.261719 C 56.53125 34.40625 54.285156 35.148438 52.335938 36.203125 C 50.773438 37.050781 49.390625 38.230469 48.1875 39.75 C 48.175781 39.769531 48.167969 39.785156 48.179688 39.808594 C 48.550781 40.785156 49.113281 41.625 49.871094 42.332031 C 50.140625 42.585938 50.480469 42.796875 50.804688 43.019531 C 50.828125 43.03125 50.824219 43.039062 50.796875 43.039062 C 48.144531 42.941406 45.496094 42.839844 42.847656 42.730469 C 41.9375 42.695312 41.257812 42.671875 40.800781 42.667969 C 35.796875 42.609375 30.78125 42.566406 25.777344 42.660156 C 25.597656 42.664062 25.429688 42.742188 25.234375 42.746094 C 25.191406 42.75 25.1875 42.738281 25.222656 42.710938 C 26.550781 41.828125 27.40625 40.605469 27.789062 39.046875 C 27.789062 39.046875 27.789062 39.042969 27.789062 39.039062 C 27.789062 39.023438 27.773438 39.007812 27.757812 39.007812 L 24.972656 39.046875 C 24.933594 39.046875 24.898438 39.070312 24.878906 39.105469 C 24.085938 40.425781 22.964844 41.15625 21.34375 40.890625 C 19.902344 40.652344 18.902344 39.523438 18.679688 38.105469 C 18.679688 38.101562 18.679688 38.097656 18.679688 38.09375 C 18.679688 38.0625 18.710938 38.03125 18.742188 38.03125 L 20.414062 38.027344 C 20.4375 38.027344 20.453125 38.039062 20.460938 38.0625 C 20.910156 39.488281 22.886719 39.558594 23.28125 38.078125 C 23.289062 38.054688 23.304688 38.042969 23.332031 38.042969 C 24.070312 38.035156 24.828125 38.054688 25.542969 38.007812 C 26.761719 37.933594 27.980469 37.847656 29.199219 37.753906 C 29.679688 37.71875 30.152344 37.699219 30.617188 37.703125 C 34.035156 37.707031 37.457031 37.707031 40.875 37.699219 C 41.539062 37.695312 42.007812 37.671875 42.28125 37.625 C 43.90625 37.34375 45.363281 36.234375 46.257812 34.886719 C 47.042969 33.699219 47.660156 32.402344 48.585938 31.335938 C 49.585938 30.183594 50.828125 29.386719 52.3125 28.945312 C 52.332031 28.941406 52.34375 28.929688 52.34375 28.90625 C 52.378906 28.296875 52.277344 27.769531 52.042969 27.335938 C 51.875 27.023438 51.449219 26.359375 50.753906 25.335938 C 49.976562 24.191406 49.175781 23.066406 48.410156 21.910156 C 47.734375 20.894531 47.042969 19.886719 46.335938 18.894531 C 46.335938 18.894531 46.335938 18.890625 46.335938 18.886719 C 46.335938 18.878906 46.339844 18.875 46.347656 18.875 C 47.066406 18.902344 47.792969 18.921875 48.523438 18.933594 C 48.730469 18.9375 48.882812 18.90625 48.972656 18.839844 C 49.105469 18.746094 49.183594 18.597656 49.21875 18.398438 C 49.425781 17.25 49.445312 16.152344 49.289062 15.101562 C 49.21875 14.625 49.140625 14.214844 48.597656 14.230469 C 47.292969 14.269531 46.113281 14.707031 44.921875 15.285156 C 44.914062 15.289062 44.910156 15.292969 44.90625 15.300781 C 44.894531 15.316406 44.898438 15.339844 44.917969 15.351562 C 45.589844 15.789062 45.929688 16.371094 45.9375 17.085938 C 45.953125 18.183594 45.289062 19.074219 44.230469 19.398438 C 44.203125 19.40625 44.191406 19.425781 44.195312 19.453125 C 44.210938 19.578125 44.296875 19.738281 44.324219 19.824219 C 44.75 21.171875 45.191406 22.523438 45.648438 23.863281 C 46.09375 25.171875 46.4375 26.210938 46.65625 27.375 C 46.941406 28.894531 46.550781 30.492188 45.753906 31.78125 C 44.816406 33.289062 43.53125 34.347656 41.789062 34.828125 C 41.386719 34.945312 41.050781 35 40.777344 35.007812 C 40.015625 35.027344 38.960938 35.027344 37.617188 35.011719 C 37 35.003906 36.527344 34.960938 36.203125 34.886719 C 33.945312 34.371094 32.457031 32.394531 32.609375 30.070312 C 32.648438 29.488281 32.8125 28.941406 33.097656 28.429688 C 33.867188 27.0625 35.027344 26.265625 36.585938 26.039062 C 36.589844 26.039062 36.59375 26.035156 36.597656 26.03125 C 36.621094 26.019531 36.625 25.992188 36.613281 25.972656 C 36.339844 25.503906 36.066406 25.042969 35.789062 24.578125 C 35.71875 24.457031 35.605469 24.3125 35.457031 24.140625 C 35.441406 24.125 35.417969 24.113281 35.394531 24.117188 C 33.453125 24.140625 31.507812 24.144531 29.566406 24.128906 C 28.078125 24.121094 26.8125 23.578125 25.960938 22.328125 C 25.828125 22.136719 25.703125 21.941406 25.578125 21.742188 C 25.566406 21.722656 25.546875 21.714844 25.527344 21.714844 C 24.171875 21.734375 22.820312 21.738281 21.464844 21.726562 C 20.476562 21.714844 19.980469 22.699219 20.332031 23.550781 C 20.40625 23.730469 20.535156 23.910156 20.730469 24.097656 C 21.15625 24.511719 21.636719 24.8125 22.097656 25.148438 C 22.105469 25.148438 22.105469 25.15625 22.109375 25.160156 C 22.109375 25.171875 22.105469 25.1875 22.089844 25.191406 C 21.445312 25.375 20.820312 25.625 20.222656 25.9375 C 18.515625 26.835938 16.960938 28.136719 15.863281 29.722656 C 14.640625 31.480469 13.808594 33.421875 13.375 35.542969 C 13.347656 35.660156 13.332031 35.785156 13.316406 35.914062 C 13.3125 35.9375 13.324219 35.953125 13.351562 35.953125 C 17.933594 35.953125 22.523438 35.953125 27.105469 35.945312 C 27.992188 35.941406 28.714844 35.632812 29.273438 35.007812 C 30.632812 33.5 30.023438 31.386719 28.785156 30.050781 C 28.023438 29.234375 27.082031 28.671875 25.960938 28.375 C 23.566406 27.742188 21.066406 28.582031 19.246094 30.191406 C 17.898438 31.386719 17.003906 32.898438 16.5625 34.730469 C 16.554688 34.757812 16.539062 34.769531 16.511719 34.769531 L 15.4375 34.773438 C 15.4375 34.773438 15.4375 34.773438 15.433594 34.773438 C 15.421875 34.769531 15.414062 34.757812 15.414062 34.746094 C 15.75 33.332031 16.332031 32.03125 17.160156 30.84375 C 19.058594 28.117188 22.882812 26.378906 26.210938 27.273438 C 28.105469 27.78125 29.695312 28.9375 30.601562 30.691406 C 31.378906 32.195312 31.347656 34.140625 30.3125 35.523438 C 29.410156 36.71875 28.113281 37.128906 26.640625 37.132812 C 23.046875 37.136719 19.457031 37.136719 15.867188 37.125 C 15.839844 37.125 15.832031 37.136719 15.832031 37.160156 C 15.816406 39.390625 16.734375 41.429688 18.523438 42.765625 C 18.53125 42.769531 18.53125 42.773438 18.53125 42.777344 C 18.53125 42.789062 18.523438 42.796875 18.519531 42.796875 C 17.453125 42.859375 16.382812 42.90625 15.308594 42.941406 C 14.105469 42.976562 12.941406 43.058594 11.757812 43.136719 C 9.996094 43.246094 8.246094 43.421875 6.496094 43.664062 C 6.355469 43.683594 6.222656 43.703125 6.09375 43.722656 C 6.085938 43.722656 6.078125 43.730469 6.078125 43.738281 C 6.074219 43.75 6.085938 43.761719 6.097656 43.761719 C 6.382812 43.777344 6.671875 43.816406 6.941406 43.824219 C 8.371094 43.871094 9.796875 43.925781 11.222656 43.984375 C 11.6875 44.003906 12.160156 44.015625 12.644531 44.019531 C 14.058594 44.035156 15.476562 44.074219 16.890625 44.074219 C 26.84375 44.074219 36.796875 44.074219 46.75 44.070312 C 51.597656 44.070312 54.914062 44.011719 58.902344 43.75 C 58.9375 43.746094 58.960938 43.738281 58.976562 43.722656 C 58.984375 43.722656 58.984375 43.714844 58.984375 43.707031 C 58.988281 43.695312 58.976562 43.683594 58.964844 43.683594 L 56.378906 43.339844 C 56.292969 43.328125 56.285156 43.300781 56.363281 43.253906 C 56.476562 43.1875 56.605469 43.109375 56.753906 43.023438 C 57.792969 42.402344 58.570312 41.519531 59.128906 40.457031 C 59.730469 39.308594 59.933594 37.996094 59.769531 36.710938 C 59.664062 35.859375 59.28125 35.019531 58.832031 34.304688 Z M 48.507812 15.058594 C 48.515625 15.050781 48.523438 15.042969 48.535156 15.039062 C 48.554688 15.039062 48.570312 15.050781 48.578125 15.070312 C 48.761719 16.097656 48.757812 17.125 48.570312 18.152344 C 48.570312 18.160156 48.566406 18.167969 48.558594 18.167969 C 48.542969 18.179688 48.527344 18.175781 48.515625 18.164062 C 48.453125 18.074219 48.394531 17.960938 48.34375 17.824219 C 47.992188 16.871094 48.046875 15.949219 48.507812 15.058594 Z M 56.8125 38.765625 C 55.878906 41.210938 52.894531 41.710938 51.257812 39.648438 C 51.125 39.484375 50.964844 39.195312 50.765625 38.785156 C 50.757812 38.765625 50.761719 38.742188 50.78125 38.730469 C 51.214844 38.335938 51.660156 37.960938 52.125 37.605469 C 52.242188 37.515625 52.332031 37.449219 52.398438 37.410156 C 52.40625 37.40625 52.414062 37.40625 52.421875 37.40625 C 52.441406 37.40625 52.457031 37.425781 52.457031 37.445312 C 52.398438 37.882812 52.488281 38.261719 52.722656 38.578125 C 53.265625 39.308594 54.378906 39.339844 54.953125 38.628906 C 55.460938 38.003906 55.265625 37.179688 54.582031 36.753906 C 54.402344 36.644531 54.207031 36.597656 53.996094 36.613281 C 53.992188 36.613281 53.984375 36.613281 53.980469 36.605469 C 53.976562 36.597656 53.980469 36.589844 53.988281 36.585938 C 54.777344 36.222656 55.589844 35.9375 56.433594 35.726562 C 56.460938 35.722656 56.484375 35.730469 56.496094 35.753906 C 57.066406 36.621094 57.179688 37.804688 56.8125 38.765625 Z M 56.8125 38.765625 " fill-opacity="1" fill-rule="nonzero"/><path fill="#f86f6f" d="M 6.585938 15.691406 C 8.753906 15.890625 10.921875 16.136719 13.089844 16.238281 C 13.296875 16.25 13.449219 16.230469 13.550781 16.179688 C 13.953125 15.988281 13.992188 15.328125 13.617188 15.117188 C 13.507812 15.058594 13.339844 15.03125 13.117188 15.039062 C 11.074219 15.117188 8.824219 15.351562 6.832031 15.585938 C 6.761719 15.59375 6.648438 15.585938 6.574219 15.636719 C 6.566406 15.640625 6.558594 15.648438 6.558594 15.65625 C 6.558594 15.675781 6.566406 15.6875 6.585938 15.691406 Z M 6.585938 15.691406 " fill-opacity="1" fill-rule="nonzero"/><path fill="#f86f6f" d="M 44.007812 16.003906 C 44.160156 16.042969 44.300781 16.109375 44.425781 16.203125 C 44.550781 16.296875 44.65625 16.414062 44.734375 16.550781 C 44.816406 16.6875 44.867188 16.835938 44.890625 16.996094 C 44.910156 17.15625 44.902344 17.3125 44.863281 17.46875 C 44.824219 17.625 44.757812 17.765625 44.664062 17.894531 C 44.570312 18.023438 44.453125 18.132812 44.316406 18.214844 C 44.183594 18.296875 44.035156 18.351562 43.878906 18.375 C 43.722656 18.398438 43.570312 18.394531 43.417969 18.355469 C 43.265625 18.316406 43.125 18.25 43 18.152344 C 42.875 18.058594 42.769531 17.941406 42.691406 17.804688 C 42.609375 17.667969 42.558594 17.519531 42.535156 17.363281 C 42.515625 17.203125 42.523438 17.046875 42.5625 16.890625 C 42.601562 16.734375 42.667969 16.589844 42.761719 16.460938 C 42.855469 16.332031 42.972656 16.226562 43.109375 16.144531 C 43.242188 16.058594 43.390625 16.007812 43.546875 15.980469 C 43.699219 15.957031 43.855469 15.964844 44.007812 16.003906 Z M 44.007812 16.003906 " fill-opacity="1" fill-rule="nonzero"/><path fill="#f86f6f" d="M 6.664062 19.910156 C 10.320312 20.347656 13.984375 20.628906 17.660156 20.757812 C 18.15625 20.777344 18.488281 20.699219 18.664062 20.222656 C 18.757812 19.960938 18.773438 19.71875 18.710938 19.503906 C 18.539062 18.953125 18.078125 18.898438 17.527344 18.914062 C 13.421875 19.042969 9.289062 19.242188 5.21875 19.722656 C 5.085938 19.738281 5.085938 19.753906 5.21875 19.765625 C 5.691406 19.816406 6.203125 19.851562 6.664062 19.910156 Z M 6.664062 19.910156 " fill-opacity="1" fill-rule="nonzero"/><path fill="#f86f6f" d="M 2.074219 25.65625 C 5.703125 26.085938 9.34375 26.367188 12.992188 26.503906 C 13.425781 26.519531 13.875 26.5 14.3125 26.53125 C 15.574219 26.613281 15.492188 24.652344 14.265625 24.746094 C 13.484375 24.804688 12.539062 24.832031 11.917969 24.867188 C 10.539062 24.941406 9.160156 25.023438 7.78125 25.101562 C 5.871094 25.214844 3.96875 25.390625 2.078125 25.617188 C 2.066406 25.617188 2.058594 25.625 2.058594 25.636719 C 2.054688 25.648438 2.0625 25.65625 2.074219 25.65625 Z M 2.074219 25.65625 " fill-opacity="1" fill-rule="nonzero"/><g clip-path="url(#5e5c215466)"><path fill="#f86f6f" d="M 10.4375 31.375 C 10.726562 31.390625 10.925781 31.375 11.039062 31.328125 C 11.558594 31.117188 11.644531 30.457031 11.324219 30.027344 C 11.171875 29.828125 10.988281 29.730469 10.777344 29.742188 C 9.960938 29.773438 8.289062 29.859375 5.769531 30 C 3.949219 30.105469 2.132812 30.289062 0.320312 30.515625 C 0.273438 30.519531 0.273438 30.53125 0.316406 30.546875 C 0.425781 30.582031 0.589844 30.578125 0.671875 30.589844 C 3.917969 30.949219 7.175781 31.207031 10.4375 31.375 Z M 10.4375 31.375 " fill-opacity="1" fill-rule="nonzero"/></g><g clip-path="url(#90e879663f)"><path fill="#f86f6f" d="M 60.140625 33.035156 C 58.925781 31.171875 56.910156 29.875 54.671875 29.765625 C 52.742188 29.667969 50.804688 30.601562 49.492188 31.996094 C 48.1875 33.382812 47.171875 35.253906 46.902344 37.160156 C 46.796875 37.910156 46.78125 38.667969 46.867188 39.429688 C 46.867188 39.433594 46.867188 39.4375 46.875 39.445312 C 46.882812 39.453125 46.894531 39.449219 46.902344 39.4375 C 48.382812 37.558594 50.175781 36.066406 52.28125 34.976562 C 54.367188 33.890625 56.585938 33.285156 58.9375 33.152344 C 59.332031 33.128906 59.722656 33.109375 60.105469 33.101562 C 60.113281 33.101562 60.117188 33.097656 60.125 33.09375 C 60.148438 33.082031 60.15625 33.054688 60.140625 33.035156 Z M 60.140625 33.035156 " fill-opacity="1" fill-rule="nonzero"/></g><path fill="#f86f6f" d="M 39.816406 32.429688 C 39.980469 33.003906 40.105469 33.59375 40.199219 34.1875 C 40.203125 34.21875 40.21875 34.230469 40.25 34.21875 C 40.789062 34.023438 41.527344 33.714844 42.472656 33.296875 C 43.332031 32.917969 44.007812 32.378906 44.503906 31.6875 C 44.742188 31.355469 44.898438 31.109375 45 30.746094 C 45.003906 30.738281 45.003906 30.726562 45 30.71875 C 44.992188 30.695312 44.96875 30.675781 44.941406 30.683594 C 44.664062 30.753906 44.394531 30.847656 44.117188 30.972656 C 43.527344 31.242188 42.902344 31.363281 42.246094 31.335938 C 42.21875 31.335938 42.191406 31.34375 42.167969 31.355469 C 41.425781 31.753906 40.652344 32.089844 39.847656 32.359375 C 39.816406 32.371094 39.804688 32.394531 39.816406 32.429688 Z M 39.816406 32.429688 " fill-opacity="1" fill-rule="nonzero"/><g clip-path="url(#4ecd2f1b25)"><path fill="#f86f6f" d="M 10.066406 36.59375 C 10.597656 36.347656 10.640625 35.636719 10.222656 35.269531 C 10.085938 35.148438 9.933594 35.09375 9.761719 35.097656 C 6.695312 35.226562 3.640625 35.46875 0.597656 35.832031 C 0.59375 35.832031 0.585938 35.835938 0.585938 35.839844 C 0.585938 35.84375 0.59375 35.851562 0.597656 35.851562 C 3.597656 36.273438 6.621094 36.59375 9.640625 36.65625 C 9.824219 36.660156 9.96875 36.640625 10.066406 36.59375 Z M 10.066406 36.59375 " fill-opacity="1" fill-rule="nonzero"/></g><path fill="#f86f6f" d="M 13.710938 41.707031 C 14.472656 41.722656 14.695312 40.675781 13.992188 40.410156 C 13.734375 40.3125 13.40625 40.398438 13.144531 40.398438 C 10.742188 40.4375 8.382812 40.699219 6.003906 40.972656 C 5.992188 40.972656 5.984375 40.980469 5.984375 40.992188 C 5.984375 41 5.992188 41.007812 6.003906 41.007812 C 7.78125 41.242188 9.5625 41.40625 11.34375 41.570312 C 12.148438 41.644531 13 41.695312 13.710938 41.707031 Z M 13.710938 41.707031 " fill-opacity="1" fill-rule="nonzero"/><g clip-path="url(#48150c9869)"><path fill="#f86f6f" d="M 47.121094 45.425781 C 47.117188 45.425781 47.101562 45.421875 47.089844 45.421875 C 45.972656 45.378906 45.132812 45.355469 44.566406 45.347656 C 35.484375 45.226562 26.402344 45.246094 17.316406 45.410156 C 17.226562 45.410156 17.140625 45.414062 17.054688 45.414062 C 17.054688 45.414062 17.050781 45.417969 17.050781 45.417969 C 17.050781 45.421875 17.054688 45.425781 17.054688 45.425781 C 17.265625 45.441406 17.480469 45.457031 17.699219 45.476562 C 19.980469 45.652344 22.265625 45.722656 24.550781 45.851562 C 25.019531 45.875 25.492188 45.898438 25.96875 45.914062 C 27.707031 45.972656 29.441406 46.039062 31.171875 46.113281 C 31.648438 46.136719 32.121094 46.136719 32.59375 46.117188 C 34.679688 46.03125 36.761719 45.957031 38.851562 45.898438 C 41 45.835938 43.179688 45.699219 45.03125 45.574219 C 45.9375 45.511719 46.632812 45.46875 47.117188 45.453125 C 47.152344 45.445312 47.152344 45.441406 47.121094 45.425781 Z M 47.121094 45.425781 " fill-opacity="1" fill-rule="nonzero"/></g></svg>