<svg xmlns="http://www.w3.org/2000/svg" width="60" height="60" viewBox="0 0 60 60">
  <path id="fi1" d="M25.32,1.96H49.695a5.281,5.281,0,0,1,5.274,5.273V42.5h1.523a1.757,1.757,0,0,1,1.757,1.757V56.223a1.758,1.758,0,0,1-1.757,1.758H.007a1.758,1.758,0,0,1-1.758-1.758V44.261A1.758,1.758,0,0,1,.007,42.5H1.531V7.233A5.281,5.281,0,0,1,6.8,1.96h2.11l0-2.226a1.761,1.761,0,0,1,2.351-1.648l2.625.954,2.626-.954a1.743,1.743,0,0,1,1.194,0l2.626.954,2.495-.907a1.755,1.755,0,0,1,2.486,1.6ZM8.679,26.1a1.758,1.758,0,1,1,0-3.516h.234V5.475H6.8A1.764,1.764,0,0,0,5.046,7.233V42.5H51.453V7.233a1.764,1.764,0,0,0-1.758-1.758H25.32V22.583h.234a1.758,1.758,0,1,1,0,3.515H8.679ZM45.71,36.645A1.758,1.758,0,1,0,47.468,38.4,1.758,1.758,0,0,0,45.71,36.645Zm-7.031,0A1.758,1.758,0,1,0,40.437,38.4,1.757,1.757,0,0,0,38.679,36.645Zm-7.031,0A1.758,1.758,0,1,0,33.406,38.4,1.758,1.758,0,0,0,31.648,36.645ZM45.71,29.614a1.758,1.758,0,1,0,1.758,1.757A1.757,1.757,0,0,0,45.71,29.614Zm-7.031,0a1.758,1.758,0,1,0,1.758,1.757A1.757,1.757,0,0,0,38.679,29.614Zm-7.031,0a1.758,1.758,0,1,0,1.758,1.757A1.758,1.758,0,0,0,31.648,29.614ZM45.71,22.583a1.758,1.758,0,1,0,1.758,1.758A1.758,1.758,0,0,0,45.71,22.583Zm-7.031,0a1.758,1.758,0,1,0,1.758,1.758A1.758,1.758,0,0,0,38.679,22.583Zm-7.031,0a1.758,1.758,0,1,0,1.758,1.758A1.758,1.758,0,0,0,31.648,22.583Zm-.7-13.592a1.757,1.757,0,0,0-1.758,1.757V17.31a1.758,1.758,0,0,0,1.758,1.758H46.882A1.758,1.758,0,0,0,48.64,17.31V10.748a1.757,1.757,0,0,0-1.758-1.757Zm14.179,3.515H32.7v3.046H45.124Zm-32.7,10.077H21.8V2.238l-.868.315a1.746,1.746,0,0,1-1.195,0L17.116,1.6l-2.625.954a1.746,1.746,0,0,1-1.195,0l-.868-.315ZM26.241,52h4.016a1.758,1.758,0,1,0,0-3.515H26.241a1.758,1.758,0,1,0,0,3.515ZM1.765,46.019v8.446H54.734V46.019Zm0,0" transform="translate(1.751 2.02)" fill="#00418e" fill-rule="evenodd"/>
</svg>
