<svg id="fi2" xmlns="http://www.w3.org/2000/svg" width="54" height="60" viewBox="0 0 54 60">
  <path id="Path_2918" data-name="Path 2918" d="M98.672,81.628a4.334,4.334,0,0,1,0-8.668,1.383,1.383,0,1,1,0,2.765,1.569,1.569,0,1,0,1.569,1.569,1.383,1.383,0,0,1,2.765,0A4.339,4.339,0,0,1,98.672,81.628Z" transform="translate(-88.435 -64.106)" fill="#00418e"/>
  <path id="Path_2919" data-name="Path 2919" d="M98.672,175.691a4.334,4.334,0,0,1,0-8.668,1.383,1.383,0,1,1,0,2.765,1.569,1.569,0,1,0,1.569,1.569,1.383,1.383,0,1,1,2.765,0A4.339,4.339,0,0,1,98.672,175.691Z" transform="translate(-88.435 -147.28)" fill="#00418e"/>
  <path id="Path_2920" data-name="Path 2920" d="M181.232,212.544a1.383,1.383,0,0,1,0-2.765h10.634a1.383,1.383,0,0,1,0,2.765Z" transform="translate(-164.21 -185.109)" fill="#00418e"/>
  <path id="Path_2921" data-name="Path 2921" d="M181.232,178.339a1.383,1.383,0,0,1,0-2.765h10.634a1.383,1.383,0,0,1,0,2.765Z" transform="translate(-164.21 -154.851)" fill="#00418e"/>
  <path id="Path_2922" data-name="Path 2922" d="M181.232,306.607a1.383,1.383,0,0,1,0-2.765h7.917a1.383,1.383,0,1,1,0,2.765Z" transform="translate(-164.205 -268.317)" fill="#00418e"/>
  <path id="Path_2923" data-name="Path 2923" d="M181.232,272.4a1.383,1.383,0,0,1,0-2.765h10.634a1.383,1.383,0,0,1,0,2.765Z" transform="translate(-164.21 -238.059)" fill="#00418e"/>
  <path id="Path_2924" data-name="Path 2924" d="M181.232,118.481a1.383,1.383,0,0,1,0-2.765h15.741a1.383,1.383,0,0,1,0,2.765Z" transform="translate(-164.241 -101.901)" fill="#00418e"/>
  <path id="Path_2925" data-name="Path 2925" d="M181.232,84.277a1.383,1.383,0,0,1,0-2.765h11.806a1.383,1.383,0,1,1,0,2.765Z" transform="translate(-164.226 -71.644)" fill="#00418e"/>
  <path id="Path_2926" data-name="Path 2926" d="M98.672,269.754a4.334,4.334,0,0,1,0-8.668,1.383,1.383,0,1,1,0,2.765,1.569,1.569,0,1,0,1.569,1.569,1.383,1.383,0,1,1,2.765,0A4.339,4.339,0,0,1,98.672,269.754Z" transform="translate(-88.435 -230.484)" fill="#00418e"/>
  <path id="Path_2927" data-name="Path 2927" d="M46.384,45.519a3.355,3.355,0,0,1-3.353-3.35V-.65A3.355,3.355,0,0,1,46.384-4H87.362A3.355,3.355,0,0,1,90.715-.65v30.5a1.384,1.384,0,0,1-2.767,0V-.65a.586.586,0,0,0-.586-.585H46.384A.586.586,0,0,0,45.8-.65V42.169a.586.586,0,0,0,.586.585H63.123a1.383,1.383,0,1,1,0,2.765Z" transform="translate(-43.031 4)" fill="#00418e"/>
  <path id="Path_2928" data-name="Path 2928" d="M245.728,214.744a8.238,8.238,0,0,1-8.049-6.375l-2.058-8.748a6.262,6.262,0,0,1,1.678-5.9l2.576-2.576V179.56a3.954,3.954,0,0,1,3.451-3.963c.127-.013.257-.019.385-.019a3.841,3.841,0,0,1,3.849,3.842v11.071a3.885,3.885,0,0,1,1.084-.155c.128,0,.257.006.384.019a3.8,3.8,0,0,1,2.606,1.48,3.889,3.889,0,0,1,1.93-.516c.127,0,.256.006.383.019a3.8,3.8,0,0,1,2.606,1.481,3.888,3.888,0,0,1,1.93-.516c.128,0,.257.006.384.019a3.954,3.954,0,0,1,3.451,3.963v10.19a8.279,8.279,0,0,1-8.269,8.269Zm-6.474-19.067a3.515,3.515,0,0,0-.942,3.311l2.058,8.748a5.483,5.483,0,0,0,5.358,4.244h8.319a5.511,5.511,0,0,0,5.5-5.5v-10.19a1.083,1.083,0,0,0-1.078-1.217,1.058,1.058,0,0,0-.721.278,1.079,1.079,0,0,0-.355.8v1.476a1.383,1.383,0,1,1-2.765,0V195.3a1.169,1.169,0,0,0-.961-1.211,1.133,1.133,0,0,0-.116-.006,1.06,1.06,0,0,0-.722.278,1.08,1.08,0,0,0-.355.8v1.476a1.382,1.382,0,1,1-2.765,0v-2.319a1.169,1.169,0,0,0-.961-1.211c-.039,0-.078-.006-.117-.006a1.058,1.058,0,0,0-.721.278,1.079,1.079,0,0,0-.355.8v1.476a1.383,1.383,0,1,1-2.765,0V179.42a1.08,1.08,0,0,0-.355-.8,1.059,1.059,0,0,0-.722-.278c-.038,0-.077,0-.116.006a1.169,1.169,0,0,0-.961,1.211v17.568a1.383,1.383,0,0,1-2.765,0v-2.073Z" transform="translate(-208.316 -154.744)" fill="#00418e"/>
</svg>
