<svg xmlns="http://www.w3.org/2000/svg" width="70" height="60" viewBox="0 0 70 60">
  <path id="fi3" d="M-22.555,81A8.506,8.506,0,0,1-31,72.477V29.524A8.506,8.506,0,0,1-22.556,21H30.555A8.506,8.506,0,0,1,39,29.523V72.476A8.506,8.506,0,0,1,30.556,81Zm53.11-3.677a4.838,4.838,0,0,0,4.8-4.847V66.292H8.779a6.782,6.782,0,0,1-1.306,6.271,6.616,6.616,0,0,1-6.067,2.294v2.466Zm-32.791,0V73.039a6.776,6.776,0,0,1-1.638-2.562,6.7,6.7,0,0,1-2,2.893v3.953Zm-25.121-4.847a4.838,4.838,0,0,0,4.8,4.847H-9.522V74.9c-.208.02-.417.03-.625.03A6.6,6.6,0,0,1-15.355,72.4a6.722,6.722,0,0,1-1.176-6.107H-27.357Zm16.646-7.26A3.047,3.047,0,0,0-13.159,68.4a3.039,3.039,0,0,0,2.824,2.85c.064,0,.128.006.192.006A3.028,3.028,0,0,0-7.181,68.78l.832-4.4ZM.9,70.857a3,3,0,0,0,3.276-.188A3.06,3.06,0,0,0,5.339,67.54a3.031,3.031,0,0,0-2.379-2.324l-4.362-.84.832,4.4A3.056,3.056,0,0,0,.464,70.55a1.811,1.811,0,0,1,.356.259Zm34.456-8.241V58.939H7.18a6.663,6.663,0,0,1-3.537,1.93l-1.913.368,1.913.368a6.556,6.556,0,0,1,2.446,1.01Zm-49.2,0A6.559,6.559,0,0,1-11.393,61.6l1.913-.368-1.913-.368a6.662,6.662,0,0,1-3.536-1.93H-27.357v3.677ZM2.4,51.213a2.987,2.987,0,0,0-.6.061A3.022,3.022,0,0,0-.568,53.692L-1.4,58.1l4.363-.84a3.006,3.006,0,0,0,1.829-1.146,1.784,1.784,0,0,1,.126-.176,3.058,3.058,0,0,0-.01-3.367A3.005,3.005,0,0,0,2.4,51.213ZM-12.47,56.2a3.006,3.006,0,0,0,1.76,1.055l4.362.84-.832-4.4a3.047,3.047,0,0,0-1.406-2.038l-.035-.02a3,3,0,0,0-1.523-.417,3.02,3.02,0,0,0-2.182.941,3.055,3.055,0,0,0-.382,3.711A1.854,1.854,0,0,1-12.47,56.2Zm47.828-.94V29.524a4.838,4.838,0,0,0-4.8-4.847H1.407V47.615a6.61,6.61,0,0,1,5.7,1.893,6.76,6.76,0,0,1,1.875,5.754Zm-52.089,0A6.8,6.8,0,0,1-15,49.66a6.651,6.651,0,0,1,4.852-2.119c.209,0,.419.01.628.03V24.677H-22.555a4.838,4.838,0,0,0-4.8,4.847V55.262ZM-5.879,49.1a6.7,6.7,0,0,1,2,2.894,6.765,6.765,0,0,1,1.638-2.561V24.677H-5.879Z" transform="translate(31 -21)" fill="#00418e"/>
</svg>
