<svg xmlns="http://www.w3.org/2000/svg" width="75" height="60" viewBox="0 0 75 60">
  <g id="fi4" transform="translate(-7 -65.409)">
    <path id="Path_2943" data-name="Path 2943" d="M11.484,115.207A4.486,4.486,0,0,1,7,110.73V69.886a4.485,4.485,0,0,1,4.484-4.477H66.625a4.485,4.485,0,0,1,4.484,4.477v17.7a1.757,1.757,0,0,1-3.513,0v-17.7a.971.971,0,0,0-.97-.969H11.484a.971.971,0,0,0-.97.969V110.73a.971.971,0,0,0,.97.969H43.444a1.754,1.754,0,1,1,0,3.508Z" transform="translate(0)" fill="#00418e"/>
    <path id="Path_2944" data-name="Path 2944" d="M326.089,255.513c-.239,0-.48,0-.716-.014a1.754,1.754,0,0,1,.067-3.507h.071c.157.006.314.009.472.009.116,0,.232,0,.349,0l.335-.006a14.583,14.583,0,0,0-.577-29.154,14.5,14.5,0,0,0-6.668,1.611,1.754,1.754,0,0,1-.179,3.463l-5.476.555c-.06.006-.119.009-.177.009a1.754,1.754,0,0,1-1.671-2.287l1.673-5.244a1.754,1.754,0,0,1,3.4.833,18.094,18.094,0,1,1,9.1,33.734Z" transform="translate(-262.18 -130.104)" fill="#00418e"/>
    <path id="Path_2945" data-name="Path 2945" d="M51.422,139.667a3.119,3.119,0,0,1-3.115-3.115v-8.169a3.119,3.119,0,0,1,3.115-3.115H62.314a3.119,3.119,0,0,1,3.115,3.115v8.169a3.119,3.119,0,0,1-3.115,3.115Zm12.006-2v-10.4H58.015s-.024,8.309,0,10.4Zm-8.169,0v-10.4H50.307v10.4Z" transform="translate(-33.138 -50.47)" fill="#00418e"/>
    <path id="Path_2947" data-name="Path 2947" d="M50.061,257.043a1.754,1.754,0,1,1,0-3.508h9.384a1.754,1.754,0,1,1,0,3.508Z" transform="translate(-33.138 -158.535)" fill="#00418e"/>
    <path id="Path_2948" data-name="Path 2948" d="M50.061,308.35a1.754,1.754,0,1,1,0-3.508H75.2a1.754,1.754,0,0,1,0,3.508Z" transform="translate(-33.138 -201.772)" fill="#00418e"/>
    <path id="Path_2949" data-name="Path 2949" d="M152.675,257.043a1.754,1.754,0,0,1,0-3.508h9.384a1.754,1.754,0,1,1,0,3.508Z" transform="translate(-120.136 -158.535)" fill="#00418e"/>
    <path id="Path_2951" data-name="Path 2951" d="M292.42,287.822a1.761,1.761,0,0,1-.418-.05,1.755,1.755,0,0,1-1.287-2.12,18.055,18.055,0,0,1,.919-2.766,1.754,1.754,0,1,1,3.228,1.373,14.5,14.5,0,0,0-.74,2.226A1.75,1.75,0,0,1,292.42,287.822Z" transform="translate(-244.424 -182.388)" fill="#00418e"/>
    <path id="Path_2952" data-name="Path 2952" d="M290.25,336.41a1.75,1.75,0,0,1-1.7-1.335,18.132,18.132,0,0,1-.466-2.873,1.754,1.754,0,0,1,1.607-1.889c.048,0,.1-.006.142-.006a1.763,1.763,0,0,1,1.747,1.613,14.63,14.63,0,0,0,.376,2.315,1.756,1.756,0,0,1-1.7,2.174Z" transform="translate(-242.248 -223.255)" fill="#00418e"/>
    <path id="Path_2953" data-name="Path 2953" d="M343.229,415.494a1.751,1.751,0,0,1-.621-.114,18.084,18.084,0,0,1-2.632-1.249,1.754,1.754,0,1,1,1.755-3.038,14.518,14.518,0,0,0,2.12,1.006,1.754,1.754,0,0,1-.621,3.395Z" transform="translate(-285.137 -291.138)" fill="#00418e"/>
    <path id="Path_2954" data-name="Path 2954" d="M306.991,382.471a1.756,1.756,0,0,1-1.312-.59,18.211,18.211,0,0,1-1.751-2.323,1.754,1.754,0,1,1,2.962-1.88,14.7,14.7,0,0,0,1.413,1.874,1.754,1.754,0,0,1-1.311,2.919Z" transform="translate(-255.342 -262.557)" fill="#00418e"/>
    <path id="Path_2956" data-name="Path 2956" d="M264.337,135.148A7.208,7.208,0,0,1,260.6,134.1l-.33-.2-.329.2a7.214,7.214,0,1,1,.005-12.339l.33.2.329-.2a7.215,7.215,0,1,1,3.736,13.386Zm-2.034-8.329a1.114,1.114,0,0,1,1.113,1.113,7.174,7.174,0,0,1-1.069,3.773l-.413.67.742.262a4.991,4.991,0,1,0-3-2.924l.592,1.546.593-1.545a4.951,4.951,0,0,0,.329-1.78A1.114,1.114,0,0,1,262.3,126.819Zm-6.1-3.877a4.99,4.99,0,1,0,0,9.98,4.945,4.945,0,0,0,1.662-.285l.739-.263-.412-.668a7.2,7.2,0,0,1,0-7.547l.414-.67-.743-.262A4.986,4.986,0,0,0,256.2,122.942Z" transform="translate(-209.632 -46.571)" fill="#00418e"/>
    <path id="Path_2957" data-name="Path 2957" d="M366.807,293.48a1.14,1.14,0,0,1-1.12-.961l-.072-.472-.472-.07c-3.034-.45-4.994-2.033-4.994-4.033a1.134,1.134,0,0,1,2.267-.009v.093l.027.089c.175.58,1.176,1.2,2.434,1.5l.8.19v-4.87l-.469-.134c-2.17-.618-5.056-1.77-5.056-4.626,0-2,1.96-3.583,4.994-4.034l.472-.07.072-.472a1.134,1.134,0,0,1,2.241,0l.072.472.472.07c3.034.45,4.995,2.034,4.995,4.034a1.133,1.133,0,0,1-2.267.009v-.093l-.027-.089c-.175-.58-1.176-1.2-2.435-1.5l-.8-.19v4.87l.469.134c2.171.618,5.056,1.77,5.056,4.626,0,2-1.96,3.583-4.995,4.033l-.472.07-.072.472A1.141,1.141,0,0,1,366.807,293.48Zm1.134-3.677.8-.19c1.256-.3,2.257-.915,2.434-1.494l.029-.1v-.1c-.011-.878-.705-1.482-2.395-2.086l-.864-.309Zm-3.063-11.3c-1.256.3-2.257.915-2.434,1.494l-.029.1v.1c.011.878.705,1.482,2.394,2.086l.864.309v-4.277Z" transform="translate(-302.563 -176.457)" fill="#00418e"/>
  </g>
</svg>
