<svg id="ir1" xmlns="http://www.w3.org/2000/svg" width="60" height="60" viewBox="0 0 60 60">
  <path id="Path_2968" data-name="Path 2968" d="M59,17.055H1a1,1,0,0,1-1-1A10.634,10.634,0,0,1,3.121,8.492,6.4,6.4,0,0,0,5,3.942V2.905A2.9,2.9,0,0,1,7.9,0H52.1A2.9,2.9,0,0,1,55,2.905V3.941a6.4,6.4,0,0,0,1.879,4.551A10.638,10.638,0,0,1,60,16.052,1,1,0,0,1,59,17.055ZM2.057,15.048H57.944a8.624,8.624,0,0,0-2.479-5.138A8.4,8.4,0,0,1,53,3.942V2.905a.9.9,0,0,0-.9-.9H7.9a.9.9,0,0,0-.9.9V3.941A8.4,8.4,0,0,1,4.536,9.91,8.624,8.624,0,0,0,2.057,15.048Z" fill="#00418e"/>
  <path id="Path_2969" data-name="Path 2969" d="M11,17.055a1,1,0,0,1-1-1V14.963a11.563,11.563,0,0,1,1.648-5.949A9.555,9.555,0,0,0,13.01,4.1V1a1,1,0,1,1,2.006,0V4.1a11.563,11.563,0,0,1-1.648,5.949,9.558,9.558,0,0,0-1.361,4.916v1.089A1,1,0,0,1,11,17.055Z" transform="translate(-0.003)" fill="#00418e"/>
  <path id="Path_2970" data-name="Path 2970" d="M21,17.055a1,1,0,0,1-1-1V14.6a26.881,26.881,0,0,1,.522-5.263A24.962,24.962,0,0,0,21,4.464V1A1,1,0,0,1,23.01,1V4.464a26.881,26.881,0,0,1-.522,5.263,24.962,24.962,0,0,0-.482,4.87v1.455A1,1,0,0,1,21,17.055Z" transform="translate(-0.003)" fill="#00418e"/>
  <path id="Path_2971" data-name="Path 2971" d="M30,17.055a1,1,0,0,1-1-1V1a1,1,0,1,1,2.006,0V16.052A1,1,0,0,1,30,17.055Z" transform="translate(-0.003)" fill="#00418e"/>
  <path id="Path_2972" data-name="Path 2972" d="M39.006,17.055a1,1,0,0,1-1-1V14.6a24.961,24.961,0,0,0-.482-4.87A26.873,26.873,0,0,1,37,4.464V1a1,1,0,1,1,2.006,0V4.464a24.961,24.961,0,0,0,.482,4.87A26.873,26.873,0,0,1,40.01,14.6v1.455A1,1,0,0,1,39.006,17.055Z" transform="translate(-0.006)" fill="#00418e"/>
  <path id="Path_2973" data-name="Path 2973" d="M49.013,17.055a1,1,0,0,1-1-1V14.963a9.555,9.555,0,0,0-1.361-4.916A11.563,11.563,0,0,1,45,4.1V1a1,1,0,1,1,2.006,0V4.1a9.555,9.555,0,0,0,1.361,4.916,11.563,11.563,0,0,1,1.648,5.949v1.089A1,1,0,0,1,49.013,17.055Z" transform="translate(-0.013)" fill="#00418e"/>
  <path id="Path_2974" data-name="Path 2974" d="M6.521,23.026h-1A5.524,5.524,0,0,1,0,17.508V16a1,1,0,0,1,1-1H11.036a1,1,0,0,1,1,1v1.5A5.524,5.524,0,0,1,6.521,23.026ZM2.006,17.006v.5a3.515,3.515,0,0,0,3.511,3.511h1a3.515,3.515,0,0,0,3.511-3.511v-.5Z" transform="translate(0 -0.007)" fill="#00418e"/>
  <path id="Path_2975" data-name="Path 2975" d="M16.521,23.026h-1A5.524,5.524,0,0,1,10,17.508V16a1,1,0,0,1,1-1H21.036a1,1,0,0,1,1,1v1.5A5.524,5.524,0,0,1,16.521,23.026Zm-4.515-6.019v.5a3.515,3.515,0,0,0,3.511,3.511h1a3.515,3.515,0,0,0,3.511-3.511v-.5Z" transform="translate(-0.008 -0.007)" fill="#00418e"/>
  <path id="Path_2976" data-name="Path 2976" d="M44.521,23.026h-1A5.524,5.524,0,0,1,38,17.508V16a1,1,0,0,1,1-1H49.036a1,1,0,0,1,1,1v1.5A5.524,5.524,0,0,1,44.521,23.026Zm-4.515-6.019v.5a3.515,3.515,0,0,0,3.511,3.511h1a3.515,3.515,0,0,0,3.511-3.511v-.5Z" transform="translate(-0.031 -0.007)" fill="#00418e"/>
  <path id="Path_2977" data-name="Path 2977" d="M54.521,23.026h-1A5.524,5.524,0,0,1,48,17.508V16a1,1,0,0,1,1-1H59.036a1,1,0,0,1,1,1v1.5A5.524,5.524,0,0,1,54.521,23.026Zm-4.515-6.019v.5a3.515,3.515,0,0,0,3.511,3.511h1a3.515,3.515,0,0,0,3.511-3.511v-.5Z" transform="translate(-0.039 -0.007)" fill="#00418e"/>
  <path id="Path_2978" data-name="Path 2978" d="M25.518,23.026A5.524,5.524,0,0,1,20,17.508V16a1,1,0,0,1,1-1h9.029a1,1,0,0,1,1,1v1.5A5.524,5.524,0,0,1,25.518,23.026Zm-3.511-6.019v.5a3.511,3.511,0,1,0,7.023,0v-.5Z" transform="translate(-0.015 -0.007)" fill="#00418e"/>
  <path id="Path_2979" data-name="Path 2979" d="M34.518,23.026A5.524,5.524,0,0,1,29,17.508V16a1,1,0,0,1,1-1h9.029a1,1,0,0,1,1,1v1.5A5.524,5.524,0,0,1,34.518,23.026Zm-3.511-6.019v.5a3.511,3.511,0,1,0,7.023,0v-.5Z" transform="translate(-0.021 -0.007)" fill="#00418e"/>
  <path id="Path_2980" data-name="Path 2980" d="M55.981,60.136H4a1,1,0,0,1-1-1v-37.4a1,1,0,0,1,1.334-.945A3.463,3.463,0,0,0,5.5,21.01h1A3.5,3.5,0,0,0,9.78,18.667,1,1,0,0,1,10.721,18h.551a1,1,0,0,1,.942.667A3.5,3.5,0,0,0,15.5,21.01h1a3.5,3.5,0,0,0,3.281-2.343A1,1,0,0,1,20.718,18h.551a1,1,0,0,1,.942.667,3.469,3.469,0,0,0,6.563,0A1,1,0,0,1,29.714,18h.551a1,1,0,0,1,.942.667,3.469,3.469,0,0,0,6.563,0A1,1,0,0,1,38.711,18h.551a1,1,0,0,1,.942.667,3.5,3.5,0,0,0,3.282,2.343h1a3.5,3.5,0,0,0,3.281-2.343A1,1,0,0,1,48.708,18h.551a1,1,0,0,1,.942.667,3.5,3.5,0,0,0,3.282,2.343h1a3.441,3.441,0,0,0,1.166-.219.99.99,0,0,1,.911.126,1,1,0,0,1,.423.82v37.4A1,1,0,0,1,55.981,60.136ZM5,58.129H54.981V22.991c-.167.016-.333.025-.5.025h-1a5.484,5.484,0,0,1-4.5-2.374,5.484,5.484,0,0,1-4.5,2.374h-1a5.484,5.484,0,0,1-4.5-2.374,5.449,5.449,0,0,1-9,0,5.449,5.449,0,0,1-9,0,5.484,5.484,0,0,1-4.5,2.374h-1A5.484,5.484,0,0,1,11,20.643a5.484,5.484,0,0,1-4.5,2.374h-1c-.167,0-.333-.009-.5-.025Z" transform="translate(0.01 -0.136)" fill="#00418e"/>
  <path id="Path_2981" data-name="Path 2981" d="M24.055,60.11H8a1,1,0,0,1-1-1V27a1,1,0,0,1,1-1H24.055a1,1,0,0,1,1,1v32.1A1,1,0,0,1,24.055,60.11ZM9.006,58.1H23.052v-30.1H9.006Z" transform="translate(0.023 -0.11)" fill="#00418e"/>
  <path id="Path_2982" data-name="Path 2982" d="M10.01,35.006H8A1,1,0,0,1,8,33H10.01a1,1,0,0,1,0,2.006Z" transform="translate(0.023 -0.004)" fill="#00418e"/>
  <path id="Path_2983" data-name="Path 2983" d="M10.01,53.006H8A1,1,0,1,1,8,51H10.01a1,1,0,0,1,0,2.006Z" transform="translate(0.023 -0.029)" fill="#00418e"/>
  <path id="Path_2984" data-name="Path 2984" d="M52.081,56.1H28a1,1,0,0,1-1-1V26a1,1,0,0,1,1-1H52.081a1,1,0,0,1,1,1V55.1A1,1,0,0,1,52.081,56.1ZM29.006,54.094H51.078V27.006H29.006Z" transform="translate(-0.107 -0.113)" fill="#00418e"/>
  <path id="Path_2985" data-name="Path 2985" d="M20.013,46.016a1,1,0,0,1-1-1V43.006H17A1,1,0,1,1,17,41h3.01a1,1,0,0,1,1,1v3.01A1,1,0,0,1,20.013,46.016Z" transform="translate(-0.005 -0.012)" fill="#00418e"/>
  <path id="Path_2986" data-name="Path 2986" d="M59,60.006H1A1,1,0,0,1,1,58H59a1,1,0,0,1,0,2.006Z" transform="translate(0 -0.006)" fill="#00418e"/>
  <path id="Path_2987" data-name="Path 2987" d="M40.023,52.074c-2.78,0-4.684-.573-5.819-1.753a5.529,5.529,0,0,1-1.185-4.312l.013-.406a5.753,5.753,0,0,1,1.39-3.6c1.533-1.825,2.034-3.535,1.447-4.946a6.8,6.8,0,0,1-.187-5.155,7.345,7.345,0,0,1,1.665-2.637A1,1,0,0,1,39.03,30a4.762,4.762,0,0,0,.993,3.31A4.78,4.78,0,0,0,41.013,30a1,1,0,0,1,1.682-.738A7.345,7.345,0,0,1,44.361,31.9a6.794,6.794,0,0,1-.187,5.155c-.586,1.41-.085,3.12,1.448,4.946a5.751,5.751,0,0,1,1.389,3.6l.013.406a5.525,5.525,0,0,1-1.185,4.312C44.707,51.5,42.8,52.074,40.023,52.074ZM37.478,32.839a4.982,4.982,0,0,0,.245,3.447c.623,1.5.822,3.928-1.764,7.007a3.755,3.755,0,0,0-.92,2.354l-.014.44a3.7,3.7,0,0,0,.625,2.843c.725.754,2.2,1.138,4.372,1.138s3.647-.383,4.373-1.138a3.7,3.7,0,0,0,.625-2.843l-.014-.44a3.769,3.769,0,0,0-.92-2.354c-2.585-3.079-2.387-5.51-1.764-7.007a4.987,4.987,0,0,0,.245-3.447,4.609,4.609,0,0,1-2.125,2.656,1.009,1.009,0,0,1-.838,0A4.6,4.6,0,0,1,37.478,32.839Z" transform="translate(-0.032 -0.1)" fill="#00418e"/>
  <path id="Path_2988" data-name="Path 2988" d="M40,56.019a1,1,0,0,1-1-1V51a1,1,0,0,1,2.006,0v4.013A1,1,0,0,1,40,56.019Z" transform="translate(-0.004 -0.032)" fill="#00418e"/>
</svg>
