<svg xmlns="http://www.w3.org/2000/svg" width="63" height="60" viewBox="0 0 63 60">
  <g id="ir2" transform="translate(0 -12.413)">
    <g id="Group_473" data-name="Group 473" transform="translate(0 12.413)">
      <g id="Group_472" data-name="Group 472" transform="translate(0 0)">
        <path id="Path_2989" data-name="Path 2989" d="M61.285,62.521a1.23,1.23,0,0,0-1.611.658,11.042,11.042,0,0,1-21.012-2.116c0-.019,0-.039,0-.058a6.148,6.148,0,0,0-.2-1.57q-.013-.268-.013-.539a11.071,11.071,0,0,1,6.885-10.239L48.306,59.23a1.23,1.23,0,1,0,2.369-.668L47.7,47.988a11.044,11.044,0,0,1,11.915,6.491,1.231,1.231,0,1,0,2.255-.985A13.506,13.506,0,0,0,47.031,45.6l-.105-.375a28.1,28.1,0,0,1-.8-3.853h0q-.152-1.129-.213-2.268a1.231,1.231,0,0,0,1.207.991H48.8a4.225,4.225,0,0,0,0-8.45H45.113l-9.436-8.37A5.547,5.547,0,1,0,32.471,20.8a6.859,6.859,0,0,0-7.688,1.4L14.708,32.285l-.008.009a1.237,1.237,0,0,0-.092.105l-.01.013,0,0a5.551,5.551,0,0,0-1.082,2.972H11.094a1.231,1.231,0,0,0-1.23,1.232v1.507a4.654,4.654,0,0,0,4.646,4.651h1.459L15.338,45.5a13.514,13.514,0,0,0-9.6,24.445H1.23a1.232,1.232,0,0,0,0,2.463H13.5A13.529,13.529,0,0,0,26.816,61.158a1.23,1.23,0,0,0,1.22,1.079h8.369a13.559,13.559,0,0,0,5.323,7.713H33.917a1.232,1.232,0,0,0,0,2.463H49.491a13.48,13.48,0,0,0,12.451-8.278A1.232,1.232,0,0,0,61.285,62.521ZM45.876,34.11H48.8a1.762,1.762,0,0,1,0,3.524H47.122a1.231,1.231,0,0,0-1.224,1.1q-.022-.557-.022-1.115V34.11Zm-2.341,6.2H31.2c-.2-.235-.4-.464-.623-.683L26.7,35.749l5.109-5.114,11.639,8.439Q43.48,39.7,43.535,40.314Zm-1.816,2.463L34.18,49.614l-.718-4.468,0-.026a10.431,10.431,0,0,0-.72-2.342Zm-4.5-27.9a3.079,3.079,0,1,1-3.076,3.079A3.081,3.081,0,0,1,37.218,14.876Zm-10.7,9.066a4.393,4.393,0,0,1,6.218,0l10.676,9.491v2.575l-11.01-7.983a1.229,1.229,0,0,0-1.592.127L24.6,34.371l-4.106-1.135-2.552-.705ZM14.51,40.314a2.189,2.189,0,0,1-2.185-2.188v-.276H13.8A7.291,7.291,0,0,0,15.1,40.314ZM13.5,69.949A11.054,11.054,0,1,1,14.78,47.917L12.3,58.618a1.231,1.231,0,0,0,1.2,1.509H24.477A11.062,11.062,0,0,1,13.5,69.949Zm1.548-12.285,2.126-9.192a11.08,11.08,0,0,1,7.3,9.192Zm2.685-11.6.755-3.265,5.9,3.409,1.936,8.45A13.573,13.573,0,0,0,17.736,46.06Zm8.931-.931a1.232,1.232,0,0,0-.584-.791l-7.965-4.6a4.6,4.6,0,0,1-2.07-3.022,3.786,3.786,0,0,1,.127-2.113l3.583.99,4.565,1.262,4.518,4.523a7.913,7.913,0,0,1,2.193,4.177l1.495,9.3H28.893Zm2.6,14.644V57.31h3.246a3.7,3.7,0,0,1,3.48,2.463Zm7-3.639a6.161,6.161,0,0,0-1.156-.708l-.468-2.913L44.08,43.96q.207.975.476,1.937l.106.376A13.563,13.563,0,0,0,36.271,56.135Z" transform="translate(0 -12.413)" fill="#00418e"/>
      </g>
    </g>
    <g id="Group_475" data-name="Group 475" transform="translate(60.523 57.653)">
      <g id="Group_474" data-name="Group 474" transform="translate(0 0)">
        <path id="Path_2990" data-name="Path 2990" d="M493.237,379.833A1.238,1.238,0,0,0,492,381.071v.058a1.238,1.238,0,0,0,1.235,1.242h0a1.239,1.239,0,0,0,1.238-1.235v-.065A1.239,1.239,0,0,0,493.237,379.833Z" transform="translate(-491.999 -379.833)" fill="#00418e"/>
      </g>
    </g>
    <g id="Group_477" data-name="Group 477" transform="translate(27.842 69.936)">
      <g id="Group_476" data-name="Group 476">
        <path id="Path_2991" data-name="Path 2991" d="M228.444,479.95a1.238,1.238,0,1,0,.363.876A1.24,1.24,0,0,0,228.444,479.95Z" transform="translate(-226.33 -479.587)" fill="#00418e"/>
      </g>
    </g>
  </g>
</svg>
