<svg xmlns="http://www.w3.org/2000/svg" width="58" height="60" viewBox="0 0 58 60">
  <g id="ir3" transform="translate(-0.005 -0.001)">
    <path id="Path_2992" data-name="Path 2992" d="M101.522,315.738H87.359a2.026,2.026,0,0,0-2.023,2.023v10.116a2.025,2.025,0,0,0,2.023,2.023h14.164a2.026,2.026,0,0,0,2.023-2.023V317.761A2.026,2.026,0,0,0,101.522,315.738ZM95.3,327.878l2.862-2.659a1.012,1.012,0,0,0-1.381-1.479l-4.452,4.138H87.359v-.165l2.712-2.518a1.012,1.012,0,1,0-1.377-1.483l-1.335,1.239v-7.189H95.1l-3.559,3.305a1.012,1.012,0,0,0,1.377,1.483l5.157-4.788h3.447v1.582l-1.42,1.319a1.012,1.012,0,1,0,1.377,1.483l.043-.04v5.773Zm0,0" transform="translate(-75.384 -278.925)" fill="#00418e"/>
    <path id="Path_2993" data-name="Path 2993" d="M326.293,355.941h4.047a2.025,2.025,0,0,0,2.023-2.023v-2.023a2.026,2.026,0,0,0-2.023-2.023h-4.047a2.026,2.026,0,0,0-2.023,2.023v2.023A2.025,2.025,0,0,0,326.293,355.941Zm0-4.047h4.047v2.023l-4.047,0Zm0,0" transform="translate(-286.336 -308.923)" fill="#00418e"/>
    <path id="Path_2994" data-name="Path 2994" d="M325.281,420.16h1.012a1.012,1.012,0,1,0,0-2.023h-1.012a1.012,1.012,0,0,0,0,2.023Zm0,0" transform="translate(-286.29 -369.264)" fill="#00418e"/>
    <path id="Path_2995" data-name="Path 2995" d="M15.939.711A3.016,3.016,0,0,0,13.5.044,3.1,3.1,0,0,0,11,3.123V14.28A1.993,1.993,0,0,0,10,16v2H7.877a4.986,4.986,0,0,0-3.841,1.8L.7,23.8a2.981,2.981,0,0,0-.465.788c-.005.012-.011.023-.016.035A2.994,2.994,0,0,0,0,25.725v4.106a5.207,5.207,0,0,0,3,4.721V58a2,2,0,0,0,2,2H53a2,2,0,0,0,2-2V34.552a5.208,5.208,0,0,0,3-4.72V25.725a3,3,0,0,0-.215-1.1c-.005-.012-.011-.023-.016-.034a3,3,0,0,0-.464-.788l-3.337-4A4.985,4.985,0,0,0,50.131,18H46.853A4.009,4.009,0,0,0,48,15.2V12a4,4,0,0,0-4-4H39a9.466,9.466,0,0,1-8.029-5.818l-.285-.523A3,3,0,0,0,25,3V5a1,1,0,0,1-1,1H18a1,1,0,0,1-1-1V3A3,3,0,0,0,15.939.711ZM48,58H36V39H48Zm5,0H50V39a2,2,0,0,0-2-2H36a2,2,0,0,0-2,2V58H5V34.974a4.912,4.912,0,0,0,4-1.974,5,5,0,0,0,8,0,5,5,0,0,0,8,0,5,5,0,0,0,8,0,5,5,0,0,0,8,0,5,5,0,0,0,8,0,4.911,4.911,0,0,0,4,1.974ZM50.131,20a2.99,2.99,0,0,1,2.3,1.08L54.869,24H49a1,1,0,1,0,0,2h7v3.83a3.117,3.117,0,0,1-2.7,3.156,2.975,2.975,0,0,1-2.316-.766A3.009,3.009,0,0,1,50,30V29a1,1,0,1,0-2,0v1a3,3,0,1,1-6,0V29a1,1,0,1,0-2,0v1a3,3,0,1,1-6,0V29a1,1,0,1,0-2,0v1a3,3,0,1,1-6,0V29a1,1,0,0,0-2,0v1a3,3,0,1,1-6,0V29a1,1,0,1,0-2,0v1a3,3,0,1,1-6,0V29a1,1,0,1,0-2,0v1a3,3,0,0,1-3.3,2.986A3.116,3.116,0,0,1,2,29.831V26H45a1,1,0,0,0,0-2H3.14l2.433-2.92A2.991,2.991,0,0,1,7.877,20ZM46,15.2a1.989,1.989,0,0,1-1.428,1.917A37.482,37.482,0,0,1,35,18H12V16H35c.722,0,1.393-.01,2.037-.031q.885-.033,1.676-.094c.123-.009.228-.023.348-.033.394-.034.786-.068,1.146-.111.148-.017.277-.04.42-.059.309-.041.622-.082.906-.129.143-.024.267-.052.4-.077.26-.048.524-.1.762-.148.132-.029.246-.061.372-.092.22-.053.444-.106.645-.163.12-.033.222-.07.336-.1.184-.057.373-.113.54-.172.108-.038.2-.078.3-.117.152-.058.308-.116.445-.175.1-.042.178-.084.266-.126.124-.058.251-.116.362-.174L46,14.18ZM38,13a3,3,0,0,1,3-3h3a2,2,0,0,1,1.983,1.736c-.017.02-.035.04-.058.063l-.014.014a2.758,2.758,0,0,1-.332.279l-.063.044c-.056.039-.118.08-.185.121l-.094.057c-.07.042-.149.085-.23.128L44.9,12.5c-.118.06-.246.12-.387.181l-.018.008c-.146.062-.308.125-.48.188-.056.02-.118.04-.176.06-.125.043-.255.086-.393.128-.076.023-.156.046-.236.069-.14.04-.29.08-.444.118-.085.022-.168.043-.258.064-.2.046-.406.09-.623.133-.059.012-.111.024-.172.036-.277.053-.574.1-.886.148-.1.015-.2.027-.305.042-.229.032-.465.062-.712.089l-.4.042c-.246.024-.5.047-.766.067-.14.011-.279.022-.423.032L38,13.916ZM18,8h6a3,3,0,0,0,3-3V3a1,1,0,0,1,1-1,1.014,1.014,0,0,1,.911.584l.27.493a11.416,11.416,0,0,0,8.037,6.689A4.954,4.954,0,0,0,36,13v.993C35.681,14,35.349,14,35,14H13V3.123a1.1,1.1,0,0,1,.824-1.107A1.006,1.006,0,0,1,15,3V5a3,3,0,0,0,3,3Zm0,0" transform="translate(0 0)" fill="#00418e"/>
  </g>
</svg>
