<svg xmlns="http://www.w3.org/2000/svg" width="60" height="60" viewBox="0 0 60 60">
  <g id="ir6" transform="translate(0 -0.499)">
    <path id="Path_3010" data-name="Path 3010" d="M94.1,29.8l3.517-.225h.019a8.27,8.27,0,0,0,6.173-3.632l2.78-4.111a16.693,16.693,0,0,0,2.639-12.172,3.764,3.764,0,0,0-1.2-2.175,3.711,3.711,0,0,0-2.287-.938,16.378,16.378,0,0,0-11.674,4.1l-3.717,3.275a8.377,8.377,0,0,0-2.838,6.612c0,.006,0,.012,0,.019l.2,3.546a5.013,5.013,0,0,1-1.377,3.739L57.3,57.9a4.272,4.272,0,0,0-1.13,3.156,5.075,5.075,0,0,0,1.634,3.524A4.99,4.99,0,0,0,61.088,65.8q.193,0,.386-.016a4.209,4.209,0,0,0,2.978-1.514L90.579,31.624A4.941,4.941,0,0,1,94.1,29.8Zm-4.915.69L63.06,63.133a2.436,2.436,0,0,1-1.728.852A3.176,3.176,0,0,1,59,63.222a3.227,3.227,0,0,1-1.031-2.244,2.469,2.469,0,0,1,.627-1.826l29.035-30.06a6.836,6.836,0,0,0,1.881-5.1l-.2-3.536a6.57,6.57,0,0,1,2.226-5.176L95.251,12a14.612,14.612,0,0,1,10.408-3.656,1.918,1.918,0,0,1,1.182.485,1.945,1.945,0,0,1,.619,1.124,14.881,14.881,0,0,1-2.353,10.851l-2.78,4.112a6.487,6.487,0,0,1-4.832,2.847l-3.508.224a6.739,6.739,0,0,0-4.8,2.5Zm0,0" transform="translate(-49.464 -5.305)" fill="#00418e"/>
    <path id="Path_3011" data-name="Path 3011" d="M314.533,305.243l-19.877-18.1a.916.916,0,1,0-1.234,1.355l19.872,18.1a2.494,2.494,0,0,1,.755,1.813,3.13,3.13,0,0,1-3.247,3.247,2.491,2.491,0,0,1-1.808-.75l-17.712-19.446a.916.916,0,1,0-1.355,1.234l17.716,19.45a4.308,4.308,0,0,0,3.123,1.344h.1a4.959,4.959,0,0,0,5.018-5.116,4.312,4.312,0,0,0-1.348-3.127Zm0,0" transform="translate(-256.225 -252.987)" fill="#00418e"/>
    <path id="Path_3012" data-name="Path 3012" d="M11.055,24.622A8.484,8.484,0,0,0,16.6,26.864h.019l3.6.011a5.053,5.053,0,0,1,3.7,1.631l1.585,1.74a.916.916,0,1,0,1.355-1.234l-1.587-1.742a6.894,6.894,0,0,0-5.043-2.227l-3.588-.011a6.657,6.657,0,0,1-4.3-1.72L1.911,10.918a.316.316,0,0,1,.466-.428l9.491,9.491a2.409,2.409,0,0,0,3.4,0l1.115-1.115h0l1.98-1.98h0l1.115-1.115a2.409,2.409,0,0,0,0-3.4L9.991,2.876a.316.316,0,0,1,.428-.466L22.813,12.837a6.654,6.654,0,0,1,1.721,4.3l.011,3.588a6.9,6.9,0,0,0,2.229,5.045l1.7,1.547a.916.916,0,1,0,1.234-1.355l-1.7-1.544a5.057,5.057,0,0,1-1.633-3.7l-.011-3.6c0-.007,0-.013,0-.02a8.484,8.484,0,0,0-2.243-5.547.916.916,0,0,0-.084-.081L11.6,1.008A2.148,2.148,0,0,0,8.7,4.171l9.491,9.491a.575.575,0,0,1,0,.812l-.468.467L7.141,4.364a.916.916,0,0,0-1.3,1.3L16.423,16.237l-.685.685L5.16,6.345a.916.916,0,0,0-1.3,1.3L14.442,18.218l-.467.468a.575.575,0,0,1-.812,0L3.672,9.195A2.149,2.149,0,0,0,.509,12.1l10.466,12.44a.853.853,0,0,0,.08.084Zm0,0" transform="translate(0 0)" fill="#00418e"/>
  </g>
</svg>
