<svg xmlns="http://www.w3.org/2000/svg" width="54" height="60" viewBox="0 0 54 60">
  <g id="ir7" transform="translate(-16.5 0.002)">
    <path id="Path_3013" data-name="Path 3013" d="M70.115,14.2,43.2.135a.867.867,0,0,0-.935,0L16.885,14.2a.811.811,0,0,0-.385.684v7.265a.817.817,0,0,0,.448.722.867.867,0,0,0,.872-.037l2.66-1.673v17.55H18.654a.838.838,0,0,0-.853.82V44.06a.8.8,0,0,0,.249.581.868.868,0,0,0,.6.24H36.539v14.3a.8.8,0,0,0,.247.579.866.866,0,0,0,.6.241H49.613a.866.866,0,0,0,.6-.241.8.8,0,0,0,.247-.579v-14.3H68.346a.868.868,0,0,0,.6-.24.8.8,0,0,0,.249-.581V39.528a.838.838,0,0,0-.853-.82H66.519V21.158l2.66,1.673a.88.88,0,0,0,.873.037.815.815,0,0,0,.448-.722V14.881a.811.811,0,0,0-.385-.684Zm-21.36,44.16H38.245V44.881H48.755ZM67.494,40.348V43.24H19.506V40.348ZM22.186,38.707V20.08L42.729,9.064,64.814,20.08V38.707ZM68.795,20.628,43.2,7.4a.867.867,0,0,0-.935,0L18.205,20.628v-5.3L42.729,1.8,68.795,15.327Z" fill="#00418e"/>
    <path id="Path_3014" data-name="Path 3014" d="M49.062,37.567a7.129,7.129,0,1,0,7.129-7.129A7.129,7.129,0,0,0,49.062,37.567Zm12.588,0a5.459,5.459,0,1,1-5.459-5.459A5.459,5.459,0,0,1,61.65,37.567Z" transform="translate(-12.692 -16.251)" fill="#00418e"/>
    <path id="Path_3015" data-name="Path 3015" d="M60.014,64.375a3.639,3.639,0,1,0,3.639,3.639A3.639,3.639,0,0,0,60.014,64.375Zm0,5.608a1.969,1.969,0,1,1,1.969-1.969A1.969,1.969,0,0,1,60.014,69.983Z" transform="translate(-16.514 -34.275)" fill="#00418e"/>
  </g>
</svg>
