<svg xmlns="http://www.w3.org/2000/svg" width="60" height="60" viewBox="0 0 60 60">
  <g id="ir8" transform="translate(0 -0.653)">
    <g id="Group_491" data-name="Group 491" transform="translate(38.987 13.552)">
      <g id="Group_490" data-name="Group 490" transform="translate(0 0)">
        <rect id="Rectangle_62" data-name="Rectangle 62" width="2.018" height="2.018" transform="translate(0 0.011) rotate(-0.309)" fill="#00418e"/>
      </g>
    </g>
    <g id="Group_493" data-name="Group 493" transform="translate(0 0.653)">
      <g id="Group_492" data-name="Group 492">
        <path id="Path_3016" data-name="Path 3016" d="M59,32.58H44.8L46,14.6a1.014,1.014,0,0,0-.269-.754A1.092,1.092,0,0,0,45,13.53l-2,.011.01,2.005h.926L43.7,19.133l-2.9,1.613a11.013,11.013,0,0,1-9.8.432v-5.57l6-.031L37,13.572,31,13.6V9.068L41.54,2.35,40.466.653l-11,7.018A1,1,0,0,0,29,8.517v5.1l-13.993.072a1,1,0,0,0-.994,1.008c0,.021,0,.041,0,.061l1.113,16.734a17.135,17.135,0,0,0-1.4,3.354,9.934,9.934,0,0,0-8.665-5.1,1,1,0,0,0-1,1,9.918,9.918,0,0,0,1.64,5.471,5.536,5.536,0,0,0-1.2.8l-.29.257a12.453,12.453,0,0,0-3.81,12.5l.611,2.367A12.471,12.471,0,0,0,6.168,59.4a6.989,6.989,0,0,0,7.346.286l-.056-.1a24.244,24.244,0,0,0,5.753.975c.2.01.4.01.607.014v.082H33A27.009,27.009,0,0,0,60,33.631v-.048A1,1,0,0,0,59,32.58ZM44.42,35.132v-.546h9.958a21.505,21.505,0,0,1-12.731,18.64,21.164,21.164,0,0,1-5.817,1.635A22.989,22.989,0,0,0,39.768,50.4,27.206,27.206,0,0,0,44.42,35.132ZM29,15.618v4.848a13,13,0,0,0-9.766,1.146l-2.662,1.483-.492-7.41Zm-10.855,14.9.122-.158-1.277-.988-.271-4.062,3.482-1.946a11.009,11.009,0,0,1,9.881-.4,13,13,0,0,0,11.68-.471l1.767-.984-.448,6.742a3.334,3.334,0,0,0-.726-.426L40.865,27.2a2.827,2.827,0,0,0-2.463.13,2.9,2.9,0,0,0-1.464,2.062A26.476,26.476,0,0,1,27.9,45.155a12.424,12.424,0,0,0-4.111-7.886l-.29-.257a5.428,5.428,0,0,0-7.118-.1l-1.259,1.053A15.056,15.056,0,0,1,18.149,30.518Zm-5.215,8.109a7.963,7.963,0,0,1-6.792-6.811A7.967,7.967,0,0,1,12.934,38.627Zm-5.657,19.1a10.474,10.474,0,0,1-4.322-6.094l-.612-2.366a10.456,10.456,0,0,1,3.2-10.5h0l.29-.257a3.471,3.471,0,0,1,1.213-.673A9.885,9.885,0,0,0,14.006,40.7a.98.98,0,0,0,.188-.038,2.708,2.708,0,0,0,1.551-.615l1.915-1.6a3.443,3.443,0,0,1,4.515.065l.29.257A10.434,10.434,0,0,1,25.988,46.6a26.364,26.364,0,0,1-13.182,4.727l-4.428.334a1,1,0,0,0-.925,1v3.653a1,1,0,0,0,.5.865l.139.082a24.323,24.323,0,0,0,2.532,1.282A5.017,5.017,0,0,1,7.277,57.729Zm12.029.824h0a22.366,22.366,0,0,1-9.849-2.819V53.593l3.5-.265A28.533,28.533,0,0,0,38.908,29.737a.9.9,0,0,1,.455-.647.832.832,0,0,1,.731-.039l1.494.626a1.347,1.347,0,0,1,.829,1.247v4.211a25.214,25.214,0,0,1-4.309,14.145A21.223,21.223,0,0,1,19.305,58.554Zm13.7.094H29.817A22.972,22.972,0,0,0,33,56.964v.093a23.145,23.145,0,0,0,9.453-2A23.511,23.511,0,0,0,56.378,34.585h1.6A25,25,0,0,1,33,58.648Z" transform="translate(0 -0.653)" fill="#00418e"/>
      </g>
    </g>
    <g id="Group_495" data-name="Group 495" transform="translate(45.987 36.582)">
      <g id="Group_494" data-name="Group 494">
        <rect id="Rectangle_63" data-name="Rectangle 63" width="2.018" height="2.018" fill="#00418e"/>
      </g>
    </g>
    <g id="Group_497" data-name="Group 497" transform="translate(42.989 46.606)">
      <g id="Group_496" data-name="Group 496">
        <rect id="Rectangle_64" data-name="Rectangle 64" width="2.018" height="2.018" fill="#00418e"/>
      </g>
    </g>
    <g id="Group_499" data-name="Group 499" transform="translate(45.987 42.597)">
      <g id="Group_498" data-name="Group 498">
        <rect id="Rectangle_65" data-name="Rectangle 65" width="2.018" height="2.018" fill="#00418e"/>
      </g>
    </g>
  </g>
</svg>
