<svg xmlns="http://www.w3.org/2000/svg" xmlns:xlink="http://www.w3.org/1999/xlink" width="91" zoomAndPan="magnify" viewBox="0 0 68.25 43.499998" height="58" preserveAspectRatio="xMidYMid meet" version="1.0"><defs><clipPath id="fa614fc0a8"><path d="M 0.015625 0 L 66.75 0 L 66.75 43 L 0.015625 43 Z M 0.015625 0 " clip-rule="nonzero"/></clipPath></defs><path fill="#bd76d1" d="M 48.21875 10.363281 C 40.550781 10.363281 34.332031 16.582031 34.332031 24.253906 C 34.332031 31.921875 40.550781 38.140625 48.21875 38.140625 C 55.890625 38.140625 62.105469 31.921875 62.105469 24.253906 C 62.105469 16.582031 55.890625 10.367188 48.21875 10.363281 Z M 43.816406 34.25 C 43.742188 34.074219 47.121094 24.253906 47.121094 24.253906 L 43.65625 24.253906 L 46.519531 14.253906 L 52.644531 14.253906 L 48.796875 21.828125 L 52.78125 21.828125 C 52.78125 21.828125 43.890625 34.425781 43.816406 34.25 Z M 43.816406 34.25 " fill-opacity="1" fill-rule="nonzero"/><g clip-path="url(#fa614fc0a8)"><path fill="#bd76d1" d="M 66.472656 23.78125 C 66.273438 23.597656 66.003906 23.503906 65.730469 23.527344 L 65.175781 23.574219 C 65.035156 23.589844 64.898438 23.628906 64.777344 23.699219 C 64.484375 23.871094 64.300781 24.183594 64.292969 24.523438 C 64.191406 30.222656 61.1875 35.328125 56.257812 38.175781 C 56.214844 38.199219 56.175781 38.21875 56.136719 38.242188 C 48.46875 42.582031 38.664062 39.898438 34.277344 32.253906 C 29.878906 24.585938 32.527344 14.753906 40.183594 10.332031 C 47.550781 6.078125 57.082031 8.402344 61.691406 15.484375 C 61.761719 15.589844 61.847656 15.734375 61.929688 15.878906 C 61.550781 16.058594 61.125 16.261719 60.742188 16.441406 C 60.554688 16.535156 60.539062 16.796875 60.71875 16.90625 C 61.710938 17.515625 62.804688 18.3125 63.832031 19.292969 C 64.148438 19.589844 64.402344 19.851562 64.683594 20.179688 C 64.820312 20.339844 65.082031 20.28125 65.140625 20.078125 C 65.269531 19.605469 65.382812 19.101562 65.453125 18.652344 C 65.667969 17.304688 65.808594 15.921875 65.78125 14.574219 C 65.777344 14.386719 65.582031 14.265625 65.410156 14.339844 C 65.027344 14.503906 64.605469 14.6875 64.21875 14.855469 C 64.113281 14.675781 64.019531 14.511719 63.984375 14.457031 C 62.75 12.46875 61.179688 10.753906 59.308594 9.363281 C 57.394531 7.941406 55.25 6.910156 52.9375 6.300781 C 52.035156 6.066406 51.125 5.898438 50.210938 5.796875 L 50.210938 4.449219 L 52.226562 4.449219 C 52.679688 4.449219 53.046875 4.082031 53.046875 3.628906 L 53.046875 0.824219 C 53.046875 0.371094 52.679688 0.00390625 52.226562 0.00390625 L 44.050781 0.00390625 C 43.601562 0.00390625 43.230469 0.371094 43.230469 0.824219 L 43.230469 3.628906 C 43.230469 4.082031 43.601562 4.449219 44.050781 4.449219 L 46.070312 4.449219 L 46.070312 5.8125 C 46.007812 5.820312 45.941406 5.828125 45.878906 5.835938 C 43.847656 6.09375 41.890625 6.679688 40.054688 7.585938 L 15.847656 8.472656 L 37.277344 9.257812 C 36.441406 9.867188 35.660156 10.546875 34.941406 11.285156 L 2.570312 12.1875 L 33.417969 13.046875 C 33.40625 13.058594 33.394531 13.074219 33.382812 13.089844 C 32.917969 13.703125 32.5 14.347656 32.121094 15.007812 L 9.617188 15.898438 L 31.238281 16.753906 C 30.953125 17.394531 30.707031 18.050781 30.496094 18.726562 L 5.074219 19.613281 L 30.039062 20.484375 C 29.90625 21.132812 29.804688 21.785156 29.742188 22.441406 L 0.015625 23.324219 L 29.652344 24.203125 C 29.648438 24.863281 29.683594 25.519531 29.753906 26.179688 L 10.589844 27.039062 L 30.015625 27.910156 C 30.152344 28.589844 30.328125 29.261719 30.539062 29.917969 L 15.492188 30.75 L 31.179688 31.617188 C 31.464844 32.269531 31.785156 32.910156 32.144531 33.535156 C 32.164062 33.5625 32.179688 33.589844 32.195312 33.617188 L 7.472656 34.464844 L 33.347656 35.351562 C 33.878906 36.066406 34.457031 36.738281 35.082031 37.367188 L 12.734375 38.242188 L 37.222656 39.203125 C 38.242188 39.957031 39.332031 40.59375 40.476562 41.117188 L 2.363281 41.890625 L 48.214844 42.816406 C 48.980469 42.816406 49.746094 42.769531 50.511719 42.675781 C 52.980469 42.371094 55.328125 41.578125 57.5 40.328125 C 58.9375 39.496094 60.253906 38.480469 61.414062 37.3125 C 62.539062 36.179688 63.511719 34.902344 64.308594 33.511719 C 65.878906 30.777344 66.734375 27.660156 66.78125 24.503906 C 66.785156 24.230469 66.671875 23.96875 66.472656 23.78125 Z M 66.472656 23.78125 " fill-opacity="1" fill-rule="nonzero"/></g></svg>