<svg xmlns="http://www.w3.org/2000/svg" xmlns:xlink="http://www.w3.org/1999/xlink" width="44" zoomAndPan="magnify" viewBox="0 0 33 48.75" height="65" preserveAspectRatio="xMidYMid meet" version="1.0"><defs><clipPath id="fc555cac3a"><path d="M 0.0859375 33 L 32.167969 33 L 32.167969 47.753906 L 0.0859375 47.753906 Z M 0.0859375 33 " clip-rule="nonzero"/></clipPath></defs><path fill="#ffffff" d="M 30.839844 40.507812 C 30.839844 40.90625 30.746094 41.300781 30.5625 41.691406 C 30.375 42.082031 30.097656 42.464844 29.730469 42.832031 C 29.363281 43.199219 28.917969 43.550781 28.382812 43.882812 C 27.851562 44.214844 27.25 44.519531 26.570312 44.800781 C 25.894531 45.082031 25.160156 45.335938 24.363281 45.558594 C 23.566406 45.777344 22.726562 45.964844 21.84375 46.117188 C 20.960938 46.269531 20.046875 46.386719 19.109375 46.464844 C 18.171875 46.542969 17.222656 46.582031 16.265625 46.582031 C 15.308594 46.582031 14.363281 46.542969 13.421875 46.464844 C 12.484375 46.386719 11.574219 46.269531 10.691406 46.117188 C 9.804688 45.964844 8.964844 45.777344 8.171875 45.558594 C 7.375 45.335938 6.636719 45.082031 5.960938 44.800781 C 5.285156 44.519531 4.679688 44.214844 4.148438 43.882812 C 3.617188 43.550781 3.167969 43.199219 2.800781 42.832031 C 2.4375 42.464844 2.160156 42.082031 1.972656 41.691406 C 1.785156 41.300781 1.691406 40.90625 1.691406 40.507812 C 1.691406 40.109375 1.785156 39.714844 1.972656 39.324219 C 2.160156 38.929688 2.4375 38.550781 2.800781 38.183594 C 3.167969 37.816406 3.617188 37.464844 4.148438 37.132812 C 4.679688 36.800781 5.285156 36.496094 5.960938 36.214844 C 6.636719 35.929688 7.375 35.679688 8.171875 35.457031 C 8.964844 35.234375 9.804688 35.050781 10.691406 34.894531 C 11.574219 34.742188 12.484375 34.628906 13.421875 34.550781 C 14.363281 34.472656 15.308594 34.433594 16.265625 34.433594 C 17.222656 34.433594 18.171875 34.472656 19.109375 34.550781 C 20.046875 34.628906 20.960938 34.742188 21.84375 34.894531 C 22.726562 35.050781 23.566406 35.234375 24.363281 35.457031 C 25.160156 35.679688 25.894531 35.929688 26.570312 36.214844 C 27.25 36.496094 27.851562 36.800781 28.382812 37.132812 C 28.917969 37.464844 29.363281 37.816406 29.730469 38.183594 C 30.097656 38.550781 30.375 38.929688 30.5625 39.324219 C 30.746094 39.714844 30.839844 40.109375 30.839844 40.507812 Z M 30.839844 40.507812 " fill-opacity="1" fill-rule="nonzero"/><g clip-path="url(#fc555cac3a)"><path fill="#606060" d="M 16.265625 47.964844 C 8.53125 47.964844 0.308594 45.351562 0.308594 40.507812 C 0.308594 35.664062 8.53125 33.046875 16.265625 33.046875 C 24.003906 33.046875 32.226562 35.664062 32.226562 40.507812 C 32.226562 45.351562 24.003906 47.964844 16.265625 47.964844 Z M 16.265625 35.820312 C 8.097656 35.820312 3.078125 38.546875 3.078125 40.507812 C 3.078125 42.46875 8.097656 45.195312 16.265625 45.195312 C 24.433594 45.195312 29.457031 42.46875 29.457031 40.507812 C 29.457031 38.546875 24.433594 35.820312 16.265625 35.820312 Z M 16.265625 35.820312 " fill-opacity="1" fill-rule="nonzero"/></g><path fill="#ffffff" d="M 23.183594 14.929688 C 23.183594 15.378906 23.136719 15.828125 23.046875 16.269531 C 22.960938 16.714844 22.828125 17.144531 22.652344 17.5625 C 22.476562 17.980469 22.261719 18.375 22.007812 18.753906 C 21.753906 19.128906 21.46875 19.476562 21.144531 19.796875 C 20.820312 20.113281 20.46875 20.398438 20.089844 20.652344 C 19.710938 20.902344 19.308594 21.113281 18.886719 21.285156 C 18.464844 21.460938 18.027344 21.589844 17.582031 21.679688 C 17.132812 21.765625 16.679688 21.8125 16.222656 21.8125 C 15.765625 21.8125 15.3125 21.765625 14.863281 21.679688 C 14.417969 21.589844 13.980469 21.460938 13.558594 21.285156 C 13.136719 21.113281 12.734375 20.902344 12.355469 20.652344 C 11.976562 20.398438 11.625 20.113281 11.300781 19.796875 C 10.976562 19.476562 10.6875 19.128906 10.433594 18.753906 C 10.179688 18.375 9.96875 17.980469 9.792969 17.5625 C 9.617188 17.144531 9.484375 16.714844 9.394531 16.269531 C 9.308594 15.828125 9.261719 15.378906 9.261719 14.929688 C 9.261719 14.476562 9.308594 14.027344 9.394531 13.585938 C 9.484375 13.140625 9.617188 12.710938 9.792969 12.292969 C 9.96875 11.878906 10.179688 11.480469 10.433594 11.105469 C 10.6875 10.730469 10.976562 10.382812 11.300781 10.0625 C 11.625 9.742188 11.976562 9.457031 12.355469 9.207031 C 12.734375 8.953125 13.136719 8.742188 13.558594 8.570312 C 13.980469 8.398438 14.417969 8.265625 14.863281 8.179688 C 15.3125 8.089844 15.765625 8.046875 16.222656 8.046875 C 16.679688 8.046875 17.132812 8.089844 17.582031 8.179688 C 18.027344 8.265625 18.464844 8.398438 18.886719 8.570312 C 19.308594 8.742188 19.710938 8.953125 20.089844 9.207031 C 20.46875 9.457031 20.820312 9.742188 21.144531 10.0625 C 21.46875 10.382812 21.753906 10.730469 22.007812 11.105469 C 22.261719 11.480469 22.476562 11.878906 22.652344 12.292969 C 22.828125 12.710938 22.960938 13.140625 23.046875 13.585938 C 23.136719 14.027344 23.183594 14.476562 23.183594 14.929688 Z M 23.183594 14.929688 " fill-opacity="1" fill-rule="nonzero"/><path fill="#606060" d="M 16.222656 22.375 C 12.078125 22.375 8.707031 19.039062 8.707031 14.941406 C 8.707031 10.839844 12.078125 7.503906 16.222656 7.503906 C 20.367188 7.503906 23.738281 10.839844 23.738281 14.941406 C 23.738281 19.039062 20.367188 22.375 16.222656 22.375 Z M 16.222656 8.601562 C 12.6875 8.601562 9.816406 11.4375 9.816406 14.929688 C 9.816406 18.417969 12.6875 21.257812 16.222656 21.257812 C 19.757812 21.257812 22.628906 18.417969 22.628906 14.929688 C 22.628906 11.4375 19.757812 8.601562 16.222656 8.601562 Z M 16.222656 8.601562 " fill-opacity="1" fill-rule="nonzero"/><path fill="#fff1bb" d="M 16.265625 1.386719 C 22.851562 1.386719 28.390625 6.21875 29.34375 12.757812 C 29.808594 15.925781 29.113281 18.839844 27.527344 21.589844 C 24.765625 26.355469 22.03125 31.121094 19.28125 35.886719 C 18.382812 37.449219 17.476562 39.011719 16.578125 40.574219 C 16.3125 41.039062 16.246094 41.039062 15.988281 40.597656 C 13.394531 36.085938 10.792969 31.5625 8.199219 27.054688 C 6.925781 24.835938 5.539062 22.675781 4.410156 20.382812 C 3.078125 17.699219 2.722656 14.871094 3.367188 11.925781 C 4.207031 8.058594 6.359375 5.152344 9.738281 3.148438 C 11.667969 2.007812 13.984375 1.40625 16.265625 1.40625 Z M 20.621094 14.617188 C 20.667969 12.402344 18.972656 10.296875 16.3125 10.230469 C 13.917969 10.164062 11.933594 12.203125 11.933594 14.605469 C 11.933594 17.046875 13.863281 18.972656 16.300781 18.972656 C 18.703125 18.972656 20.621094 17.046875 20.621094 14.617188 Z M 20.621094 14.617188 " fill-opacity="1" fill-rule="nonzero"/><path fill="#606060" d="M 16.265625 42.304688 C 15.367188 42.304688 14.949219 41.558594 14.78125 41.285156 C 12.1875 36.773438 9.582031 32.25 6.992188 27.738281 C 6.601562 27.0625 6.203125 26.398438 5.816406 25.734375 C 4.90625 24.214844 3.976562 22.640625 3.167969 21 C 1.691406 18.042969 1.304688 14.894531 2.015625 11.625 C 2.921875 7.425781 5.292969 4.179688 9.039062 1.949219 C 11.136719 0.6875 13.707031 0 16.265625 0 C 23.582031 0 29.65625 5.273438 30.707031 12.558594 C 31.195312 15.882812 30.519531 19.160156 28.710938 22.277344 C 26.796875 25.601562 24.878906 28.925781 22.960938 32.25 L 20.246094 36.949219 C 19.414062 38.390625 18.582031 39.820312 17.75 41.261719 C 17.574219 41.570312 17.152344 42.304688 16.253906 42.304688 Z M 16.265625 2.769531 C 14.195312 2.769531 12.121094 3.324219 10.4375 4.324219 C 7.335938 6.160156 5.460938 8.746094 4.707031 12.203125 C 4.132812 14.828125 4.453125 17.367188 5.636719 19.75 C 6.402344 21.289062 7.3125 22.820312 8.199219 24.304688 C 8.597656 24.980469 9.007812 25.667969 9.394531 26.34375 C 11.691406 30.332031 13.984375 34.324219 16.277344 38.300781 C 16.808594 37.394531 17.332031 36.472656 17.863281 35.566406 L 20.578125 30.867188 C 22.496094 27.539062 24.414062 24.214844 26.339844 20.890625 C 27.847656 18.285156 28.390625 15.691406 27.992188 12.957031 C 27.140625 7.058594 22.21875 2.769531 16.289062 2.769531 Z M 16.289062 20.359375 C 14.738281 20.359375 13.296875 19.761719 12.210938 18.683594 C 11.125 17.597656 10.535156 16.160156 10.535156 14.605469 C 10.535156 13.054688 11.179688 11.546875 12.300781 10.449219 C 13.394531 9.375 14.816406 8.800781 16.332031 8.84375 C 19.570312 8.933594 22.0625 11.46875 21.996094 14.628906 C 21.996094 17.789062 19.425781 20.359375 16.289062 20.359375 Z M 16.199219 11.613281 C 15.480469 11.613281 14.78125 11.902344 14.238281 12.433594 C 13.652344 13.011719 13.320312 13.796875 13.308594 14.605469 C 13.308594 15.417969 13.617188 16.167969 14.171875 16.722656 C 14.726562 17.277344 15.480469 17.589844 16.289062 17.589844 C 17.941406 17.589844 19.226562 16.28125 19.226562 14.617188 L 19.226562 14.585938 C 19.257812 13.167969 18.160156 11.660156 16.265625 11.613281 C 16.246094 11.613281 16.222656 11.613281 16.199219 11.613281 Z M 16.199219 11.613281 " fill-opacity="1" fill-rule="nonzero"/></svg>