<svg xmlns="http://www.w3.org/2000/svg" xmlns:xlink="http://www.w3.org/1999/xlink" width="63" zoomAndPan="magnify" viewBox="0 0 47.25 38.249999" height="51" preserveAspectRatio="xMidYMid meet" version="1.0"><defs><clipPath id="af52657fa8"><path d="M 0.0859375 0 L 45.691406 0 L 45.691406 33 L 0.0859375 33 Z M 0.0859375 0 " clip-rule="nonzero"/></clipPath><clipPath id="97db5300c9"><path d="M 21 13 L 45.691406 13 L 45.691406 37.515625 L 21 37.515625 Z M 21 13 " clip-rule="nonzero"/></clipPath></defs><g clip-path="url(#af52657fa8)"><path fill="#5a802b" d="M 0.0859375 3.289062 C 0.0859375 1.476562 1.554688 0.0078125 3.367188 0.0078125 L 42.753906 0.0078125 C 44.566406 0.0078125 46.035156 1.476562 46.035156 3.289062 L 46.035156 12.042969 L 43.847656 12.042969 L 43.847656 3.289062 C 43.847656 2.6875 43.359375 2.195312 42.753906 2.195312 L 3.367188 2.195312 C 2.765625 2.195312 2.273438 2.6875 2.273438 3.289062 L 2.273438 29.546875 C 2.273438 30.152344 2.765625 30.640625 3.367188 30.640625 L 18.6875 30.640625 L 18.6875 32.832031 L 3.367188 32.832031 C 1.554688 32.832031 0.0859375 31.359375 0.0859375 29.546875 Z M 0.0859375 3.289062 " fill-opacity="1" fill-rule="evenodd"/></g><path fill="#5a802b" d="M 1.179688 7.667969 L 44.941406 7.667969 L 44.941406 9.855469 L 1.179688 9.855469 Z M 1.179688 7.667969 " fill-opacity="1" fill-rule="evenodd"/><path fill="#5a802b" d="M 6.652344 22.984375 L 17.589844 22.984375 L 17.589844 25.171875 L 6.652344 25.171875 Z M 6.652344 22.984375 " fill-opacity="1" fill-rule="evenodd"/><g clip-path="url(#97db5300c9)"><path fill="#5a802b" d="M 34.003906 15.324219 C 28.5625 15.324219 24.15625 19.734375 24.15625 25.171875 C 24.15625 30.609375 28.5625 35.019531 34.003906 35.019531 C 39.441406 35.019531 43.847656 30.609375 43.847656 25.171875 C 43.847656 19.734375 39.441406 15.324219 34.003906 15.324219 Z M 21.96875 25.171875 C 21.96875 18.527344 27.355469 13.136719 34.003906 13.136719 C 40.648438 13.136719 46.035156 18.527344 46.035156 25.171875 C 46.035156 31.820312 40.648438 37.207031 34.003906 37.207031 C 27.355469 37.207031 21.96875 31.820312 21.96875 25.171875 Z M 21.96875 25.171875 " fill-opacity="1" fill-rule="evenodd"/></g><path fill="#5a802b" d="M 33.214844 27.453125 L 38.035156 20.707031 L 39.816406 21.980469 L 34.347656 29.636719 C 34.175781 29.878906 33.914062 30.039062 33.625 30.082031 C 33.332031 30.128906 33.035156 30.054688 32.800781 29.875 L 28.421875 26.59375 L 29.734375 24.84375 Z M 33.214844 27.453125 " fill-opacity="1" fill-rule="evenodd"/></svg>