<svg id="play" xmlns="http://www.w3.org/2000/svg" width="20" height="20" viewBox="0 0 20 20">
  <path id="Path_3004" data-name="Path 3004" d="M18.893,5.423A10.089,10.089,0,0,0,15.94,1.955a.407.407,0,1,0-.484.655A9.271,9.271,0,0,1,18.17,5.8,9.085,9.085,0,0,1,19.186,10,9.186,9.186,0,1,1,10,.814.407.407,0,1,0,10,0a9.994,9.994,0,1,0,8.893,5.423Z" transform="translate(0 0)" fill="#5dd9c1"/>
  <path id="Path_3005" data-name="Path 3005" d="M106.879,78.241a.426.426,0,0,0-.215.37v9.346a.426.426,0,0,0,.852,0v-8.6l6.305,3.753L109.184,86.1a.426.426,0,1,0,.461.716l5.214-3.36a.426.426,0,0,0-.013-.724l-7.539-4.488A.426.426,0,0,0,106.879,78.241Z" transform="translate(-99.653 -73.115)" fill="#5dd9c1"/>
</svg>
