<svg xmlns="http://www.w3.org/2000/svg" width="27.242" height="23.689" viewBox="0 0 27.242 23.689">
  <path id="portfolio" d="M26.449,3.159H19.208v-.79A2.384,2.384,0,0,0,16.814,0H10.429A2.384,2.384,0,0,0,8.034,2.369v.79H.8a.8.8,0,0,0-.8.79V21.32a2.384,2.384,0,0,0,2.394,2.369H24.848a2.384,2.384,0,0,0,2.394-2.369V3.962a.771.771,0,0,0-.793-.8ZM9.631,2.369a.8.8,0,0,1,.8-.79h6.385a.8.8,0,0,1,.8.79v.79H9.631ZM25.337,4.738l-2.478,7.356a.8.8,0,0,1-.757.54h-4.49v-.79a.794.794,0,0,0-.8-.79H10.429a.794.794,0,0,0-.8.79v.79H5.141a.8.8,0,0,1-.757-.54L1.906,4.738Zm-9.321,7.9v1.579H11.227V12.634Zm9.63,8.686a.8.8,0,0,1-.8.79H2.395a.8.8,0,0,1-.8-.79V8.814L2.87,12.593a2.389,2.389,0,0,0,2.271,1.62h4.49V15a.794.794,0,0,0,.8.79h6.385a.794.794,0,0,0,.8-.79v-.79H22.1a2.389,2.389,0,0,0,2.271-1.62l1.273-3.779Zm0,0" transform="translate(0)" fill="#fff"/>
</svg>
