<svg xmlns="http://www.w3.org/2000/svg" xmlns:xlink="http://www.w3.org/1999/xlink" width="65" zoomAndPan="magnify" viewBox="0 0 48.75 44.249999" height="59" preserveAspectRatio="xMidYMid meet" version="1.0"><defs><clipPath id="a63b605184"><path d="M 0.285156 0 L 37 0 L 37 42.773438 L 0.285156 42.773438 Z M 0.285156 0 " clip-rule="nonzero"/></clipPath><clipPath id="bfee484261"><path d="M 40 14 L 47.484375 14 L 47.484375 17 L 40 17 Z M 40 14 " clip-rule="nonzero"/></clipPath></defs><path fill="#ff914d" d="M 14.316406 30.703125 C 14.511719 31.234375 14.238281 31.824219 13.707031 32.019531 C 13.171875 32.210938 12.585938 31.9375 12.390625 31.40625 C 12.199219 30.875 12.472656 30.285156 13.003906 30.089844 C 13.535156 29.898438 14.125 30.171875 14.316406 30.703125 Z M 14.316406 30.703125 " fill-opacity="1" fill-rule="nonzero"/><path fill="#ff914d" d="M 15.878906 12.304688 C 15.878906 12.550781 15.792969 12.765625 15.617188 12.941406 C 15.441406 13.117188 15.226562 13.203125 14.980469 13.203125 C 14.730469 13.203125 14.519531 13.117188 14.34375 12.941406 C 14.167969 12.765625 14.078125 12.550781 14.078125 12.304688 C 14.078125 12.054688 14.167969 11.84375 14.34375 11.667969 C 14.519531 11.492188 14.730469 11.402344 14.980469 11.402344 C 15.226562 11.402344 15.441406 11.492188 15.617188 11.667969 C 15.792969 11.84375 15.878906 12.054688 15.878906 12.304688 Z M 15.878906 12.304688 " fill-opacity="1" fill-rule="nonzero"/><g clip-path="url(#a63b605184)"><path fill="#ff914d" d="M 32.941406 19.445312 C 35.910156 18.320312 37.441406 15 36.351562 12.003906 C 35.351562 9.066406 31.867188 7.410156 28.960938 8.492188 L 26.789062 2.519531 C 26.242188 0.90625 24.320312 0.0078125 22.734375 0.625 C 21.222656 1.175781 20.382812 2.769531 20.730469 4.300781 C 19.632812 6.214844 18.296875 7.988281 16.757812 9.574219 C 16.488281 9.851562 16.496094 10.292969 16.773438 10.5625 C 17.050781 10.832031 17.492188 10.828125 17.761719 10.550781 C 19.105469 9.167969 20.300781 7.648438 21.328125 6.019531 L 28.683594 26.253906 C 23.484375 24.601562 17.832031 24.511719 12.585938 26.011719 L 9.152344 16.566406 C 10.378906 16.019531 11.574219 15.378906 12.707031 14.660156 C 13.03125 14.453125 13.128906 14.023438 12.921875 13.695312 C 12.714844 13.367188 12.28125 13.273438 11.957031 13.480469 C 9.667969 15.113281 5.0625 16.613281 2.410156 17.582031 C 1.011719 18.09375 0.289062 19.648438 0.796875 21.046875 L 3.308594 27.957031 C 3.773438 29.332031 5.417969 30.097656 6.769531 29.574219 L 8.441406 28.964844 L 12.792969 40.929688 C 13.199219 42.140625 14.675781 42.789062 15.84375 42.265625 L 18.832031 41.007812 C 19.964844 40.53125 20.523438 39.253906 20.101562 38.097656 L 15.957031 26.691406 C 20.425781 25.964844 25.066406 26.394531 29.328125 27.957031 C 30.007812 29.34375 31.777344 30.042969 33.222656 29.480469 C 34.863281 28.882812 35.710938 27.0625 35.113281 25.425781 Z M 6.289062 28.257812 C 5.636719 28.511719 4.847656 28.140625 4.625 27.480469 L 4.207031 26.335938 L 6.84375 25.375 C 7.207031 25.242188 7.394531 24.839844 7.261719 24.476562 C 7.128906 24.113281 6.726562 23.925781 6.363281 24.058594 L 3.730469 25.019531 L 3.007812 23.03125 L 5.644531 22.070312 C 6.007812 21.9375 6.195312 21.535156 6.0625 21.171875 C 5.929688 20.808594 5.527344 20.621094 5.164062 20.753906 L 2.527344 21.714844 L 2.113281 20.570312 C 1.867188 19.894531 2.214844 19.144531 2.890625 18.898438 L 7.851562 17.089844 L 11.253906 26.449219 Z M 16.882812 33.332031 L 12.148438 35.058594 L 9.757812 28.484375 L 12.367188 27.535156 C 13.089844 27.316406 13.828125 27.117188 14.5625 26.957031 Z M 32.742188 28.164062 C 31.859375 28.507812 30.789062 28.007812 30.484375 27.109375 L 22.160156 4.203125 C 21.828125 3.289062 22.300781 2.273438 23.214844 1.941406 C 24.097656 1.597656 25.167969 2.097656 25.472656 2.996094 L 33.796875 25.902344 C 34.128906 26.816406 33.65625 27.832031 32.742188 28.164062 Z M 32.742188 28.164062 " fill-opacity="1" fill-rule="nonzero"/></g><path fill="#ff914d" d="M 38.148438 6.597656 C 37.550781 6.617188 37.207031 5.820312 37.65625 5.402344 L 41.265625 1.785156 C 41.539062 1.511719 41.980469 1.511719 42.257812 1.785156 C 42.53125 2.058594 42.53125 2.5 42.257812 2.773438 L 38.644531 6.390625 C 38.507812 6.527344 38.328125 6.597656 38.148438 6.597656 Z M 38.148438 6.597656 " fill-opacity="1" fill-rule="nonzero"/><g clip-path="url(#bfee484261)"><path fill="#ff914d" d="M 46.753906 16.714844 C 46.734375 16.714844 41.605469 16.269531 41.605469 16.269531 C 41.21875 16.234375 40.933594 15.894531 40.96875 15.507812 C 41.003906 15.125 41.339844 14.839844 41.726562 14.875 L 46.8125 15.320312 C 47.199219 15.351562 47.484375 15.691406 47.449219 16.078125 C 47.417969 16.441406 47.113281 16.714844 46.753906 16.714844 Z M 46.753906 16.714844 " fill-opacity="1" fill-rule="nonzero"/></g><path fill="#ff914d" d="M 40.507812 11.214844 C 39.753906 11.242188 39.539062 10.097656 40.269531 9.855469 L 45.066406 8.109375 C 45.429688 7.976562 45.832031 8.164062 45.964844 8.527344 C 46.097656 8.890625 45.910156 9.292969 45.546875 9.421875 L 40.75 11.171875 C 40.667969 11.203125 40.589844 11.214844 40.507812 11.214844 Z M 40.507812 11.214844 " fill-opacity="1" fill-rule="nonzero"/></svg>