<svg xmlns="http://www.w3.org/2000/svg" width="16" height="30" viewBox="0 0 16 30">
  <path id="upload" d="M121.14,0a8.077,8.077,0,0,0-8,8.135v15.4a.978.978,0,1,0,1.956,0V8.135a6.045,6.045,0,1,1,12.088,0V24.013a3.97,3.97,0,0,1-3.932,4c-.016,0-.031.009-.047.01s-.031-.01-.048-.01a3.97,3.97,0,0,1-3.932-4V14.488a1.915,1.915,0,1,1,3.83,0v9.047a.978.978,0,1,0,1.956,0V14.488a3.872,3.872,0,1,0-7.742,0v9.524A5.945,5.945,0,0,0,123.157,30c.017,0,.031-.009.048-.01s.031.01.047.01a5.946,5.946,0,0,0,5.888-5.987V8.135A8.077,8.077,0,0,0,121.14,0Z" transform="translate(-113.14)" fill="#707070"/>
</svg>
