<svg xmlns="http://www.w3.org/2000/svg" width="40" height="40" viewBox="0 0 40 40">
  <g id="wc1" transform="translate(0 -0.119)">
    <g id="Group_921" data-name="Group 921" transform="translate(36.017 9.477)">
      <g id="Group_920" data-name="Group 920">
        <path id="Path_1107" data-name="Path 1107" d="M462.414,120.8a.6.6,0,0,0-1.027.618,18.9,18.9,0,0,1,.191,19.142.6.6,0,1,0,1.039.6A20.1,20.1,0,0,0,462.414,120.8Z" transform="translate(-461.301 -120.514)" fill="#fff"/>
      </g>
    </g>
    <g id="Group_923" data-name="Group 923" transform="translate(9.69 0.119)">
      <g id="Group_922" data-name="Group 922" transform="translate(0 0)">
        <path id="Path_1108" data-name="Path 1108" d="M144.811,2.632a20.2,20.2,0,0,0-19.766.14.6.6,0,1,0,.6,1.039,19,19,0,0,1,18.587-.132.6.6,0,0,0,.582-1.048Z" transform="translate(-124.743 -0.119)" fill="#fff"/>
      </g>
    </g>
    <g id="Group_925" data-name="Group 925" transform="translate(0 9.612)">
      <g id="Group_924" data-name="Group 924" transform="translate(0)">
        <path id="Path_1109" data-name="Path 1109" d="M3.6,122.279a.6.6,0,0,0-.821.211,20.147,20.147,0,0,0-.469,19.592.6.6,0,0,0,1.06-.559,19.022,19.022,0,0,1,.44-18.423A.6.6,0,0,0,3.6,122.279Z" transform="translate(0 -122.195)" fill="#fff"/>
      </g>
    </g>
    <g id="Group_927" data-name="Group 927" transform="translate(9.542 36.257)">
      <g id="Group_926" data-name="Group 926">
        <path id="Path_1110" data-name="Path 1110" d="M143.3,463.245a.6.6,0,0,0-.815-.233,18.972,18.972,0,0,1-18.731-.216.6.6,0,1,0-.606,1.034,20.176,20.176,0,0,0,19.92.23A.6.6,0,0,0,143.3,463.245Z" transform="translate(-122.848 -462.714)" fill="#fff"/>
      </g>
    </g>
    <g id="Group_929" data-name="Group 929" transform="translate(29.689 2.281)">
      <g id="Group_928" data-name="Group 928">
        <path id="Path_1111" data-name="Path 1111" d="M387.343,28.758a3.857,3.857,0,1,0,0,5.454A3.861,3.861,0,0,0,387.343,28.758Zm-.848,4.607h0a2.657,2.657,0,1,1,0-3.759A2.641,2.641,0,0,1,386.5,33.364Z" transform="translate(-380.759 -27.63)" fill="#fff"/>
      </g>
    </g>
    <g id="Group_931" data-name="Group 931" transform="translate(2.245 29.744)">
      <g id="Group_930" data-name="Group 930">
        <path id="Path_1112" data-name="Path 1112" d="M35.161,380.94a3.855,3.855,0,1,0,0,5.454h0A3.861,3.861,0,0,0,35.161,380.94Zm-.848,4.607a2.657,2.657,0,1,1,0-3.759A2.661,2.661,0,0,1,34.313,385.547Z" transform="translate(-28.577 -379.812)" fill="#fff"/>
      </g>
    </g>
    <g id="Group_933" data-name="Group 933" transform="translate(29.689 29.744)">
      <g id="Group_932" data-name="Group 932">
        <path id="Path_1113" data-name="Path 1113" d="M387.343,380.939a3.857,3.857,0,0,0-5.454,5.454h0a3.857,3.857,0,0,0,5.454-5.454Zm-.848,4.607a2.661,2.661,0,0,1-3.759,0h0a2.658,2.658,0,1,1,3.759,0Z" transform="translate(-380.759 -379.811)" fill="#fff"/>
      </g>
    </g>
    <g id="Group_935" data-name="Group 935" transform="translate(2.245 2.281)">
      <g id="Group_934" data-name="Group 934">
        <path id="Path_1114" data-name="Path 1114" d="M35.161,28.758a3.857,3.857,0,1,0,0,5.454A3.861,3.861,0,0,0,35.161,28.758Zm-.848,4.607a2.658,2.658,0,0,1-3.759,0h0a2.658,2.658,0,1,1,3.759,0Z" transform="translate(-28.577 -27.63)" fill="#fff"/>
      </g>
    </g>
    <g id="Group_937" data-name="Group 937" transform="translate(17.611 19.994)">
      <g id="Group_936" data-name="Group 936">
        <path id="Path_1115" data-name="Path 1115" d="M227.875,254.64a2.48,2.48,0,0,0-1.62,4.179v1.487a.6.6,0,0,0,.6.6h1.957a.6.6,0,0,0,.6-.6v-1.483a2.22,2.22,0,0,0,.758-1.89A2.3,2.3,0,0,0,227.875,254.64Zm.694,3.295a.6.6,0,0,0-.357.548v1.224h-.759v-1.224a.6.6,0,0,0-.357-.548c-.21-.092-.316-.273-.316-1a1.095,1.095,0,1,1,2.189,0C228.97,257.758,228.7,257.877,228.57,257.935Z" transform="translate(-225.582 -254.64)" fill="#fff"/>
      </g>
    </g>
    <g id="Group_939" data-name="Group 939" transform="translate(13.731 9.907)">
      <g id="Group_938" data-name="Group 938">
        <path id="Path_1116" data-name="Path 1116" d="M186.752,133.44h-.589v-4.406a3.085,3.085,0,0,0-3.081-3.081h-1.43a3.085,3.085,0,0,0-3.081,3.081v4.406h-.589a1.791,1.791,0,0,0-1.789,1.789v8.442a1.791,1.791,0,0,0,1.789,1.788h8.77a1.791,1.791,0,0,0,1.789-1.788v-8.442A1.791,1.791,0,0,0,186.752,133.44Zm-6.982-4.406a1.885,1.885,0,0,1,1.882-1.882h1.43a1.884,1.884,0,0,1,1.882,1.882v4.406h-5.2v-4.406Zm7.572,14.636a.591.591,0,0,1-.59.59h-8.77a.591.591,0,0,1-.59-.59v-8.442a.591.591,0,0,1,.59-.59h8.77a.591.591,0,0,1,.59.59Z" transform="translate(-176.194 -125.953)" fill="#fff"/>
      </g>
    </g>
  </g>
</svg>
