<?xml version="1.0" encoding="UTF-8"?>
<svg version="1.1" xmlns="http://www.w3.org/2000/svg" width="64" height="64">
<path d="M0 0 C0.7425 0.556875 1.485 1.11375 2.25 1.6875 C3.3946875 2.5228125 3.3946875 2.5228125 4.5625 3.375 C6.58122111 6.14139559 6.65318593 8.20724783 6.5859375 11.58984375 C6.25 13.6875 6.25 13.6875 4.25 18.6875 C13.16 18.6875 22.07 18.6875 31.25 18.6875 C31.25 24.2975 31.25 29.9075 31.25 35.6875 C31.91 35.6875 32.57 35.6875 33.25 35.6875 C34.375 39.4375 34.375 39.4375 33.25 41.6875 C12.79 41.6875 -7.67 41.6875 -28.75 41.6875 C-28.75 33.7848643 -28.53501281 31.30522933 -23.75 25.6875 C-21.33644748 23.58670612 -19.0731814 21.6875 -15.75 21.6875 C-16.245 21.089375 -16.74 20.49125 -17.25 19.875 C-18.75 17.6875 -18.75 17.6875 -18.75 14.6875 C-20.07 14.6875 -21.39 14.6875 -22.75 14.6875 C-24.10439668 11.97870665 -23.81501451 9.67816732 -23.75 6.6875 C-23.13125 6.44 -22.5125 6.1925 -21.875 5.9375 C-19.60708915 4.88888866 -19.60708915 4.88888866 -18.9375 2.75 C-17.41298971 0.10216634 -15.56178964 -0.76784895 -12.75 -1.83984375 C-8.21942807 -2.91054532 -4.18441133 -1.99710541 0 0 Z M-14.125 6.375 C-15.96921807 8.99946417 -16.67169023 10.47679947 -16.75 13.6875 C-15.82976712 16.52678533 -15.82976712 16.52678533 -13.75 18.6875 C-10.6542893 19.57957179 -10.6542893 19.57957179 -7.75 19.6875 C-7.75 18.0375 -7.75 16.3875 -7.75 14.6875 C-5.44 14.6875 -3.13 14.6875 -0.75 14.6875 C-0.43214094 11.19105037 -0.35355395 9.290098 -2.3125 6.3125 C-6.39489511 3.59090326 -10.10438322 3.51824597 -14.125 6.375 Z M-19.75 7.6875 C-20.08 9.0075 -20.41 10.3275 -20.75 11.6875 C-20.09 10.3675 -19.43 9.0475 -18.75 7.6875 C-19.08 7.6875 -19.41 7.6875 -19.75 7.6875 Z M2.25 7.6875 C3.25 11.6875 3.25 11.6875 3.25 11.6875 Z M-1.75 21.6875 C0.23 22.3475 2.21 23.0075 4.25 23.6875 C4.25 22.0375 4.25 20.3875 4.25 18.6875 C1.48776722 18.6875 0.35718546 20.00175163 -1.75 21.6875 Z M7.25 21.6875 C7.25 26.3075 7.25 30.9275 7.25 35.6875 C14.18 35.6875 21.11 35.6875 28.25 35.6875 C28.25 31.0675 28.25 26.4475 28.25 21.6875 C21.32 21.6875 14.39 21.6875 7.25 21.6875 Z M-20.6796875 27.20703125 C-24.7525259 31.52346047 -24.82073105 33.18261737 -25.75 39.6875 C-16.84 39.6875 -7.93 39.6875 1.25 39.6875 C1.58 38.3675 1.91 37.0475 2.25 35.6875 C2.91 35.6875 3.57 35.6875 4.25 35.6875 C4.840444 30.39320734 4.840444 30.39320734 2.8125 25.8125 C-5.31218792 22.24556384 -13.28635622 21.38515703 -20.6796875 27.20703125 Z " fill="#C65C6E" transform="translate(29.75,17.3125)"/>
<path d="M0 0 C1.60681641 -0.01836914 1.60681641 -0.01836914 3.24609375 -0.03710938 C4.26832031 -0.03904297 5.29054688 -0.04097656 6.34375 -0.04296875 C7.28412109 -0.04707764 8.22449219 -0.05118652 9.19335938 -0.05541992 C11.5 0.1875 11.5 0.1875 13.5 2.1875 C13.6721221 5.0581466 13.73223075 7.82002342 13.6875 10.6875 C13.68685547 11.47253906 13.68621094 12.25757813 13.68554688 13.06640625 C13.64046848 18.90656304 13.64046848 18.90656304 12.5 21.1875 C10.31634186 21.34157086 8.1264095 21.40964537 5.9375 21.4375 C-0.89824919 21.79360134 -4.72109047 23.3343838 -9.5 28.1875 C-10.5 27.1875 -10.5 27.1875 -10.5625 24.125 C-10.541875 23.155625 -10.52125 22.18625 -10.5 21.1875 C-11.49 20.8575 -12.48 20.5275 -13.5 20.1875 C-13.5 13.9175 -13.5 7.6475 -13.5 1.1875 C-9.49700128 -0.81399936 -4.40083269 0.00264791 0 0 Z M-7.5 6.1875 C-7.5 6.5175 -7.5 6.8475 -7.5 7.1875 C-2.55 7.1875 2.4 7.1875 7.5 7.1875 C7.5 6.8575 7.5 6.5275 7.5 6.1875 C2.55 6.1875 -2.4 6.1875 -7.5 6.1875 Z M-7.5 10.1875 C-7.5 10.5175 -7.5 10.8475 -7.5 11.1875 C-2.55 11.1875 2.4 11.1875 7.5 11.1875 C7.5 10.8575 7.5 10.5275 7.5 10.1875 C2.55 10.1875 -2.4 10.1875 -7.5 10.1875 Z M-7.5 14.1875 C-7.5 14.5175 -7.5 14.8475 -7.5 15.1875 C-5.85 15.1875 -4.2 15.1875 -2.5 15.1875 C-2.5 14.8575 -2.5 14.5275 -2.5 14.1875 C-4.15 14.1875 -5.8 14.1875 -7.5 14.1875 Z " fill="#89408A" transform="translate(50.5,3.8125)"/>
<path d="M0 0 C2.5 0.125 2.5 0.125 3.5 1.125 C3.625 3.625 3.625 3.625 3.5 6.125 C2.5 7.125 2.5 7.125 0 7.25 C-2.5 7.125 -2.5 7.125 -3.5 6.125 C-3.625 3.625 -3.625 3.625 -3.5 1.125 C-2.5 0.125 -2.5 0.125 0 0 Z " fill="#B94578" transform="translate(47.5,41.875)"/>
</svg>
