<svg xmlns="http://www.w3.org/2000/svg" width="60" height="60" viewBox="0 0 60 60">
  <g id="ds1" transform="translate(0 -0.023)">
    <g id="Group_751" data-name="Group 751" transform="translate(17.895 44.994)">
      <g id="Group_750" data-name="Group 750">
        <path id="Path_751" data-name="Path 751" d="M155.088,384.807a1.233,1.233,0,0,0-.067-.222,1.2,1.2,0,0,0-.109-.2,1.148,1.148,0,0,0-.326-.326,1.165,1.165,0,0,0-.2-.109,1.111,1.111,0,0,0-.221-.067,1.163,1.163,0,0,0-.461,0,1.147,1.147,0,0,0-.222.067,1.2,1.2,0,0,0-.2.109,1.181,1.181,0,0,0-.435.529,1.146,1.146,0,0,0-.067.222,1.135,1.135,0,0,0,0,.461,1.11,1.11,0,0,0,.067.221,1.092,1.092,0,0,0,.109.2,1.148,1.148,0,0,0,.326.326,1.192,1.192,0,0,0,.2.109,1.145,1.145,0,0,0,.222.067,1.135,1.135,0,0,0,.461,0,1.109,1.109,0,0,0,.221-.067,1.168,1.168,0,0,0,.2-.109,1.148,1.148,0,0,0,.326-.326,1.164,1.164,0,0,0,.109-.2,1.192,1.192,0,0,0,.067-.221,1.135,1.135,0,0,0,0-.461Z" transform="translate(-152.75 -383.857)" fill="#21bcff"/>
      </g>
    </g>
    <g id="Group_753" data-name="Group 753" transform="translate(0 36.16)">
      <g id="Group_752" data-name="Group 752">
        <path id="Path_752" data-name="Path 752" d="M53.861,319.968l-.014-.035c-1.078-2.544-3.605-3.484-6.6-2.453l-8.157,2.275a5.371,5.371,0,0,0-3.311-3.289l-.031-.011-8.967-3.07a9.223,9.223,0,0,0-7.461-3.463c-3.059,0-5.765,2.117-7.313,4.424H1.171A1.176,1.176,0,0,0,0,315.527v14.89A1.176,1.176,0,0,0,1.171,331.6H8.133A1.176,1.176,0,0,0,9.3,330.417V329.4h3.265a1.176,1.176,0,0,0,1.171-1.181v-.34a8.257,8.257,0,0,1,4.277,1.548,70.633,70.633,0,0,0,7.034,3.623l.051.022a10.432,10.432,0,0,0,3.767.716,9.265,9.265,0,0,0,3.879-.838l18.031-6.512c.032-.012.064-.025.095-.039C52.6,325.6,55.165,323.344,53.861,319.968Zm-46.9,9.268H2.342V316.708h4.62Zm4.436-2.2H9.3V316.708H11.4Zm38.541-2.8L31.916,330.74l-.053.021-.047.021a7.529,7.529,0,0,1-5.831.1,67.629,67.629,0,0,1-6.8-3.5,10.48,10.48,0,0,0-5.447-1.869V316c1.11-1.835,3.262-3.713,5.583-3.713A6.743,6.743,0,0,1,25.054,315a1.173,1.173,0,0,0,.621.5l9.306,3.186a2.652,2.652,0,0,1,1.911,3.127,2.282,2.282,0,0,1-1.084,1.381,2.25,2.25,0,0,1-1.719.208L23.6,320.047a1.169,1.169,0,0,0-1.47.769,1.183,1.183,0,0,0,.762,1.483L33.4,325.658l.033.01a4.618,4.618,0,0,0,5.711-3.21q.04-.144.072-.287l8.792-2.457c1.27-.437,2.937-.6,3.679,1.129C52.454,322.868,50.458,323.981,49.939,324.231Z" transform="translate(0 -309.922)" fill="#21bcff"/>
      </g>
    </g>
    <g id="Group_755" data-name="Group 755" transform="translate(39.743 14.49)">
      <g id="Group_754" data-name="Group 754">
        <path id="Path_753" data-name="Path 753" d="M341.59,124.448a1.151,1.151,0,0,0-.069-.222,1.119,1.119,0,0,0-.109-.2,1.148,1.148,0,0,0-.326-.326,1.2,1.2,0,0,0-.2-.109,1.176,1.176,0,0,0-.683-.067,1.109,1.109,0,0,0-.221.067,1.164,1.164,0,0,0-.2.109,1.147,1.147,0,0,0-.326.326,1.2,1.2,0,0,0-.109.2,1.145,1.145,0,0,0-.067.222,1.135,1.135,0,0,0,0,.461,1.109,1.109,0,0,0,.067.221,1.163,1.163,0,0,0,.109.2,1.147,1.147,0,0,0,.326.326,1.164,1.164,0,0,0,.2.109,1.193,1.193,0,0,0,.221.067,1.163,1.163,0,0,0,.23.024,1.184,1.184,0,0,0,.231-.024,1.251,1.251,0,0,0,.221-.067,1.2,1.2,0,0,0,.2-.109,1.148,1.148,0,0,0,.326-.326,1.091,1.091,0,0,0,.109-.2,1.111,1.111,0,0,0,.069-.221,1.194,1.194,0,0,0,0-.461Z" transform="translate(-339.25 -123.498)" fill="#21bcff"/>
      </g>
    </g>
    <g id="Group_757" data-name="Group 757" transform="translate(3.507 0.023)">
      <g id="Group_756" data-name="Group 756" transform="translate(0 0)">
        <path id="Path_754" data-name="Path 754" d="M85.013,4.023H78.049A1.176,1.176,0,0,0,76.877,5.2v1.02H73.611A1.176,1.176,0,0,0,72.44,7.405v.34A8.262,8.262,0,0,1,68.161,6.2a70.663,70.663,0,0,0-7.037-3.623l-.052-.022a9.889,9.889,0,0,0-7.649.121l-4.713,1.7L44.738.369a1.165,1.165,0,0,0-1.656,0L30.038,13.521a1.178,1.178,0,0,0,0,1.67L52.327,37.665a1.258,1.258,0,0,0,1.657,0L65.891,25.658c.31.027.631.041.964.041,3.06,0,5.767-2.117,7.316-4.424H85.013a1.176,1.176,0,0,0,1.171-1.181V5.2A1.176,1.176,0,0,0,85.013,4.023ZM43.91,2.875l2.67,2.692a5.071,5.071,0,0,1-5.339,0ZM35.193,17.048l-2.67-2.692,2.67-2.692a5.186,5.186,0,0,1,0,5.384ZM53.155,35.16l-2.669-2.691a5.064,5.064,0,0,1,5.338,0Zm4.357-4.393a7.394,7.394,0,0,0-8.713,0L36.88,18.749a7.556,7.556,0,0,0,0-8.787l2.673-2.695a7.394,7.394,0,0,0,8.714,0L50.8,9.822A4.642,4.642,0,0,0,47.315,12.4a6.657,6.657,0,0,0-3.5,1.859,6.78,6.78,0,0,0,0,9.521,6.646,6.646,0,0,0,9.443,0,6.719,6.719,0,0,0,1.737-3.047l3.955,1.353a7.59,7.59,0,0,0,1.241,5.986ZM50.39,19.156l.031.011,2.342.8A4.362,4.362,0,0,1,51.6,22.107a4.314,4.314,0,0,1-6.129,0,4.4,4.4,0,0,1,0-6.18,4.329,4.329,0,0,1,1.413-.951A5.218,5.218,0,0,0,50.39,19.156Zm11.484,7.212a5.2,5.2,0,0,1-.748-2.456,9.085,9.085,0,0,0,2.066,1.128ZM72.44,19.624c-1.11,1.835-3.263,3.713-5.585,3.713a8.456,8.456,0,0,1-1.222-.087h0a6.7,6.7,0,0,1-4.339-2.394c-.024-.035-.126-.17-.141-.192a1.17,1.17,0,0,0-.646-.541l-9.313-3.187a2.652,2.652,0,0,1-1.912-3.125V13.8a2.283,2.283,0,0,1,1.083-1.377,2.25,2.25,0,0,1,1.72-.208l10.494,3.353a1.169,1.169,0,0,0,1.47-.769,1.183,1.183,0,0,0-.763-1.483l-8.346-2.667-.073-.073,0,0L50.543,6.222l3.714-1.341.04-.015.012,0,.047-.021a7.533,7.533,0,0,1,5.833-.1,67.645,67.645,0,0,1,6.8,3.5,10.485,10.485,0,0,0,5.449,1.869Zm4.437-.71H74.783V8.586h2.095Zm6.964,0H79.22V6.385h4.622Z" transform="translate(-29.691 -0.023)" fill="#21bcff"/>
      </g>
    </g>
  </g>
</svg>
