<svg xmlns="http://www.w3.org/2000/svg" width="60" height="60" viewBox="0 0 60 60">
  <g id="ds2" transform="translate(-1 -1)">
    <path id="Path_722" data-name="Path 722" d="M59.29,38H37.915A2.918,2.918,0,0,0,35,40.915v13.6a2.918,2.918,0,0,0,2.915,2.915H59.29A2.918,2.918,0,0,0,62.2,54.517v-13.6A2.918,2.918,0,0,0,59.29,38Zm.972,16.517a.972.972,0,0,1-.972.972H37.915a.972.972,0,0,1-.972-.972v-13.6a.972.972,0,0,1,.972-.972H59.29a.972.972,0,0,1,.972.972Z" transform="translate(-1.204 -1.29)" fill="#f99c5e"/>
    <path id="Path_723" data-name="Path 723" d="M55.517,42A2.918,2.918,0,0,0,52.6,44.915a2.881,2.881,0,0,0,.2,1.045L50.16,48.227a2.842,2.842,0,0,0-3.334.318l-2.047-1.17a3.017,3.017,0,0,0,.051-.517,2.915,2.915,0,1,0-2.915,2.915,2.889,2.889,0,0,0,1.891-.715l2.047,1.17a3.017,3.017,0,0,0-.051.517,2.915,2.915,0,1,0,5.83,0,2.881,2.881,0,0,0-.2-1.045l2.646-2.267a2.878,2.878,0,0,0,1.443.4,2.915,2.915,0,1,0,0-5.83Zm-13.6,5.83a.972.972,0,1,1,.972-.972A.972.972,0,0,1,41.915,47.83Zm6.8,3.886a.972.972,0,1,1,.972-.972A.972.972,0,0,1,48.716,51.716Zm6.8-5.83a.972.972,0,1,1,.972-.972A.972.972,0,0,1,55.517,45.886Z" transform="translate(-1.318 -1.403)" fill="#f99c5e"/>
    <path id="Path_724" data-name="Path 724" d="M13.886,8.886A1.945,1.945,0,0,1,15.83,10.83h1.943a3.881,3.881,0,0,0-2.915-3.748V5H12.915V6.943H10V10.83a3.89,3.89,0,0,0,3.886,3.886,1.945,1.945,0,0,1,1.943,1.943V18.6H13.886a1.945,1.945,0,0,1-1.943-1.943H10a3.881,3.881,0,0,0,2.915,3.748v2.081h1.943V20.545h2.915V16.659a3.89,3.89,0,0,0-3.886-3.886,1.945,1.945,0,0,1-1.943-1.943V8.886Z" transform="translate(-0.256 -0.114)" fill="#f99c5e"/>
    <path id="Path_725" data-name="Path 725" d="M39.886,18.83H36V30.489H53.489V13h-5.83v1.943H43.773v1.943H39.886Zm-1.943,1.943h1.943v7.773H37.943ZM49.6,14.943h1.943v13.6H49.6Zm-1.943,1.943V28.545H45.716V16.886ZM43.773,18.83v9.716H41.83V18.83Z" transform="translate(-1.233 -0.406)" fill="#f99c5e"/>
    <path id="Path_726" data-name="Path 726" d="M53.24,33.9a2.906,2.906,0,0,0,2.9-2.9V11.645a2.906,2.906,0,0,0-2.9-2.9H25.165a12.6,12.6,0,1,0-3.849,14.723V31a2.906,2.906,0,0,0,2.9,2.9h.967v3.871A1.937,1.937,0,0,1,23.25,39.71H18.306a6.773,6.773,0,1,0-9.129.3A10.655,10.655,0,0,0,1,50.355V61H21.315V49.471a1.452,1.452,0,0,1,1.191-1.429l3.095-.563a7.737,7.737,0,0,0,6.356-7.616V33.9ZM13.576,24.226A10.645,10.645,0,1,1,23.141,8.955a2.9,2.9,0,0,0-1.825,2.69v9.206a10.632,10.632,0,0,1-7.739,3.375Zm.938,25.757-.938.939-.938-.939.595-8.338h.688ZM8.739,34.871a4.837,4.837,0,1,1,4.837,4.839A4.843,4.843,0,0,1,8.739,34.871Zm21.283,4.992a5.8,5.8,0,0,1-4.766,5.713l-3.095.562a3.387,3.387,0,0,0-2.78,3.334v9.593H7.772V46.484H5.837V59.065h-2.9v-8.71a8.712,8.712,0,0,1,8.357-8.692l-.647,9.063,2.931,2.932,2.931-2.932-.648-9.08H23.25a3.874,3.874,0,0,0,3.87-3.871V29.548a1.451,1.451,0,1,1,2.9,0Zm-1.451-13.7a3.39,3.39,0,0,0-3.386,3.387v2.419h-.967A.968.968,0,0,1,23.25,31V11.645a.968.968,0,0,1,.967-.968H53.24a.968.968,0,0,1,.967.968V31a.968.968,0,0,1-.967.968H31.957V29.548A3.39,3.39,0,0,0,28.571,26.161Z" fill="#f99c5e"/>
    <path id="Path_727" data-name="Path 727" d="M26,13h1.943v1.943H26Z" transform="translate(-0.81 -0.389)" fill="#f99c5e"/>
    <path id="Path_728" data-name="Path 728" d="M30,13h1.943v1.943H30Z" transform="translate(-0.939 -0.389)" fill="#f99c5e"/>
    <path id="Path_729" data-name="Path 729" d="M34,13h1.943v1.943H34Z" transform="translate(-1.069 -0.389)" fill="#f99c5e"/>
    <path id="Path_730" data-name="Path 730" d="M26,17h7.773v1.943H26Z" transform="translate(-0.821 -0.518)" fill="#f99c5e"/>
    <path id="Path_731" data-name="Path 731" d="M26,21h7.773v1.943H26Z" transform="translate(-0.821 -0.648)" fill="#f99c5e"/>
  </g>
</svg>
