<svg xmlns="http://www.w3.org/2000/svg" width="61" height="60" viewBox="0 0 61 60">
  <g id="ds3" transform="translate(0 -5.115)">
    <g id="Group_759" data-name="Group 759" transform="translate(45.432 36.876)">
      <g id="Group_758" data-name="Group 758">
        <path id="Path_755" data-name="Path 755" d="M386.133,270.613a.885.885,0,0,0-.885.885,1.124,1.124,0,0,1-2.249,0,.885.885,0,1,0-1.771,0,2.9,2.9,0,0,0,5.79,0A.885.885,0,0,0,386.133,270.613Z" transform="translate(-381.228 -270.613)" fill="#2dcea5"/>
      </g>
    </g>
    <g id="Group_761" data-name="Group 761" transform="translate(0 5.115)">
      <g id="Group_760" data-name="Group 760" transform="translate(0 0)">
        <path id="Path_756" data-name="Path 756" d="M58.67,37.008l-2.5-.8a1.047,1.047,0,0,1-.675-.686,16.191,16.191,0,0,0-2.362-4.689,17.191,17.191,0,0,0-1.578-1.868,22.178,22.178,0,0,0,.543-5.047c-.037-2.27-.489-3.6-1.382-4.071-.481-.253-1.944-1.022-9.863,2.617a2.879,2.879,0,0,0-.525.314c-.534-.144-1.08-.277-1.629-.4l-.2-.041a12.174,12.174,0,0,0,1.087-4.512.888.888,0,1,0-1.774-.08,10.359,10.359,0,0,1-6.758,9.269,25.651,25.651,0,0,0-7.146,0,10.394,10.394,0,0,1-3.74-17.076,10.314,10.314,0,0,1,14.625,0,10.373,10.373,0,0,1,1.928,2.672.888.888,0,1,0,1.586-.8,12.148,12.148,0,0,0-2.258-3.131,12.117,12.117,0,0,0-20.685,8.6,12.171,12.171,0,0,0,5.687,10.309h0q-.828.216-1.642.487a.891.891,0,0,0,.563,1.69,23.742,23.742,0,0,1,15.016,0,.891.891,0,0,0,.563-1.69q-.813-.273-1.642-.487h0A12.126,12.126,0,0,0,37.6,23.969c.245.048.488.1.727.15q.478.1.951.222c-.01.039-.02.077-.028.117a10.664,10.664,0,0,0,.084,5.42A6.45,6.45,0,0,0,41.686,33.2a7.449,7.449,0,0,0,4.37,1.392,5.84,5.84,0,0,0,2.832-.657,5.425,5.425,0,0,0,2.087-2.975q.384.449.727.921a14.407,14.407,0,0,1,2.1,4.173A2.829,2.829,0,0,0,55.63,37.9l2.5.8a1.577,1.577,0,0,1,1.1,1.507v4.158a1.577,1.577,0,0,1-1.1,1.507L54.1,47.173a2.745,2.745,0,0,0-1.535,1.251,17.719,17.719,0,0,1-7.391,6.747,1.4,1.4,0,0,0-.73.984l-1.289,6.852a.4.4,0,0,1-.392.326H38.574a.4.4,0,0,1-.392-.326l-.714-3.787a1.4,1.4,0,0,0-1.586-1.126,36.977,36.977,0,0,1-5.53.413,35.266,35.266,0,0,1-4.069-.231,1.407,1.407,0,0,0-1.538,1.133l-.679,3.6a.4.4,0,0,1-.392.326H19.482A.4.4,0,0,1,19.089,63l-1.241-6.472a1.4,1.4,0,0,0-.716-.973A15.744,15.744,0,0,1,8.473,40.9a17.178,17.178,0,0,1,2.147-8.708,15.516,15.516,0,0,1,5.77-5.654.89.89,0,0,0-.889-1.543A16.96,16.96,0,0,0,6.926,37.661h0l-.256-.024a4.451,4.451,0,0,0-.325-1.778,3.64,3.64,0,0,0-2.7-2.363,2.45,2.45,0,0,0-2.31,1.033,2.353,2.353,0,0,0-.444,2.56c.447.925,1.6,1.579,3.5,1.99q-.079.118-.173.237A4.351,4.351,0,0,1,.909,41.078.934.934,0,0,0,0,42.009v0a.932.932,0,0,0,.891.931q.1,0,.2,0a5.76,5.76,0,0,0,4.524-2.521,5.085,5.085,0,0,0,.648-1.051q.251.029.483.05h0c-.03.483-.047.973-.047,1.471A18.413,18.413,0,0,0,9.317,50.73a17.974,17.974,0,0,0,6.821,6.317l1.207,6.292a2.178,2.178,0,0,0,2.136,1.776h4.192a2.178,2.178,0,0,0,2.136-1.776l.614-3.253a37.278,37.278,0,0,0,3.927.2,38.861,38.861,0,0,0,5.439-.38l.647,3.43a2.178,2.178,0,0,0,2.136,1.776h4.192A2.178,2.178,0,0,0,44.9,63.338l1.255-6.671A19.383,19.383,0,0,0,54.1,49.316a.971.971,0,0,1,.54-.446l4.026-1.294a3.354,3.354,0,0,0,2.33-3.2V40.212A3.353,3.353,0,0,0,58.67,37.008ZM50.191,26.419c-.342,2.933-1.258,5.441-2.179,5.965a5.415,5.415,0,0,1-5.278-.622c-1.817-1.334-2.421-3.732-1.749-6.936h0a1.074,1.074,0,0,1,.609-.744c4.444-2.042,7.007-2.71,7.959-2.71a.925.925,0,0,1,.322.043C50.161,21.72,50.536,23.459,50.191,26.419Zm-47.7,9.892c-.092-.19.125-.524.262-.707a.708.708,0,0,1,.57-.348.664.664,0,0,1,.089.006A1.938,1.938,0,0,1,4.7,36.524a2.714,2.714,0,0,1,.186.84C3.655,37.109,2.7,36.74,2.493,36.311Z" transform="translate(0 -5.115)" fill="#2dcea5"/>
      </g>
    </g>
    <g id="Group_763" data-name="Group 763" transform="translate(24.175 10.8)">
      <g id="Group_762" data-name="Group 762" transform="translate(0 0)">
        <path id="Path_757" data-name="Path 757" d="M207.013,58.344V55.176c1.093.078,1.5.578,1.873.578.468,0,.687-.593.687-.89,0-.765-1.5-1.093-2.56-1.124v-.422c0-.187-.234-.359-.468-.359a.412.412,0,0,0-.453.359v.453c-1.483.156-2.966.937-2.966,2.9,0,2,1.561,2.56,2.966,3.059V63.4c-1.592-.125-2.014-1.218-2.529-1.218-.39,0-.718.515-.718.89,0,.765,1.311,1.811,3.247,1.842h0V65.4a.412.412,0,0,0,.453.359c.234,0,.468-.172.468-.359v-.531a3.024,3.024,0,0,0,2.841-3.216C209.854,59.531,208.371,58.844,207.013,58.344Zm-.827-.3c-.827-.312-1.5-.64-1.5-1.53,0-.812.624-1.2,1.5-1.311Zm.734,5.323V60.077a1.826,1.826,0,0,1,1.374,1.748A1.485,1.485,0,0,1,206.919,63.371Z" transform="translate(-202.845 -52.959)" fill="#2dcea5"/>
      </g>
    </g>
  </g>
</svg>
