<svg xmlns="http://www.w3.org/2000/svg" width="60" height="60" viewBox="0 0 60 60">
  <g id="ds4" transform="translate(-0.199)">
    <path id="Path_775" data-name="Path 775" d="M52.712,0A28.372,28.372,0,0,0,24.2,28.125a21.984,21.984,0,0,0,.1,2.566l2-.2a18.739,18.739,0,0,1-.1-2.368,26.514,26.514,0,0,1,53.023,0A26.3,26.3,0,0,1,53.712,54.276l2.2-2.171-1.4-1.381-4.7,4.638L54.513,60l1.4-1.381-2.4-2.368c15.807-.493,28.212-13.421,27.712-28.914A28.423,28.423,0,0,0,52.712,0Zm0,0" transform="translate(-21.04)" fill="#ff8781"/>
    <path id="Path_776" data-name="Path 776" d="M147.721,96H112.2v17.761h35.522Zm-1.973,15.787H114.172V97.973h31.575Zm0,0" transform="translate(-97.73 -84.157)" fill="#ff8781"/>
    <path id="Path_777" data-name="Path 777" d="M228.146,143.894a3.947,3.947,0,1,0-3.947-3.947A3.958,3.958,0,0,0,228.146,143.894Zm0-5.92a1.973,1.973,0,1,1-1.973,1.973A1.979,1.979,0,0,1,228.146,137.973Zm0,0" transform="translate(-195.951 -119.223)" fill="#ff8781"/>
    <path id="Path_778" data-name="Path 778" d="M146.172,129.973h1.973V128H144.2v3.947h1.973Zm0,0" transform="translate(-125.988 -112.21)" fill="#ff8781"/>
    <path id="Path_779" data-name="Path 779" d="M148.146,177.973h-1.973V176H144.2v3.947h3.947Zm0,0" transform="translate(-125.988 -154.289)" fill="#ff8781"/>
    <path id="Path_780" data-name="Path 780" d="M340.146,176h-1.973v1.973H336.2v1.973h3.947Zm0,0" transform="translate(-293.971 -154.289)" fill="#ff8781"/>
    <path id="Path_781" data-name="Path 781" d="M338.172,131.947h1.973V128H336.2v1.973h1.973Zm0,0" transform="translate(-293.971 -112.21)" fill="#ff8781"/>
    <path id="Path_782" data-name="Path 782" d="M184.2,160h2.96v1.973H184.2Zm0,0" transform="translate(-160.99 -140.263)" fill="#ff8781"/>
    <path id="Path_783" data-name="Path 783" d="M304.2,160h2.96v1.973H304.2Zm0,0" transform="translate(-265.983 -140.263)" fill="#ff8781"/>
    <path id="Path_784" data-name="Path 784" d="M48.2,344h1.973v2.96H48.2Zm0,0" transform="translate(-42.08 -301.565)" fill="#ff8781"/>
    <path id="Path_785" data-name="Path 785" d="M49.535,270.391a3.707,3.707,0,0,0-3.651-3.651,3.368,3.368,0,0,0-.987.1l-11.939,3.454c-.1,0-.3.1-.395,0L29.8,269.8a4.025,4.025,0,0,0,1.579-5.328,3.873,3.873,0,0,0-3.454-2.072H15.493a2.783,2.783,0,0,0-1.48.4l-1.973,1.283V262.6H.2V279.37H12.039V276.9l9.768,4.046a2.736,2.736,0,0,0,1.973.1l23.09-7.2a3.5,3.5,0,0,0,2.664-3.454ZM10.066,277.4H2.172V264.569H6.119v5.92H8.093v-5.92h1.973Zm13.222,1.776a.842.842,0,0,1-.69,0l-10.558-4.44v-8.387L15,264.668a.739.739,0,0,1,.493-.1H27.827a1.973,1.973,0,1,1,0,3.947H20.92v.987l-.2.987,11.347,1.875a2.837,2.837,0,0,0,1.283-.1l11.939-3.454A1.684,1.684,0,0,1,47.364,270a1.627,1.627,0,0,1-1.085,2.072Zm0,0" transform="translate(0 -230.026)" fill="#ff8781"/>
  </g>
</svg>
