<svg xmlns="http://www.w3.org/2000/svg" width="46" height="60" viewBox="0 0 46 60">
  <g id="ds5" transform="translate(-0.5 0.001)">
    <path id="Path_789" data-name="Path 789" d="M30.935,16.738a2.983,2.983,0,0,0,.385-.754,2.918,2.918,0,0,1,1.15.46,4.4,4.4,0,0,0,2.351.752,4.559,4.559,0,0,0,.79-.072,4.2,4.2,0,0,0,2.721-1.713,2.289,2.289,0,0,1,3.33-.587A4.2,4.2,0,0,0,44.8,15.5l-.348-1.97a2.287,2.287,0,0,1-1.794-.441A4.256,4.256,0,0,0,36.8,14.126a2.29,2.29,0,0,1-1.536,1.028,1.981,1.981,0,0,1-.873-.021,3.977,3.977,0,0,0,1.6-.849,4.2,4.2,0,0,0,1.5-2.844,2.285,2.285,0,0,1,.817-1.658,2.253,2.253,0,0,1,1.774-.516,4.113,4.113,0,0,0,3.061-.984L41.854,6.751a2.389,2.389,0,0,1-1.774.515,4.257,4.257,0,0,0-4.561,3.827,2.287,2.287,0,0,1-2.588,2.173,4.444,4.444,0,0,0-1.841.246,3,3,0,0,0-1.161-1.134L34.4,3.446A1,1,0,0,0,33.5,2a2.58,2.58,0,0,1-1.872-.78,4.61,4.61,0,0,0-6.248,0A2.642,2.642,0,0,1,23.5,2a2.641,2.641,0,0,1-1.875-.781,4.617,4.617,0,0,0-6.252,0A2.589,2.589,0,0,1,13.5,2a1,1,0,0,0-.9,1.447l4.466,8.932a2.967,2.967,0,0,0-1.006,4.36A21.017,21.017,0,0,0,.5,37V55a5.006,5.006,0,0,0,5,5h36a5.006,5.006,0,0,0,5-5V37A21.018,21.018,0,0,0,30.935,16.738ZM16.626,2.78a2.645,2.645,0,0,1,3.754,0,4.616,4.616,0,0,0,6.25,0,2.638,2.638,0,0,1,3.748,0A5.314,5.314,0,0,0,32,3.761L27.882,12H19.118L15,3.762a5.342,5.342,0,0,0,1.626-.982ZM18.5,16a1,1,0,0,1,0-2h10a1,1,0,0,1,0,2Zm26,39a3,3,0,0,1-3,3H5.5a3,3,0,0,1-3-3V37a19.021,19.021,0,0,1,19-19h4a19.021,19.021,0,0,1,19,19Zm0,0" fill="#04e2a3"/>
    <path id="Path_790" data-name="Path 790" d="M130.84,270.375l12.04-12.039,1.419,1.419-12.039,12.04Zm0,0" transform="translate(-114.069 -226.075)" fill="#04e2a3"/>
    <path id="Path_791" data-name="Path 791" d="M195.51,320a3.01,3.01,0,1,0,3.01,3.01A3.01,3.01,0,0,0,195.51,320Zm0,4.013a1,1,0,1,1,1-1A1,1,0,0,1,195.51,324.009Zm0,0" transform="translate(-168.012 -280.012)" fill="#04e2a3"/>
    <path id="Path_792" data-name="Path 792" d="M131.51,262.016a3.01,3.01,0,1,0-3.01-3.01A3.01,3.01,0,0,0,131.51,262.016Zm0-4.013a1,1,0,1,1-1,1A1,1,0,0,1,131.51,258Zm0,0" transform="translate(-112.008 -224.009)" fill="#04e2a3"/>
    <path id="Path_793" data-name="Path 793" d="M86.471,200a14.046,14.046,0,1,0,13.971,14.046A14.008,14.008,0,0,0,86.471,200Zm0,26.085a12.039,12.039,0,1,1,11.975-12.039A12.007,12.007,0,0,1,86.471,226.081Zm0,0" transform="translate(-62.971 -175.111)" fill="#04e2a3"/>
  </g>
</svg>
