<?xml version="1.0" encoding="UTF-8"?>
<svg version="1.1" xmlns="http://www.w3.org/2000/svg" width="64" height="64">
<path d="M0 0 C8.91 0 17.82 0 27 0 C27 6.27 27 12.54 27 19 C31.84666111 18.92098174 31.84666111 18.92098174 36.69287109 18.81982422 C38.46287275 18.8051883 40.23272455 18.90071486 42 19 C42.66 19.66 43.32 20.32 44 21 C43.63910592 24.48864279 41.8589578 27.09032693 40 30 C42.33294775 30.04241723 44.66702567 30.04092937 47 30 C49.05922402 27.94077598 48.41427579 23.78291876 48.5625 20.9375 C48.62727539 19.79958008 48.62727539 19.79958008 48.69335938 18.63867188 C48.79973633 16.75934562 48.90039934 14.87969756 49 13 C48.01 12.67 47.02 12.34 46 12 C46 11.34 46 10.68 46 10 C46.99 10 47.98 10 49 10 C49.66 8.68 50.32 7.36 51 6 C52.60379341 5.94583812 54.20811406 5.90713362 55.8125 5.875 C56.70582031 5.85179687 57.59914062 5.82859375 58.51953125 5.8046875 C61 6 61 6 64 8 C64.375 11 64.375 11 64 14 C61 16 61 16 57 16 C57 18.31 57 20.62 57 23 C57.66 23 58.32 23 59 23 C59 25.97 59 28.94 59 32 C60.32 32.66 61.64 33.32 63 34 C63.75 37.625 63.75 37.625 64 41 C63.34 41 62.68 41 62 41 C61.690625 41.639375 61.38125 42.27875 61.0625 42.9375 C60 45 60 45 59 46 C55.75 46.375 55.75 46.375 52 46 C49.0625 43.625 49.0625 43.625 47 41 C47 40.34 47 39.68 47 39 C44.24968413 39.14111883 41.49984582 39.28771165 38.75 39.4375 C37.97269531 39.47681641 37.19539063 39.51613281 36.39453125 39.55664062 C35.64042969 39.59853516 34.88632812 39.64042969 34.109375 39.68359375 C33.07248535 39.73858032 33.07248535 39.73858032 32.01464844 39.79467773 C29.93371671 40.00675524 28.01427578 40.44508677 26 41 C25.87625 41.639375 25.7525 42.27875 25.625 42.9375 C25.315625 43.9584375 25.315625 43.9584375 25 45 C21.95016004 46.52491998 19.3576631 46.23562548 16 46 C14.0625 44.625 14.0625 44.625 13 43 C13 42.34 13 41.68 13 41 C12.01 41 11.02 41 10 41 C9.43438854 35.34388537 11.28608722 31.77357872 14 27 C13.2575 26.319375 13.2575 26.319375 12.5 25.625 C11 24 11 24 11 22 C7.37 22 3.74 22 0 22 C0 14.74 0 7.48 0 0 Z M2 3 C2 8.28 2 13.56 2 19 C9.59 19 17.18 19 25 19 C25 13.72 25 8.44 25 3 C17.41 3 9.82 3 2 3 Z M52 9 C52.99 9.33 53.98 9.66 55 10 C54.67 10.99 54.34 11.98 54 13 C55.32 13 56.64 13 58 13 C58 11.68 58 10.36 58 9 C56.02 9 54.04 9 52 9 Z M52 16 C51.67 21.28 51.34 26.56 51 32 C52.98 31.67 54.96 31.34 57 31 C57 29.35 57 27.7 57 26 C55.68 25.67 54.36 25.34 53 25 C53.33 22.03 53.66 19.06 54 16 C53.34 16 52.68 16 52 16 Z M14 22 C14 22.33 14 22.66 14 23 C22.91 23 31.82 23 41 23 C41 22.67 41 22.34 41 22 C32.09 22 23.18 22 14 22 Z M19 26 C18.01 27.485 18.01 27.485 17 29 C18.258125 29.309375 19.51625 29.61875 20.8125 29.9375 C23.26177394 30.53978048 25.60265923 31.20088641 28 32 C28.33 33.32 28.66 34.64 29 36 C35.27 36 41.54 36 48 36 C48 35.34 48 34.68 48 34 C44.04 34 40.08 34 36 34 C36.33 31.36 36.66 28.72 37 26 C34.04112541 25.91930342 31.0844341 25.85965335 28.125 25.8125 C27.28324219 25.78736328 26.44148438 25.76222656 25.57421875 25.73632812 C24.76855469 25.72666016 23.96289062 25.71699219 23.1328125 25.70703125 C22.38918457 25.6913208 21.64555664 25.67561035 20.87939453 25.65942383 C19.94909424 25.82800903 19.94909424 25.82800903 19 26 Z M14.5625 33.8125 C12.80625394 35.82320672 12.80625394 35.82320672 13 38 C17.62 38 22.24 38 27 38 C24.61996199 32.77278197 24.61996199 32.77278197 20.5625 31.9375 C16.97035894 31.6545335 16.97035894 31.6545335 14.5625 33.8125 Z M53 34 C51.515 35.98 51.515 35.98 50 38 C53.63 38 57.26 38 61 38 C60.67 37.01 60.34 36.02 60 35 C57.69 34.67 55.38 34.34 53 34 Z M16 41 C16.33 41.66 16.66 42.32 17 43 C18.65 43 20.3 43 22 43 C22.33 42.34 22.66 41.68 23 41 C20.69 41 18.38 41 16 41 Z M53 41 C53 41.66 53 42.32 53 43 C54.65 43 56.3 43 58 43 C58.33 42.34 58.66 41.68 59 41 C57.02 41 55.04 41 53 41 Z " fill="#5C29AA" transform="translate(0,9)"/>
<path d="M0 0 C0.61875 0.28875 1.2375 0.5775 1.875 0.875 C2.926875 1.308125 2.926875 1.308125 4 1.75 C5.875 2.875 5.875 2.875 7.875 5.875 C7.875 6.865 7.875 7.855 7.875 8.875 C8.535 8.875 9.195 8.875 9.875 8.875 C9.545 9.865 9.215 10.855 8.875 11.875 C2.605 11.875 -3.665 11.875 -10.125 11.875 C-10.455 10.885 -10.785 9.895 -11.125 8.875 C-10.465 8.875 -9.805 8.875 -9.125 8.875 C-9.08375 8.1325 -9.0425 7.39 -9 6.625 C-8.125 3.875 -8.125 3.875 -5.3125 1.5 C-2.125 -0.125 -2.125 -0.125 0 0 Z M-4.4375 5.1875 C-4.994375 5.744375 -5.55125 6.30125 -6.125 6.875 C-6.125 7.535 -6.125 8.195 -6.125 8.875 C-2.495 8.875 1.135 8.875 4.875 8.875 C3.37798224 4.76804073 3.37798224 4.76804073 0.5 3.9375 C-2.18744667 3.64843776 -2.18744667 3.64843776 -4.4375 5.1875 Z " fill="#6D32BE" transform="translate(14.125,14.125)"/>
</svg>
