<?xml version="1.0" encoding="UTF-8"?>
<svg version="1.1" xmlns="http://www.w3.org/2000/svg" width="64" height="64">
<path d="M0 0 C1.30066406 -0.00128906 2.60132813 -0.00257812 3.94140625 -0.00390625 C4.96258545 -0.00076416 4.96258545 -0.00076416 6.00439453 0.00244141 C8.08503515 0.0077901 10.16545989 0.0024957 12.24609375 -0.00390625 C14.19708984 -0.00197266 14.19708984 -0.00197266 16.1875 0 C17.39083984 0.00112793 18.59417969 0.00225586 19.83398438 0.00341797 C22.59375 0.1328125 22.59375 0.1328125 23.59375 1.1328125 C23.63467937 3.46578683 23.63616723 5.79986475 23.59375 8.1328125 C22.93375 8.1328125 22.27375 8.1328125 21.59375 8.1328125 C21.73190529 11.94563195 21.88055562 15.75796967 22.03125 19.5703125 C22.07056641 20.65892578 22.10988281 21.74753906 22.15039062 22.86914062 C22.19228516 23.90361328 22.23417969 24.93808594 22.27734375 26.00390625 C22.33233032 27.44141235 22.33233032 27.44141235 22.38842773 28.90795898 C22.35209424 31.10420175 22.35209424 31.10420175 23.59375 32.1328125 C23.84375 35.5703125 23.84375 35.5703125 23.59375 39.1328125 C22.60375 39.7928125 21.61375 40.4528125 20.59375 41.1328125 C20.91601562 41.70257813 21.23828125 42.27234375 21.5703125 42.859375 C23.2434693 46.57608208 23.16966506 50.13610076 22.59375 54.1328125 C20.09961109 58.77707116 17.65249933 62.44656272 12.59375 64.1328125 C7.84593 64.68446397 4.46694891 64.57735013 0.15625 62.3828125 C-2.40625 60.1328125 -2.40625 60.1328125 -4.40625 56.1328125 C-9.02625 56.1328125 -13.64625 56.1328125 -18.40625 56.1328125 C-19.39625 58.6078125 -19.39625 58.6078125 -20.40625 61.1328125 C-22.26328788 63.28697644 -23.66328608 64.00403209 -26.45703125 64.48828125 C-30.71786571 64.7532407 -33.5382465 64.50753517 -36.90625 61.7578125 C-40.31005761 58.18381451 -40.7443663 56.19548171 -40.69921875 51.23828125 C-40.2287074 47.85687303 -38.54365472 45.71027114 -36.40625 43.1328125 C-35.41625 42.6378125 -35.41625 42.6378125 -34.40625 42.1328125 C-33.76823164 39.6012259 -33.23937632 37.13441748 -32.78125 34.5703125 C-32.6471875 33.85939453 -32.513125 33.14847656 -32.375 32.41601562 C-32.04433153 30.65638697 -31.72429233 28.89476702 -31.40625 27.1328125 C-32.72625 26.4728125 -34.04625 25.8128125 -35.40625 25.1328125 C-34.40209388 18.27107901 -32.6939441 12.25987877 -29.40625 6.1328125 C-27.74013095 6.0900915 -26.07242115 6.09217418 -24.40625 6.1328125 C-23.40625 7.1328125 -23.40625 7.1328125 -23.21875 10.0703125 C-23.40625 13.1328125 -23.40625 13.1328125 -25.40625 15.1328125 C-26.72625 15.1328125 -28.04625 15.1328125 -29.40625 15.1328125 C-29.73625 16.1228125 -30.06625 17.1128125 -30.40625 18.1328125 C-29.66375 17.7821875 -28.92125 17.4315625 -28.15625 17.0703125 C-25.2739774 16.08771957 -24.19448655 16.1001323 -21.40625 17.1328125 C-20.71875 18.8203125 -20.71875 18.8203125 -20.40625 21.1328125 C-20.90769531 21.84824219 -21.40914062 22.56367188 -21.92578125 23.30078125 C-23.8528693 26.98716341 -23.42204923 29.80493048 -22.78125 33.7578125 C-22.69746094 34.42554688 -22.61367188 35.09328125 -22.52734375 35.78125 C-22.12353324 38.54707541 -21.68316625 40.73173322 -20.08203125 43.05078125 C-18.06105158 44.35570286 -16.60768384 44.62449825 -14.21875 44.8203125 C-12.960625 44.9234375 -11.7025 45.0265625 -10.40625 45.1328125 C-10.261875 44.3284375 -10.1175 43.5240625 -9.96875 42.6953125 C-9.40625 40.1328125 -9.40625 40.1328125 -8.40625 39.1328125 C-8.24125 37.9778125 -8.07625 36.8228125 -7.90625 35.6328125 C-7.40625 32.1328125 -7.40625 32.1328125 -6.40625 31.1328125 C-6.24884395 29.42717472 -6.15531608 27.71554006 -6.08984375 26.00390625 C-6.02700195 24.45219727 -6.02700195 24.45219727 -5.96289062 22.86914062 C-5.92357422 21.78052734 -5.88425781 20.69191406 -5.84375 19.5703125 C-5.77897461 17.9315918 -5.77897461 17.9315918 -5.71289062 16.25976562 C-5.60642932 13.55091686 -5.50441484 10.84197258 -5.40625 8.1328125 C-6.06625 8.1328125 -6.72625 8.1328125 -7.40625 8.1328125 C-7.44866723 5.79986475 -7.44717937 3.46578683 -7.40625 1.1328125 C-5.54910943 -0.72432807 -2.48117951 0.00232569 0 0 Z M-4.40625 2.1328125 C-4.73625 3.4528125 -5.06625 4.7728125 -5.40625 6.1328125 C3.50375 6.1328125 12.41375 6.1328125 21.59375 6.1328125 C21.26375 4.8128125 20.93375 3.4928125 20.59375 2.1328125 C12.34375 2.1328125 4.09375 2.1328125 -4.40625 2.1328125 Z M-27.40625 9.1328125 C-26.40625 12.1328125 -26.40625 12.1328125 -26.40625 12.1328125 Z M-2.40625 9.1328125 C-2.40625 16.3928125 -2.40625 23.6528125 -2.40625 31.1328125 C4.52375 31.1328125 11.45375 31.1328125 18.59375 31.1328125 C18.59375 23.8728125 18.59375 16.6128125 18.59375 9.1328125 C11.66375 9.1328125 4.73375 9.1328125 -2.40625 9.1328125 Z M-32.40625 21.1328125 C-31.40625 24.1328125 -31.40625 24.1328125 -31.40625 24.1328125 Z M-28.40625 21.1328125 C-28.40625 22.1228125 -28.40625 23.1128125 -28.40625 24.1328125 C-27.41625 24.1328125 -26.42625 24.1328125 -25.40625 24.1328125 C-25.73625 23.1428125 -26.06625 22.1528125 -26.40625 21.1328125 C-27.06625 21.1328125 -27.72625 21.1328125 -28.40625 21.1328125 Z M-28.40625 27.1328125 C-27.40625 29.1328125 -27.40625 29.1328125 -27.40625 29.1328125 Z M-29.40625 31.1328125 C-30.89466195 36.42627758 -31.38581345 41.8127938 -29.21875 46.9453125 C-25.62562449 51.35136437 -25.62562449 51.35136437 -20.50073242 53.4543457 C-18.35188072 53.52562985 -16.24132672 53.48261052 -14.09375 53.3828125 C-13.35318359 53.36476563 -12.61261719 53.34671875 -11.84960938 53.328125 C-10.0345929 53.28128587 -8.22024834 53.20955039 -6.40625 53.1328125 C-6.27347656 52.44574219 -6.14070313 51.75867188 -6.00390625 51.05078125 C-5.82730469 50.14972656 -5.65070312 49.24867187 -5.46875 48.3203125 C-5.29472656 47.42699219 -5.12070312 46.53367187 -4.94140625 45.61328125 C-4.40625 43.1328125 -4.40625 43.1328125 -3.40625 40.1328125 C-5.45461882 40.69643552 -5.45461882 40.69643552 -7.40625 42.1328125 C-8.06661795 45.1777981 -8.06661795 45.1777981 -8.40625 48.1328125 C-10.34581814 47.8772105 -12.28290989 47.60276604 -14.21875 47.3203125 C-15.29769531 47.16949219 -16.37664063 47.01867188 -17.48828125 46.86328125 C-20.58010869 46.08928964 -21.67800084 45.77066648 -23.40625 43.1328125 C-24.13671875 40.21484375 -24.13671875 40.21484375 -24.59375 36.9453125 C-24.83158203 35.31529297 -24.83158203 35.31529297 -25.07421875 33.65234375 C-25.23857422 32.40517578 -25.23857422 32.40517578 -25.40625 31.1328125 C-26.72625 31.1328125 -28.04625 31.1328125 -29.40625 31.1328125 Z M-4.40625 33.1328125 C-4.73625 34.4528125 -5.06625 35.7728125 -5.40625 37.1328125 C-0.75572128 37.40213771 -0.75572128 37.40213771 3.59375 36.1328125 C5.09131871 36.03781747 6.59317932 36.00294052 8.09375 36.0078125 C9.28484375 36.00394531 9.28484375 36.00394531 10.5 36 C12.59375 36.1328125 12.59375 36.1328125 14.59375 37.1328125 C16.9267366 37.17303641 19.26081666 37.17601497 21.59375 37.1328125 C21.26375 35.8128125 20.93375 34.4928125 20.59375 33.1328125 C12.34375 33.1328125 4.09375 33.1328125 -4.40625 33.1328125 Z M-2.40625 43.1328125 C-4.16940855 46.6591296 -4.06389856 50.29339757 -3.40625 54.1328125 C-1.2448649 58.17886559 1.24826866 60.61752177 5.53125 62.2578125 C10.47741558 62.05592819 14.06749333 60.29758732 17.96875 57.3203125 C20.09686799 54.45553829 20.52369401 52.70566774 20.59375 49.1328125 C19.01691632 44.05190398 17.33469629 40.70941375 12.59375 38.1328125 C5.87908165 36.81718432 2.23021787 38.26452124 -2.40625 43.1328125 Z M-32.40625 49.1328125 C-33.67628323 50.18591527 -33.67628323 50.18591527 -33.59375 52.5703125 C-33.67464983 55.30015925 -33.67464983 55.30015925 -31.40625 57.1328125 C-28.90625 57.54947917 -28.90625 57.54947917 -26.40625 57.1328125 C-25.74625 56.1428125 -25.08625 55.1528125 -24.40625 54.1328125 C-26.38625 54.4628125 -28.36625 54.7928125 -30.40625 55.1328125 C-31.53125 51.3828125 -31.53125 51.3828125 -30.40625 49.1328125 C-31.06625 49.1328125 -31.72625 49.1328125 -32.40625 49.1328125 Z " fill="#847CF9" transform="translate(40.40625,-0.1328125)"/>
<path d="M0 0 C1.40765625 -0.01546875 1.40765625 -0.01546875 2.84375 -0.03125 C6.31311057 0.66262211 7.46669559 1.61554491 9.5 4.5 C9.9609375 7.6640625 9.9609375 7.6640625 9.875 11.125 C9.85566406 12.84589844 9.85566406 12.84589844 9.8359375 14.6015625 C9.5 17.5 9.5 17.5 7.5 19.5 C4.95464859 19.69849071 2.54283241 19.77851775 0 19.75 C-0.68964844 19.75773437 -1.37929688 19.76546875 -2.08984375 19.7734375 C-7.24666707 19.75333293 -7.24666707 19.75333293 -9.5 17.5 C-9.8359375 14.6015625 -9.8359375 14.6015625 -9.875 11.125 C-9.90335938 9.98289062 -9.93171875 8.84078125 -9.9609375 7.6640625 C-9.5 4.5 -9.5 4.5 -7.8203125 2.1171875 C-5.00068579 0.15199313 -3.41382551 -0.03751457 0 0 Z M-5.5 3.5 C-5.83 4.49 -6.16 5.48 -6.5 6.5 C-2.21 6.5 2.08 6.5 6.5 6.5 C6.17 5.51 5.84 4.52 5.5 3.5 C1.87 3.5 -1.76 3.5 -5.5 3.5 Z M-6.5 9.5 C-6.5 10.49 -6.5 11.48 -6.5 12.5 C-2.21 12.5 2.08 12.5 6.5 12.5 C6.5 11.51 6.5 10.52 6.5 9.5 C2.21 9.5 -2.08 9.5 -6.5 9.5 Z M-6.5 15.5 C-6.5 15.83 -6.5 16.16 -6.5 16.5 C-2.21 16.5 2.08 16.5 6.5 16.5 C6.5 16.17 6.5 15.84 6.5 15.5 C2.21 15.5 -2.08 15.5 -6.5 15.5 Z " fill="#847DFB" transform="translate(48.5,9.5)"/>
<path d="M0 0 C2.97672584 1.77280561 5.42804007 3.85608015 7 7 C7.3751455 11.97067782 7.15878799 15.05151502 4 19 C0.57080428 21.57189679 -2.83939486 21.502142 -7 21 C-9.97239241 19.21523759 -12.42604027 17.14791945 -14 14 C-14.67660495 8.13609041 -14.67660495 8.13609041 -12.953125 5.2421875 C-8.88769589 0.2919297 -6.36332911 -0.63633291 0 0 Z M-9.4375 4.5625 C-11.60396028 7.94217804 -11.56288002 10.05983987 -11 14 C-9.58333333 16.58333333 -9.58333333 16.58333333 -7 18 C-3.05983987 18.56288002 -0.94217804 18.60396028 2.4375 16.4375 C4.60396028 13.05782196 4.56288002 10.94016013 4 7 C2.58333333 4.41666667 2.58333333 4.41666667 0 3 C-3.94016013 2.43711998 -6.05782196 2.39603972 -9.4375 4.5625 Z " fill="#847DFB" transform="translate(52,39)"/>
<path d="M0 0 C0.66 0.33 1.32 0.66 2 1 C2 2.32 2 3.64 2 5 C1.484375 5.433125 0.96875 5.86625 0.4375 6.3125 C-1.39821948 8.08303212 -1.39821948 8.08303212 -0.875 11.5625 C-0.34366067 15.25442394 -0.34366067 15.25442394 3 17 C6.57176115 16.91832511 6.57176115 16.91832511 10 16 C10.66 15.01 11.32 14.02 12 13 C13.32 13.33 14.64 13.66 16 14 C15.1342843 16.66929007 14.27808762 18.67741836 12.4375 20.8125 C8.6491635 22.65809983 5.12347653 22.78474467 1 22 C-2.06881816 20.28095248 -4.40357084 18.19285833 -6 15 C-6.50866466 8.89602404 -6.05703618 5.89230834 -2 1 C-1.34 0.67 -0.68 0.34 0 0 Z " fill="#434147" transform="translate(6,42)"/>
<path d="M0 0 C0.99 0 1.98 0 3 0 C3 2.64 3 5.28 3 8 C1.02 8 -0.96 8 -3 8 C-3 7.01 -3 6.02 -3 5 C-2.01 5 -1.02 5 0 5 C0 3.35 0 1.7 0 0 Z " fill="#847DFB" transform="translate(47,43)"/>
</svg>
