<svg xmlns="http://www.w3.org/2000/svg" width="61" height="60" viewBox="0 0 61 60">
  <g id="pf1" transform="translate(-1 -1.382)">
    <path id="Path_2882" data-name="Path 2882" d="M48.531,14.388l13.006-6.5-13.006-6.5V3.955H29.861V5.92H50.5V4.562l6.647,3.323L50.5,11.208V9.85H22v1.965H48.531Z" transform="translate(-0.288 0)" fill="#21bcff"/>
    <path id="Path_2883" data-name="Path 2883" d="M26,4h1.965V5.965H26Z" transform="translate(-0.402 -0.045)" fill="#21bcff"/>
    <path id="Path_2884" data-name="Path 2884" d="M22,4h1.965V5.965H22Z" transform="translate(-0.338 -0.045)" fill="#21bcff"/>
    <path id="Path_2885" data-name="Path 2885" d="M35.77,49.382l-13.006,6.5,13.006,6.5V59.816H54.44V57.85H33.8v1.358l-6.647-3.323L33.8,52.562V53.92H62.3V51.955H35.77Z" transform="translate(-0.302 -1.006)" fill="#21bcff"/>
    <path id="Path_2886" data-name="Path 2886" d="M57,58h1.965v1.965H57Z" transform="translate(-0.896 -1.156)" fill="#21bcff"/>
    <path id="Path_2887" data-name="Path 2887" d="M61,58h1.965v1.965H61Z" transform="translate(-0.965 -1.156)" fill="#21bcff"/>
    <path id="Path_2888" data-name="Path 2888" d="M57,40h1.965v1.965H57Z" transform="translate(-0.896 -0.783)" fill="#21bcff"/>
    <path id="Path_2889" data-name="Path 2889" d="M53,40h1.965v1.965H53Z" transform="translate(-0.826 -0.783)" fill="#21bcff"/>
    <path id="Path_2890" data-name="Path 2890" d="M49,40h1.965v1.965H49Z" transform="translate(-0.772 -0.783)" fill="#21bcff"/>
    <path id="Path_2891" data-name="Path 2891" d="M49,36h9.826v1.965H49Z" transform="translate(-0.757 -0.702)" fill="#21bcff"/>
    <path id="Path_2892" data-name="Path 2892" d="M59.048,19.878H35.614a19.653,19.653,0,1,0,0,25.549H59.048A2.953,2.953,0,0,0,62,42.479V22.826A2.953,2.953,0,0,0,59.048,19.878Zm-8.855,1.965v3.931h-5.9V21.844ZM33.58,20.553a2.943,2.943,0,0,0-.915,1.291H27.3A19.13,19.13,0,0,0,24.6,15.4,17.639,17.639,0,0,1,33.58,20.553ZM32.484,41.5H27.74a47.249,47.249,0,0,0,.8-7.861h3.946ZM20.677,50.34c-1.663,0-3.435-2.591-4.6-6.878h9.2C24.112,47.749,22.34,50.34,20.677,50.34ZM15.609,41.5a43.925,43.925,0,0,1-.816-7.861h11.77a44.016,44.016,0,0,1-.816,7.861ZM3.018,33.635h9.8a47.248,47.248,0,0,0,.8,7.861H5.364a17.515,17.515,0,0,1-2.347-7.861Zm17.659-18.67c1.663,0,3.435,2.591,4.6,6.878h-9.2C17.243,17.557,19.015,14.965,20.677,14.965Zm5.069,8.844a43.925,43.925,0,0,1,.816,7.861H14.793a44.016,44.016,0,0,1,.816-7.861ZM12.817,31.67h-9.8a17.528,17.528,0,0,1,2.347-7.861h8.251A47.248,47.248,0,0,0,12.817,31.67Zm19.667,0H28.538a47.248,47.248,0,0,0-.8-7.861h4.744ZM16.746,15.419a19.178,19.178,0,0,0-2.7,6.425H6.691A17.725,17.725,0,0,1,16.746,15.419ZM6.691,43.462H14.05a19.143,19.143,0,0,0,2.7,6.424A17.719,17.719,0,0,1,6.691,43.462Zm17.9,6.443a19.13,19.13,0,0,0,2.71-6.443h5.36a2.935,2.935,0,0,0,.915,1.291A17.639,17.639,0,0,1,24.6,49.905Zm35.437-7.426a.984.984,0,0,1-.984.983H35.435a.984.984,0,0,1-.984-.983V22.826a.985.985,0,0,1,.984-.983h6.887v5.9h9.839v-5.9h6.887a.985.985,0,0,1,.984.983Z" transform="translate(0 -0.296)" fill="#21bcff"/>
    <path id="Path_2893" data-name="Path 2893" d="M17,36h1.965v1.965H17Z" transform="translate(-0.257 -0.702)" fill="#21bcff"/>
    <path id="Path_2894" data-name="Path 2894" d="M21,36h1.965v1.965H21Z" transform="translate(-0.322 -0.702)" fill="#21bcff"/>
    <path id="Path_2895" data-name="Path 2895" d="M23,28h1.965v1.965H23Z" transform="translate(-0.354 -0.54)" fill="#21bcff"/>
    <path id="Path_2896" data-name="Path 2896" d="M19,28h1.965v1.965H19Z" transform="translate(-0.29 -0.54)" fill="#21bcff"/>
  </g>
</svg>
