<svg xmlns="http://www.w3.org/2000/svg" width="60" height="60" viewBox="0 0 60 60">
  <g id="pf2" transform="translate(50 50)">
    <path id="Path_2906" data-name="Path 2906" d="M270.457,260.725c-.523,0-.583-.23-.606-.317l-.771-2.7h-4.7l-.769,2.693c-.024.091-.085.322-.607.322-.594,0-1.319-.363-1.319-.788,0-.016.019-.084.03-.13l3.657-11.916c.138-.462.777-.668,1.348-.668.538,0,1.219.175,1.367.666l3.658,11.922.01.04a.521.521,0,0,1,.019.085C271.776,260.343,271.033,260.725,270.457,260.725Zm-5.7-4.477h3.924l-1.962-6.922Z" transform="translate(-274.156 -261.38)" fill="#f99c5e"/>
    <path id="Path_2907" data-name="Path 2907" d="M-19.036,10a5.933,5.933,0,0,1-5.835-5.028l-.045-.3L-31.231.159a1.081,1.081,0,0,1-.452-.878,1.082,1.082,0,0,1,.452-.879l6.3-4.5v-8.968H-44.1a5.907,5.907,0,0,1-5.9-5.9V-44.1A5.907,5.907,0,0,1-44.1-50h23.136a5.933,5.933,0,0,1,5.835,5.028l.045.3,6.315,4.511a1.083,1.083,0,0,1,.452.879,1.082,1.082,0,0,1-.452.879l-6.3,4.5v8.968H4.1a5.907,5.907,0,0,1,5.9,5.9V4.1A5.907,5.907,0,0,1,4.1,10Zm0-32.776a3.744,3.744,0,0,0-3.74,3.74v13.5a1.083,1.083,0,0,1-.452.879L-28.745-.72l5.518,3.941a1.081,1.081,0,0,1,.452.878,3.744,3.744,0,0,0,3.74,3.74H4.1A3.744,3.744,0,0,0,7.84,4.1V-19.036a3.744,3.744,0,0,0-3.74-3.74ZM-44.1-47.84a3.744,3.744,0,0,0-3.74,3.74v23.136a3.744,3.744,0,0,0,3.74,3.74h19.164v-1.812a5.906,5.906,0,0,1,5.9-5.9h1.811V-34.46a1.083,1.083,0,0,1,.452-.879l5.517-3.941-5.518-3.941a1.082,1.082,0,0,1-.452-.879,3.744,3.744,0,0,0-3.74-3.74Z" fill="#f99c5e"/>
    <path id="Path_2908" data-name="Path 2908" d="M54.659,51.857a9.251,9.251,0,0,1-5.3-1.663L49.22,50.1l-.135.094a9.247,9.247,0,0,1-5.3,1.663.762.762,0,0,1,0-1.524,7.776,7.776,0,0,0,3.993-1.1l.25-.15-.2-.213a9.232,9.232,0,0,1-2.434-5.353l-.022-.211H43.782a.762.762,0,0,1,0-1.525h4.676v-2.66a.762.762,0,1,1,1.524,0v2.66h4.676a.762.762,0,0,1,0,1.525H53.071l-.022.211a9.231,9.231,0,0,1-2.434,5.353l-.2.213.249.15a7.767,7.767,0,0,0,3.993,1.1.762.762,0,0,1,0,1.524Zm-7.723-8.288a7.73,7.73,0,0,0,2.115,4.374l.17.176.17-.176a7.728,7.728,0,0,0,2.115-4.374l.036-.267H46.9Z" transform="translate(-81.808 -77.7)" fill="#f99c5e"/>
  </g>
</svg>
