<svg xmlns="http://www.w3.org/2000/svg" width="60" height="60" viewBox="0 0 60 60">
  <g id="pf3" transform="translate(0 -0.025)">
    <g id="Group_858" data-name="Group 858" transform="translate(37.726 29.783)">
      <g id="Group_857" data-name="Group 857">
        <path id="Path_2912" data-name="Path 2912" d="M331.315,258.8l-7.583-4.679a1.172,1.172,0,1,0-1.232,2l7.583,4.679a1.172,1.172,0,0,0,1.232-2Z" transform="translate(-321.948 -253.949)" fill="#2dcea5"/>
      </g>
    </g>
    <g id="Group_860" data-name="Group 860" transform="translate(33.735 27.319)">
      <g id="Group_859" data-name="Group 859">
        <path id="Path_2913" data-name="Path 2913" d="M289.05,232.915a1.181,1.181,0,0,0-1.142,1.441,1.2,1.2,0,0,0,.53.72,1.142,1.142,0,0,0,.609.183,1.164,1.164,0,0,0,1-.557A1.2,1.2,0,0,0,289.05,232.915Z" transform="translate(-287.877 -232.915)" fill="#2dcea5"/>
      </g>
    </g>
    <g id="Group_862" data-name="Group 862" transform="translate(13.079 29.74)">
      <g id="Group_861" data-name="Group 861">
        <path id="Path_2914" data-name="Path 2914" d="M121.308,254.115a1.207,1.207,0,0,0-1.617-.366l-7.537,4.753a1.18,1.18,0,0,0-.366,1.616,1.222,1.222,0,0,0,.994.528,1.108,1.108,0,0,0,.623-.16l7.537-4.754A1.181,1.181,0,0,0,121.308,254.115Z" transform="translate(-111.611 -253.58)" fill="#2dcea5"/>
      </g>
    </g>
    <g id="Group_864" data-name="Group 864" transform="translate(24.575 27.229)">
      <g id="Group_863" data-name="Group 863">
        <path id="Path_2915" data-name="Path 2915" d="M210.88,232.145a1.172,1.172,0,1,0,1.145,1.431A1.177,1.177,0,0,0,210.88,232.145Z" transform="translate(-209.71 -232.145)" fill="#2dcea5"/>
      </g>
    </g>
    <g id="Group_866" data-name="Group 866" transform="translate(0.001 0.025)">
      <g id="Group_865" data-name="Group 865" transform="translate(0 0)">
        <path id="Path_2916" data-name="Path 2916" d="M59.713,53.4a1.172,1.172,0,0,0-1.653-.115,10.665,10.665,0,0,1-4.046,2.666,7.118,7.118,0,0,1-5.2-.719l6.1-20.536a1.172,1.172,0,0,0-.516-1.336L48.75,29.94V19.949a1.172,1.172,0,0,0-1.172-1.172H45.235V15.261a1.172,1.172,0,0,0-1.172-1.172H40.372V10.573A1.172,1.172,0,0,0,39.2,9.4H33.516V1.2A1.172,1.172,0,0,0,32.344.025H27.657A1.172,1.172,0,0,0,26.485,1.2V9.4H20.8a1.172,1.172,0,0,0-1.172,1.172v3.516H15.938a1.172,1.172,0,0,0-1.172,1.172v3.516H12.422a1.172,1.172,0,0,0-1.172,1.172V29.94L5.6,33.362A1.172,1.172,0,0,0,5.088,34.7l6.091,20.494c-.1-.35-1.979-.58-2.311-.623C5.456,54.127,2.861,55.837.4,57.974a1.172,1.172,0,0,0-.115,1.653,1.186,1.186,0,0,0,1.653.115c2.532-2.2,5.387-3.88,8.737-2.2,3.031,1.515,6.168,2.165,9.325.5,2.546-1.34,5-2.5,7.843-1.144l2.921,1.391a8.867,8.867,0,0,0,7.828-.075c1.526-.763,3.076-1.778,4.819-1.9a9.587,9.587,0,0,1,4.859,1.27,8.965,8.965,0,0,0,6.433.583,12.946,12.946,0,0,0,4.89-3.114A1.172,1.172,0,0,0,59.713,53.4ZM46.407,21.121v7.4L34.2,21.121ZM28.829,2.369h2.344V9.4H28.829Zm-6.855,9.376H38.028v2.344H21.973Zm-8.379,9.376H25.8l-12.211,7.4ZM28.829,54.77c0-.208-1.671-.592-1.889-.64a9.047,9.047,0,0,0-6.078.812,12.6,12.6,0,0,1-4.17,1.728h-.008A6.709,6.709,0,0,1,14,56.461L7.593,34.9,28.829,22.029ZM17.11,18.777V16.433H42.891v2.344ZM46.644,54.295c.013-.363-3.286-.359-3.507-.336a16.692,16.692,0,0,0-5.589,2.16,7.007,7.007,0,0,1-6.376-.232V22.029L52.408,34.9Z" transform="translate(-0.001 -0.025)" fill="#2dcea5"/>
      </g>
    </g>
  </g>
</svg>
