<svg xmlns="http://www.w3.org/2000/svg" width="48" height="60" viewBox="0 0 48 60">
  <g id="pf4" transform="translate(0 0)">
    <path id="Path_2917" data-name="Path 2917" d="M268.171,185.088a1.058,1.058,0,0,0,1.341-.662,1.866,1.866,0,0,1,2.361-1.164,3.984,3.984,0,0,0,5.045-2.489,1.058,1.058,0,1,0-2-.68,1.864,1.864,0,0,1-2.362,1.164,3.989,3.989,0,0,0-5.045,2.489A1.06,1.06,0,0,0,268.171,185.088Zm0,0" transform="translate(-235.659 -158.358)" fill="#f2a29e"/>
    <path id="Path_2918" data-name="Path 2918" d="M289.49,122.286a1.058,1.058,0,0,0,1.341-.662,1.86,1.86,0,0,1,2.362-1.164,3.984,3.984,0,0,0,5.045-2.49,1.058,1.058,0,1,0-2-.68,1.862,1.862,0,0,1-2.361,1.165,3.976,3.976,0,0,0-5.045,2.489A1.057,1.057,0,0,0,289.49,122.286Zm0,0" transform="translate(-254.476 -102.912)" fill="#f2a29e"/>
    <path id="Path_2919" data-name="Path 2919" d="M310.8,64.1a1.059,1.059,0,0,0,1.343-.663,1.377,1.377,0,0,1,1.744-.86,3.489,3.489,0,0,0,4.429-2.183,1.058,1.058,0,1,0-2-.68,1.372,1.372,0,0,1-1.745.858,3.5,3.5,0,0,0-4.428,2.184A1.06,1.06,0,0,0,310.8,64.1Zm0,0" transform="translate(-273.281 -52.063)" fill="#f2a29e"/>
    <path id="Path_2920" data-name="Path 2920" d="M45.158,26.644a1.4,1.4,0,0,0-.608-.225A73.646,73.646,0,0,0,48,6.56,7.08,7.08,0,0,0,45.071.652,4.411,4.411,0,0,0,40.517.6c-3.186,1.627-5.464,6.414-7.295,10.261l-.311.652a6.128,6.128,0,0,0-3.38-4.236,5.062,5.062,0,0,0-3.955-3.893,3.265,3.265,0,0,0-.081-.326A3.645,3.645,0,0,0,20.179.946a3.925,3.925,0,0,0-5.706,2.508,4.764,4.764,0,0,0-3.531,4.53A5.267,5.267,0,0,0,7.3,15.015a4.123,4.123,0,0,0-.933,2.617,4.07,4.07,0,0,0,.348,1.651,5.689,5.689,0,0,0-4.249-2.03A1.056,1.056,0,0,0,2.5,19.364c.036,0,.069,0,.1,0a3.715,3.715,0,0,1,2.6,1.414c-1.692.483-3.731,1.268-4.682,3.045A5.326,5.326,0,0,0,.27,27.713,1.82,1.82,0,0,0,0,28.751L1.818,54.29A6.049,6.049,0,0,0,7.888,60H37.83A6.044,6.044,0,0,0,43.9,54.309L45.76,27.882c0-.006,0-.012,0-.019a1.365,1.365,0,0,0-.6-1.219ZM33.781,14.536c.423-.78.883-1.748,1.371-2.773,1.6-3.371,3.8-7.986,6.343-9.284a2.344,2.344,0,0,1,2.443-.04,5.079,5.079,0,0,1,1.928,4.066,71.668,71.668,0,0,1-3.425,19.528c-.069.221-.223.666-.442,1.278l-1.818.8a1.056,1.056,0,0,0-.115.06,3.3,3.3,0,0,1-3.4,0l-.76-.452a5.548,5.548,0,0,0-2.836-.779l-.036,0a5.539,5.539,0,0,0-2.872.777l-.759.452a3.372,3.372,0,0,1-1.366.427c.027-.092.058-.182.086-.272.292-.983.606-1.952.934-2.914.125-.366.255-.729.385-1.091.274-.764.561-1.517.858-2.266.132-.335.261-.672.4-1a70.231,70.231,0,0,1,3.086-6.513Zm-13.6,2.5c.124-.158.246-.312.362-.462a.006.006,0,0,1,0,0,2.6,2.6,0,0,0,.22-.341,2.241,2.241,0,0,0,.2-1.574l4.452-.964a2.223,2.223,0,0,0,1.165,1.561c.162.089.332.177.507.269.144.075.288.153.433.231.069.037.14.074.209.112.127.07.25.149.373.226.106.065.21.131.313.2.118.081.232.171.345.262s.194.168.288.258a4.255,4.255,0,0,1,.295.308,3.628,3.628,0,0,1,.451.638c-.452.988-.878,2-1.289,3.013-.064.157-.132.311-.2.468a10.933,10.933,0,0,0-3.694,1.826A6.326,6.326,0,0,1,19.4,24.323l-.647-2.934c-.439-1.984.513-3.186,1.434-4.348Zm5.289-6.412a.466.466,0,0,1,.083-.008.448.448,0,0,1,.434.343.425.425,0,0,1-.062.329.435.435,0,0,1-.274.19l-5.892,1.277a.447.447,0,0,1-.525-.334.443.443,0,0,1,.337-.52l3.131-.678ZM22.026,26.96c-.081.005-.163.007-.244.016a5.519,5.519,0,0,0-1.7.446l-.2-.924c.308.025.614.051.9.051a8.3,8.3,0,0,0,5.079-1.761,13.063,13.063,0,0,1,1.478-.911c-.1.276-.2.55-.29.827-.068.2-.142.394-.208.593q-.47,1.41-.891,2.843l-.709-.42a5.546,5.546,0,0,0-2.835-.78l-.039,0c-.113,0-.225.011-.337.017ZM9.267,16.041l.7-.57L9.513,14.7a3.155,3.155,0,0,1-.434-1.59A3.188,3.188,0,0,1,12.16,9.93l1.295-.054-.3-1.248a2.591,2.591,0,0,1-.077-.61,2.639,2.639,0,0,1,2.443-2.609l.986-.074V4.284a1.784,1.784,0,0,1,2.98-1.25l.748.668L20.95,3a1.5,1.5,0,0,1,2.5.657,1.368,1.368,0,0,1,.05.561L23.374,5.4h1.2A2.925,2.925,0,0,1,27.5,8.1l.048.694.662.23a4.027,4.027,0,0,1,2.726,3.889,3.785,3.785,0,0,1-.7,2.1A11.3,11.3,0,0,0,28.1,13.666c-.167-.088-.329-.172-.492-.262a.23.23,0,0,1-.121-.181.6.6,0,0,1,.148-.469,2.251,2.251,0,0,0,.5-1.95l-.129-.582a2.236,2.236,0,0,0-1-1.414A2.275,2.275,0,0,0,25.3,8.5l-.286.062h-.009l-3.131.678-3.055.66a2.256,2.256,0,0,0-1.427.985,2.215,2.215,0,0,0-.308,1.695l.064.287v0s0,0,0,0l.063.286a2.251,2.251,0,0,0,1.319,1.581.642.642,0,0,1,.353.341c.028.078.012.118-.05.22h0c-.105.141-.22.283-.336.43s-.239.3-.363.464c-.042.054-.081.109-.123.164-.089.119-.177.241-.265.368-.048.069-.094.14-.141.211-.081.124-.159.251-.236.382-.044.076-.088.151-.131.23-.08.148-.153.3-.224.462-.031.067-.064.132-.092.2a5.747,5.747,0,0,0-.243.724c-.011.04-.015.083-.025.125a5.712,5.712,0,0,0-.12.671c-.01.093-.012.19-.019.286-.009.125-.025.243-.025.373l-.013-.016c-.015-.019-.03-.036-.044-.055-.185-.242-.371-.465-.558-.676-.059-.066-.118-.13-.178-.194q-.235-.251-.472-.473c-.051-.048-.1-.1-.154-.146a7.384,7.384,0,0,0-.6-.482c-.056-.04-.114-.074-.171-.112-.152-.1-.3-.194-.457-.276-.074-.04-.148-.079-.224-.115a4.773,4.773,0,0,0-.48-.2c-.053-.019-.107-.044-.16-.061a4.421,4.421,0,0,0-.528-.132c-.02,0-.041,0-.061-.005-.036-.006-.071-.02-.108-.026-.124-.018-.241-.011-.363-.019-.085-.005-.169-.023-.255-.023-.025,0-.052.006-.079.006a4.373,4.373,0,0,0-.486.041c-.08.011-.16.017-.24.032a5.058,5.058,0,0,0-.615.154c-.031.01-.061.017-.092.027a6.728,6.728,0,0,0-1.506.736,1.994,1.994,0,0,1-.148-.756,2.05,2.05,0,0,1,.762-1.59ZM2.414,24.808c.451-.841,1.547-1.484,3.449-2.022a5.772,5.772,0,0,0,2.385-1.355c.3-.288.589-.532.864-.753a4.764,4.764,0,0,1,2.272-1.154l.045-.005a2.188,2.188,0,0,1,.618.018c.052.01.105.027.159.041a2.222,2.222,0,0,1,.3.088c.064.024.128.061.193.091.092.044.185.085.277.141.073.043.145.1.217.149s.173.115.26.185.162.142.243.215.162.14.243.221.18.194.271.295c.074.081.147.156.222.244.1.12.2.257.306.39.065.085.129.161.194.25.117.161.234.339.351.516.051.078.1.148.154.228q.255.4.512.847a7.949,7.949,0,0,1,.7,5.162c-.057-.005-.112-.014-.169-.022a3.332,3.332,0,0,1-1.154-.409l-.761-.452a5.546,5.546,0,0,0-2.835-.779l-.036,0a5.539,5.539,0,0,0-2.872.777l-.37.22a4.045,4.045,0,0,1-4.183,0l-1.435-.853h0a1.833,1.833,0,0,0-.6-.225,3.007,3.007,0,0,1,.18-2.049Zm39.36,29.373a3.927,3.927,0,0,1-3.94,3.706H7.892A3.931,3.931,0,0,1,3.95,54.161L2.175,29.2l.928.552a6.313,6.313,0,0,0,3.262.885,6.3,6.3,0,0,0,3.261-.885l.37-.22a3.3,3.3,0,0,1,3.4,0l.761.452a5.53,5.53,0,0,0,3.13.758c.1,0,.192,0,.289-.012.012,0,.023-.008.035-.009a5.517,5.517,0,0,0,2.1-.68,1.039,1.039,0,0,0,.186-.057l.761-.452a3.3,3.3,0,0,1,3.4,0l.761.452a5.553,5.553,0,0,0,2.609.764c.018,0,.037,0,.055,0a5.474,5.474,0,0,0,.932-.043c.177-.022.349-.066.523-.106.084-.02.169-.038.252-.062a5.493,5.493,0,0,0,1.369-.556l.761-.452a3.3,3.3,0,0,1,3.4,0l.761.452a5.551,5.551,0,0,0,2.857.775c.016,0,.033,0,.049,0a5.549,5.549,0,0,0,2.776-.743l2.093-.921a1.1,1.1,0,0,0,.118-.083l.163-.072Zm0,0" transform="translate(0)" fill="#f2a29e"/>
    <path id="Path_2921" data-name="Path 2921" d="M46.12,371.57h7.407a1.058,1.058,0,1,0,0-2.117H46.12a1.058,1.058,0,0,0,0,2.117Zm0,0" transform="translate(-39.77 -326.161)" fill="#f2a29e"/>
    <path id="Path_2922" data-name="Path 2922" d="M46.12,407.613h9.523a1.058,1.058,0,1,0,0-2.117H46.12a1.058,1.058,0,0,0,0,2.117Zm0,0" transform="translate(-39.77 -357.981)" fill="#f2a29e"/>
    <path id="Path_2923" data-name="Path 2923" d="M57.76,441.539H46.121a1.058,1.058,0,0,0,0,2.116H57.76a1.058,1.058,0,1,0,0-2.116Zm0,0" transform="translate(-39.771 -389.813)" fill="#f2a29e"/>
    <path id="Path_2924" data-name="Path 2924" d="M183.389,441.539h-2.116a1.058,1.058,0,1,0,0,2.116h2.116a1.058,1.058,0,1,0,0-2.116Zm0,0" transform="translate(-158.864 -389.813)" fill="#f2a29e"/>
  </g>
</svg>
