<svg xmlns="http://www.w3.org/2000/svg" width="32" height="40" viewBox="0 0 32 40">
  <path id="pi2" d="M30.105,17.763a.931.931,0,0,0-.405-.15A49.1,49.1,0,0,0,32,4.374,4.72,4.72,0,0,0,30.048.434,2.941,2.941,0,0,0,27.011.4c-2.124,1.085-3.643,4.276-4.863,6.841l-.207.435a4.085,4.085,0,0,0-2.254-2.824,3.375,3.375,0,0,0-2.637-2.6A2.176,2.176,0,0,0,17,2.041,2.43,2.43,0,0,0,13.453.631,2.617,2.617,0,0,0,9.649,2.3a3.176,3.176,0,0,0-2.354,3.02A3.512,3.512,0,0,0,4.87,10.01a2.749,2.749,0,0,0-.622,1.744,2.713,2.713,0,0,0,.232,1.1A3.792,3.792,0,0,0,1.647,11.5a.7.7,0,0,0,.021,1.408c.024,0,.046,0,.069,0a2.476,2.476,0,0,1,1.737.943,4.844,4.844,0,0,0-3.122,2.03A3.551,3.551,0,0,0,.18,18.475,1.213,1.213,0,0,0,0,19.167l1.21,17.026A4.032,4.032,0,0,0,5.259,40H25.22a4.029,4.029,0,0,0,4.046-3.794l1.241-17.618s0-.008,0-.013a.91.91,0,0,0-.4-.813ZM22.521,9.691c.282-.52.589-1.165.914-1.848C24.5,5.6,25.968,2.519,27.663,1.653a1.563,1.563,0,0,1,1.629-.027,3.386,3.386,0,0,1,1.286,2.711,47.779,47.779,0,0,1-2.283,13.019c-.046.147-.149.444-.294.852l-1.212.533a.7.7,0,0,0-.077.04,2.2,2.2,0,0,1-2.269,0l-.507-.3a3.7,3.7,0,0,0-1.89-.519h-.024a3.693,3.693,0,0,0-1.914.518l-.506.3a2.248,2.248,0,0,1-.91.284c.018-.061.039-.121.057-.182.195-.655.4-1.3.623-1.943.083-.244.17-.486.257-.727C19.809,15.7,20,15.2,20.2,14.7c.088-.223.174-.448.265-.669a46.821,46.821,0,0,1,2.057-4.342Zm-9.065,1.67c.083-.106.164-.208.241-.308a0,0,0,0,1,0,0,1.735,1.735,0,0,0,.146-.228,1.494,1.494,0,0,0,.135-1.049l2.968-.642a1.482,1.482,0,0,0,.777,1.04c.108.059.221.118.338.179.1.05.192.1.289.154l.139.075c.085.047.166.1.249.15s.14.087.208.135.154.114.23.175.129.112.192.172a2.836,2.836,0,0,1,.2.205,2.419,2.419,0,0,1,.3.425c-.3.659-.585,1.331-.859,2.009-.043.1-.088.207-.13.312a7.289,7.289,0,0,0-2.463,1.217,4.218,4.218,0,0,1-3.482.837L12.5,14.26a3.193,3.193,0,0,1,.956-2.9Zm3.526-4.275a.311.311,0,0,1,.055-.005.3.3,0,0,1,.289.229.284.284,0,0,1-.041.219.29.29,0,0,1-.183.127l-3.928.851a.3.3,0,0,1-.35-.222.3.3,0,0,1,.225-.346l2.087-.452Zm-2.3,10.888c-.054,0-.109,0-.163.011a3.68,3.68,0,0,0-1.134.3l-.136-.616c.205.017.409.034.6.034a5.534,5.534,0,0,0,3.386-1.174,8.709,8.709,0,0,1,.986-.607c-.065.184-.13.367-.193.551-.046.132-.095.262-.139.4q-.314.94-.594,1.9l-.473-.28a3.7,3.7,0,0,0-1.89-.52l-.026,0c-.075,0-.15.007-.225.011ZM6.178,10.694l.466-.38-.3-.516a2.1,2.1,0,0,1-.289-1.06A2.125,2.125,0,0,1,8.107,6.62l.863-.036-.2-.832a1.727,1.727,0,0,1-.051-.407,1.76,1.76,0,0,1,1.628-1.739L11,3.556v-.7a1.189,1.189,0,0,1,1.987-.833l.5.446L13.967,2a1,1,0,0,1,1.666.438.912.912,0,0,1,.034.374l-.083.786h.8a1.95,1.95,0,0,1,1.947,1.8l.032.463.441.153a2.685,2.685,0,0,1,1.818,2.593,2.523,2.523,0,0,1-.467,1.4,7.536,7.536,0,0,0-1.419-.894c-.112-.059-.219-.115-.328-.175a.153.153,0,0,1-.08-.121.4.4,0,0,1,.1-.313,1.5,1.5,0,0,0,.334-1.3l-.086-.388a1.49,1.49,0,0,0-.663-.943,1.517,1.517,0,0,0-1.141-.2l-.191.042h-.006l-2.087.452-2.037.44a1.5,1.5,0,0,0-.951.657,1.477,1.477,0,0,0-.206,1.13l.043.191v0s0,0,0,0l.042.191a1.5,1.5,0,0,0,.88,1.054.428.428,0,0,1,.236.227c.018.052.008.079-.034.146h0c-.07.094-.146.189-.224.287s-.159.2-.242.309c-.028.036-.054.073-.082.11-.059.08-.118.161-.176.245-.032.046-.063.093-.094.141-.054.082-.106.167-.157.255-.03.051-.059.1-.087.153-.054.1-.1.2-.15.308-.021.045-.043.088-.061.135a3.831,3.831,0,0,0-.162.483c-.007.027-.01.056-.016.083a3.808,3.808,0,0,0-.08.447c-.007.062-.008.127-.013.191-.006.083-.016.162-.016.248l-.009-.01-.029-.037c-.124-.161-.248-.31-.372-.451-.039-.044-.079-.087-.119-.129q-.157-.168-.314-.315c-.034-.032-.068-.066-.1-.1a4.923,4.923,0,0,0-.4-.321c-.038-.027-.076-.049-.114-.074-.1-.067-.2-.129-.3-.184-.05-.027-.1-.053-.149-.077a3.181,3.181,0,0,0-.32-.133c-.035-.013-.071-.03-.107-.041a2.948,2.948,0,0,0-.352-.088c-.014,0-.027,0-.041,0s-.047-.013-.072-.017c-.083-.012-.161-.007-.242-.013-.057,0-.113-.015-.17-.015-.017,0-.035,0-.052,0a2.916,2.916,0,0,0-.324.027c-.053.007-.107.011-.16.021a3.372,3.372,0,0,0-.41.1l-.061.018a4.486,4.486,0,0,0-1,.491,1.329,1.329,0,0,1-.1-.5,1.366,1.366,0,0,1,.508-1.06ZM1.61,16.539a3.553,3.553,0,0,1,2.3-1.348,3.848,3.848,0,0,0,1.59-.9c.2-.192.392-.355.576-.5a3.176,3.176,0,0,1,1.515-.769l.03,0a1.459,1.459,0,0,1,.412.012c.035.006.07.018.106.027a1.481,1.481,0,0,1,.2.059c.043.016.085.041.129.06.062.03.123.056.185.094s.1.066.145.1.115.077.174.123.108.095.162.143.108.093.162.147.12.129.181.2.1.1.148.163c.068.08.136.172.2.26.043.056.086.107.129.167.078.107.156.226.234.344.034.052.069.1.1.152q.17.265.341.565a5.3,5.3,0,0,1,.47,3.441c-.038,0-.075-.009-.113-.015a2.221,2.221,0,0,1-.769-.273l-.507-.3a3.7,3.7,0,0,0-1.89-.519H7.8a3.693,3.693,0,0,0-1.914.518l-.247.146a2.7,2.7,0,0,1-2.789,0l-.957-.569h0a1.222,1.222,0,0,0-.4-.15,2,2,0,0,1,.12-1.366ZM27.85,36.121a2.618,2.618,0,0,1-2.627,2.471H5.261a2.62,2.62,0,0,1-2.627-2.484L1.45,19.465l.619.368a4.209,4.209,0,0,0,2.175.59,4.2,4.2,0,0,0,2.174-.59l.247-.146a2.2,2.2,0,0,1,2.269,0l.507.3a3.687,3.687,0,0,0,2.086.505c.064,0,.128,0,.193-.008.008,0,.015-.005.023-.006a3.678,3.678,0,0,0,1.4-.453.693.693,0,0,0,.124-.038l.507-.3a2.2,2.2,0,0,1,2.269,0l.507.3a3.7,3.7,0,0,0,1.739.509l.037,0a3.65,3.65,0,0,0,.621-.029c.118-.015.232-.044.348-.07.056-.013.113-.025.168-.042a3.662,3.662,0,0,0,.913-.371l.507-.3a2.2,2.2,0,0,1,2.269,0l.507.3a3.7,3.7,0,0,0,1.9.517l.033,0a3.7,3.7,0,0,0,1.851-.5l1.4-.614a.734.734,0,0,0,.079-.056l.109-.048Zm0,0" transform="translate(0 0)" fill="#f2a29e"/>
</svg>
