<svg id="pi3" xmlns="http://www.w3.org/2000/svg" width="40" height="40.002" viewBox="0 0 40 40.002">
  <path id="Shape" d="M37.987,0H21.993a2,2,0,0,0-2,2c0,4.185-.2-.118,1.262,20H19.327V18a3.337,3.337,0,0,0-3.332-3.334H9.33A3.337,3.337,0,0,0,6,18v4H2.666A2.666,2.666,0,0,0,0,24.668V37.335A2.666,2.666,0,0,0,2.666,40H22.659a2.636,2.636,0,0,0,1.327-.367A2.643,2.643,0,0,0,25.325,40h9.33a2.666,2.666,0,0,0,2.666-2.667V32.508a1.341,1.341,0,0,0,.711-1.077C40.287.583,39.987,5.748,39.987,2a2,2,0,0,0-2-2ZM21.993,1.333H37.987A.667.667,0,0,1,38.654,2V4H37.321V3.334a.666.666,0,1,0-1.333,0V4H34.655V3.334a.666.666,0,1,0-1.333,0V4H31.989V3.334a.666.666,0,1,0-1.333,0V4H29.324V3.334a.666.666,0,1,0-1.333,0V4H26.658V3.334a.666.666,0,1,0-1.333,0V4H23.992V3.334a.666.666,0,1,0-1.333,0V4H21.326V2A.667.667,0,0,1,21.993,1.333ZM7.331,20h5.332a.667.667,0,0,0,0-1.333H7.331V18a2,2,0,0,1,2-2h6.664a2,2,0,0,1,2,2v.667H15.328a.667.667,0,0,0,0,1.333h2.666v2H7.331ZM2.666,23.335H22.659a1.333,1.333,0,0,1,1.333,1.333H1.333A1.333,1.333,0,0,1,2.666,23.335ZM35.988,34.668H33.082a1.266,1.266,0,0,0-1.1.7A2.609,2.609,0,0,1,29.99,36,2.606,2.606,0,0,1,28,35.368a1.27,1.27,0,0,0-1.1-.7H25.325v-2H35.988ZM1.333,26H23.992V36H1.333ZM2.666,38.669a1.333,1.333,0,0,1-1.333-1.333H23.992a1.333,1.333,0,0,1-1.333,1.333Zm31.989,0c-10.213,0-9.4.022-9.673-.051.427-.77.343-1.267.343-2.616h1.5c.955,1.748,5.285,1.808,6.326,0h2.832v1.333A1.333,1.333,0,0,1,34.655,38.669ZM36.7,31.335H25.325V24.668A2.666,2.666,0,0,0,22.593,22L21.376,5.334H38.6Z" fill="#2dcea5"/>
  <path id="Shape-2" data-name="Shape" d="M22.631,43.525c-.432-1.458-4.923-2.829-7.03-2.438-2.7.5-4.393,2.171-4.258,4.141-.819.165-1.733.321-2.757.451A.667.667,0,0,0,8.753,47c1.1-.14,2.087-.309,2.965-.488.955,1.8,3.169,2.159,5.181,1.789,2.949-.543,3.514-2.985,5.169-3.676a.891.891,0,0,0,.563-1.1Zm-5.973,3.467c-1.23.225-2.755.172-3.556-.79a19.534,19.534,0,0,0,3.766-1.267.667.667,0,0,0-.6-1.19,19.249,19.249,0,0,1-3.588,1.185c.055-1.191,1.258-2.181,3.163-2.533a8.888,8.888,0,0,1,5.183,1.267c-1.651,1.013-2.177,2.923-4.368,3.328Z" transform="translate(-2.669 -13.672)" fill="#2dcea5"/>
  <path id="Shape-3" data-name="Shape" d="M42.334,10C39.687,10,37,16.594,37,21.334c0,4.509,1.322,6.43,4.667,6.646V30A.667.667,0,1,0,43,30V27.98c3.345-.215,4.667-2.137,4.667-6.646C47.667,16.594,44.98,10,42.334,10ZM43,26.645V24.277l1.8-1.8a.667.667,0,0,0-.943-.943L43,22.391V20.277l1.8-1.8a.667.667,0,0,0-.943-.943L43,18.391V15.334a.667.667,0,1,0-1.333,0v3.057l-.862-.862a.667.667,0,0,0-.943.943l1.8,1.8v2.115l-.862-.862a.667.667,0,0,0-.943.943l1.8,1.8v2.368c-2.253-.146-3.334-1.167-3.334-5.311,0-5.138,2.911-10,4-10s4,4.863,4,10c0,4.144-1.081,5.165-3.334,5.311Z" transform="translate(-12.347 -3.333)" fill="#2dcea5"/>
</svg>
