<svg xmlns="http://www.w3.org/2000/svg" width="46" height="40" viewBox="0 0 46 40">
  <path id="pi4" d="M86.843,113.954a2.914,2.914,0,1,1,2.888-2.914A2.9,2.9,0,0,1,86.843,113.954Zm.007-4.3a1.382,1.382,0,0,0,0,2.763,1.347,1.347,0,0,0,.961-.4,1.39,1.39,0,0,0,0-1.954A1.347,1.347,0,0,0,86.849,109.659Zm-16.4,4.3a2.914,2.914,0,1,1,2.888-2.914A2.9,2.9,0,0,1,70.448,113.954Zm.006-4.3a1.382,1.382,0,0,0,0,2.763,1.347,1.347,0,0,0,.961-.4,1.392,1.392,0,0,0,0-1.954A1.348,1.348,0,0,0,70.454,109.659Zm-1.948-3.52a3.329,3.329,0,0,1-2.833-1.568,3.276,3.276,0,0,1-.194-3.186,3.452,3.452,0,0,1,.511-.792l.253-.292L58.886,82.032l-2.195-1.6-.345.186a2.758,2.758,0,0,1-3.618-.913,2.821,2.821,0,0,1,.761-3.892,2.747,2.747,0,0,1,1.545-.476,2.775,2.775,0,0,1,2.313,1.243,2.833,2.833,0,0,1,.392,2.243l-.1.413,2.163,1.58,19.025,2.8.019-.709A9.193,9.193,0,0,1,81.6,76.567a9.071,9.071,0,0,1,12.826.086l.442.446,2.093-2.111a.755.755,0,0,1,1.074,0,.771.771,0,0,1,0,1.083L95.77,78.355l.223.414a9.258,9.258,0,0,1-3.7,12.5l-.212.116-.08.23A11.263,11.263,0,0,1,82.8,99.109l-14.733,1.944-.031.007a1.8,1.8,0,0,0,.473,3.545H90.2a.766.766,0,0,1,0,1.533Zm-.924-6.575.466-.048c1.011-.1,2.05-.25,3.055-.391.464-.065.926-.13,1.384-.19l.721-.1-2.087-7.268-6.836-.192Zm7.141-.924,7-.924L80.71,91.838l-8.005-.225Zm8.505-1.119.66-.178a9.772,9.772,0,0,0,5.6-4.043l.737-1.113-1.321.136a9.278,9.278,0,0,1-.944.049,9.036,9.036,0,0,1-4.807-1.382l-1.185-.743ZM88.011,75.5a7.666,7.666,0,0,0-5.422,13.093,7.563,7.563,0,0,0,10.761,0,7.725,7.725,0,0,0,1.695-8.256l-.35-.893L88.182,86.01a.754.754,0,0,1-1.074,0l-2.769-2.793a.773.773,0,0,1,0-1.084.755.755,0,0,1,1.074,0l2.232,2.252,6.141-6.2-.427-.446A7.33,7.33,0,0,0,88.011,75.5ZM72.264,90.078l8.183.229-.462-2.68-.049-.09a9.2,9.2,0,0,1-.773-1.947l-.108-.4L70.5,83.932Zm-8.6-.242,7.015.2L68.858,83.69l-8.152-1.2ZM55.04,76.861a1.257,1.257,0,0,0-1.245,1.03,1.279,1.279,0,0,0,.258,1.057,1.292,1.292,0,0,0,.992.472h0a1.25,1.25,0,0,0,.7-.217,1.29,1.29,0,0,0,.345-1.779A1.261,1.261,0,0,0,55.04,76.861Z" transform="translate(-52.257 -73.954)" fill="#0472fa" fill-rule="evenodd"/>
</svg>
