<svg xmlns="http://www.w3.org/2000/svg" xmlns:xlink="http://www.w3.org/1999/xlink" width="" height="" viewBox="0 0 210 251" preserveAspectRatio="none">
  <defs>
    <clipPath id="clip">
      <use xlink:href="#fill"/>
    </clipPath>
    <clipPath id="clip-2">
      <use xlink:href="#fill-2"/>
    </clipPath>
    <clipPath id="clip-3">
      <use xlink:href="#fill-3"/>
    </clipPath>
    <clipPath id="clip-4">
      <use xlink:href="#fill-4"/>
    </clipPath>
    <clipPath id="clip-5">
      <use xlink:href="#fill-5"/>
    </clipPath>
  </defs>
  <g id="service-s4" transform="translate(-1395 -1787)">
    <g id="Group_978" data-name="Group 978" transform="translate(721.001 0.4)">
      <g id="Rectangle_176" data-name="Rectangle 176" transform="translate(673.999 1786.6)" fill="rgba(255,255,255,0.15)" stroke="#fff" stroke-width="1">
        <rect width="107" height="128" rx="6" stroke="none"/>
        <rect x="0.5" y="0.5" width="106" height="127" rx="5.5" fill="none"/>
      </g>
      <g id="Group_965" data-name="Group 965" transform="translate(739.226 1799.6)">
        <circle id="Ellipse_34" data-name="Ellipse 34" cx="1.5" cy="1.5" r="1.5" transform="translate(-0.227 0)" fill="#fff"/>
        <circle id="Ellipse_35" data-name="Ellipse 35" cx="1.5" cy="1.5" r="1.5" transform="translate(4.773 0)" fill="#fff"/>
        <circle id="Ellipse_36" data-name="Ellipse 36" cx="1.5" cy="1.5" r="1.5" transform="translate(9.773 0)" fill="#fff"/>
        <circle id="Ellipse_37" data-name="Ellipse 37" cx="1.5" cy="1.5" r="1.5" transform="translate(14.773 0)" fill="#fff"/>
      </g>
      <g id="Group_966" data-name="Group 966" transform="translate(761.207 1798.6)">
        <rect id="Rectangle_179" data-name="Rectangle 179" width="7" height="1" transform="translate(-0.208 0)" fill="#fff"/>
        <rect id="Rectangle_180" data-name="Rectangle 180" width="7" height="1" transform="translate(-0.208 2)" fill="#fff"/>
        <rect id="Rectangle_181" data-name="Rectangle 181" width="7" height="1" transform="translate(-0.208 4)" fill="#fff"/>
      </g>
      <g id="Group_967" data-name="Group 967" transform="translate(686.999 1818.832)">
        <rect id="Rectangle_182" data-name="Rectangle 182" width="50" height="3" transform="translate(0 -0.232)" fill="#fff"/>
        <rect id="Rectangle_183" data-name="Rectangle 183" width="50" height="3" transform="translate(0 5.768)" fill="#fff"/>
      </g>
      <g id="Group_971" data-name="Group 971" transform="translate(686.999 1844.215)">
        <rect id="Rectangle_182-2" data-name="Rectangle 182" width="50" height="4" transform="translate(0 0.384)" fill="#fff"/>
        <rect id="Rectangle_183-2" data-name="Rectangle 183" width="50" height="3" transform="translate(0 7.384)" fill="#fff"/>
      </g>
      <g id="Group_973" data-name="Group 973" transform="translate(686.999 1869.605)">
        <rect id="Rectangle_182-3" data-name="Rectangle 182" width="50" height="3" transform="translate(0 -0.005)" fill="#fff"/>
        <rect id="Rectangle_183-3" data-name="Rectangle 183" width="50" height="3" transform="translate(0 6.995)" fill="#fff"/>
      </g>
      <g id="Group_969" data-name="Group 969" transform="translate(743.207 1817.843)">
        <rect id="Rectangle_184" data-name="Rectangle 184" width="25" height="11" rx="3" transform="translate(-0.208 -0.243)" fill="#fff"/>
        <g id="Group_968" data-name="Group 968" transform="translate(8 3.644)">
          <g id="Rectangle_185" data-name="Rectangle 185" transform="translate(-0.208 1.113)" fill="none" stroke="#e5e5e5" stroke-width="1">
            <rect width="8" height="1" stroke="none"/>
            <rect x="0.5" y="0.5" width="7" fill="none"/>
          </g>
          <path id="Path_3038" data-name="Path 3038" d="M9023.359-218.531l2.043,2.2-2.043,1.962" transform="translate(-9017.366 218.531)" fill="none" stroke="#e5e5e5" stroke-width="1"/>
        </g>
      </g>
      <g id="Group_970" data-name="Group 970" transform="translate(743.207 1843.204)">
        <rect id="Rectangle_184-2" data-name="Rectangle 184" width="25" height="13" rx="3" transform="translate(-0.208 0.396)" fill="#fff"/>
        <g id="Group_968-2" data-name="Group 968" transform="translate(8 4.479)">
          <g id="Rectangle_185-2" data-name="Rectangle 185" transform="translate(-0.208 1.917)" fill="none" stroke="#e5e5e5" stroke-width="1">
            <rect width="8" height="1" stroke="none"/>
            <rect x="0.5" y="0.5" width="7" fill="none"/>
          </g>
          <path id="Path_3038-2" data-name="Path 3038" d="M9023.359-218.531l2.043,2.2-2.043,1.962" transform="translate(-9017.366 218.531)" fill="none" stroke="#e5e5e5" stroke-width="1"/>
        </g>
      </g>
      <g id="Group_972" data-name="Group 972" transform="translate(743.207 1869.589)">
        <g id="Group_968-3" data-name="Group 968" transform="translate(8 6)">
          <g id="Rectangle_185-3" data-name="Rectangle 185" transform="translate(-0.208 0.011)" fill="none" stroke="#919191" stroke-width="1">
            <rect id="fill" width="8" stroke="none"/>
            <path d="M0,-0.49998999999479565h8M7.5,0v0.000010000005204346962M8,0.5h-8M0.5,0.000010000005204346962v-0.000010000005204346962" fill="none" clip-path="url(#clip)"/>
          </g>
        </g>
        <g id="Group_980" data-name="Group 980" transform="translate(0 0)">
          <rect id="Rectangle_184-3" data-name="Rectangle 184" width="25" height="11" rx="3" transform="translate(-0.208 0.011)" fill="#fff"/>
          <g id="Group_979" data-name="Group 979" transform="translate(8 3.378)">
            <g id="Rectangle_187" data-name="Rectangle 187" transform="translate(-0.208 1.633)" fill="none" stroke="#e5e5e5" stroke-width="1">
              <rect width="8" height="1" stroke="none"/>
              <rect x="0.5" y="0.5" width="7" fill="none"/>
            </g>
            <path id="Path_3039" data-name="Path 3039" d="M9023.359-218.531l2.043,2.2-2.043,1.962" transform="translate(-9017.366 218.531)" fill="none" stroke="#e5e5e5" stroke-width="1"/>
          </g>
        </g>
      </g>
      <g id="Group_976" data-name="Group 976" transform="translate(705.103 1890.76)">
        <rect id="Rectangle_184-4" data-name="Rectangle 184" width="45" height="14" rx="3" transform="translate(-0.104 -0.161)" fill="#fff"/>
        <g id="Group_968-4" data-name="Group 968" transform="translate(17 5.053)">
          <g id="Rectangle_185-4" data-name="Rectangle 185" transform="translate(-0.104 1.787)" fill="none" stroke="#e5e5e5" stroke-width="1">
            <rect width="8" height="1" stroke="none"/>
            <rect x="0.5" y="0.5" width="7" fill="none"/>
          </g>
          <path id="Path_3038-3" data-name="Path 3038" d="M9023.359-218.531l2.043,2.2-2.043,1.962" transform="translate(-9017.155 218.531)" fill="none" stroke="#e5e5e5" stroke-width="1"/>
        </g>
      </g>
      <g id="Group_977" data-name="Group 977" transform="translate(688.999 1792.6)">
        <g id="Rectangle_179-2" data-name="Rectangle 179" transform="translate(0 0)" fill="none" stroke="#fff" stroke-width="1">
          <rect width="18" height="17" rx="6" stroke="none"/>
          <rect x="0.5" y="0.5" width="17" height="16" rx="5.5" fill="none"/>
        </g>
        <path id="Union_1" data-name="Union 1" d="M2.75,11a2.75,2.75,0,0,1-.172-5.495,3,3,0,0,1-1.292-2.45A3.137,3.137,0,0,1,4.5,0,3.138,3.138,0,0,1,7.714,3.056a3,3,0,0,1-1.293,2.45A2.75,2.75,0,0,1,6.25,11Z" transform="translate(5 3)" fill="#fff"/>
      </g>
    </g>
    <g id="Group_981" data-name="Group 981" transform="translate(859.888 68.59)">
      <g id="Rectangle_176-2" data-name="Rectangle 176" transform="translate(673.112 1786.41)" fill="rgba(255,255,255,0.15)" stroke="#fff" stroke-width="1">
        <rect width="72" height="84" rx="6" stroke="none"/>
        <rect x="0.5" y="0.5" width="71" height="83" rx="5.5" fill="none"/>
      </g>
      <g id="Group_965-2" data-name="Group 965" transform="translate(713.432 1794.204)">
        <circle id="Ellipse_34-2" data-name="Ellipse 34" cx="1.5" cy="1.5" r="1.5" transform="translate(-0.32 0.206)" fill="#fff"/>
        <circle id="Ellipse_35-2" data-name="Ellipse 35" cx="1.5" cy="1.5" r="1.5" transform="translate(3.68 0.206)" fill="#fff"/>
        <circle id="Ellipse_36-2" data-name="Ellipse 36" cx="1.5" cy="1.5" r="1.5" transform="translate(7.68 0.206)" fill="#fff"/>
        <circle id="Ellipse_37-2" data-name="Ellipse 37" cx="1.5" cy="1.5" r="1.5" transform="translate(11.68 0.206)" fill="#fff"/>
      </g>
      <g id="Group_966-2" data-name="Group 966" transform="translate(732.676 1793.204)">
        <rect id="Rectangle_179-3" data-name="Rectangle 179" width="5" height="1" transform="translate(-1.564 0.206)" fill="#fff"/>
        <rect id="Rectangle_180-2" data-name="Rectangle 180" width="5" height="1" transform="translate(-1.564 2.206)" fill="#fff"/>
        <rect id="Rectangle_181-2" data-name="Rectangle 181" width="5" height="1" transform="translate(-1.564 4.206)" fill="#fff"/>
      </g>
      <g id="Group_967-2" data-name="Group 967" transform="translate(681.747 1807.126)">
        <rect id="Rectangle_182-4" data-name="Rectangle 182" width="32" height="2" transform="translate(0.365 0.284)" fill="#fff"/>
        <rect id="Rectangle_183-4" data-name="Rectangle 183" width="32" height="1" transform="translate(0.365 5.284)" fill="#fff"/>
      </g>
      <g id="Group_971-2" data-name="Group 971" transform="translate(681.747 1824.609)">
        <rect id="Rectangle_182-5" data-name="Rectangle 182" width="32" height="2" transform="translate(0.365 -0.199)" fill="#fff"/>
        <rect id="Rectangle_183-5" data-name="Rectangle 183" width="32" height="1" transform="translate(0.365 4.801)" fill="#fff"/>
      </g>
      <g id="Group_973-2" data-name="Group 973" transform="translate(681.747 1840.572)">
        <rect id="Rectangle_182-6" data-name="Rectangle 182" width="32" height="2" transform="translate(0.365 -0.162)" fill="#fff"/>
        <rect id="Rectangle_183-6" data-name="Rectangle 183" width="32" height="2" transform="translate(0.365 4.838)" fill="#fff"/>
      </g>
      <g id="Group_969-2" data-name="Group 969" transform="translate(719.754 1807.126)">
        <rect id="Rectangle_184-5" data-name="Rectangle 184" width="17" height="7" rx="3" transform="translate(0.358 0.284)" fill="#fff"/>
        <g id="Group_968-5" data-name="Group 968" transform="translate(6.081 2.28)">
          <g id="Rectangle_185-5" data-name="Rectangle 185" transform="translate(0.277 1.004)" fill="none" stroke="#e5e5e5" stroke-width="1">
            <rect width="4" height="1" stroke="none"/>
            <rect x="0.5" y="0.5" width="3" fill="none"/>
          </g>
          <path id="Path_3038-4" data-name="Path 3038" d="M9023.359-218.531l1.308,1.4-1.308,1.255" transform="translate(-9019.715 218.531)" fill="none" stroke="#e5e5e5" stroke-width="1"/>
        </g>
      </g>
      <g id="Group_970-2" data-name="Group 970" transform="translate(719.754 1823.849)">
        <rect id="Rectangle_184-6" data-name="Rectangle 184" width="17" height="8" rx="3" transform="translate(0.358 -0.439)" fill="#fff"/>
        <g id="Group_968-6" data-name="Group 968" transform="translate(6.081 2.726)">
          <g id="Rectangle_185-6" data-name="Rectangle 185" transform="translate(0.277 0.835)" fill="none" stroke="#e5e5e5" stroke-width="1">
            <rect width="4" height="1" stroke="none"/>
            <rect x="0.5" y="0.5" width="3" fill="none"/>
          </g>
          <path id="Path_3038-5" data-name="Path 3038" d="M9023.359-218.531l1.308,1.4-1.308,1.255" transform="translate(-9019.715 218.531)" fill="none" stroke="#e5e5e5" stroke-width="1"/>
        </g>
      </g>
      <g id="Group_972-2" data-name="Group 972" transform="translate(719.754 1840.572)">
        <g id="Group_968-7" data-name="Group 968" transform="translate(6.081 3.801)">
          <g id="Rectangle_185-7" data-name="Rectangle 185" transform="translate(0.277 0.037)" fill="none" stroke="#919191" stroke-width="1">
            <rect id="fill-2" width="4" stroke="none"/>
            <path d="M0,-0.49998999999479565h4M3.5,0v0.000010000005204346962M4,0.5h-4M0.5,0.000010000005204346962v-0.000010000005204346962" fill="none" clip-path="url(#clip-2)"/>
          </g>
        </g>
        <g id="Group_980-2" data-name="Group 980" transform="translate(0 0)">
          <rect id="Rectangle_184-7" data-name="Rectangle 184" width="17" height="8" rx="3" transform="translate(0.358 -0.162)" fill="#fff"/>
          <g id="Group_979-2" data-name="Group 979" transform="translate(6.081 2.573)">
            <g id="Rectangle_187-2" data-name="Rectangle 187" transform="translate(0.277 1.265)" fill="none" stroke="#ccc" stroke-width="1">
              <rect id="fill-3" width="4" stroke="none"/>
              <path d="M0,-0.49998999999479565h4M3.5,0v0.000010000005204346962M4,0.5h-4M0.5,0.000010000005204346962v-0.000010000005204346962" fill="none" clip-path="url(#clip-3)"/>
            </g>
            <path id="Path_3039-2" data-name="Path 3039" d="M9023.359-218.531l1.308,1.4-1.308,1.255" transform="translate(-9019.715 218.531)" fill="none" stroke="#e5e5e5" stroke-width="1"/>
            <g id="Path_3045" data-name="Path 3045" transform="translate(-1.724 1.265)" fill="none">
              <path d="M0,0H6V1H0Z" stroke="none"/>
              <path d="M 0 0 L 6 0 L 6 1 L 0 1 L 0 0 Z" stroke="none" fill="#e5e5e5"/>
            </g>
          </g>
        </g>
      </g>
      <g id="Group_976-2" data-name="Group 976" transform="translate(695.429 1855.015)">
        <rect id="Rectangle_184-8" data-name="Rectangle 184" width="28" height="8" rx="3" transform="translate(-0.318 0.395)" fill="#fff"/>
        <g id="Group_968-8" data-name="Group 968" transform="translate(9.882 3.277)">
          <g id="Path_3044" data-name="Path 3044" transform="translate(0.8 1.118)" fill="none">
            <path d="M0,0H6V1H0Z" stroke="none"/>
            <path d="M 0 0 L 6 0 L 6 1 L 0 1 L 0 0 Z" stroke="none" fill="#e5e5e5"/>
          </g>
          <path id="Path_3038-6" data-name="Path 3038" d="M9023.359-218.531l1.308,1.584-1.308,1.416" transform="translate(-9017.06 218.149)" fill="none" stroke="#e5e5e5" stroke-width="1"/>
        </g>
      </g>
      <g id="Group_977-2" data-name="Group 977" transform="translate(683.267 1790.403)">
        <g id="Rectangle_179-4" data-name="Rectangle 179" transform="translate(-0.155 0.007)" fill="none" stroke="#fff" stroke-width="1">
          <rect width="12" height="11" rx="5" stroke="none"/>
          <rect x="0.5" y="0.5" width="11" height="10" rx="4.5" fill="none"/>
        </g>
        <path id="Union_1-2" data-name="Union 1" d="M1.25,5a1.25,1.25,0,0,1-.1-2.5A1.374,1.374,0,0,1,.572,1.389,1.409,1.409,0,0,1,2,0,1.409,1.409,0,0,1,3.428,1.389,1.374,1.374,0,0,1,2.851,2.5,1.25,1.25,0,0,1,2.75,5Z" transform="translate(3.845 3.007)" fill="#fff"/>
      </g>
    </g>
    <g id="Group_982" data-name="Group 982" transform="translate(790.713 162.082)">
      <g id="Rectangle_176-3" data-name="Rectangle 176" transform="translate(673.287 1786.918)" fill="rgba(255,255,255,0.15)" stroke="#fff" stroke-width="1">
        <rect width="72" height="89" rx="6" stroke="none"/>
        <rect x="0.5" y="0.5" width="71" height="88" rx="5.5" fill="none"/>
      </g>
      <g id="Group_965-3" data-name="Group 965" transform="translate(711.445 1795.252)">
        <circle id="Ellipse_34-3" data-name="Ellipse 34" cx="1.5" cy="1.5" r="1.5" transform="translate(0.842 -0.334)" fill="#fff"/>
        <circle id="Ellipse_35-3" data-name="Ellipse 35" cx="1.5" cy="1.5" r="1.5" transform="translate(4.841 -0.334)" fill="#fff"/>
        <circle id="Ellipse_36-3" data-name="Ellipse 36" cx="1.5" cy="1.5" r="1.5" transform="translate(8.842 -0.334)" fill="#fff"/>
        <circle id="Ellipse_37-3" data-name="Ellipse 37" cx="1.5" cy="1.5" r="1.5" transform="translate(12.842 -0.334)" fill="#fff"/>
      </g>
      <g id="Group_966-3" data-name="Group 966" transform="translate(732.55 1795.252)">
        <g id="Group_984" data-name="Group 984" transform="translate(0 -1)">
          <rect id="Rectangle_179-5" data-name="Rectangle 179" width="4" height="1" transform="translate(-1.263 -0.334)" fill="#fff"/>
          <rect id="Rectangle_180-3" data-name="Rectangle 180" width="4" height="1" transform="translate(-1.263 1.666)" fill="#fff"/>
          <rect id="Rectangle_181-3" data-name="Rectangle 181" width="4" height="1" transform="translate(-1.263 3.666)" fill="#fff"/>
        </g>
      </g>
      <g id="Group_967-3" data-name="Group 967" transform="translate(682.664 1809.05)">
        <rect id="Rectangle_182-7" data-name="Rectangle 182" width="34" height="2" transform="translate(-0.378 -0.132)" fill="#fff"/>
        <rect id="Rectangle_183-7" data-name="Rectangle 183" width="34" height="2" transform="translate(-0.378 4.868)" fill="#fff"/>
      </g>
      <g id="Group_971-3" data-name="Group 971" transform="translate(682.664 1827.094)">
        <rect id="Rectangle_182-8" data-name="Rectangle 182" width="34" height="2" transform="translate(-0.378 -0.176)" fill="#fff"/>
        <rect id="Rectangle_183-8" data-name="Rectangle 183" width="34" height="2" transform="translate(-0.378 4.824)" fill="#fff"/>
      </g>
      <g id="Group_973-3" data-name="Group 973" transform="translate(682.664 1844.076)">
        <rect id="Rectangle_182-9" data-name="Rectangle 182" width="34" height="2" transform="translate(-0.378 -0.158)" fill="#fff"/>
        <rect id="Rectangle_183-9" data-name="Rectangle 183" width="34" height="3" transform="translate(-0.378 4.842)" fill="#fff"/>
      </g>
      <g id="Group_969-3" data-name="Group 969" transform="translate(718.752 1809.05)">
        <rect id="Rectangle_184-9" data-name="Rectangle 184" width="19" height="8" rx="3" transform="translate(-0.465 -0.132)" fill="#fff"/>
        <g id="Group_968-9" data-name="Group 968" transform="translate(6.368 1.848)">
          <g id="Rectangle_185-8" data-name="Rectangle 185" transform="translate(0.166 1.02)" fill="none" stroke="#e5e5e5" stroke-width="1">
            <rect width="4" height="1" stroke="none"/>
            <rect x="0.5" y="0.5" width="3" fill="none"/>
          </g>
          <path id="Path_3038-7" data-name="Path 3038" d="M9023.359-218.531l1.389,1.491-1.389,1.332" transform="translate(-9019.582 218.531)" fill="none" stroke="#e5e5e5" stroke-width="1"/>
        </g>
      </g>
      <g id="Group_970-3" data-name="Group 970" transform="translate(718.752 1826.032)">
        <rect id="Rectangle_184-10" data-name="Rectangle 184" width="19" height="9" rx="3" transform="translate(-0.465 -0.115)" fill="#fff"/>
        <g id="Group_968-10" data-name="Group 968" transform="translate(6.368 3.168)">
          <g id="Rectangle_185-9" data-name="Rectangle 185" transform="translate(0.166 0.718)" fill="none" stroke="#e5e5e5" stroke-width="1">
            <rect width="4" height="1" stroke="none"/>
            <rect x="0.5" y="0.5" width="3" fill="none"/>
          </g>
          <path id="Path_3038-8" data-name="Path 3038" d="M9023.359-218.531l1.389,1.491-1.389,1.332" transform="translate(-9019.582 218.531)" fill="none" stroke="#e5e5e5" stroke-width="1"/>
        </g>
      </g>
      <g id="Group_972-3" data-name="Group 972" transform="translate(718.752 1844.076)">
        <g id="Group_968-11" data-name="Group 968" transform="translate(6.368 4.246)">
          <g id="Rectangle_185-10" data-name="Rectangle 185" transform="translate(0.166 -0.404)" fill="none" stroke="#919191" stroke-width="1">
            <rect id="fill-4" width="4" stroke="none"/>
            <path d="M0,-0.49998999999479565h4M3.5,0v0.000010000005204346962M4,0.5h-4M0.5,0.000010000005204346962v-0.000010000005204346962" fill="none" clip-path="url(#clip-4)"/>
          </g>
        </g>
        <g id="Group_980-3" data-name="Group 980" transform="translate(0 0)">
          <rect id="Rectangle_184-11" data-name="Rectangle 184" width="19" height="9" rx="3" transform="translate(-0.465 -0.158)" fill="#fff"/>
          <g id="Group_979-3" data-name="Group 979" transform="translate(6.368 2.795)">
            <g id="Rectangle_187-3" data-name="Rectangle 187" transform="translate(0.166 1.047)" fill="none" stroke="#ccc" stroke-width="1">
              <rect id="fill-5" width="4" stroke="none"/>
              <path d="M0,-0.49998999999479565h4M3.5,0v0.000010000005204346962M4,0.5h-4M0.5,0.000010000005204346962v-0.000010000005204346962" fill="none" clip-path="url(#clip-5)"/>
            </g>
            <path id="Path_3039-3" data-name="Path 3039" d="M9023.359-218.531l1.389,1.491-1.389,1.332" transform="translate(-9019.582 218.531)" fill="none" stroke="#e5e5e5" stroke-width="1"/>
          </g>
        </g>
      </g>
      <g id="Group_976-3" data-name="Group 976" transform="translate(694.34 1859.997)">
        <rect id="Rectangle_184-12" data-name="Rectangle 184" width="30" height="9" rx="3" transform="translate(-0.053 -0.079)" fill="#fff"/>
        <g id="Group_968-12" data-name="Group 968" transform="translate(10.614 3.059)">
          <g id="Rectangle_185-11" data-name="Rectangle 185" transform="translate(0.333 0.862)" fill="none" stroke="#e5e5e5" stroke-width="1">
            <rect width="6" height="1" stroke="none"/>
            <rect x="0.5" y="0.5" width="5" fill="none"/>
          </g>
          <path id="Path_3038-9" data-name="Path 3038" d="M9023.359-218.531l1.389,1.491-1.389,1.332" transform="translate(-9018.302 218.531)" fill="none" stroke="#e5e5e5" stroke-width="1"/>
        </g>
      </g>
      <g id="Group_977-3" data-name="Group 977" transform="translate(683.726 1791.006)">
        <g id="Rectangle_179-6" data-name="Rectangle 179" transform="translate(-0.439 -0.089)" fill="none" stroke="#fff" stroke-width="1">
          <rect width="13" height="12" rx="5" stroke="none"/>
          <rect x="0.5" y="0.5" width="12" height="11" rx="4.5" fill="none"/>
        </g>
        <path id="Union_1-3" data-name="Union 1" d="M1.5,6a1.5,1.5,0,0,1-.069-3A1.63,1.63,0,0,1,.715,1.667,1.729,1.729,0,0,1,2.5,0,1.729,1.729,0,0,1,4.286,1.667,1.63,1.63,0,0,1,3.569,3,1.5,1.5,0,0,1,3.5,6Z" transform="translate(3.561 2.911)" fill="#fff"/>
      </g>
    </g>
    <path id="Path_3042" data-name="Path 3042" d="M9663-237.818s23.526,20.283,54.4,7.231,39.984,21.132,39.984,21.132" transform="translate(-8181 2064)" fill="none" stroke="rgba(255,255,255,0.81)" stroke-width="2"/>
    <path id="Path_3043" data-name="Path 3043" d="M9623.263-160.031s-25.078,33.515-9.542,65.227c3.659,7.47,21.209,23.993,31.78,32.32" transform="translate(-8181 2064)" fill="none" stroke="rgba(255,255,255,0.81)" stroke-width="2"/>
    <path id="Path_3046" data-name="Path 3046" d="M9716-64.8s12.7,8.349,23.477-8.888,11.85-48.584,18.583-51.277" transform="translate(-8181 2064)" fill="none" stroke="rgba(255,255,255,0.81)" stroke-width="2"/>
  </g>
</svg>
