<svg xmlns="http://www.w3.org/2000/svg" width="56" height="60" viewBox="0 0 56 60">
  <g id="service14" transform="translate(-465 -1265.122)">
    <g id="offer" transform="translate(465 1268.224)">
      <path id="Path_778" data-name="Path 778" d="M115.683,22.325l0,.033a5.518,5.518,0,0,0,3.149,5.264l.021.01a3.71,3.71,0,0,1,1.68,1.616l.008.015a5.765,5.765,0,0,0,5.419,3.024l.034,0a3.946,3.946,0,0,1,2.333.607,5.914,5.914,0,0,0,6.272,0,3.946,3.946,0,0,1,2.333-.607l.034,0a5.769,5.769,0,0,0,5.42-3.027l.005-.011a3.717,3.717,0,0,1,1.685-1.619l.017-.008a5.518,5.518,0,0,0,3.149-5.264l0-.031a3.53,3.53,0,0,1,.614-2.188,5.429,5.429,0,0,0,0-6.139,3.53,3.53,0,0,1-.615-2.187l0-.033a5.518,5.518,0,0,0-3.151-5.265l-.019-.009a3.706,3.706,0,0,1-1.678-1.61l-.011-.021a5.77,5.77,0,0,0-5.418-3.024l-.035,0a3.943,3.943,0,0,1-2.332-.607h0a5.914,5.914,0,0,0-6.272,0,3.949,3.949,0,0,1-2.333.606l-.034,0a5.766,5.766,0,0,0-5.418,3.023l-.008.014a3.712,3.712,0,0,1-1.682,1.618l-.02.009a5.517,5.517,0,0,0-3.149,5.264l0,.031A3.528,3.528,0,0,1,115.069,14a5.429,5.429,0,0,0,0,6.139,3.528,3.528,0,0,1,.614,2.188Zm.953-7.246a5.442,5.442,0,0,0,.948-3.376l0-.033a3.619,3.619,0,0,1,2.079-3.442l.016-.008a5.6,5.6,0,0,0,2.539-2.444l.009-.018a3.86,3.86,0,0,1,3.632-2.008h.033a5.831,5.831,0,0,0,3.449-.9,4,4,0,0,1,4.243,0,5.845,5.845,0,0,0,3.449.9l.033,0a3.854,3.854,0,0,1,3.63,2l.013.024a5.6,5.6,0,0,0,2.536,2.44l.016.008a3.619,3.619,0,0,1,2.081,3.443l0,.034a5.441,5.441,0,0,0,.949,3.376,3.515,3.515,0,0,1,0,3.977,5.447,5.447,0,0,0-.948,3.376l0,.032a3.621,3.621,0,0,1-2.081,3.444l-.014.007a5.611,5.611,0,0,0-2.541,2.447l-.007.014a3.858,3.858,0,0,1-3.632,2.008l-.033,0a5.842,5.842,0,0,0-3.45.9,4,4,0,0,1-4.242,0,5.833,5.833,0,0,0-3.127-.906q-.161,0-.323.009h-.033a3.855,3.855,0,0,1-3.633-2.01l-.01-.018a5.6,5.6,0,0,0-2.534-2.44l-.018-.009a3.618,3.618,0,0,1-2.081-3.443l0-.034a5.446,5.446,0,0,0-.949-3.376,3.515,3.515,0,0,1,0-3.976Zm0,0" transform="translate(-100 -0.346)" fill="#ffb434"/>
      <path id="Path_779" data-name="Path 779" d="M204.952,76.757a.952.952,0,0,0,1.311-.3l11.275-18.063a.952.952,0,1,0-1.615-1.008L204.649,75.446A.952.952,0,0,0,204.952,76.757Zm0,0" transform="translate(-179.826 -50.195)" fill="#ffb434"/>
      <path id="Path_780" data-name="Path 780" d="M185.637,70.305c2.318,0,4.2-2.15,4.2-4.794s-1.886-4.793-4.2-4.793-4.2,2.15-4.2,4.793S183.319,70.305,185.637,70.305Zm0-7.683a2.965,2.965,0,1,1-2.3,2.889A2.649,2.649,0,0,1,185.637,62.622Zm0,0" transform="translate(-159.574 -53.536)" fill="#ffb434"/>
      <path id="Path_781" data-name="Path 781" d="M267.684,145.309c0,2.643,1.886,4.793,4.2,4.793s4.2-2.15,4.2-4.793-1.886-4.793-4.2-4.793S267.684,142.665,267.684,145.309Zm6.5,0a2.36,2.36,0,1,1-2.3-2.889A2.649,2.649,0,0,1,274.187,145.309Zm0,0" transform="translate(-235.433 -123.626)" fill="#ffb434"/>
      <path id="Path_782" data-name="Path 782" d="M51.54,271.233a4.885,4.885,0,0,0-6.416-1.935l-7.535,3.523a6.145,6.145,0,0,0-5.232-3.194l-6.956-.19a7.414,7.414,0,0,1-3.161-.808l-.708-.363a12.6,12.6,0,0,0-11.564.012l.044-1.587a.956.956,0,0,0-.935-.978l-7.627-.208a.957.957,0,0,0-.988.925L0,282.995a.956.956,0,0,0,.935.978l7.627.208H8.59a.958.958,0,0,0,.961-.926l.022-.792,1.982-1.05a3.432,3.432,0,0,1,2.537-.275l11.832,3.286.062.015a12.8,12.8,0,0,0,2.6.265,12.948,12.948,0,0,0,5.361-1.158.949.949,0,0,0,.119-.064L51.225,272.5a.946.946,0,0,0,.315-1.268ZM1.95,282.1l.408-14.66,5.7.155-.408,14.66Zm31.132-.25a11.008,11.008,0,0,1-6.669.736l-11.8-3.277a5.367,5.367,0,0,0-3.965.429l-1.013.536.271-9.747a10.668,10.668,0,0,1,10.741-.567l.708.363a9.363,9.363,0,0,0,3.994,1.021l6.956.19a4.206,4.206,0,0,1,4.01,3.326l-10.361-.282a.952.952,0,1,0-.053,1.9l11.434.311h.027a.958.958,0,0,0,.961-.926,6.012,6.012,0,0,0-.093-1.235l7.727-3.613.023-.011a2.962,2.962,0,0,1,3.323.46Zm0,0" transform="translate(0 -233.432)" fill="#ffb434"/>
    </g>
    <g id="Group_875" data-name="Group 875" transform="translate(467 1265.122)">
      <g id="Group_880" data-name="Group 880" transform="translate(10.982 53.953)">
        <path id="Path_758" data-name="Path 758" d="M96,448h2.016v2.016H96Zm0,0" transform="translate(-94.058 -448)" fill="#ffb434"/>
        <path id="Path_759" data-name="Path 759" d="M80,464h2.016v2.016H80Zm0,0" transform="translate(-80 -461.984)" fill="#ffb434"/>
        <path id="Path_760" data-name="Path 760" d="M96,480h2.016v2.016H96Zm0,0" transform="translate(-94.058 -475.969)" fill="#ffb434"/>
        <path id="Path_761" data-name="Path 761" d="M112,464h2.016v2.016H112Zm0,0" transform="translate(-108.054 -461.984)" fill="#ffb434"/>
      </g>
      <g id="Group_879" data-name="Group 879" transform="translate(47.94 46.965)">
        <path id="Path_762" data-name="Path 762" d="M352,360h2.028v2.028H352Zm0,0" transform="translate(-349.984 -360)" fill="#ffb434"/>
        <path id="Path_763" data-name="Path 763" d="M336,376h2.028v2.028H336Zm0,0" transform="translate(-336 -373.984)" fill="#ffb434"/>
        <path id="Path_764" data-name="Path 764" d="M352,392h2.028v2.028H352Zm0,0" transform="translate(-349.984 -387.968)" fill="#ffb434"/>
        <path id="Path_765" data-name="Path 765" d="M368,376h2.028v2.028H368Zm0,0" transform="translate(-363.968 -373.984)" fill="#ffb434"/>
      </g>
      <g id="Group_876" data-name="Group 876" transform="translate(43.007)">
        <path id="Path_770" data-name="Path 770" d="M464,0h2.23V2.23H464Zm0,0" transform="translate(-461.77)" fill="#ffb434"/>
        <path id="Path_771" data-name="Path 771" d="M448,16h2.23v2.23H448Zm0,0" transform="translate(-448 -13.77)" fill="#ffb434"/>
        <path id="Path_772" data-name="Path 772" d="M464,32h2.23v2.23H464Zm0,0" transform="translate(-461.77 -27.54)" fill="#ffb434"/>
        <path id="Path_773" data-name="Path 773" d="M480,16h2.23v2.23H480Zm0,0" transform="translate(-475.54 -13.77)" fill="#ffb434"/>
      </g>
      <g id="Group_877" data-name="Group 877" transform="translate(0 9.97)">
        <path id="Path_774" data-name="Path 774" d="M16,0h2.208V2.208H16Zm0,0" transform="translate(-13.792)" fill="#ffb434"/>
        <path id="Path_775" data-name="Path 775" d="M0,16H2.208v2.208H0Zm0,0" transform="translate(0 -13.792)" fill="#ffb434"/>
        <path id="Path_776" data-name="Path 776" d="M16,32h2.208v2.208H16Zm0,0" transform="translate(-13.792 -27.584)" fill="#ffb434"/>
        <path id="Path_777" data-name="Path 777" d="M32,16h2.208v2.208H32Zm0,0" transform="translate(-27.584 -13.792)" fill="#ffb434"/>
      </g>
    </g>
  </g>
</svg>
