<svg xmlns="http://www.w3.org/2000/svg" width="38" height="40" viewBox="0 0 38 40">
  <g id="service6" transform="translate(-14.15)">
    <path id="Path_2985" data-name="Path 2985" d="M46.972,15.21V13.672a13.97,13.97,0,0,0-3.7-9.639A12.825,12.825,0,0,0,33.8,0H32.518a12.825,12.825,0,0,0-9.472,4.034,13.97,13.97,0,0,0-3.7,9.639V15.21a5.542,5.542,0,0,0-5.195,5.5v2.4a5.54,5.54,0,0,0,5.56,5.5h3.132a1.016,1.016,0,0,0,1.019-1.008V16.2a1.016,1.016,0,0,0-1.019-1.008h-1.46V13.672c0-6.647,4.787-11.655,11.128-11.655h1.282c6.349,0,11.128,5.008,11.128,11.655v1.521h-1.46A1.016,1.016,0,0,0,42.44,16.2V27.6a1.016,1.016,0,0,0,1.019,1.008h1.426c-.416,5.261-4.074,6.479-5.772,6.756a3.578,3.578,0,0,0-3.4-2.445H33.163a3.542,3.542,0,1,0,0,7.084h2.555a3.576,3.576,0,0,0,3.446-2.605,9.7,9.7,0,0,0,3.455-1.168c1.842-1.067,4.023-3.244,4.312-7.63a5.534,5.534,0,0,0,5.22-5.5V20.7A5.513,5.513,0,0,0,46.972,15.21ZM21.84,26.588H19.726A3.507,3.507,0,0,1,16.2,23.1V20.7a3.507,3.507,0,0,1,3.522-3.487H21.84ZM35.718,37.983H33.163a1.521,1.521,0,1,1,0-3.042h2.555a1.521,1.521,0,1,1,0,3.042ZM50.121,23.1A3.507,3.507,0,0,1,46.6,26.588H44.485V17.21H46.6A3.507,3.507,0,0,1,50.121,20.7Z" transform="translate(0 0)" fill="#fff"/>
  </g>
</svg>
