<svg xmlns="http://www.w3.org/2000/svg" width="40" height="40" viewBox="0 0 40 40">
  <g id="service2" transform="translate(0 -0.006)">
    <g id="Group_892" data-name="Group 892" transform="translate(1.8 14.853)">
      <g id="Group_891" data-name="Group 891">
        <path id="Path_2969" data-name="Path 2969" d="M33.932,190.888a.666.666,0,0,0-.55-.362l-5.616-.374a.655.655,0,0,0-.666.423L23.051,200.92a.667.667,0,0,0,1.022.777l3.36-2.52,1.957.391a.667.667,0,0,0,.754-.417,43.381,43.381,0,0,1,3.758-7.606A.668.668,0,0,0,33.932,190.888Zm-4.83,7.261-1.7-.34a.672.672,0,0,0-.531.121l-1.722,1.291,3.015-7.706,4.031.268A45.084,45.084,0,0,0,29.1,198.149Z" transform="translate(-23.005 -190.148)" fill="#fff"/>
      </g>
    </g>
    <g id="Group_894" data-name="Group 894" transform="translate(13.47 27.207)">
      <g id="Group_893" data-name="Group 893">
        <path id="Path_2970" data-name="Path 2970" d="M184.2,354.627l-.375-5.617a.668.668,0,0,0-1.021-.521,43.4,43.4,0,0,1-7.606,3.758.666.666,0,0,0-.417.754l.391,1.957-2.52,3.36a.668.668,0,0,0,.534,1.069.705.705,0,0,0,.244-.045l10.347-4.049A.668.668,0,0,0,184.2,354.627Zm-9.071,2.615,1.291-1.722a.668.668,0,0,0,.12-.531l-.34-1.7a45.045,45.045,0,0,0,6.366-3.093l.269,4.03Z" transform="translate(-172.515 -348.387)" fill="#fff"/>
      </g>
    </g>
    <g id="Group_896" data-name="Group 896" transform="translate(8.531 19.996)">
      <g id="Group_895" data-name="Group 895">
        <path id="Path_2971" data-name="Path 2971" d="M120.074,256.007h-4.5a.669.669,0,0,0-.583.343l-5.645,10.144a.668.668,0,0,0,.583.992.659.659,0,0,0,.345-.1l10.144-6.139a.667.667,0,0,0,.322-.571v-4.005A.668.668,0,0,0,120.074,256.007Zm-.667,4.3-7.669,4.641,4.231-7.6h3.438Z" transform="translate(-109.263 -256.007)" fill="#fff"/>
      </g>
    </g>
    <g id="Group_898" data-name="Group 898" transform="translate(7.593 0.016)">
      <g id="Group_897" data-name="Group 897">
        <path id="Path_2972" data-name="Path 2972" d="M130.134.756a.668.668,0,0,0-.61-.61C129.3.129,107.32-1.406,97.8,23.516a.667.667,0,0,0,.152.71L101.13,27.4a.667.667,0,0,0,1.057-.15l3.18-5.774H108.8v2.97l-5.809,3.667a.668.668,0,0,0-.115,1.037l3.174,3.174a.667.667,0,0,0,.472.2.658.658,0,0,0,.238-.044C131.687,22.96,130.153.977,130.134.756Zm-3.5,11.844c-2.342,5.8-7.7,13.675-19.942,18.474L104.414,28.8l5.414-3.418a.669.669,0,0,0,.311-.565V20.809a.668.668,0,0,0-.668-.668h-4.5a.668.668,0,0,0-.585.346l-2.942,5.342L99.207,23.59C107.56,2.281,125.365,1.409,128.826,1.458A29.585,29.585,0,0,1,126.632,12.6Z" transform="translate(-97.761 -0.123)" fill="#fff"/>
      </g>
    </g>
    <g id="Group_900" data-name="Group 900" transform="translate(0 27.742)">
      <g id="Group_899" data-name="Group 899" transform="translate(0)">
        <path id="Path_2973" data-name="Path 2973" d="M11.435,356.919a.666.666,0,0,0-.6-.262.668.668,0,0,0-.262-.6,4.175,4.175,0,0,0-3.565-.695,4.49,4.49,0,0,0-3,2.5L.06,366.546a.667.667,0,0,0,.884.884l8.683-3.947a4.488,4.488,0,0,0,2.5-3A4.174,4.174,0,0,0,11.435,356.919Zm-.6,3.237a3.162,3.162,0,0,1-1.761,2.112l-7.063,3.21,3.21-7.063a3.161,3.161,0,0,1,2.112-1.761,3.021,3.021,0,0,1,.742-.093,2.817,2.817,0,0,1,1.193.262l-.635,1.125a.668.668,0,0,0,.91.91l1.125-.636A2.893,2.893,0,0,1,10.835,360.156Z" transform="translate(0 -355.225)" fill="#fff"/>
      </g>
    </g>
    <g id="Group_902" data-name="Group 902" transform="translate(25.242 0.006)">
      <g id="Group_901" data-name="Group 901" transform="translate(0 0)">
        <path id="Path_2974" data-name="Path 2974" d="M338.084.65a.669.669,0,0,0-.61-.61A29.814,29.814,0,0,0,323.748,2.9a.667.667,0,0,0-.193,1.078l10.587,10.587a.668.668,0,0,0,.472.2.708.708,0,0,0,.118-.01.668.668,0,0,0,.489-.378A29.8,29.8,0,0,0,338.084.65ZM334.4,12.935l-9.209-9.209a29.706,29.706,0,0,1,11.588-2.377A29.628,29.628,0,0,1,334.4,12.935Z" transform="translate(-323.359 -0.006)" fill="#fff"/>
      </g>
    </g>
    <g id="Group_904" data-name="Group 904" transform="translate(19.617 8.879)">
      <g id="Group_903" data-name="Group 903">
        <path id="Path_2975" data-name="Path 2975" d="M261.071,115.32a5.755,5.755,0,1,0,0,8.142A5.763,5.763,0,0,0,261.071,115.32Zm-.944,7.2a4.42,4.42,0,1,1,0-6.254A4.427,4.427,0,0,1,260.127,122.518Z" transform="translate(-251.245 -113.636)" fill="#fff"/>
      </g>
    </g>
    <g id="Group_906" data-name="Group 906" transform="translate(22.163 11.422)">
      <g id="Group_905" data-name="Group 905">
        <path id="Path_2976" data-name="Path 2976" d="M288.295,150.695a1.877,1.877,0,1,1,0-2.655.667.667,0,0,0,.944-.944,3.211,3.211,0,1,0,0,4.543.667.667,0,0,0-.944-.944Z" transform="translate(-283.757 -146.157)" fill="#fff"/>
      </g>
    </g>
  </g>
</svg>
