<svg id="service1" xmlns="http://www.w3.org/2000/svg" width="40.661" height="40.651" viewBox="0 0 40.661 40.651">
  <path id="Path_2930" data-name="Path 2930" d="M6.969,7.322a18.7,18.7,0,0,1,26.415-.307l-2.1.025a.821.821,0,0,0,.008,1.643H31.3l4.082-.05A.823.823,0,0,0,36.2,7.8l-.05-4.082a.821.821,0,1,0-1.643.017l.025,2.1A20.333,20.333,0,0,0,1.2,27.266a.837.837,0,0,0,.772.548.8.8,0,0,0,.274-.05.829.829,0,0,0,.5-1.054A18.591,18.591,0,0,1,6.969,7.322Z" transform="translate(0 -0.063)" fill="#fff"/>
  <path id="Path_2931" data-name="Path 2931" d="M55.478,177.379a20.2,20.2,0,0,0,14.195,5.782h.241a20.336,20.336,0,0,0,19.662-16.169,20.37,20.37,0,0,0-.763-11.05.824.824,0,0,0-1.551.556,18.685,18.685,0,0,1-30.638,19.7l2.1-.025a.821.821,0,0,0-.008-1.643H58.7l-4.082.05a.825.825,0,0,0-.581.249.844.844,0,0,0-.232.581l.05,4.082a.827.827,0,0,0,.821.813h.008a.823.823,0,0,0,.813-.83Z" transform="translate(-49.346 -142.511)" fill="#fff"/>
  <path id="Path_2932" data-name="Path 2932" d="M120.471,104.247a12.268,12.268,0,0,0-10.611-7.558c-.083-.008-.174-.008-.265-.017h-.033c-.05,0-.1-.008-.149-.008h-.025c-.091,0-.183-.008-.282-.008a12.3,12.3,0,0,0,.017,24.6,1.469,1.469,0,0,0,.191-.008c.033,0,.075.008.108.008a.062.062,0,0,0,.041-.008c.075,0,.141-.008.216-.008h.083a.183.183,0,0,0,.066-.008,12.29,12.29,0,0,0,10.652-16.974c-.008,0-.008,0-.008-.008Zm-15.647-5.036a12.938,12.938,0,0,0-2.124,4.538H99.822A10.605,10.605,0,0,1,104.824,99.211ZM99.075,105.4h3.269a21.274,21.274,0,0,0-.29,3.567,19.816,19.816,0,0,0,.315,3.567H99.075A10.537,10.537,0,0,1,99.075,105.4Zm.747,8.769h2.929A13.317,13.317,0,0,0,105,118.8,10.6,10.6,0,0,1,99.822,114.169Zm8.769,5.326c-1.717-.506-3.244-2.563-4.115-5.326h4.115V119.5Zm0-6.969h-4.538a17.753,17.753,0,0,1-.357-3.567,20.311,20.311,0,0,1,.315-3.567h4.579Zm0-8.769H104.4c.838-2.854,2.364-4.87,4.19-5.334Zm9.814-.008h-2.281a13.269,13.269,0,0,0-1.792-4.082A10.638,10.638,0,0,1,118.4,103.749Zm-8.172-5.334c1.825.473,3.343,2.489,4.19,5.334h-4.19Zm0,6.985h4.579a19.482,19.482,0,0,1,.315,3.567,17.754,17.754,0,0,1-.357,3.567h-4.538Zm0,14.1v-5.326h4.115C113.477,116.932,111.951,118.989,110.233,119.5Zm3.932-1.153a13.742,13.742,0,0,0,1.916-4.173H118.4A10.525,10.525,0,0,1,114.166,118.342Zm4.986-5.816h-2.7a19.749,19.749,0,0,0,.315-3.567,21.274,21.274,0,0,0-.29-3.567h2.671A10.538,10.538,0,0,1,119.152,112.527Z" transform="translate(-88.779 -88.643)" fill="#fff"/>
</svg>
