<svg xmlns="http://www.w3.org/2000/svg" width="" height="" viewBox="0 0 190.54 224.151" preserveAspectRatio="none">
  <g id="service-s2" transform="translate(-10906.248 38.358)">
    <path id="Path_3015" data-name="Path 3015" d="M10912.975-246.022c.237,1.694-3.049,24.237.152,54.72-.045,16.318-.115,35.173-.184,53.97,3.284,50.7-.357,101.557.031,104.374.787,5.713-6.711,6.045,35.662,3.591,18.94-1.1,50.323.062,79.631.8,36.064,3.909,68.036,1.13,68.842-4.386,1.455-9.975,2.184-1.995,1.818-37.505-.1-9.521.014-25.525.233-44.126-1.217-13.36.27-20.859.437-31.791-.6-44.943,1.514-85.277,1.514-85.277s2.184-19.152-11.281-17.955c-6.085.541-38.179,1.2-72.594.487-40.946,1.151-83.885-.487-83.885-.487S10912.246-251.209,10912.975-246.022Z" transform="translate(-5 212)" fill="rgba(255,255,255,0.1)" stroke="#fff" stroke-width="1"/>
    <g id="Group_955" data-name="Group 955" transform="translate(10963.571 146.07)">
      <path id="Path_3024" data-name="Path 3024" d="M11029.015-17.638c3.912-2.442,65.047-5.232,70.912,0s2.447,20.232,2.447,20.232h-73.359S11025.1-15.2,11029.015-17.638Z" transform="translate(-11027.276 20.606)" fill="none" stroke="#fff" stroke-width="1"/>
      <path id="Path_3025" data-name="Path 3025" d="M10929.307-16.823c.4-.532,29.191-.851,30.4.426s0,1.277,0,1.277h-30.4S10928.9-16.291,10929.307-16.823Z" transform="translate(-10906.416 28.627)" fill="#fff"/>
    </g>
    <g id="Group_960" data-name="Group 960" transform="translate(10930.157 7.573)">
      <g id="Group_954" data-name="Group 954" transform="translate(0 1.559)">
        <g id="Group_946" data-name="Group 946">
          <path id="Path_3018" data-name="Path 3018" d="M10929.611-16.576c1.092-.815,78.968-1.3,82.243.652s0,1.955,0,1.955h-82.243S10928.521-15.761,10929.611-16.576Z" transform="translate(-10929.127 17.29)" fill="#fff"/>
          <path id="Path_3019" data-name="Path 3019" d="M11012.826-15.267c-1.091.632-78.968,1.011-82.243-.506s0-1.517,0-1.517h82.243S11013.916-15.9,11012.826-15.267Z" transform="translate(-10929.127 29.523)" fill="#fff"/>
        </g>
        <g id="Group_945" data-name="Group 945" transform="translate(0 35.768)">
          <path id="Path_3021" data-name="Path 3021" d="M10929.611-16.726c1.092-.643,78.968-1.029,82.243.514s0,1.543,0,1.543h-82.243S10928.521-16.083,10929.611-16.726Z" transform="translate(-10929.127 17.29)" fill="#fff"/>
          <path id="Path_3020" data-name="Path 3020" d="M11012.826-16.672c-1.091-.7-78.968-1.127-82.243.564s0,1.691,0,1.691h82.243S11013.916-15.968,11012.826-16.672Z" transform="translate(-10929.127 29.227)" fill="#fff"/>
        </g>
        <g id="Group_947" data-name="Group 947" transform="translate(0 70.607)">
          <path id="Path_3021-2" data-name="Path 3021" d="M10929.611-16.707c1.092-.665,78.968-1.064,82.243.532s0,1.6,0,1.6h-82.243S10928.521-16.042,10929.611-16.707Z" transform="translate(-10929.127 17.29)" fill="#fff"/>
          <path id="Path_3020-2" data-name="Path 3020" d="M11012.825-14.933c-1.091.736-78.968,1.178-82.243-.589s0-1.767,0-1.767h82.243S11013.916-15.67,11012.825-14.933Z" transform="translate(-10929.127 29.098)" fill="#fff"/>
        </g>
        <g id="Group_948" data-name="Group 948" transform="translate(0 105.445)">
          <path id="Path_3021-3" data-name="Path 3021" d="M10929.611-16.582c1.092-.807,78.968-1.292,82.243.646s0,1.938,0,1.938h-82.243S10928.521-15.775,10929.611-16.582Z" transform="translate(-10929.127 17.29)" fill="#fff"/>
          <path id="Path_3020-3" data-name="Path 3020" d="M11012.825-15.134c-1.091.674-78.968,1.078-82.243-.539s0-1.617,0-1.617h82.243S11013.916-15.808,11012.825-15.134Z" transform="translate(-10929.127 29.354)" fill="#fff"/>
        </g>
      </g>
      <g id="Group_956" data-name="Group 956" transform="translate(102.011)">
        <path id="Path_3016" data-name="Path 3016" d="M11028.271-18.224c2.239-1.959,37.23-4.2,40.589,0s1.4,16.236,1.4,16.236h-41.988S11026.031-16.265,11028.271-18.224Z" transform="translate(-11027.275 20.606)" fill="none" stroke="#fff" stroke-width="1"/>
        <g id="Group_950" data-name="Group 950" transform="translate(14.524 5.904)">
          <path id="Path_3026" data-name="Path 3026" d="M11051.049-6.622s3.617-.1,4.474-1.618-3.618-5.045-3.618-5.045" transform="translate(-11042.219 13.284)" fill="none" stroke="#fff" stroke-width="1"/>
          <path id="Path_3027" data-name="Path 3027" d="M11050.23-10.161h13.253" transform="translate(-11050.23 14.26)" fill="none" stroke="#fff" stroke-width="1"/>
        </g>
      </g>
      <g id="Group_957" data-name="Group 957" transform="translate(102.011 35.745)">
        <path id="Path_3017" data-name="Path 3017" d="M11028.271-18.224c2.239-1.959,37.23-4.2,40.589,0s1.4,16.236,1.4,16.236h-41.988S11026.031-16.265,11028.271-18.224Z" transform="translate(-11027.275 20.606)" fill="none" stroke="#fff" stroke-width="1"/>
        <g id="Group_951" data-name="Group 951" transform="translate(14.524 5.886)">
          <path id="Path_3026-2" data-name="Path 3026" d="M11051.049-6.622s3.617-.1,4.474-1.618-3.618-5.045-3.618-5.045" transform="translate(-11042.219 13.284)" fill="none" stroke="#fff" stroke-width="1"/>
          <path id="Path_3027-2" data-name="Path 3027" d="M11050.23-10.161h13.253" transform="translate(-11050.23 14.26)" fill="none" stroke="#fff" stroke-width="1"/>
        </g>
      </g>
      <g id="Group_958" data-name="Group 958" transform="translate(102.011 70.616)">
        <path id="Path_3022" data-name="Path 3022" d="M11028.271-18.224c2.239-1.959,37.23-4.2,40.589,0s1.4,16.236,1.4,16.236h-41.988S11026.031-16.265,11028.271-18.224Z" transform="translate(-11027.275 20.606)" fill="none" stroke="#fff" stroke-width="1"/>
        <g id="Group_952" data-name="Group 952" transform="translate(14.524 5.652)">
          <path id="Path_3026-3" data-name="Path 3026" d="M11051.049-6.622s3.617-.1,4.474-1.618-3.618-5.045-3.618-5.045" transform="translate(-11042.219 13.284)" fill="none" stroke="#fff" stroke-width="1"/>
          <path id="Path_3027-3" data-name="Path 3027" d="M11050.23-10.161h13.253" transform="translate(-11050.23 14.26)" fill="none" stroke="#fff" stroke-width="1"/>
        </g>
      </g>
      <g id="Group_959" data-name="Group 959" transform="translate(102.011 105.487)">
        <path id="Path_3023" data-name="Path 3023" d="M11028.271-18.224c2.239-1.959,37.23-4.2,40.589,0s1.4,16.236,1.4,16.236h-41.988S11026.031-16.265,11028.271-18.224Z" transform="translate(-11027.275 20.606)" fill="none" stroke="#fff" stroke-width="1"/>
        <g id="Group_953" data-name="Group 953" transform="translate(14.524 5.419)">
          <path id="Path_3026-4" data-name="Path 3026" d="M11051.049-6.622s3.617-.1,4.474-1.618-3.618-5.045-3.618-5.045" transform="translate(-11042.219 13.284)" fill="none" stroke="#fff" stroke-width="1"/>
          <path id="Path_3027-4" data-name="Path 3027" d="M11050.23-10.161h13.253" transform="translate(-11050.23 14.26)" fill="none" stroke="#fff" stroke-width="1"/>
        </g>
      </g>
    </g>
    <path id="Path_3028" data-name="Path 3028" d="M11027.867-17.847c1.332-2.27,22.135-4.864,24.132,0s.832,18.806.832,18.806h-24.964S11026.536-15.577,11027.867-17.847Z" transform="translate(-96.717 -4.427)" fill="none" stroke="#fff" stroke-width="1"/>
    <path id="Path_3029" data-name="Path 3029" d="M3.556-.03c2.5.23,3.556,1.592,3.556,3.556s-1.844,4-3.556,3.556S0,5.49,0,3.526,1.054-.26,3.556-.03Z" transform="translate(10940.731 -21.906)" fill="#fff"/>
    <path id="Path_3030" data-name="Path 3030" d="M.777,0h10.1a.835.835,0,0,1,.777.884V7.069a.835.835,0,0,1-.777.884,33.517,33.517,0,0,0-5.322,0,26.083,26.083,0,0,1-4.78,0S0,7.557,0,7.069V.884A.835.835,0,0,1,.777,0Z" transform="translate(10938.081 -14.872)" fill="#fff"/>
    <g id="Group_962" data-name="Group 962" transform="translate(11017.602 -17.522)">
      <path id="Path_3031" data-name="Path 3031" d="M3.556-.03c2.5.23,3.556,1.592,3.556,3.556s-1.844,4-3.556,3.556S0,5.49,0,3.526,1.054-.26,3.556-.03Z" transform="translate(0 0.05)" fill="#fff"/>
      <path id="Path_3032" data-name="Path 3032" d="M3.556-.03c2.5.23,3.556,1.592,3.556,3.556s-1.844,4-3.556,3.556S0,5.49,0,3.526,1.054-.26,3.556-.03Z" transform="translate(9.719 0.05)" fill="#fff"/>
      <path id="Path_3033" data-name="Path 3033" d="M3.556-.03c2.5.23,3.556,1.592,3.556,3.556s-1.844,4-3.556,3.556S0,5.49,0,3.526,1.054-.26,3.556-.03Z" transform="translate(19.438 0.05)" fill="#fff"/>
      <path id="Path_3034" data-name="Path 3034" d="M3.556-.03c2.5.23,3.556,1.592,3.556,3.556s-1.844,4-3.556,3.556S0,5.49,0,3.526,1.054-.26,3.556-.03Z" transform="translate(29.158 0.05)" fill="#fff"/>
    </g>
    <g id="Group_961" data-name="Group 961" transform="translate(11064.025 -18.406)">
      <path id="Path_3035" data-name="Path 3035" d="M9032.094-252.167s10-.845,10.279,0" transform="translate(-9032.094 252.543)" fill="none" stroke="#fff" stroke-width="1"/>
      <path id="Path_3036" data-name="Path 3036" d="M9032.094-252.167s10-.845,10.279,0" transform="translate(-9032.094 256.077)" fill="none" stroke="#fff" stroke-width="1"/>
      <path id="Path_3037" data-name="Path 3037" d="M9032.094-252.167s10-.845,10.279,0" transform="translate(-9032.094 259.611)" fill="none" stroke="#fff" stroke-width="1"/>
    </g>
  </g>
</svg>
