<svg xmlns="http://www.w3.org/2000/svg" width="40" height="40" viewBox="0 0 40 40">
  <g id="service4" transform="translate(-2 -2.473)">
    <path id="Path_2986" data-name="Path 2986" d="M41.333,43.864h-2V17.672A.669.669,0,0,0,38.667,17H32a.669.669,0,0,0-.667.672V43.864H30V24.388a.669.669,0,0,0-.667-.672H22.667a.669.669,0,0,0-.667.672V43.864H20.667V31.1A.669.669,0,0,0,20,30.432H13.333a.669.669,0,0,0-.667.672v12.76h-4v-.229A4.049,4.049,0,0,0,10.2,37.014l-.005-.005a4.007,4.007,0,0,0-2.861-1.2A.672.672,0,1,1,8,35.133a.669.669,0,0,0,.667.672h2a.669.669,0,0,0,.667-.672,4.052,4.052,0,0,0-2-3.492V30.432a.669.669,0,0,0-.667-.672h-2A.669.669,0,0,0,6,30.432v.9a4.034,4.034,0,0,0,1.333,7.83.672.672,0,1,1-.667.672A.669.669,0,0,0,6,39.163H4a.669.669,0,0,0-.667.672,4.052,4.052,0,0,0,2,3.492v.537H2.667A.669.669,0,0,0,2,44.536v2.015a.669.669,0,0,0,.667.672H41.333A.669.669,0,0,0,42,46.551V44.536A.669.669,0,0,0,41.333,43.864ZM32.667,18.343H38V43.864H32.667Zm-9.333,6.716h5.333v18.8H23.333ZM14,31.775h5.333V43.864H14ZM6.267,42.3a2.713,2.713,0,0,1-1.515-1.8h.7A2,2,0,1,0,7.333,37.82,2.688,2.688,0,0,1,6.8,32.5a.67.67,0,0,0,.533-.659V31.1H8v.947a.672.672,0,0,0,.4.614,2.713,2.713,0,0,1,1.515,1.8h-.7a2,2,0,1,0-1.886,2.686,2.688,2.688,0,0,1,.533,5.318.67.67,0,0,0-.533.659v.739H6.667v-.947A.672.672,0,0,0,6.267,42.3Zm34.4,3.576H3.333v-.672H40.667Z" transform="translate(0 -4.749)" fill="#fff"/>
    <path id="Path_2987" data-name="Path 2987" d="M15.286,25.04a.673.673,0,0,1-.476-.2l-2.856-2.856a.673.673,0,0,1,0-.952L26.988,6,25.56,4.574a.673.673,0,0,1,.392-1.144l7.615-.951a.673.673,0,0,1,.751.753l-.952,7.613a.673.673,0,0,1-1.144.392L30.795,9.81,15.762,24.843A.673.673,0,0,1,15.286,25.04Zm-1.9-3.529,1.9,1.9L30.32,8.381a.673.673,0,0,1,.952,0l.931.931.673-5.391-5.391.673.931.931a.673.673,0,0,1,0,.952Z" transform="translate(-3.332)" fill="#fff"/>
  </g>
</svg>
