<svg id="service3" xmlns="http://www.w3.org/2000/svg" width="40" height="40" viewBox="0 0 40 40">
  <g id="Group_908" data-name="Group 908" transform="translate(12.307)">
    <g id="Group_907" data-name="Group 907">
      <path id="Path_2977" data-name="Path 2977" d="M181.088,18.171C179.768,7.653,172.64.857,161.906,0l-1.151.015c-1.838.309-4.132.873-5.568,2.5a8.017,8.017,0,0,0-1.753,4.124c-.4,5.027,3.228,6.927,6.147,8.456,0,0,3.861,2.016,5.776,3l3.359,1.745a13.066,13.066,0,0,1,3.722,2.564,10.267,10.267,0,0,1,2.641,8.07,1.238,1.238,0,0,0,.718,1.2,1.225,1.225,0,0,0,1.375-.232,8.734,8.734,0,0,0,1.521-2.1A19.566,19.566,0,0,0,181,21.685a1.155,1.155,0,0,0,.093-.463Zm-2.463,2.8a1.393,1.393,0,0,0-.062.3,17.521,17.521,0,0,1-1.274,5.313,12.072,12.072,0,0,0-3.035-5.838,15.922,15.922,0,0,0-4.394-3.081l-3.367-1.753c-1.907-.988-3.807-1.977-5.676-2.958l-.093-.046c-3.174-1.66-5.081-2.9-4.827-6.07a5.613,5.613,0,0,1,1.143-2.687c.934-1.066,2.8-1.475,3.923-1.683h.842c9.375.749,15.669,6.734,16.82,15.854Z" transform="translate(-153.404)" fill="#fff"/>
    </g>
  </g>
  <g id="Group_910" data-name="Group 910" transform="translate(0 5.791)">
    <g id="Group_909" data-name="Group 909">
      <path id="Path_2978" data-name="Path 2978" d="M29.508,97.336c-.718-2.638-3.012-4.188-5.39-5.472-1.653-.892-3.267-1.73-4.881-2.568-1.521-.791-3.043-1.589-4.61-2.427l-.216-.117a15.932,15.932,0,0,1-3.823-2.521,10.536,10.536,0,0,1-2.626-5.26,22.465,22.465,0,0,1-.124-2.732A1.262,1.262,0,0,0,7.12,75.1a1.216,1.216,0,0,0-1.321.18,16.668,16.668,0,0,0-4.34,6.591A20.764,20.764,0,0,0,0,88.42v1.613a20.4,20.4,0,0,0,5.537,13.034A19.764,19.764,0,0,0,18.318,109.2l2.657-.016a10.078,10.078,0,0,0,5.846-3.092C27.747,105.109,30.658,101.563,29.508,97.336Zm-4.479,7.029a7.664,7.664,0,0,1-4.247,2.325l-2.324.008a17.241,17.241,0,0,1-11.1-5.323A17.935,17.935,0,0,1,2.471,89.962V88.483a18.156,18.156,0,0,1,1.3-5.7,17.258,17.258,0,0,1,1.753-3.421v.023a13.01,13.01,0,0,0,3.313,6.622,17.993,17.993,0,0,0,4.417,2.967l.216.117c1.575.838,3.1,1.644,4.641,2.434,1.606.83,3.2,1.667,4.842,2.552,1.892,1.018,3.707,2.2,4.17,3.922C27.924,100.976,25.724,103.622,25.029,104.366Z" transform="translate(0 -74.986)" fill="#fff"/>
    </g>
  </g>
</svg>
