<svg xmlns="http://www.w3.org/2000/svg" width="44" height="40" viewBox="0 0 44 40">
  <g id="service5" transform="translate(0 1.418)">
    <path id="Path_2979" data-name="Path 2979" d="M43.847,235.323a3.262,3.262,0,0,0-3.245-2.281l-.314.013a3.661,3.661,0,0,0-2.44,1.063l-4.862,4.791a3.409,3.409,0,0,0-2.854-1.538H23.274a14.12,14.12,0,0,1-3.751-.5,9.249,9.249,0,0,0-8.589,1.791,12.389,12.389,0,0,0-2.284,2.452,3.092,3.092,0,0,0-3.978.395L.241,246.1A.856.856,0,0,0,.256,247.3l3.565,3.5A.865.865,0,0,0,5.04,250.8a.856.856,0,0,0-.009-1.214l-2.958-2.906L5.915,242.7a1.366,1.366,0,0,1,1.928-.032L14.7,249.3a1.352,1.352,0,0,1,.027,1.92l-3.775,3.857-.971-.921A.86.86,0,1,0,8.789,255.4l1.588,1.507a.865.865,0,0,0,1.212-.022l4.369-4.465a3.066,3.066,0,0,0,.663-3.267l1.539-.178a18.852,18.852,0,0,1,2.159-.125H30.754c.16,0,.321-.007.481-.02l1-.083a5.791,5.791,0,0,0,3.93-2.011l7.031-8.239a3.329,3.329,0,0,0,.651-3.167Zm-1.964,2.056-7.031,8.239a4.07,4.07,0,0,1-2.759,1.413l-1,.083c-.111.009-.225.014-.337.014H20.32a20.616,20.616,0,0,0-2.358.136l-2.492.289-5.513-5.295A10.638,10.638,0,0,1,12.022,240a7.489,7.489,0,0,1,7.041-1.469,15.844,15.844,0,0,0,4.21.558h6.858a1.7,1.7,0,0,1,1.215.515,1.668,1.668,0,0,1,.438.84.843.843,0,0,0,.029.23,1.671,1.671,0,0,1-.367,1.146l-.027.033a1.681,1.681,0,0,1-1.315.628h-5.97a.858.858,0,1,0,0,1.717H30.1a3.4,3.4,0,0,0,2.659-1.271l.027-.033a3.378,3.378,0,0,0,.748-2.114l5.524-5.444a1.943,1.943,0,0,1,1.3-.565l.315-.013a1.533,1.533,0,0,1,1.528,1.074,1.626,1.626,0,0,1-.318,1.547Zm0,0" transform="translate(0 -218.557)" fill="#fff"/>
    <path id="Path_2980" data-name="Path 2980" d="M68.059,394.566a2.325,2.325,0,1,0,2.325,2.324A2.327,2.327,0,0,0,68.059,394.566Zm0,2.932a.608.608,0,1,1,.608-.608A.609.609,0,0,1,68.059,397.5Zm0,0" transform="translate(-61.234 -368.987)" fill="#fff"/>
    <path id="Path_2981" data-name="Path 2981" d="M288.178,372.457l-.044.01a.858.858,0,1,0,.392,1.671l.044-.01a.858.858,0,1,0-.393-1.671Zm0,0" transform="translate(-267.705 -348.355)" fill="#fff"/>
    <path id="Path_2982" data-name="Path 2982" d="M88.454,505.128l-.044.01a.858.858,0,0,0,.393,1.671l.044-.01a.858.858,0,0,0-.393-1.671Zm0,0" transform="translate(-81.739 -471.992)" fill="#fff"/>
    <path id="Path_2983" data-name="Path 2983" d="M243.3,16.751a9.085,9.085,0,0,0,0-18.169A8.992,8.992,0,0,0,237.7.517a9.085,9.085,0,0,0,5.6,16.234Zm-6.4-12.745a7.414,7.414,0,0,1,1.851-2.139A7.294,7.294,0,0,1,243.3.3a7.364,7.364,0,1,1-6.4,3.707Zm0,0" transform="translate(-218.071)" fill="#fff"/>
    <path id="Path_2984" data-name="Path 2984" d="M324.9,57.159a2.3,2.3,0,0,1-1.1.279c-.579,0-1.086-.682-1.086-1.459a.858.858,0,1,0-1.717,0,3.131,3.131,0,0,0,2.125,3.082.857.857,0,0,0,1.713-.037,2.863,2.863,0,0,0,2.31-2.858,3.22,3.22,0,0,0-2.989-2.989c-.013,0-1.273-.112-1.273-.918a1.27,1.27,0,0,1,1.273-1.272,1.162,1.162,0,0,1,.757.37c.11.11.122.122.122.584a.858.858,0,0,0,1.717,0,2.215,2.215,0,0,0-.625-1.8,3.019,3.019,0,0,0-1.294-.775.858.858,0,0,0-1.714.05v.056a2.846,2.846,0,0,0-1.953,2.785c0,1.967,2.044,2.632,2.983,2.634.258.021,1.279.473,1.279,1.273a1.038,1.038,0,0,1-.527.994Zm0,0" transform="translate(-298.917 -46.554)" fill="#fff"/>
  </g>
</svg>
