<svg xmlns="http://www.w3.org/2000/svg" width="1918" height="203.244" viewBox="0 0 1918 203.244"><path d="M2607,467.032V374.287c27.337-10.008,54.734-19.453,81.431-28.075,26.145-8.444,52.368-16.339,77.941-23.468,25.025-6.974,50.128-13.409,74.61-19.125,23.922-5.585,47.956-10.649,71.436-15.051,22.9-4.292,45.918-8.074,68.415-11.242,21.922-3.085,43.977-5.676,65.553-7.7,20.982-1.968,42.127-3.456,62.848-4.424,20.107-.939,40.394-1.415,60.3-1.415,26.419,0,53.121.839,79.362,2.494,24.93,1.572,50.241,3.932,75.23,7.014,23.549,2.9,47.61,6.548,71.516,10.831,22.263,3.989,45.214,8.681,68.218,13.946,88.949,20.359,169.93,47.055,248.244,72.873,102.177,33.683,198.684,65.5,299.712,78.728,15.878,2.079,32.367,3.647,49.009,4.661,15.906.97,32.374,1.462,48.945,1.462,25.734,0,52.6-1.183,79.842-3.515,24.756-2.118,50.4-5.235,76.2-9.263a1303.922,1303.922,0,0,0,132.85-28.113c17.572-4.666,35.178-9.718,52.328-15.015,13.715-4.235,27.19-8.642,40.052-13.1,18.876-6.54,30.763-11.225,33.957-12.506v92.733Z" transform="translate(-2607 -263.788)" fill="#fff"/></svg>