<svg xmlns="http://www.w3.org/2000/svg" xmlns:xlink="http://www.w3.org/1999/xlink" width="100%" height="100%" viewBox="0 0 1919.999 1000" preserveAspectRatio="none">
  <defs>
    <linearGradient id="linear-gradient" y1="0.545" x2="1" y2="0.546" gradientUnits="objectBoundingBox">
      <stop offset="0" stop-color="#fff"/>
      <stop offset="1" stop-color="#dbf0ff"/>
    </linearGradient>
  </defs>
  <path id="analytic-shape" d="M11906,2454H9986V1454h1186.023c-10.38,11.558-20.366,23.723-29.682,36.161-9.34,12.469-18.227,25.507-26.412,38.753-8.229,13.317-15.943,27.156-22.929,41.133-7.039,14.083-13.511,28.651-19.235,43.3-5.776,14.782-10.935,30.009-15.329,45.257-4.443,15.415-8.215,31.229-11.212,47-3.033,15.968-5.35,32.3-6.883,48.535-1.554,16.464-2.341,33.238-2.341,49.857,0,288.935,235.064,524,524,524a521.9,521.9,0,0,0,186.852-34.3c14.388-5.493,28.709-11.705,42.568-18.465,13.758-6.71,27.388-14.12,40.513-22.024,13.057-7.863,25.929-16.4,38.26-25.385,12.289-8.951,24.336-18.556,35.808-28.548V2454Z" transform="translate(-9986 -1454.001)" fill="url(#linear-gradient)"/>
</svg>
