<svg xmlns="http://www.w3.org/2000/svg" width="" height="" viewBox="0 0 1920 904" preserveAspectRatio="none">
  <path id="Subtraction_2" data-name="Subtraction 2" d="M1070,3380H-850V2476H598.512a226.063,226.063,0,0,0-29.7,2.182,220.332,220.332,0,0,0-45.932,11.276c-18.6,6.848-34.915,16.123-48.493,27.565a133.877,133.877,0,0,0-20.935,22.139A135.738,135.738,0,0,0,437,2568.071c-10.256,24.515-18.829,44.162-27.328,60.359A222.264,222.264,0,0,1,396.941,2650a126.7,126.7,0,0,1-13.565,16.944c-9.518,9.891-20.317,17.3-33.984,23.328a180.5,180.5,0,0,1-22.6,8.049c-8.007,2.324-17.1,4.531-27.791,6.748a169.454,169.454,0,0,0-28.412,8.481,150.938,150.938,0,0,0-23.947,12.113,145,145,0,0,0-35.765,31.656,155.387,155.387,0,0,0-21.7,35.781A150.16,150.16,0,0,0,179,2826.071c-2.186,12.18-2.418,28.784-2.687,48.01v.008C175.731,2915.9,175.005,2967.93,153,3003q-4.471,8.514-8.653,16.428l-.18.342-.008.015c-10.048,19.047-18.726,35.5-26.072,50.54-8.015,16.412-13.666,29.613-17.785,41.545a193.165,193.165,0,0,0-5.572,19.095,155.083,155.083,0,0,0-3.247,18.883A161.661,161.661,0,0,0,92.3,3189.7a204.72,204.72,0,0,0,10.13,38.344,178.645,178.645,0,0,0,15.9,32.251,169.848,169.848,0,0,0,44.472,47.43,181.256,181.256,0,0,0,26.263,15.784,189.855,189.855,0,0,0,54.8,17.219,174.184,174.184,0,0,0,26.224,2.039,138.289,138.289,0,0,0,27.917-2.7c13.543-2.319,27.079-6.888,42.752-12.179,17.506-5.91,37.345-12.607,62.27-17.849,28.827-6.062,59.073-9.01,92.465-9.01,20.49,0,42.5,1.144,65.41,3.4,25.018,2.463,51.96,6.333,80.079,11.5,30.3,5.57,62.92,12.824,96.963,21.561,36.332,9.325,75.381,20.621,116.061,33.573a263.2,263.2,0,0,0,32.11,6.262,241.472,241.472,0,0,0,30.971,2.023c53.815,0,105.263-18.491,152.913-54.958l0-.848,0-.909V3380ZM603,2476.071c-.013,0-1.419-.066-3.895-.071H1070Z" transform="translate(849.999 -2476)" fill="#fff"/>
</svg>
