<svg xmlns="http://www.w3.org/2000/svg" xmlns:xlink="http://www.w3.org/1999/xlink" width="" height="" viewBox="0 0 906.053 704.876" preserveAspectRatio="none">
  <defs>
    <clipPath id="clip-path">
      <circle id="Ellipse_16" data-name="Ellipse 16" cx="344" cy="344" r="344" transform="translate(0.083 0.083)" fill="#fff" stroke="#707070" stroke-width="1"/>
    </clipPath>
  </defs>
  <g id="illustration" transform="translate(-923.127 -202.652)">
    <g id="shape_" data-name="shape " transform="translate(921.552 214)">
      <g id="Group_781" data-name="Group 781" transform="translate(757.638 603.914)">
        <g id="Ellipse_10" data-name="Ellipse 10" transform="translate(7.205)" fill="none" stroke="#fff" stroke-width="0.4">
          <circle cx="39.66" cy="39.66" r="39.66" stroke="none"/>
          <circle cx="39.66" cy="39.66" r="39.46" fill="none"/>
        </g>
        <circle id="Ellipse_7" data-name="Ellipse 7" cx="40.175" cy="40.175" r="40.175" transform="translate(0 9.264)" fill="#f8e598"/>
        <path id="Path_761" data-name="Path 761" d="M.842,26.91s-5.954-18.076,13.8-15.37,29.9-1.173,27.335-8.119-8.539-1.164-8.539-1.164S21.222,12.331,40.357,21.283s24.629-8.931,27.065,14.886" transform="translate(1.95 29.711) rotate(-17)" fill="none" stroke="#fff" stroke-width="1"/>
        <path id="Path_762" data-name="Path 762" d="M7580.624,13099.729s11.64,0,9.7-7.154-10.186-1.938-4.972,8.976,24.01-1.334,24.01-7.277,3.516-11.882,9.458-8.971" transform="translate(-7560.32 -13038.38)" fill="none" stroke="#fff" stroke-width="1"/>
        <path id="Path_763" data-name="Path 763" d="M0,31.043s11.264-.485,6.049-10.428S-1.1,3.638,8.111,0" transform="translate(34.643 51.925) rotate(-19)" fill="none" stroke="#fff" stroke-width="1"/>
      </g>
      <g id="Group_782" data-name="Group 782" transform="matrix(-0.993, -0.122, 0.122, -0.993, 81.072, 553.736)">
        <rect id="Rectangle_34" data-name="Rectangle 34" width="46.982" height="45.174" transform="translate(25.556 0) rotate(13)" fill="#fff"/>
        <path id="Path_765" data-name="Path 765" d="M.071,45.263,10.1,57.376l.568-46.828L0,0Z" transform="translate(71.283 10.526) rotate(13)" fill="#8bd7ee"/>
        <path id="Path_766" data-name="Path 766" d="M0,55.971l12.318-8.824L15.6,0,2.673,9.692Z" transform="matrix(-0.174, 0.985, -0.985, -0.174, 57.829, 58.932)" fill="#f69393"/>
      </g>
      <path id="Path_770" data-name="Path 770" d="M8141.616,13232.61s55.735-248.56,135.729-273.651,30.929,63.674,30.929,63.674-74.751,103.754-22.989-107.455,313.5-37.41,313.5-37.41,77.833,30.354,90.524-35.734-39.934-12.131-28.646,8.1,33.354,51.342,187.572,29.965-31.863,266.013-31.863,266.013" transform="translate(-8076.293 -12756.593)" fill="none" stroke="#fff" stroke-width="1" stroke-dasharray="3"/>
      <path id="Path_772" data-name="Path 772" d="M18.177,0,34.9,39.8,17.449,32.173,0,39.8Z" transform="translate(751.231 335.991) rotate(30)" fill="#f8e598"/>
      <path id="Path_773" data-name="Path 773" d="M18.177,39.8,34.9,0,17.449,7.622,0,0Z" transform="matrix(0.961, 0.276, -0.276, 0.961, 67.023, 402.269)" fill="#f8e598"/>
      <g id="Group_784" data-name="Group 784" transform="matrix(0.695, 0.719, -0.719, 0.695, 859.54, 26)">
        <g id="Polygon_2" data-name="Polygon 2" transform="translate(7.768 4.14)" fill="none">
          <path d="M32.872,0,65.745,56.714H0Z" stroke="none"/>
          <path d="M 32.87234115600586 0.7976570129394531 L 0.694183349609375 56.31381988525391 L 65.05049896240234 56.31381988525391 L 32.87234115600586 0.7976570129394531 M 32.87234115600586 0 L 65.74468231201172 56.71382141113281 L 0 56.71382141113281 L 32.87234115600586 0 Z" stroke="none" fill="#fff"/>
        </g>
        <path id="Polygon_1" data-name="Polygon 1" d="M32.872,0,65.745,56.714H0Z" transform="translate(0 0)" fill="#8fe9ef"/>
        <path id="Path_774" data-name="Path 774" d="M0,7.6c.292,0,14.691,2.043,12.259-5.156S.584,5.557,7.492,12.659,27.047,2.249,33.468,7.6" transform="translate(18.648 39.802)" fill="none" stroke="#fff" stroke-width="1"/>
        <circle id="Ellipse_11" data-name="Ellipse 11" cx="3.612" cy="3.612" r="3.612" transform="translate(35.401 32.511)" fill="#fff"/>
        <path id="Path_775" data-name="Path 775" d="M1.946,4.622s7,.973,4.573-3.405S.195,5.4,5.351,9.194,4.573,22.037,0,18.048" transform="translate(34.138 13.259) rotate(41)" fill="none" stroke="#fff" stroke-width="1"/>
      </g>
    </g>
    <g id="man" transform="translate(-87.777 89.652)">
      <path id="Path_2825" data-name="Path 2825" d="M336.385,86.8c222-171.395,351.706,60.363,351.706,250.374S534.056,681.219,344.045,681.219,0,527.185,0,337.174,114.388,258.2,336.385,86.8Z" transform="translate(1116.955 119.826)" fill="rgba(255,255,255,0.08)"/>
      <g id="Mask_Group_1" data-name="Mask Group 1" transform="translate(1116.917 112.917)" clip-path="url(#clip-path)">
        <g id="human" transform="translate(56.63 167.779)">
          <g id="women_2" data-name="women 2" transform="translate(348.09 55.589)">
            <g id="Group_32" data-name="Group 32" transform="translate(5.446 270.01)">
              <path id="Path_11" data-name="Path 11" d="M541.992,324.3,492.6,317.722l.386,4.9-42.227,5.623s-29.919,61.941-5.931,212.123l40.487,9.766,8.926-155.7h4.391s.251,120.25,5.112,160.461c26.345,6.939,40.435,11.149,40.435,11.149C568.171,415.862,541.992,324.3,541.992,324.3Z" transform="translate(-435.518 -317.722)" fill="#fc745f"/>
            </g>
            <g id="Group_41" data-name="Group 41" transform="translate(0 137.411)">
              <g id="Group_38" data-name="Group 38" transform="translate(109.618 41.191)">
                <g id="Group_34" data-name="Group 34" transform="translate(0 19.286)">
                  <g id="Group_33" data-name="Group 33">
                    <path id="Path_12" data-name="Path 12" d="M544.405,271.079c-4.225-6.745-27.96-6.505-29.213-6.653-6.416-.752,4.115,50.306,17.462,94.937a14.985,14.985,0,0,0,20.2,9.528l.267-.112a15.006,15.006,0,0,0,8.9-16.6C555.667,318.5,549.292,278.877,544.405,271.079Z" transform="translate(-513.261 -264.418)" fill="#fbe9cf" stroke="#282828" stroke-width="0.4"/>
                  </g>
                  <path id="Path_14" data-name="Path 14" d="M548.238,308.149s-14.33,18.71-13.646,17.824,11.068-30.88,11.068-30.88Z" transform="translate(-505.738 -253.692)" fill="#fbe9cf"/>
                </g>
                <g id="Group_37" data-name="Group 37" transform="translate(18.748)">
                  <path id="Path_15" data-name="Path 15" d="M571.419,285.092l-41.148,53.315a15.131,15.131,0,0,0,3.74,21.935h0a15.131,15.131,0,0,0,21.54-5.481L589.8,291.669Z" transform="translate(-527.117 -237.834)" fill="#fbe9cf" stroke="#282828" stroke-width="0.4"/>
                  <g id="Group_35" data-name="Group 35" transform="translate(43.192 24.764)">
                    <path id="Path_16" data-name="Path 16" d="M570.8,303.855a16.974,16.974,0,1,1,21.37-10.934A16.974,16.974,0,0,1,570.8,303.855Z" transform="translate(-559.039 -267.67)" fill="#fbe9cf" stroke="#282828" stroke-width="0.4"/>
                    <path id="Path_17" data-name="Path 17" d="M588.179,278.3s4.645-4.824-3.6-8.2-18.43-2.6-24.934,13.188Z" transform="translate(-558.824 -268.467)" fill="#fbe9cf" stroke="#282828" stroke-width="0.4"/>
                  </g>
                  <g id="Group_36" data-name="Group 36" transform="translate(53.834)">
                    <path id="Path_18" data-name="Path 18" d="M593.725,250.871l17.229,7.47a1.777,1.777,0,0,1,.78,2.538l-22.666,42.336a2.167,2.167,0,0,1-2.691,1.034l-17.229-7.47a1.776,1.776,0,0,1-.779-2.538L591.033,251.9A2.167,2.167,0,0,1,593.725,250.871Z" transform="translate(-566.475 -249.969)" fill="#c5efff"/>
                    <path id="Path_19" data-name="Path 19" d="M592.509,250.317l17.23,7.47a1.777,1.777,0,0,1,.779,2.538l-22.666,42.336a2.167,2.167,0,0,1-2.691,1.034l-17.229-7.47a1.775,1.775,0,0,1-.779-2.538l22.666-42.336A2.166,2.166,0,0,1,592.509,250.317Z" transform="translate(-566.905 -250.164)" fill="#a1e4fe"/>
                    <path id="Path_20" data-name="Path 20" d="M589.211,253.461l15.139,6.564-18.472,34.5-15.139-6.563Z" transform="translate(-565.551 -249.001)" fill="#f5f5f5"/>
                    <path id="Path_21" data-name="Path 21" d="M604.35,260.025l-33.611,27.941,18.472-34.5Z" transform="translate(-565.551 -249.001)" fill="#fff"/>
                  </g>
                  <path id="Path_22" data-name="Path 22" d="M578.028,268.631a27.492,27.492,0,0,1,7.3,2.709,3.9,3.9,0,0,1,1.883,4.327h0a3.871,3.871,0,0,1-3.272,2.9l-8.957,1.13s-4.674,8.055-10.78,8.96l5.6-14.143Z" transform="translate(-514.025 -243.645)" fill="#fbe9cf" stroke="#282828" stroke-width="0.4"/>
                  <path id="Path_759" data-name="Path 759" d="M56.637,21.311s-3.661,2.107-14.6,9.771S43.279,44.33,43.279,44.33l3.547-3.481V36.711L59.054,22.1Z" transform="translate(6.638 3.775)" fill="#fbe9cf"/>
                </g>
              </g>
              <g id="Group_40" data-name="Group 40">
                <g id="Group_39" data-name="Group 39">
                  <path id="Path_23" data-name="Path 23" d="M510.224,219.721c-.989-.005,63.519,8.926,74.164,82.473l-33.474,5.129-6.749,55.523H450.783L432.244,260.259s20.689-29.65,59.1-40.538Z" transform="translate(-432.244 -219.721)" fill="#6cf988" stroke="#282828" stroke-width="0.4"/>
                  <line id="Line_5" data-name="Line 5" y1="32.112" x2="2.906" transform="translate(118.67 55.489)" fill="none" stroke="#fff" stroke-linecap="round" stroke-linejoin="round" stroke-width="1.233"/>
                  <path id="Path_2821" data-name="Path 2821" d="M0,0,103,.254l-.155.874L0,7.218Z" transform="translate(8.846 142.226)" fill="#6cf988"/>
                </g>
              </g>
            </g>
            <g id="Group_51" data-name="Group 51" transform="translate(29.076 0)">
              <path id="Path_24" data-name="Path 24" d="M504.318,227.164V201.617H474.381v25.847a58.158,58.158,0,0,0-8.042,3.262l23.349,13.908,23.87-13.909A38.945,38.945,0,0,0,504.318,227.164Z" transform="translate(-449.283 -88.701)" fill="#fbe9cf" stroke="#282828" stroke-width="0.4"/>
              <path id="Path_25" data-name="Path 25" d="M472.077,205.979s5.377,14.276,19.729,13.043C505,217.889,502.9,198.1,502.9,198.1Z" transform="translate(-447.257 -89.941)" fill="#ffe8c7"/>
              <g id="Group_44" data-name="Group 44" transform="translate(0 79.12)">
                <path id="Path_26" data-name="Path 26" d="M465.5,194.569c-4.692,4.257-15.185-11.888-10.651-16.42s7.992,2.579,7.992,2.579l2.026,4.818,1.526,6.527.364,1.71Z" transform="translate(-453.733 -176.639)" fill="#ffe8c7" stroke="#707070" stroke-width="0.4"/>
                <g id="Group_43" data-name="Group 43" transform="translate(3.304 6.995)">
                  <g id="Group_42" data-name="Group 42">
                    <path id="Path_27" data-name="Path 27" d="M456.175,182.043s3.552-1.6,6.707,3.552" transform="translate(-456.175 -181.809)" fill="none" stroke="#fff" stroke-linecap="round" stroke-linejoin="round" stroke-width="0.993"/>
                  </g>
                </g>
              </g>
              <g id="Group_47" data-name="Group 47" transform="translate(66.071 79.325)">
                <path id="Path_28" data-name="Path 28" d="M503.75,194.026c4.315,4.638,16.135-10.56,12-15.46s-8.183,1.893-8.183,1.893l-2.423,4.63-2.074,6.374-.506,1.672Z" transform="translate(-502.565 -176.791)" fill="#ffe8c7" stroke="#707070" stroke-width="0.4"/>
                <g id="Group_46" data-name="Group 46" transform="translate(3.535 6.926)">
                  <g id="Group_45" data-name="Group 45">
                    <path id="Path_29" data-name="Path 29" d="M512.162,182.272s-3.4-1.893-6.984,2.971" transform="translate(-505.178 -181.909)" fill="none" stroke="#fff" stroke-linecap="round" stroke-linejoin="round" stroke-width="0.993"/>
                  </g>
                </g>
              </g>
              <g id="Group_48" data-name="Group 48" transform="translate(3.532 29.322)">
                <path id="Path_30" data-name="Path 30" d="M456.344,175.743c0,21.37,16.293,31.5,36.392,31.5s36.391-10.133,36.391-31.5-16.293-35.909-36.391-35.909S456.344,154.372,456.344,175.743Z" transform="translate(-456.344 -139.834)" fill="#282828"/>
              </g>
              <path id="Path_31" data-name="Path 31" d="M460.006,175.948a146.1,146.1,0,0,0,3.7,32.475c1.812,7.867,6.909,13.364,14.112,17.788l1.312.806a24.767,24.767,0,0,0,25.21.279h0c7.8-4.55,13.271-10.55,14.951-18.991a213.573,213.573,0,0,0,3.393-32.358s2.91-33.117-30.894-32.474S460.006,175.948,460.006,175.948Z" transform="translate(-451.527 -109.231)" fill="#fbe9cf" stroke="#282828" stroke-width="0.4"/>
              <g id="Group_50" data-name="Group 50" transform="translate(7.78 64.246)">
                <path id="Path_32" data-name="Path 32" d="M481.648,181.441v4.583a2.086,2.086,0,0,0,.147.77,2.043,2.043,0,0,0,2.434,1.126l2.1-.557" transform="translate(-451.659 -160.07)" fill="none" stroke="#282828" stroke-linecap="round" stroke-linejoin="round" stroke-width="1.232"/>
                <path id="Path_33" data-name="Path 33" d="M482.058,168.9l-16.8,3.939s.763-4.276,7.637-5.83S482.058,168.9,482.058,168.9Z" transform="translate(-457.445 -165.305)" fill="#282828"/>
                <path id="Path_34" data-name="Path 34" d="M488.7,168.9l16.223,3.939s-.737-4.276-7.374-5.83S488.7,168.9,488.7,168.9Z" transform="translate(-449.171 -165.305)" fill="#282828"/>
                <ellipse id="Ellipse_1" data-name="Ellipse 1" cx="2.833" cy="2.826" rx="2.833" ry="2.826" transform="translate(15.398 13.116)" fill="#282828"/>
                <path id="Path_35" data-name="Path 35" d="M496.383,178.166a2.833,2.833,0,1,1-2.833-2.826A2.829,2.829,0,0,1,496.383,178.166Z" transform="translate(-448.458 -162.224)" fill="#282828"/>
                <path id="Path_36" data-name="Path 36" d="M475.052,190.172H496.9S487.217,201.952,475.052,190.172Z" transform="translate(-453.988 -156.987)" fill="#282828"/>
                <g id="Group_49" data-name="Group 49" transform="translate(0 0)">
                  <circle id="Ellipse_2" data-name="Ellipse 2" cx="12.048" cy="12.048" r="12.048" transform="translate(0 17.039) rotate(-45)" fill="none" stroke="#b676f5" stroke-miterlimit="10" stroke-width="1.342"/>
                  <circle id="Ellipse_3" data-name="Ellipse 3" cx="12.048" cy="12.048" r="12.048" transform="translate(29.599 17.039) rotate(-45)" fill="none" stroke="#b676f5" stroke-miterlimit="10" stroke-width="1.342"/>
                  <path id="Path_37" data-name="Path 37" d="M480.982,178.548s2.853-2.663,5.5,0" transform="translate(-451.894 -161.509)" fill="none" stroke="#b676f5" stroke-miterlimit="10" stroke-width="1.342"/>
                  <line id="Line_6" data-name="Line 6" x1="3.795" y1="0.096" transform="translate(1.196 16.943)" fill="none" stroke="#b676f5" stroke-miterlimit="10" stroke-width="1.342"/>
                  <line id="Line_7" data-name="Line 7" y1="0.096" x2="3.818" transform="translate(58.686 16.943)" fill="none" stroke="#b676f5" stroke-miterlimit="10" stroke-width="1.342"/>
                </g>
              </g>
              <path id="Path_38" data-name="Path 38" d="M508.842,185.184s-13.515-18.271-10.4-36.782a26.63,26.63,0,0,1,12.644,18.078C513.7,179.511,508.842,185.184,508.842,185.184Z" transform="translate(-438.114 -107.488)" fill="#282828"/>
              <path id="Path_39" data-name="Path 39" d="M460.474,186.747s15.7-20.753,12.583-39.264c0,0-10.889,6.292-13.5,19.321S460.474,186.747,460.474,186.747Z" transform="translate(-452.018 -107.812)" fill="#282828"/>
              <path id="Path_40" data-name="Path 40" d="M522.087,157.786s-17.355,19-64.837,15.747c0,0,7.271-27.879,30.282-30.849C487.531,142.683,514.1,139.51,522.087,157.786Z" transform="translate(-452.492 -109.581)" fill="#282828"/>
              <circle id="Ellipse_4" data-name="Ellipse 4" cx="22.671" cy="22.671" r="22.671" transform="translate(42.382 44.763) rotate(-80.831)" fill="#282828"/>
            </g>
          </g>
          <g id="women_1" data-name="women 1" transform="translate(18.063 83.696)">
            <path id="Path_41" data-name="Path 41" d="M329.007,325.431l-44.444-5.763.386-4.9-49.266,10.1S208,377.614,231.983,527.8c0,0,16.9-4.648,40.439-8.493,2.136-33.473,6.5-127.828,6.5-127.828h4.391s5.992,92.678,8.378,125.331c23.407-2.23,39.508-2.423,39.508-2.423C355.181,364.2,329.007,325.431,329.007,325.431Z" transform="translate(-189.847 -74.076)" fill="#f168be"/>
            <g id="Group_61" data-name="Group 61" transform="translate(24.555)">
              <path id="Path_42" data-name="Path 42" d="M325.68,181.976c-5.715-6.725-10.291-14.568-14.18-25.574-4.174-11.816-17.845-7.013-17.845-7.013s-11.391-14.655-28.533-9.551-23.1,17.3-23.447,31.8-11.757,16.771-20.54,33.547c-15.506,29.618,10.6,54.565,58.125,47.644l.065-.461A49.868,49.868,0,0,0,296.741,254C353.834,250.61,348.324,208.616,325.68,181.976Z" transform="translate(-216.662 -136.211)" fill="#282828"/>
              <g id="Group_55" data-name="Group 55" transform="translate(89.071 49.798)">
                <path id="Path_43" data-name="Path 43" d="M283.749,191.612c4.692,4.255,15.185-11.888,10.651-16.42s-7.994,2.579-7.994,2.579l-2.024,4.818-1.526,6.527-.364,1.709Z" transform="translate(-282.492 -173.681)" fill="#fbddc6" stroke="#282828" stroke-width="0.4"/>
                <g id="Group_54" data-name="Group 54" transform="translate(3.009 6.996)">
                  <g id="Group_53" data-name="Group 53">
                    <path id="Path_44" data-name="Path 44" d="M291.423,179.085s-3.552-1.6-6.707,3.55" transform="translate(-284.716 -178.851)" fill="none" stroke="#fff" stroke-linecap="round" stroke-linejoin="round" stroke-width="0.993"/>
                  </g>
                </g>
              </g>
              <g id="Group_58" data-name="Group 58" transform="translate(21.97 50.002)">
                <path id="Path_45" data-name="Path 45" d="M245.764,191.068c-4.315,4.637-16.135-10.56-12-15.461s8.183,1.894,8.183,1.894l2.423,4.63,2.074,6.374.506,1.672Z" transform="translate(-232.899 -173.832)" fill="#fbddc6" stroke="#282828" stroke-width="0.4"/>
                <g id="Group_57" data-name="Group 57" transform="translate(3.53 6.927)">
                  <g id="Group_56" data-name="Group 56">
                    <path id="Path_46" data-name="Path 46" d="M235.508,179.314s3.4-1.893,6.984,2.971" transform="translate(-235.508 -178.951)" fill="none" stroke="#fff" stroke-linecap="round" stroke-linejoin="round" stroke-width="0.993"/>
                  </g>
                </g>
              </g>
              <g id="Group_59" data-name="Group 59" transform="translate(25.774)">
                <path id="Path_47" data-name="Path 47" d="M308.493,172.784c0,21.37-16.292,31.5-36.391,31.5s-36.391-10.134-36.391-31.5S252,136.876,272.1,136.876,308.493,151.414,308.493,172.784Z" transform="translate(-235.711 -136.876)" fill="#282828"/>
              </g>
              <rect id="Rectangle_13" data-name="Rectangle 13" width="29.937" height="38.766" transform="translate(47.056 83.594)" fill="#fbe7d7" stroke="#282828" stroke-width="0.4"/>
              <path id="Path_48" data-name="Path 48" d="M248.211,196.872s7.431,14.827,17.683,17.424a14.428,14.428,0,0,0,8.3-.48c3.859-1.368,7.415-4.858,8.246-11.224l2.618-2.114A42.156,42.156,0,0,1,248.211,196.872Z" transform="translate(-205.524 -115.696)" fill="#fbddc6"/>
              <path id="Path_49" data-name="Path 49" d="M302.22,172.99a146.073,146.073,0,0,1-3.7,32.474c-1.812,7.867-6.909,13.364-14.112,17.79l-1.312.805a24.767,24.767,0,0,1-25.21.28h0c-7.806-4.55-13.271-10.55-14.952-18.991a213.66,213.66,0,0,1-3.392-32.358s-2.91-33.118,30.894-32.474S302.22,172.99,302.22,172.99Z" transform="translate(-208.608 -135.594)" fill="#fbe7d7" stroke="#282828" stroke-width="0.4"/>
              <g id="Group_60" data-name="Group 60" transform="translate(39.293 37.656)">
                <path id="Path_50" data-name="Path 50" d="M260.938,179.808v2.722a2.077,2.077,0,0,0,.147.769,2.045,2.045,0,0,0,2.434,1.122l2.1-.556" transform="translate(-240.323 -159.376)" fill="none" stroke="#282828" stroke-linecap="round" stroke-linejoin="round" stroke-width="1.23"/>
                <path id="Path_51" data-name="Path 51" d="M266.144,167.187l17.984,4.257s-.817-4.622-8.175-6.3S266.144,167.187,266.144,167.187Z" transform="translate(-238.485 -164.707)" fill="#282828"/>
                <path id="Path_52" data-name="Path 52" d="M263.918,167.187,245.7,171.444s.828-4.622,8.279-6.3S263.918,167.187,263.918,167.187Z" transform="translate(-245.702 -164.707)" fill="#282828"/>
                <path id="Path_53" data-name="Path 53" d="M255.821,175.525a2.833,2.833,0,1,1-2.833-2.817A2.825,2.825,0,0,1,255.821,175.525Z" transform="translate(-244.13 -161.883)" fill="#282828"/>
                <path id="Path_54" data-name="Path 54" d="M275.673,175.525a2.833,2.833,0,1,1-2.833-2.817A2.825,2.825,0,0,1,275.673,175.525Z" transform="translate(-237.122 -161.883)" fill="#282828"/>
                <path id="Path_55" data-name="Path 55" d="M252.959,186.7h24.867s-1.755,6.833-13.031,6.833A13.189,13.189,0,0,1,252.959,186.7Z" transform="translate(-243.14 -156.943)" fill="#282828"/>
              </g>
              <path id="Path_56" data-name="Path 56" d="M240.628,182.227s13.515-18.273,10.4-36.784a26.635,26.635,0,0,0-12.644,18.079C235.77,176.552,240.628,182.227,240.628,182.227Z" transform="translate(-209.266 -133.852)" fill="#282828"/>
              <path id="Path_57" data-name="Path 57" d="M289.255,181.942s-15.7-18.906-12.583-37.417c0,0,10.889,6.292,13.5,19.321S289.255,181.942,289.255,181.942Z" transform="translate(-195.621 -134.176)" fill="#282828"/>
              <path id="Path_58" data-name="Path 58" d="M240.679,154.828s15.508,20.845,62.99,17.592c0,0-5.424-29.726-28.435-32.695C275.234,139.725,248.665,136.552,240.679,154.828Z" transform="translate(-208.183 -135.945)" fill="#282828"/>
            </g>
            <g id="Group_65" data-name="Group 65" transform="translate(0 107.567)">
              <g id="Group_63" data-name="Group 63" transform="translate(0 63.018)">
                <g id="Group_62" data-name="Group 62">
                  <path id="Path_59" data-name="Path 59" d="M212.079,435.274c-.69,1.086,39.519-174.954,27.582-172.292-1.089.243-22,2.185-25.1,8.5C205.548,289.8,199.087,433.94,199.087,433.94Z" transform="translate(-198.311 -262.952)" fill="#fbe7d7" stroke="#282828" stroke-width="0.4"/>
                  <path id="Path_60" data-name="Path 60" d="M199.29,390.28s-6.481,30.07,18.02,33.358a3.443,3.443,0,0,0,3.706-2.276l.07-.2a3.439,3.439,0,0,0-1.906-4.254c-3.994-1.786-10.19-6.3-7.116-16.548,0,0,3.541-.434,5.5,6.172a2.84,2.84,0,0,0,3.993,1.755h0a2.84,2.84,0,0,0,1.537-2.9c-.587-4.627-2.916-15.765-11.846-18.754Z" transform="translate(-198.514 -219.292)" fill="#fbe7d7" stroke="#282828" stroke-width="0.4"/>
                  <path id="Path_757" data-name="Path 757" d="M2857.679,718.689l-.239,3.259,14.111-3.259-1.106-3.618Z" transform="translate(-2856.587 -549.143)" fill="#fbe7d7"/>
                </g>
                <path id="Path_61" data-name="Path 61" d="M205.181,307.3s23.168,32.628,23.29,32,8.1-45.807,8.1-45.807l-28.113-12.179Z" transform="translate(-196.16 -256.47)" fill="#fbe7d7"/>
              </g>
              <g id="Group_64" data-name="Group 64" transform="translate(5.491 0)">
                <path id="Path_62" data-name="Path 62" d="M270.474,222.715c.989-.005-57.258,1.038-67.9,74.585l33.474,5.128,6.749,55.525h93.381l18.539-102.587s-13.18-22.226-51.6-33.115Z" transform="translate(-202.572 -214.304)" fill="#b676f5" stroke="#282828" stroke-width="0.4"/>
                <path id="Path_63" data-name="Path 63" d="M231.716,233.114s8.232,10.927,41.959,10.927c33.413,0,41.958-11.5,41.958-11.5s-19.7-11.006-42.554-14.565A151.418,151.418,0,0,0,231.716,233.114Z" transform="translate(-192.283 -215.812)" fill="#fbe7d7" stroke="#282828" stroke-width="0.4"/>
                <path id="Path_758" data-name="Path 758" d="M2917.761,520.945h0v12.371h29.81l-.375-12.5-29.435-.239" transform="translate(-2851.393 -520.578)" fill="#fbe7d7"/>
              </g>
            </g>
          </g>
          <g id="men" transform="translate(0)">
            <g id="Group_68" data-name="Group 68" transform="translate(191.337 358.473)">
              <g id="Group_67" data-name="Group 67" transform="translate(0 0)">
                <path id="Union_2" data-name="Union 2" d="M89.049,193.692,82.5,91.06H76.473c-3.009,37.121-7.005,85.176-8.691,100.006C22.444,185.738,0,185.4,0,185.4L.032,41.908,42.926,43.2V41.908H79.363L157.16,0s1.705,167.151-1.277,206.085C116.817,198.084,89.049,193.692,89.049,193.692Z" transform="translate(0 0)" fill="#794fef" stroke="rgba(0,0,0,0)" stroke-width="1"/>
              </g>
            </g>
            <g id="Group_79" data-name="Group 79" transform="translate(0 137.875)">
              <g id="Group_70" data-name="Group 70" transform="translate(308.378 20.07)">
                <g id="Group_69" data-name="Group 69" transform="translate(37.683 114.432)">
                  <path id="Union_1" data-name="Union 1" d="M19.538,172.985h.012s0,0-.005,0S19.54,172.988,19.538,172.985Zm.012,0c.2-.416-4.4-28.99-6.159-39.839l-.084.008-.162-1.523c-.266-1.639-.422-2.6-.422-2.6L6.652,70.744l.02,0L0,8,48.7,0c3.974,43.9,1.3,43.614-3.278,103.265l-1.289,17.8q-.3,4.44-.615,9.248l-.056.005-3.091,42.671Z" transform="translate(0 0)" fill="#ffeae5" stroke="#282828" stroke-width="0.4"/>
                  <path id="Path_777" data-name="Path 777" d="M229.608,390.229s8.651,39.641-23.483,43.857a4.524,4.524,0,0,1-4.861-2.918l-.092-.262a4.379,4.379,0,0,1,2.5-5.455c5.239-2.29,13.364-8.078,9.333-21.219,0,0-4.644-.557-7.208,7.915a3.749,3.749,0,0,1-5.237,2.25h0a3.623,3.623,0,0,1-2.016-3.725c.77-5.934,3.824-20.216,15.536-24.049Z" transform="translate(-189.391 -217.413)" fill="#ffeae5" stroke="#282828" stroke-width="0.4"/>
                  <rect id="Rectangle_58" data-name="Rectangle 58" width="20.673" height="8.86" transform="translate(19.512 168.737)" fill="#ffeae5"/>
                </g>
                <path id="Path_68" data-name="Path 68" d="M402.894,222.188s85.186,21.424,100.621,129.55c0,0-41.692,18.075-83.474,10.3l9.4-36.165Z" transform="translate(-402.894 -222.188)" fill="#ffd04d" stroke="#282828" stroke-width="0.4"/>
              </g>
              <g id="Group_77" data-name="Group 77">
                <g id="Group_74" data-name="Group 74">
                  <path id="Path_69" data-name="Path 69" d="M221.578,255.417l63.428,74.905L265.6,384.982s-48.209-67.025-69.871-118.83Z" transform="translate(-167.653 -190.387)" fill="#ffeae5" stroke="#282828" stroke-width="0.4"/>
                  <g id="Group_73" data-name="Group 73">
                    <g id="Group_72" data-name="Group 72">
                      <g id="Group_71" data-name="Group 71">
                        <g id="Group_790" data-name="Group 790">
                          <path id="Path_71" data-name="Path 71" d="M218.342,268.022c-.394-2.243,8.259-26.431,11.226-35.5a4,4,0,0,0-3.167-5.041h0c-1.546-.3-4-.106-5.152,2.112L210.8,247.445Z" transform="translate(-162.331 -200.288)" fill="#ffeae5" stroke="#282828" stroke-width="0.4"/>
                          <path id="Path_72" data-name="Path 72" d="M219.872,248.348,212.7,212.664a4.492,4.492,0,0,0-5.192-3.561h0a3.868,3.868,0,0,0-3.176,4.29l3.125,26.571Z" transform="translate(-164.625 -206.763)" fill="#ffeae5" stroke="#282828" stroke-width="0.4"/>
                          <path id="Path_73" data-name="Path 73" d="M209.946,235.777l-9.74-25.482a4.47,4.47,0,0,0-5.534-2.725h0a3.852,3.852,0,0,0-2.546,4.571l7.228,29.445Z" transform="translate(-168.961 -207.354)" fill="#ffeae5" stroke="#282828" stroke-width="0.4"/>
                          <path id="Path_74" data-name="Path 74" d="M203.046,241.171l-12.323-25.038a4.9,4.9,0,0,0-6.255-2.4h0a4.268,4.268,0,0,0-2.2,5.637l9.824,23.637Z" transform="translate(-172.529 -205.235)" fill="#ffeae5" stroke="#282828" stroke-width="0.4"/>
                          <path id="Path_75" data-name="Path 75" d="M184.823,241.324,175.3,225.909a3.464,3.464,0,0,1,1.69-4.627h0a3.958,3.958,0,0,1,4.833,1.406l12.716,17.641Z" transform="translate(-174.978 -202.554)" fill="#ffeae5" stroke="#282828" stroke-width="0.4"/>
                          <path id="Path_70" data-name="Path 70" d="M228.381,268.934s-22.272,12.583-27.937,8.032c-9.9-7.955-18.081-37.072-18.081-37.072s41.649-15.7,41.258-15.089S228.381,268.934,228.381,268.934Z" transform="translate(-172.37 -201.2)" fill="#ffeae5"/>
                        </g>
                      </g>
                    </g>
                    <path id="Path_76" data-name="Path 76" d="M218.549,236.114s-14.522-1.523-16.015,17.83" transform="translate(-165.249 -197.211)" fill="none" stroke="#ffd5cb" stroke-linecap="round" stroke-linejoin="round" stroke-width="1.532"/>
                  </g>
                  <path id="Path_755" data-name="Path 755" d="M26.56,69.919S8.711,45.839,8.541,33.031" transform="translate(1.513 5.851)" fill="none" stroke="#282828" stroke-width="0.4"/>
                </g>
                <g id="Group_76" data-name="Group 76" transform="translate(80.769 18.197)">
                  <g id="Group_75" data-name="Group 75" transform="translate(0 43.675)">
                    <path id="Path_77" data-name="Path 77" d="M237.859,360.242s11.93,41.285,35.7,35.8,60.823-56.262,60.823-56.262l-8.293-86.694L259.368,335.2Z" transform="translate(-233.547 -253.082)" fill="#ffeae5" stroke="#282828" stroke-width="0.4"/>
                    <path id="Path_760" data-name="Path 760" d="M-3.663,92.031l10.712,16.04L24,100.869.358,79.224Z" transform="translate(3.663 14.034)" fill="#ffeae5"/>
                  </g>
                  <path id="Path_79" data-name="Path 79" d="M368.345,220.8s-66.136,14.906-101.38,91.771c0,0,21.294,32.086,55.432,46.347l22.855-28Z" transform="translate(-223.272 -220.803)" fill="#ffd04d" stroke="#282828" stroke-width="0.4"/>
                </g>
              </g>
              <g id="Group_78" data-name="Group 78" transform="translate(182.749 12.217)">
                <path id="Path_80" data-name="Path 80" d="M352.872,222.125A165.626,165.626,0,0,0,310.8,252.951l5.1,215.662H478.7l-.528-214.5s-20.521-20.083-42.763-29.874C416.517,215.922,371.238,212.705,352.872,222.125Z" transform="translate(-309.779 -216.383)" fill="#ffd04d"/>
                <path id="Rectangle_15" data-name="Rectangle 15" d="M0,0H45.29a0,0,0,0,1,0,0V28.553A16.736,16.736,0,0,1,28.553,45.29H16.736A16.736,16.736,0,0,1,0,28.553V0A0,0,0,0,1,0,0Z" transform="translate(97.486 69.935)" fill="none" stroke="#fff" stroke-linecap="round" stroke-linejoin="round" stroke-width="1.397"/>
                <line id="Line_9" data-name="Line 9" y1="73.501" x2="2.112" transform="translate(168.654 75.038)" fill="none" stroke="#eee" stroke-linecap="round" stroke-linejoin="round" stroke-width="1.397"/>
                <line id="Line_10" data-name="Line 10" x1="3.518" y1="63.713" transform="translate(0 72.576)" fill="none" stroke="#eee" stroke-linecap="round" stroke-linejoin="round" stroke-width="1.397"/>
              </g>
            </g>
            <g id="Group_88" data-name="Group 88" transform="translate(212.994)">
              <path id="Path_81" data-name="Path 81" d="M345.275,175.462l-6.787-33.576c-.381-2.734-1.442-6.955-.143-10.92,2.15-6.561,10.05-19.16,23.552-13.391l5.646,13.391a30.115,30.115,0,0,0-22.375,21.076Z" transform="translate(-330.519 -101.694)" fill="#282828"/>
              <path id="Path_82" data-name="Path 82" d="M360.127,122.313c-.245,4.411-4.139,23.713-17.829,30.746C342.3,153.059,330.307,127.344,360.127,122.313Z" transform="translate(-329.743 -99.501)" fill="#282828"/>
              <path id="Path_83" data-name="Path 83" d="M408.142,230.934h0V173.921H355.584v57.013l-15.645,7.132s3.669,23.629,42.476,24.153,42.7-22.991,42.7-22.991Z" transform="translate(-329.735 -81.282)" fill="#ffeae5" stroke="#282828" stroke-width="0.4"/>
              <path id="Path_84" data-name="Path 84" d="M355.588,121.335s9.646-25.446,39.389-11.919c18,8.187,23.045,19.166,25.191,26.943a31.293,31.293,0,0,1,.8,9.073l-7.194,33.789-28.089-46.75-27.18,2.155Z" transform="translate(-324.21 -105.453)" fill="#282828"/>
              <g id="Group_82" data-name="Group 82" transform="translate(86.446 70.138)">
                <path id="Path_85" data-name="Path 85" d="M399.408,160.921s3.544-5.635,10.851-2.864,4,20.521-6.96,22.782a8.67,8.67,0,0,1-7.011-1.833S398.983,165.9,399.408,160.921Z" transform="translate(-396.288 -157.291)" fill="#ffe2db" stroke="#282828" stroke-width="0.3"/>
                <g id="Group_81" data-name="Group 81" transform="translate(2.055 6.829)">
                  <g id="Group_80" data-name="Group 80">
                    <path id="Path_86" data-name="Path 86" d="M408.274,162.537s-6.122-2.043-10.467,6.972" transform="translate(-397.807 -162.338)" fill="none" stroke="#fff7f5" stroke-linecap="round" stroke-linejoin="round" stroke-width="1.397"/>
                  </g>
                </g>
              </g>
              <g id="Group_85" data-name="Group 85" transform="translate(0 70.138)">
                <path id="Path_87" data-name="Path 87" d="M347.153,160.921s-3.544-5.635-10.851-2.864-4,20.521,6.96,22.782a8.671,8.671,0,0,0,7.011-1.833S347.577,165.9,347.153,160.921Z" transform="translate(-332.397 -157.291)" fill="#ffe2db" stroke="#282828" stroke-width="0.3"/>
                <g id="Group_84" data-name="Group 84" transform="translate(5.354 6.829)">
                  <g id="Group_83" data-name="Group 83">
                    <path id="Path_88" data-name="Path 88" d="M336.354,162.537s6.122-2.043,10.467,6.972" transform="translate(-336.354 -162.338)" fill="none" stroke="#fff7f5" stroke-linecap="round" stroke-linejoin="round" stroke-width="1.397"/>
                  </g>
                </g>
              </g>
              <path id="Path_89" data-name="Path 89" d="M419.066,157.447c0,10.7-1.047,33.084-7.624,46.371-6.177,12.475-16.391,19.189-29.783,19.588s-23.367-4.761-31.362-20.952-7.613-44.808-7.613-44.808,0-38.222,37.777-38.222C420.247,119.424,419.066,157.447,419.066,157.447Z" transform="translate(-328.767 -100.521)" fill="#ffeae5" stroke="#282828" stroke-width="0.6"/>
              <path id="Path_90" data-name="Path 90" d="M350.668,184.406s5.5,24.538,24.937,27.1c22.368,2.954,28.926-25.956,28.926-25.956s-9.766,12.428-25.876,13.435C361.223,199.01,350.668,184.406,350.668,184.406Z" transform="translate(-325.523 -76.698)" fill="#ffe2db"/>
              <g id="Group_87" data-name="Group 87" transform="translate(20.767 47.982)">
                <path id="Path_91" data-name="Path 91" d="M368.917,159.254V168.1a2.89,2.89,0,0,0,.207,1.078,2.847,2.847,0,0,0,3.395,1.575l2.933-.781" transform="translate(-340.272 -134.442)" fill="none" stroke="#282828" stroke-linecap="round" stroke-linejoin="round" stroke-width="1.397"/>
                <path id="Path_92" data-name="Path 92" d="M362.467,157.029a3.439,3.439,0,1,1-3.439-3.439A3.439,3.439,0,0,1,362.467,157.029Z" transform="translate(-344.978 -136.441)" fill="#282828"/>
                <path id="Path_93" data-name="Path 93" d="M386.3,157.029a3.439,3.439,0,1,1-3.438-3.439A3.438,3.438,0,0,1,386.3,157.029Z" transform="translate(-336.565 -136.441)" fill="#282828"/>
                <path id="Path_94" data-name="Path 94" d="M375.454,144.4l23.122,5.972s-1.051-6.485-10.51-8.842S375.454,144.4,375.454,144.4Z" transform="translate(-337.964 -140.916)" fill="#282828"/>
                <path id="Path_95" data-name="Path 95" d="M370.868,144.4l-23.122,5.972s1.051-6.485,10.51-8.842S370.868,144.4,370.868,144.4Z" transform="translate(-347.746 -140.916)" fill="#282828"/>
                <path id="Path_96" data-name="Path 96" d="M361.436,172.379s3.411,2.614,12.382,2.614a31.352,31.352,0,0,0,13.252-2.614" transform="translate(-342.913 -129.808)" fill="none" stroke="#282828" stroke-linecap="round" stroke-linejoin="round" stroke-width="1.397"/>
              </g>
              <path id="Path_98" data-name="Path 98" d="M351.794,125.169s7.018,19.937,38.685,19.325c21.517-.415,26.659,15.155,26.659,15.155s-3.745-34.81-4.729-34.481-32.743-8.474-32.743-8.474Z" transform="translate(-325.55 -101.485)" fill="#282828"/>
            </g>
          </g>
        </g>
      </g>
    </g>
  </g>
</svg>
