<svg xmlns="http://www.w3.org/2000/svg" width="51.772" height="60.292" viewBox="0 0 51.772 60.292">
  <g id="b" transform="translate(-36.175)">
    <g id="Group_342" data-name="Group 342" transform="translate(36.175)">
      <g id="Group_341" data-name="Group 341">
        <path id="Path_222" data-name="Path 222" d="M81.146,297.743H42.976a6.8,6.8,0,0,0,0,13.6h3.986l-.514.418a2.009,2.009,0,0,0,.767,3.506l.267.069-1.319,5.138a1.178,1.178,0,0,0,.848,1.433l4,1.028a1.178,1.178,0,0,0,1.433-.848l1.319-5.138.267.069a2.009,2.009,0,0,0,2.361-2.7l-1.208-2.971H81.146a6.8,6.8,0,0,0,0-13.6Zm-33.408,16.6v0Zm5.623.071a1.329,1.329,0,0,0-1.618.957l-1.281,4.991-1.724-.443,1.281-4.991a1.329,1.329,0,0,0-.957-1.618l-.6-.153,2.232-1.813,1.465-1.19.484,1.19,1.31,3.222Zm21.873-5.425h-21l-.486-1.2a1.178,1.178,0,0,0-1.833-.471l-2.051,1.666H42.976a4.446,4.446,0,0,1,0-8.892H75.234v8.892Zm5.912,0H77.589V300.1h3.557a4.446,4.446,0,0,1,0,8.892Z" transform="translate(-36.175 -262.682)" fill="#a7d3f6"/>
        <path id="Path_223" data-name="Path 223" d="M408.125,329.238a1.178,1.178,0,1,0-1.847,1.461l.793,1-.793,1a1.178,1.178,0,1,0,1.847,1.461l1.371-1.734a1.177,1.177,0,0,0,0-1.461Z" transform="translate(-362.472 -290.073)" fill="#a7d3f6"/>
        <path id="Path_224" data-name="Path 224" d="M96.308,347.128a1.163,1.163,0,0,0,.108.2,1.2,1.2,0,0,0,.147.179,1.115,1.115,0,0,0,.179.146,1.2,1.2,0,0,0,.2.108,1.217,1.217,0,0,0,.22.067,1.137,1.137,0,0,0,.46,0,1.189,1.189,0,0,0,.22-.067,1.207,1.207,0,0,0,.2-.108,1.17,1.17,0,0,0,.179-.146,1.127,1.127,0,0,0,.146-.179,1.162,1.162,0,0,0,.108-.2,1.188,1.188,0,0,0,.067-.22,1.162,1.162,0,0,0,.024-.23,1.18,1.18,0,0,0-.024-.231,1.246,1.246,0,0,0-.067-.22,1.188,1.188,0,0,0-.108-.2,1.12,1.12,0,0,0-.146-.179,1.267,1.267,0,0,0-.179-.147,1.207,1.207,0,0,0-.2-.108,1.178,1.178,0,0,0-1.538.637,1.246,1.246,0,0,0-.067.22,1.178,1.178,0,0,0-.022.231,1.159,1.159,0,0,0,.022.23A1.185,1.185,0,0,0,96.308,347.128Z" transform="translate(-89.148 -304.816)" fill="#a7d3f6"/>
        <path id="Path_225" data-name="Path 225" d="M149.489,347.128a1.163,1.163,0,0,0,.108.2,1.2,1.2,0,0,0,.147.179,1.114,1.114,0,0,0,.179.146,1.2,1.2,0,0,0,.2.108,1.249,1.249,0,0,0,.22.067,1.18,1.18,0,0,0,.231.024,1.159,1.159,0,0,0,.23-.024,1.192,1.192,0,0,0,.22-.067,1.163,1.163,0,0,0,.2-.108,1.115,1.115,0,0,0,.179-.146,1.127,1.127,0,0,0,.146-.179,1.162,1.162,0,0,0,.108-.2,1.187,1.187,0,0,0,.067-.22,1.163,1.163,0,0,0,.024-.23,1.18,1.18,0,0,0-.024-.231,1.245,1.245,0,0,0-.067-.22,1.189,1.189,0,0,0-.108-.2,1.123,1.123,0,0,0-.146-.179,1.188,1.188,0,0,0-1.063-.323,1.249,1.249,0,0,0-.22.067,1.18,1.18,0,0,0-.637.637,1.247,1.247,0,0,0-.067.22,1.179,1.179,0,0,0-.022.231,1.16,1.16,0,0,0,.022.23A1.186,1.186,0,0,0,149.489,347.128Z" transform="translate(-136.067 -304.815)" fill="#a7d3f6"/>
        <path id="Path_226" data-name="Path 226" d="M202.67,347.128a1.161,1.161,0,0,0,.108.2,1.127,1.127,0,0,0,.146.179,1.113,1.113,0,0,0,.179.146,1.163,1.163,0,0,0,.2.108,1.192,1.192,0,0,0,.22.067,1.131,1.131,0,0,0,.459,0,1.191,1.191,0,0,0,.22-.067,1.163,1.163,0,0,0,.2-.108,1.116,1.116,0,0,0,.179-.146,1.127,1.127,0,0,0,.146-.179,1.161,1.161,0,0,0,.108-.2,1.187,1.187,0,0,0,.067-.22,1.161,1.161,0,0,0,.024-.23,1.18,1.18,0,0,0-.024-.231,1.155,1.155,0,0,0-.067-.22,1.188,1.188,0,0,0-.108-.2,1.123,1.123,0,0,0-.146-.179,1.187,1.187,0,0,0-1.062-.323,1.231,1.231,0,0,0-.221.067,1.172,1.172,0,0,0-.382.256,1.123,1.123,0,0,0-.146.179,1.191,1.191,0,0,0-.108.2,1.156,1.156,0,0,0-.067.22,1.18,1.18,0,0,0-.024.231,1.162,1.162,0,0,0,.024.23A1.1,1.1,0,0,0,202.67,347.128Z" transform="translate(-182.984 -304.815)" fill="#a7d3f6"/>
        <path id="Path_227" data-name="Path 227" d="M255.851,347.128a1.163,1.163,0,0,0,.108.2,1.128,1.128,0,0,0,.146.179,1.113,1.113,0,0,0,.179.146,1.162,1.162,0,0,0,.2.108,1.191,1.191,0,0,0,.22.067,1.131,1.131,0,0,0,.459,0,1.192,1.192,0,0,0,.22-.067,1.163,1.163,0,0,0,.2-.108,1.144,1.144,0,0,0,.325-.325,1.161,1.161,0,0,0,.108-.2,1.106,1.106,0,0,0,.067-.22,1.161,1.161,0,0,0,.024-.23,1.179,1.179,0,0,0-.024-.231,1.157,1.157,0,0,0-.067-.22,1.188,1.188,0,0,0-.108-.2,1.121,1.121,0,0,0-.146-.179,1.174,1.174,0,0,0-1.282-.256,1.162,1.162,0,0,0-.2.108,1.2,1.2,0,0,0-.179.147,1.124,1.124,0,0,0-.146.179,1.189,1.189,0,0,0-.108.2,1.244,1.244,0,0,0-.067.22,1.179,1.179,0,0,0-.024.231,1.16,1.16,0,0,0,.024.23A1.185,1.185,0,0,0,255.851,347.128Z" transform="translate(-229.902 -304.815)" fill="#a7d3f6"/>
        <path id="Path_228" data-name="Path 228" d="M309.031,347.122a1.163,1.163,0,0,0,.108.2,1.127,1.127,0,0,0,.146.179,1.114,1.114,0,0,0,.179.146,1.164,1.164,0,0,0,.2.108,1.193,1.193,0,0,0,.22.067,1.159,1.159,0,0,0,.23.024,1.18,1.18,0,0,0,.231-.024,1.248,1.248,0,0,0,.22-.067,1.2,1.2,0,0,0,.2-.108,1.116,1.116,0,0,0,.179-.146,1.2,1.2,0,0,0,.147-.179,1.165,1.165,0,0,0,.108-.2,1.19,1.19,0,0,0,.067-.22,1.16,1.16,0,0,0,.022-.23,1.177,1.177,0,0,0-.022-.231,1.249,1.249,0,0,0-.067-.22,1.175,1.175,0,0,0-.256-.382,1.172,1.172,0,0,0-.382-.256,1.243,1.243,0,0,0-.22-.067,1.165,1.165,0,0,0-.46,0,1.188,1.188,0,0,0-.22.067,1.164,1.164,0,0,0-.2.108,1.2,1.2,0,0,0-.179.147,1.123,1.123,0,0,0-.146.179,1.19,1.19,0,0,0-.108.2,1.244,1.244,0,0,0-.067.22,1.179,1.179,0,0,0-.024.231,1.16,1.16,0,0,0,.024.23A1.183,1.183,0,0,0,309.031,347.122Z" transform="translate(-276.82 -304.81)" fill="#a7d3f6"/>
        <path id="Path_229" data-name="Path 229" d="M120.43,29.765a1.179,1.179,0,0,0,.09.079,16.479,16.479,0,0,0,9.294,3.453l.073,0q.161.008.324.012l.1,0c.133,0,.266.005.4.005s.269,0,.4-.005l.092,0q.166,0,.331-.013l.063,0a16.467,16.467,0,0,0,9.417-3.546,1.178,1.178,0,0,0,.106-.095,16.659,16.659,0,1,0-20.688.109Zm11.806,1.118-.219.021-.243.021q-.212.015-.425.025l-.146.006c-.165.006-.33.01-.5.01s-.327,0-.49-.009l-.144-.005q-.2-.009-.405-.023l-.235-.019-.253-.024c-.094-.01-.188-.02-.282-.032l-.05-.007a14.226,14.226,0,0,1-6.429-2.531V26.181a8.337,8.337,0,0,1,3.523-6.8,7.819,7.819,0,0,0,9.641,0,8.337,8.337,0,0,1,3.523,6.8v2.05h0A14.223,14.223,0,0,1,132.236,30.883Zm-1.53-28.528A14.3,14.3,0,0,1,141.46,26.083a10.688,10.688,0,0,0-4.247-8.431,7.8,7.8,0,0,0,1.394-4.456,7.927,7.927,0,0,0-.086-1.163,1.178,1.178,0,0,0-2.329.347,5.571,5.571,0,0,1,.06.817,5.459,5.459,0,0,1-1.065,3.245,5.522,5.522,0,0,1-2.1,1.728,5.473,5.473,0,0,1-4.641,0,5.522,5.522,0,0,1-2.1-1.728,5.485,5.485,0,0,1,4.424-8.734A5.521,5.521,0,0,1,132,7.845a1.178,1.178,0,0,0,.526-2.3,7.85,7.85,0,0,0-9.6,7.646,7.8,7.8,0,0,0,1.394,4.456,10.688,10.688,0,0,0-4.248,8.529v.026A14.3,14.3,0,0,1,130.706,2.355Z" transform="translate(-104.876)" fill="#a7d3f6"/>
        <path id="Path_230" data-name="Path 230" d="M287.58,65.173a1.2,1.2,0,0,0,.108.2,1.169,1.169,0,0,0,.325.326,1.162,1.162,0,0,0,.2.108,1.19,1.19,0,0,0,.22.067,1.19,1.19,0,0,0,.459,0,1.229,1.229,0,0,0,.221-.067,1.2,1.2,0,0,0,.2-.108,1.169,1.169,0,0,0,.325-.326,1.2,1.2,0,0,0,.108-.2,1.129,1.129,0,0,0,.067-.22,1.171,1.171,0,0,0,.024-.231,1.158,1.158,0,0,0-.024-.23,1.1,1.1,0,0,0-.067-.22,1.21,1.21,0,0,0-.108-.2,1.143,1.143,0,0,0-.325-.325,1.2,1.2,0,0,0-.2-.108,1.228,1.228,0,0,0-.221-.067,1.155,1.155,0,0,0-.459,0,1.19,1.19,0,0,0-.22.067,1.171,1.171,0,0,0-.2.108,1.143,1.143,0,0,0-.325.325,1.21,1.21,0,0,0-.108.2,1.184,1.184,0,0,0-.067.22,1.159,1.159,0,0,0-.024.23,1.171,1.171,0,0,0,.024.231A1.215,1.215,0,0,0,287.58,65.173Z" transform="translate(-257.895 -56.062)" fill="#a7d3f6"/>
      </g>
    </g>
  </g>
</svg>
