<svg xmlns="http://www.w3.org/2000/svg" width="60" height="60" viewBox="0 0 60 60">
  <g id="bb" transform="translate(0 -0.02)">
    <g id="Group_36" data-name="Group 36">
      <g id="Group_35" data-name="Group 35">
        <path id="Path_29" data-name="Path 29" d="M60,11.02a11.371,11.371,0,0,0-11-11,8.6,8.6,0,0,0-7,3c-3.822-1.726-7.753-2-12-2-16.327,0-30,12.673-30,29a30.315,30.315,0,0,0,30,30c16.327,0,29-13.673,29-30,0-4.247-.274-8.178-2-12A8.6,8.6,0,0,0,60,11.02Zm-11-8a8.343,8.343,0,0,1,8,8c0,4.168-3.832,7-8,7a6.647,6.647,0,0,1-7-7C42,6.851,44.832,3.02,49,3.02Zm-19,54a27.284,27.284,0,0,1-27-27c0-14.694,12.306-26,27-26a24.16,24.16,0,0,1,10,2,12.043,12.043,0,0,0-1,5,9.664,9.664,0,0,0,10,10,12.045,12.045,0,0,0,5-1,24.163,24.163,0,0,1,2,10C56,44.714,44.694,57.02,30,57.02Z" fill="#ffb99f"/>
      </g>
    </g>
    <g id="Group_38" data-name="Group 38" transform="translate(44.09 5.111)">
      <g id="Group_37" data-name="Group 37">
        <path id="Path_30" data-name="Path 30" d="M385.018,47.507h-2v-2a2.523,2.523,0,0,0-2-2c-.818,0-1,1.182-1,2v2h-2a2.523,2.523,0,0,0-2,2c0,.818,1.182,1,2,1h2v2c0,.818.182,2,1,2a2.523,2.523,0,0,0,2-2v-2h2c.818,0,2-.182,2-1A2.523,2.523,0,0,0,385.018,47.507Z" transform="translate(-376.108 -43.598)" fill="#ffb99f"/>
      </g>
    </g>
    <g id="Group_40" data-name="Group 40" transform="translate(14.206 10.64)">
      <g id="Group_39" data-name="Group 39">
        <path id="Path_31" data-name="Path 31" d="M145.976,116.141a5.623,5.623,0,0,1-5-4,10.6,10.6,0,0,0,2-2,13.075,13.075,0,0,0,2-6c.085-.1-.054.128,0,0a10.8,10.8,0,0,0,1-4,8.932,8.932,0,0,0-9-9c-1.243,0-1.859-.552-3,0-.421.038-.6.885-1,1a9.364,9.364,0,0,0-6,11c.124.486.756.663,1,1,.462,3.3,1.884,6.383,4,8-1.054,3.856-3.967,4-4,4-3.5.112-7,2.475-7,6v4a3.077,3.077,0,0,0,3,3h25a3.077,3.077,0,0,0,3-3v-4A5.83,5.83,0,0,0,145.976,116.141Zm-13-22a4.839,4.839,0,0,1,1,0,4.082,4.082,0,0,0,1,0c.831-.436,1.1-1,2-1a6.157,6.157,0,0,1,6,6c-.665-.418-1.158,0-2,0h-6c-.261,0-.793.155-1,0-.178-.133.082-.8,0-1a2.3,2.3,0,0,0-2-1c-.663.042-.832.357-1,1a8.735,8.735,0,0,1-1,3C129.576,98.036,130.543,94.844,132.976,94.141Zm-2,10a9.347,9.347,0,0,0,2-3c.636.425,1.228,0,2,0h6a2.734,2.734,0,0,1,2,1,9.855,9.855,0,0,1-4,8,2.487,2.487,0,0,1-2,1C134.12,111.141,131.513,108.114,130.976,104.141Zm10,12c-1.133.824-2.575,2-4,2s-2.865-1.173-4-2a7.282,7.282,0,0,0,2-3c.642.2,1.314,1,2,1s1.357-.808,2-1A7.279,7.279,0,0,0,140.976,116.141Zm8,10h0c0,.13.13,1,0,1h-25c-.13,0,0-.87,0-1v-4a4.111,4.111,0,0,1,4-4,2.243,2.243,0,0,0,2,0c1.713,1.562,4.658,2,7,2a8.256,8.256,0,0,0,6-2,2.065,2.065,0,0,0,2,0,4.111,4.111,0,0,1,4,4Z" transform="translate(-121.181 -90.761)" fill="#ffb99f"/>
      </g>
    </g>
  </g>
</svg>
