<svg xmlns="http://www.w3.org/2000/svg" width="60" height="60" viewBox="0 0 60 60">
  <g id="bbb" transform="translate(-0.994 0.293)">
    <g id="Group_42" data-name="Group 42" transform="translate(0.994 -0.293)">
      <g id="Group_41" data-name="Group 41" transform="translate(0)">
        <path id="Path_32" data-name="Path 32" d="M53.8,34.883a1.575,1.575,0,0,0-2,0l-4,3h0a1,1,0,0,0-2,0v2l-2,2c-.4.367-.363.594,0,1a1.885,1.885,0,0,0,2,0l7-7,7,7c.264.241.661.11,1,0a1.927,1.927,0,0,0,1-1c.072-.35.268.236,0,0Z" transform="translate(-38.794 -29.883)" fill="#86e9d4"/>
        <path id="Path_33" data-name="Path 33" d="M73.83,119.273a1,1,0,0,0-1,1v7h-10v-7a1,1,0,0,0-2,0v8c.01.758.242,1.009,1,1h11c.759.008,1.99-.241,2-1v-8A1,1,0,0,0,73.83,119.273Z" transform="translate(-53.824 -105.273)" fill="#86e9d4"/>
        <path id="Path_34" data-name="Path 34" d="M67.83,221.757a7,7,0,1,0,7,7A7.035,7.035,0,0,0,67.83,221.757Zm-5,7a5.147,5.147,0,0,1,4-5v5l-4,2A7.142,7.142,0,0,1,62.83,228.757Zm1,3,4-2,3,3A5.828,5.828,0,0,1,63.83,231.757Zm8,0-3-3v-5c1.617.328,2.369,1.476,3,3S72.742,230.383,71.83,231.757Z" transform="translate(-53.824 -195.757)" fill="#86e9d4"/>
        <path id="Path_35" data-name="Path 35" d="M266.178,47.869v-3a2.412,2.412,0,0,0-2-2h-3c-.865,0-1,1.135-1,2v3h-2v-6a2.242,2.242,0,0,0-2-2h-3c-.948,0-1,1.052-1,2v6h-2v-11a2.01,2.01,0,0,0-2-2h-2a2.01,2.01,0,0,0-2,2v11h-1a1,1,0,0,1-1-1v-12a1,1,0,0,0-2,0v12a3.015,3.015,0,0,0,3,3h23a1,1,0,0,0,0-2Zm-18,0h-2v-11h2Zm8,0h-2v-6h2Zm8,0h-2v-3h2Z" transform="translate(-212.184 -29.869)" fill="#86e9d4"/>
        <path id="Path_36" data-name="Path 36" d="M266.178,218.677h-23a1,1,0,0,1-1-1v-1l3-4c.392-.377.608-.377,1,0l2,1a2.729,2.729,0,0,0,4,0l4-4c.392-.377.608-.377,1,0l2,1a2.734,2.734,0,0,0,4,0l3-3a1.9,1.9,0,0,0,0-2c-.383-.383-.61-.376-1,0l-4,4c-.388.388-.612.388-1,0l-1-1a2.792,2.792,0,0,0-4,0l-5,4c-.388.388-.612.388-1,0l-1-1a2.792,2.792,0,0,0-4,0l-2,2v-8a1,1,0,0,0-2,0v12a3.015,3.015,0,0,0,3,3h23a1,1,0,0,0,0-2Z" transform="translate(-212.184 -180.677)" fill="#86e9d4"/>
        <path id="Path_37" data-name="Path 37" d="M60.988,45.707v-40c.138-2.887-2.113-5.84-5-6H6c-2.886.16-5.137,3.113-5,6v40c-.139,2.888,2.113,5.84,5,6H22v2H18a4.02,4.02,0,0,0-4,4v1a1,1,0,0,0,1,1H46.991a1,1,0,0,0,1-1v-1a4.02,4.02,0,0,0-4-4h-4v-2h16C58.875,51.547,61.126,48.6,60.988,45.707Zm-17,10a2.01,2.01,0,0,1,2,2H16a2.01,2.01,0,0,1,2-2Zm-20-2v-2h14v2Zm31.994-4H6c-1.787-.164-3.134-2.21-3-4v-2H58.988v2C59.123,47.5,57.776,49.543,55.989,49.707Zm3-44v36H3v-36c-.134-1.79,1.212-3.836,3-4h49.99C57.776,1.871,59.123,3.917,58.988,5.707Z" transform="translate(-0.994 0.293)" fill="#86e9d4"/>
      </g>
    </g>
  </g>
</svg>
