<svg xmlns="http://www.w3.org/2000/svg" width="50.02" height="60.23" viewBox="0 0 50.02 60.23">
  <g id="bbbb" transform="translate(-969 -2395.001)">
    <path id="test-quiz" d="M71.205,0a1.311,1.311,0,0,0-1.07.614L66.32,6.459H53.328A1.331,1.331,0,0,0,52.012,7.8V21.246a1.331,1.331,0,0,0,1.316,1.344H66.492a1.331,1.331,0,0,0,1.316-1.344V10.64l-2.633,4.033V19.9H54.645V9.147h9.92l-3.7,5.671-1.618-3.305a1.3,1.3,0,0,0-1.759-.623,1.357,1.357,0,0,0-.61,1.8l.014.029,2.633,5.377a1.3,1.3,0,0,0,1.766.6,1.326,1.326,0,0,0,.507-.457L72.326,2.106a1.362,1.362,0,0,0-.339-1.87A1.3,1.3,0,0,0,71.205,0Zm5.817,11.836a1.331,1.331,0,0,0-1.316,1.344v2.689a1.331,1.331,0,0,0,1.316,1.344h23.694a1.331,1.331,0,0,0,1.316-1.344V13.181a1.331,1.331,0,0,0-1.316-1.344ZM53.328,25.289a1.331,1.331,0,0,0-1.316,1.344V40.076a1.331,1.331,0,0,0,1.316,1.344H66.492a1.331,1.331,0,0,0,1.316-1.344V26.633a1.331,1.331,0,0,0-1.316-1.344Zm1.316,2.689H65.175V38.732H54.645Zm22.378,2.679A1.331,1.331,0,0,0,75.706,32v2.689a1.331,1.331,0,0,0,1.316,1.344h23.694a1.331,1.331,0,0,0,1.316-1.344V32a1.331,1.331,0,0,0-1.316-1.344H77.022ZM53.328,44.1a1.331,1.331,0,0,0-1.316,1.344V58.886a1.331,1.331,0,0,0,1.316,1.344H66.492a1.331,1.331,0,0,0,1.316-1.344V45.443A1.331,1.331,0,0,0,66.492,44.1Zm1.316,2.689H65.175V57.542H54.645Zm22.378,2.7a1.331,1.331,0,0,0-1.316,1.344v2.689a1.331,1.331,0,0,0,1.316,1.344h23.694a1.331,1.331,0,0,0,1.316-1.344V50.83a1.331,1.331,0,0,0-1.316-1.344Z" transform="translate(916.988 2395)" fill="#dc86e9"/>
  </g>
</svg>
