<svg id="calendar" xmlns="http://www.w3.org/2000/svg" width="30" height="30" viewBox="0 0 30 30">
  <path id="Path_3001" data-name="Path 3001" d="M25.313,2.344H23.789V1.172a1.172,1.172,0,0,0-2.344,0V2.344H16.113V1.172a1.172,1.172,0,1,0-2.344,0V2.344H8.5V1.172a1.172,1.172,0,1,0-2.344,0V2.344H4.688A4.693,4.693,0,0,0,0,7.031V25.313A4.693,4.693,0,0,0,4.688,30h8.965a1.172,1.172,0,1,0,0-2.344H4.688a2.346,2.346,0,0,1-2.344-2.344V7.031A2.346,2.346,0,0,1,4.688,4.688H6.152V5.859a1.172,1.172,0,1,0,2.344,0V4.688H13.77V5.859a1.172,1.172,0,1,0,2.344,0V4.688h5.332V5.859a1.172,1.172,0,0,0,2.344,0V4.688h1.523a2.346,2.346,0,0,1,2.344,2.344v6.68a1.172,1.172,0,1,0,2.344,0V7.031A4.693,4.693,0,0,0,25.313,2.344Z" fill="#fbc006"/>
  <path id="Path_3002" data-name="Path 3002" d="M277.019,270a7.019,7.019,0,1,0,7.019,7.019A7.027,7.027,0,0,0,277.019,270Zm0,11.718a4.7,4.7,0,1,1,4.7-4.7A4.7,4.7,0,0,1,277.019,281.718Z" transform="translate(-254.039 -254.039)" fill="#fbc006"/>
  <path id="Path_3003" data-name="Path 3003" d="M373.843,332.378h-.522V331.16a1.16,1.16,0,0,0-2.32,0v2.378a1.16,1.16,0,0,0,1.16,1.16h1.682a1.16,1.16,0,0,0,0-2.32Z" transform="translate(-349.18 -310.628)" fill="#fbc006"/>
  <circle id="Ellipse_21" data-name="Ellipse 21" cx="1.5" cy="1.5" r="1.5" transform="translate(16.028 10.972)" fill="#fbc006"/>
  <circle id="Ellipse_22" data-name="Ellipse 22" cx="1.5" cy="1.5" r="1.5" transform="translate(10.972 16.028)" fill="#fbc006"/>
  <ellipse id="Ellipse_23" data-name="Ellipse 23" cx="1.471" cy="1.5" rx="1.471" ry="1.5" transform="translate(5.914 10.972)" fill="#fbc006"/>
  <ellipse id="Ellipse_24" data-name="Ellipse 24" cx="1.471" cy="1.5" rx="1.471" ry="1.5" transform="translate(5.914 16.028)" fill="#fbc006"/>
  <ellipse id="Ellipse_25" data-name="Ellipse 25" cx="1.471" cy="1.5" rx="1.471" ry="1.5" transform="translate(5.914 21.084)" fill="#fbc006"/>
  <circle id="Ellipse_26" data-name="Ellipse 26" cx="1.5" cy="1.5" r="1.5" transform="translate(10.972 21.084)" fill="#fbc006"/>
  <circle id="Ellipse_27" data-name="Ellipse 27" cx="1.5" cy="1.5" r="1.5" transform="translate(10.972 10.972)" fill="#fbc006"/>
</svg>
