<svg id="cta-icon3" xmlns="http://www.w3.org/2000/svg" width="69.911" height="72.406" viewBox="0 0 69.911 72.406">
  <ellipse id="Ellipse_7" data-name="Ellipse 7" cx="32.461" cy="32.46" rx="32.461" ry="32.46" transform="translate(4.99)" fill="#88e3ff"/>
  <path id="Path_761" data-name="Path 761" d="M.68,21.743S-4.131,7.138,11.833,9.324,36,8.377,33.92,2.764s-6.9-.941-6.9-.941S17.147,9.963,32.608,17.2s19.9-7.216,21.868,12.028" transform="translate(68.336 48.4) rotate(163)" fill="none" stroke="#fff" stroke-width="1"/>
  <path id="Path_762" data-name="Path 762" d="M7611.485,13089.537s-9.406,0-7.837,5.781,8.23,1.566,4.017-7.251-19.4,1.075-19.4,5.878-2.842,9.6-7.643,7.25" transform="translate(-7557.978 -13066.702)" fill="none" stroke="#fff" stroke-width="1"/>
  <path id="Path_763" data-name="Path 763" d="M0,25.082s9.1-.391,4.888-8.426S-.893,2.939,6.553,0" transform="translate(41.92 30.451) rotate(161)" fill="none" stroke="#fff" stroke-width="1"/>
  <g id="Ellipse_10" data-name="Ellipse 10" transform="translate(0 8.317)" fill="none" stroke="#fff" stroke-width="1">
    <ellipse cx="32.045" cy="32.045" rx="32.045" ry="32.045" stroke="none"/>
    <ellipse cx="32.045" cy="32.045" rx="31.545" ry="31.545" fill="none"/>
  </g>
</svg>
