<svg xmlns="http://www.w3.org/2000/svg" width="72.977" height="73.546" viewBox="0 0 72.977 73.546">
  <g id="footer-icon3" transform="translate(-111.774 -80.308) rotate(8)">
    <g id="Ellipse_10" data-name="Ellipse 10" transform="translate(136.299 61.941)" fill="none" stroke="#fff" stroke-width="1">
      <circle cx="29.487" cy="29.487" r="29.487" stroke="none"/>
      <circle cx="29.487" cy="29.487" r="28.987" fill="none"/>
    </g>
    <circle id="Ellipse_7" data-name="Ellipse 7" cx="29.869" cy="29.869" r="29.869" transform="translate(130.941 68.829)" fill="#9fe5f9"/>
    <path id="Path_761" data-name="Path 761" d="M.626,20.007S-3.8,6.568,10.888,8.58s22.233-.872,20.323-6.036-6.348-.865-6.348-.865S15.779,9.168,30,15.824s18.311-6.64,20.122,11.067" transform="translate(132.391 84.031) rotate(-17)" fill="none" stroke="#fff" stroke-width="1"/>
    <path id="Path_762" data-name="Path 762" d="M7580.625,13095.832s8.654,0,7.212-5.32-7.573-1.441-3.7,6.672,17.851-.99,17.851-5.406,2.615-8.836,7.032-6.674" transform="translate(-7434.587 -12988.277)" fill="none" stroke="#fff" stroke-width="1"/>
    <path id="Path_763" data-name="Path 763" d="M0,23.08s8.374-.36,4.5-7.753S-.822,2.7,6.03,0" transform="translate(156.698 100.547) rotate(-19)" fill="none" stroke="#fff" stroke-width="1"/>
  </g>
</svg>
