<svg xmlns="http://www.w3.org/2000/svg" width="68" height="60" viewBox="0 0 68 60">
  <g id="if5" transform="translate(0 -28)">
    <path id="Path_3002" data-name="Path 3002" d="M66.938,85.895H64.813V51.644A4.205,4.205,0,0,0,66.938,48V37.474a3.172,3.172,0,0,0-3.183-3.153H42.232a8.521,8.521,0,0,0-16.465,0H4.245a3.172,3.172,0,0,0-3.183,3.153V48a4.205,4.205,0,0,0,2.125,3.644V85.895H1.063a1.053,1.053,0,1,0,0,2.105H66.938a1.053,1.053,0,1,0,0-2.105Zm-4.25-35.789A2.118,2.118,0,0,1,60.563,48h4.25A2.118,2.118,0,0,1,62.688,50.105ZM3.188,48h4.25a2.125,2.125,0,0,1-4.25,0Zm36.125-5.012v2.907h-4.25V44.774A8.5,8.5,0,0,0,39.313,42.988Zm14.875,2.907V36.426h4.25v9.469Zm-2.125,0h-4.25V36.426h4.25Zm-6.375,0h-4.25V40.632a1.055,1.055,0,0,0-.008-.125,8.306,8.306,0,0,0,1.071-4.08h3.188Zm-12.75,0h-4.25V42.988a8.5,8.5,0,0,0,4.25,1.786Zm-6.367-5.389a1.056,1.056,0,0,0-.008.125v5.263h-4.25V36.426H25.5A8.306,8.306,0,0,0,26.571,40.506Zm-6.383,5.389h-4.25V36.426h4.25Zm-6.375,0H9.563V36.426h4.25Zm0,2.105a2.125,2.125,0,0,1-4.25,0Zm6.375,0a2.125,2.125,0,0,1-4.25,0Zm6.375,0a2.125,2.125,0,0,1-4.25,0Zm6.375,0a2.125,2.125,0,0,1-4.25,0Zm6.375,0a2.125,2.125,0,0,1-4.25,0Zm6.375,0a2.125,2.125,0,0,1-4.25,0Zm6.375,0a2.125,2.125,0,0,1-4.25,0Zm6.375,0a2.125,2.125,0,0,1-4.25,0Zm6.375-10.526v8.421h-4.25V36.426h3.192A1.054,1.054,0,0,1,64.813,37.474ZM34,30.105a6.316,6.316,0,1,1-6.375,6.316A6.353,6.353,0,0,1,34,30.105ZM4.245,36.426H7.438v9.469H3.188V37.474A1.054,1.054,0,0,1,4.245,36.426ZM5.313,52.211A4.257,4.257,0,0,0,8.5,50.781a4.268,4.268,0,0,0,6.375,0,4.268,4.268,0,0,0,6.375,0,4.268,4.268,0,0,0,6.375,0,4.268,4.268,0,0,0,6.375,0,4.268,4.268,0,0,0,6.375,0,4.267,4.267,0,0,0,6.375,0,4.268,4.268,0,0,0,6.375,0,4.268,4.268,0,0,0,6.375,0,4.257,4.257,0,0,0,3.188,1.43V85.895H60.563V56.423a2.119,2.119,0,0,0-2.127-2.107H44.625A2.119,2.119,0,0,0,42.5,56.423V85.895H5.313ZM58.438,85.895H44.623l0-29.474,13.813,0Z" fill="#00418e"/>
    <path id="Path_3003" data-name="Path 3003" d="M87.062,228H58.142A2.145,2.145,0,0,0,56,230.142v25.706a2.145,2.145,0,0,0,2.142,2.142H87.062a2.145,2.145,0,0,0,2.142-2.142V230.142A2.145,2.145,0,0,0,87.062,228Zm0,27.848H58.142V230.142H87.062Z" transform="translate(-48.502 -174.275)" fill="#00418e"/>
    <path id="Path_3004" data-name="Path 3004" d="M345.071,353.356a1.071,1.071,0,0,0,1.071-1.071v-3.213a1.071,1.071,0,1,0-2.142,0v3.213A1.071,1.071,0,0,0,345.071,353.356Z" transform="translate(-298.324 -277.967)" fill="#00418e"/>
    <path id="Path_3005" data-name="Path 3005" d="M216.235,63.883l4.284,5.355a1.071,1.071,0,0,0,1.673,0l4.284-5.355a1.071,1.071,0,0,0-.079-1.426l-2.142-2.142A1.071,1.071,0,0,0,223.5,60h-4.284a1.071,1.071,0,0,0-.757.314l-2.142,2.142A1.071,1.071,0,0,0,216.235,63.883Zm3.422-1.74h3.4l1.151,1.151-2.849,3.561-2.849-3.561Z" transform="translate(-187.356 -27.717)" fill="#00418e"/>
    <path id="Path_3006" data-name="Path 3006" d="M88,282.458c0,.022,0,.044,0,.066s0,.032.006.047,0,.037.008.055.007.034.012.051.008.033.013.05.011.033.017.05.011.032.018.048.014.032.021.047.015.032.023.047.017.03.025.045.017.03.027.044.02.03.031.044l.03.04c.012.015.025.03.038.044l.023.026,11.246,11.782h0l.013.012.022.021a1.031,1.031,0,0,0,.1.087l.014.011.012.009.006,0c.027.019.055.036.084.052l.024.012.027.013.045.022c.017.008.035.013.053.02l.03.011.012,0H100a1.071,1.071,0,0,0,.136.032l.021,0,.024,0a1.056,1.056,0,0,0,.128.01h.029a1.085,1.085,0,0,0,.127-.01l.021,0,.025-.005a1.082,1.082,0,0,0,.134-.032h0l.02-.008.027-.01.05-.019.042-.02.032-.016h0l.02-.01a1.075,1.075,0,0,0,.1-.065l.018-.014a1.064,1.064,0,0,0,.1-.082l.025-.024.013-.013,11.246-11.782c.008-.008.015-.018.023-.026l.038-.044.03-.04c.011-.015.021-.029.031-.044s.018-.03.027-.044.017-.03.025-.045.015-.031.023-.047.014-.031.021-.047.012-.032.018-.048.012-.033.017-.05.009-.033.013-.05.008-.034.011-.051.006-.037.008-.055,0-.031.006-.047,0-.044,0-.066,0-.022,0-.033,0,0,0-.006c0-.025,0-.05,0-.075s0-.021,0-.031c0-.033-.009-.066-.015-.1s-.009-.036-.013-.054-.008-.033-.013-.05-.012-.033-.018-.05-.011-.032-.018-.048-.014-.03-.021-.045-.015-.033-.024-.049-.017-.028-.025-.042-.018-.032-.029-.047-.023-.031-.034-.046-.018-.025-.028-.037c-.022-.027-.046-.054-.071-.078l-5.354-5.354a1.062,1.062,0,0,0-.16-.132l0,0c-.018-.012-.037-.023-.057-.034l-.036-.021-.041-.02-.057-.026-.006,0-.037-.013-.057-.02-.055-.014-.047-.011-.065-.01-.039-.005c-.024,0-.047,0-.071,0H94.4l-.069,0-.04.005-.063.009-.048.011-.054.014-.058.02-.037.013-.006,0-.057.026-.041.02-.036.021c-.019.011-.038.022-.057.034l0,0a1.063,1.063,0,0,0-.16.132l-5.354,5.354a1.036,1.036,0,0,0-.071.078c-.01.012-.019.025-.028.037s-.023.03-.034.046-.019.031-.029.047-.017.028-.025.042-.016.033-.024.049-.015.03-.021.045-.012.032-.018.048-.013.033-.018.05-.009.033-.013.05-.01.036-.013.054-.012.065-.015.1c0,.01,0,.021,0,.031s0,.05,0,.075c0,0,0,0,0,.006S88,282.447,88,282.458Zm6.034-3.483.951,2.378h-3.33Zm14.943,2.378h-3.33l.951-2.378ZM102.6,283.5l-2.284,7.179L98.034,283.5Zm-3.976-2.142,1.692-2.416,1.692,2.416Zm6.224,2.142h4.211l-6.316,6.617Zm-1.042-3.308-1.433-2.047h2.252Zm-6.98,0-.819-2.047h2.252ZM95.786,283.5l2.106,6.618L91.574,283.5Z" transform="translate(-76.366 -215.847)" fill="#00418e"/>
  </g>
</svg>
