<svg xmlns="http://www.w3.org/2000/svg" width="50" height="60" viewBox="0 0 50 60">
  <g id="ir4" transform="translate(-42.946)">
    <g id="Group_479" data-name="Group 479" transform="translate(54.769 34.297)">
      <g id="Group_478" data-name="Group 478" transform="translate(0)">
        <path id="Path_2996" data-name="Path 2996" d="M151.758,293.005a1.172,1.172,0,0,0-1.657,0,3.139,3.139,0,0,1-4.434,0,1.172,1.172,0,1,0-1.657,1.657,5.485,5.485,0,0,0,7.748,0A1.171,1.171,0,0,0,151.758,293.005Z" transform="translate(-143.667 -292.662)" fill="#00418e"/>
      </g>
    </g>
    <g id="Group_481" data-name="Group 481" transform="translate(72.689 34.297)">
      <g id="Group_480" data-name="Group 480" transform="translate(0)">
        <path id="Path_2997" data-name="Path 2997" d="M304.431,293.005a1.172,1.172,0,0,0-1.657,0,3.139,3.139,0,0,1-4.434,0,1.172,1.172,0,0,0-1.657,1.657,5.485,5.485,0,0,0,7.748,0A1.172,1.172,0,0,0,304.431,293.005Z" transform="translate(-296.34 -292.662)" fill="#00418e"/>
      </g>
    </g>
    <g id="Group_483" data-name="Group 483" transform="translate(42.946)">
      <g id="Group_482" data-name="Group 482">
        <path id="Path_2998" data-name="Path 2998" d="M92.941,33.594a5.082,5.082,0,0,0-4.563-5.035v-1.84a20.372,20.372,0,0,0-8.592-16.613,11.972,11.972,0,0,0-23.651,0,20.372,20.372,0,0,0-8.592,16.613v1.838a5.082,5.082,0,0,0-4.592,5.037l-.005,2.968a5.074,5.074,0,0,0,5.077,5.079h.569A26.483,26.483,0,0,0,67.663,59.965a1.175,1.175,0,0,0,.567,0l.02,0a26.6,26.6,0,0,0,6.159-2.374A1.172,1.172,0,1,0,73.3,55.522a24.247,24.247,0,0,1-5.349,2.1A24.131,24.131,0,0,1,49.89,34.246v-1.5l.506-.114a58.522,58.522,0,0,0,18.869-7.969A20.964,20.964,0,0,0,85.9,32.855h.135v1.384a24.2,24.2,0,0,1-2.872,11.42,1.173,1.173,0,0,0,2.068,1.108,26.4,26.4,0,0,0,2.091-5.126h.55a5.074,5.074,0,0,0,5.077-5.08ZM48.023,39.3h0a2.728,2.728,0,0,1-2.73-2.731L45.3,33.6a2.733,2.733,0,0,1,2.246-2.678v3.325a26.638,26.638,0,0,0,.482,5.052h0ZM67.961,2.344A9.607,9.607,0,0,1,76.9,8.39a20.415,20.415,0,0,0-17.88,0A9.607,9.607,0,0,1,67.961,2.344ZM86.031,30v.511H85.9A18.618,18.618,0,0,1,71.21,23.348q1.219-.863,2.39-1.787a1.173,1.173,0,1,0-1.455-1.839A56.109,56.109,0,0,1,49.891,30.346V26.719a18.07,18.07,0,0,1,36.141,0Zm3.77,8.5a2.713,2.713,0,0,1-1.915.8,26.461,26.461,0,0,0,.492-5.058V30.925A2.733,2.733,0,0,1,90.594,33.6l.005,2.968A2.706,2.706,0,0,1,89.8,38.5Z" transform="translate(-42.946)" fill="#00418e"/>
      </g>
    </g>
    <g id="Group_485" data-name="Group 485" transform="translate(74.85 16.784)">
      <g id="Group_484" data-name="Group 484" transform="translate(0)">
        <path id="Path_2999" data-name="Path 2999" d="M316.877,143.614a1.171,1.171,0,0,0-1.654-.093l-.016.014a1.171,1.171,0,0,0,1.561,1.747l.016-.014A1.172,1.172,0,0,0,316.877,143.614Z" transform="translate(-314.816 -143.223)" fill="#00418e"/>
      </g>
    </g>
    <g id="Group_487" data-name="Group 487" transform="translate(68.789 40.57)">
      <g id="Group_486" data-name="Group 486">
        <path id="Path_3000" data-name="Path 3000" d="M283.067,360.561l-6.472-6.472-2.489-6.507a2.236,2.236,0,0,0-2.49-1.4,10.913,10.913,0,0,0-8.732,8.729l-.005.028a2.247,2.247,0,0,0,1.344,2.467l6.386,2.646,5.181,5.181a1.172,1.172,0,1,0,1.657-1.657l-4.517-4.517,2.66-2.66,5.82,5.82a1.172,1.172,0,0,0,1.657-1.657ZM271,357.676l-5.8-2.4a8.562,8.562,0,0,1,6.749-6.771l2.275,5.947Z" transform="translate(-262.844 -346.145)" fill="#00418e"/>
      </g>
    </g>
    <g id="Group_489" data-name="Group 489" transform="translate(90.026 57.657)">
      <g id="Group_488" data-name="Group 488">
        <path id="Path_3001" data-name="Path 3001" d="M446.132,492.343a1.171,1.171,0,1,0,.343.828A1.18,1.18,0,0,0,446.132,492.343Z" transform="translate(-444.132 -492)" fill="#00418e"/>
      </g>
    </g>
  </g>
</svg>
