<svg xmlns="http://www.w3.org/2000/svg" width="17" height="20" viewBox="0 0 17 20">
  <g id="lock" transform="translate(-5)">
    <path id="Path_3006" data-name="Path 3006" d="M19.682,7.449V5.37C19.682,2.409,16.908,0,13.5,0S7.318,2.409,7.318,5.37V7.449A2.715,2.715,0,0,0,5,10.085v7.238A2.74,2.74,0,0,0,7.793,20H19.207A2.74,2.74,0,0,0,22,17.323V10.085A2.715,2.715,0,0,0,19.682,7.449ZM8.091,5.37c0-2.553,2.426-4.63,5.409-4.63s5.409,2.077,5.409,4.63V7.407H8.091ZM21.227,17.323a1.982,1.982,0,0,1-2.02,1.937H7.793a1.982,1.982,0,0,1-2.02-1.937V10.085a1.982,1.982,0,0,1,2.02-1.937H19.207a1.982,1.982,0,0,1,2.02,1.937Z"/>
    <path id="Path_3007" data-name="Path 3007" d="M24.526,28A1.527,1.527,0,0,0,23,29.526v2.289a1.526,1.526,0,1,0,3.051,0V29.526A1.527,1.527,0,0,0,24.526,28Zm.763,3.814a.763.763,0,1,1-1.526,0V29.526a.763.763,0,1,1,1.526,0Z" transform="translate(-11.026 -17.738)"/>
  </g>
</svg>
