<svg xmlns="http://www.w3.org/2000/svg" width="40" height="40" viewBox="0 0 40 40">
  <g id="wc2" transform="translate(-5.147 -5.026)">
    <path id="Path_1117" data-name="Path 1117" d="M72.522,59.392c.053-.57.089-1.14.089-1.719A16.9,16.9,0,1,0,55.72,74.51c.5,0,1-.027,1.5-.062a11.352,11.352,0,1,0,15.3-15.056ZM43.66,67.6a15.477,15.477,0,0,1-3.579-9.3h5.726A22.569,22.569,0,0,0,46.961,65a16.79,16.79,0,0,0-3.3,2.593Zm3.3-17.256a22.291,22.291,0,0,0-1.154,6.708H40.082a15.5,15.5,0,0,1,3.579-9.3,16.143,16.143,0,0,0,3.3,2.592Zm20.765-2.628a15.5,15.5,0,0,1,3.614,9.336H65.615a22.458,22.458,0,0,0-1.163-6.744,16.608,16.608,0,0,0,3.275-2.593Zm-3.364,9.345H56.337v-4.33a16.852,16.852,0,0,0,7-1.8A21.122,21.122,0,0,1,64.362,57.058Zm-8.025-5.586V42.287A14.447,14.447,0,0,1,62.9,49.753a15.619,15.619,0,0,1-6.558,1.719Zm-1.253,0a15.776,15.776,0,0,1-6.567-1.7,14.451,14.451,0,0,1,6.567-7.492Zm0,1.256v4.33H47.06a21.008,21.008,0,0,1,1.02-6.1A17.144,17.144,0,0,0,55.085,52.728ZM47.06,58.305h8.025v4.329a17.109,17.109,0,0,0-7.005,1.773A21.745,21.745,0,0,1,47.06,58.305Zm9.277,13.586a10.2,10.2,0,0,0,.277,1.024c-.089.053-.179.1-.277.151Zm-1.253-8.009v9.194a14.412,14.412,0,0,1-6.567-7.492,15.811,15.811,0,0,1,6.567-1.7Zm1.253,3.252V63.882c.4.018.805.045,1.208.089A11.13,11.13,0,0,0,56.337,67.134ZM58.7,62.3c-.1.125-.206.249-.3.374-.036.045-.063.089-.1.134a18.04,18.04,0,0,0-1.959-.187V58.305h8.025c0,.107-.009.223-.009.33-.018,0-.027.009-.045.009A11.267,11.267,0,0,0,58.7,62.3Zm6.915-3.991h.358l-.358.053Zm5.726,0c-.009.187-.018.383-.036.57a10.823,10.823,0,0,0-2.371-.57ZM66.886,46.786A15.059,15.059,0,0,1,64,49.12a16.1,16.1,0,0,0-5.109-6.7,15.683,15.683,0,0,1,8,4.365ZM52.544,42.421a16.119,16.119,0,0,0-5.126,6.735A15.539,15.539,0,0,1,44.5,46.831a15.65,15.65,0,0,1,8.043-4.41ZM44.5,68.523A15.2,15.2,0,0,1,47.418,66.2a16.047,16.047,0,0,0,5.126,6.735,15.585,15.585,0,0,1-8.043-4.41ZM67.449,79.588a10.141,10.141,0,0,1-9.17-5.835A7.991,7.991,0,0,1,57.966,73c-.036-.089-.063-.187-.1-.276a10.021,10.021,0,0,1,1.53-9.292c.089-.116.179-.232.268-.339a10.095,10.095,0,1,1,7.783,16.5Zm0,0" transform="translate(-33.673 -35.818)" fill="#fff"/>
    <path id="Path_1125" data-name="Path 1125" d="M278.537,295.241a2.383,2.383,0,1,0-3.273,2.212,3.257,3.257,0,0,0-2.347,1.61,3.27,3.27,0,0,0-.89-.252,2.383,2.383,0,1,0-1.726,0,3.279,3.279,0,0,0-.881.243,3.257,3.257,0,0,0-2.347-1.609,2.389,2.389,0,0,0,1.484-2.194v-.009a2.383,2.383,0,1,0-3.273,2.212,3.218,3.218,0,0,0-2.76,3.183v2.8a.625.625,0,0,0,.629.629H267.5v.738a.626.626,0,0,0,.629.629h6.051a.626.626,0,0,0,.629-.629v-.738h4.37a.625.625,0,0,0,.629-.629v-2.8a3.225,3.225,0,0,0-2.76-3.183A2.35,2.35,0,0,0,278.537,295.241Zm-7.364.225a1.124,1.124,0,1,1-1.124,1.124A1.124,1.124,0,0,1,271.173,295.465Zm-4.981-1.349a1.122,1.122,0,0,1,1.124,1.115,1.138,1.138,0,0,1-1.124,1.133,1.124,1.124,0,1,1,0-2.248Zm-2.4,8.677v-2.167a1.95,1.95,0,0,1,1.951-1.951h.89a1.961,1.961,0,0,1,1.762,1.115,3.176,3.176,0,0,0-.881,2.2v.8Zm9.783,1.367h-4.792v-2.167a1.95,1.95,0,0,1,1.951-1.951h.89a1.95,1.95,0,0,1,1.951,1.951Zm5-3.525V302.8h-3.741V302a3.209,3.209,0,0,0-.872-2.2,1.986,1.986,0,0,1,1.78-1.115h.89A1.948,1.948,0,0,1,278.573,300.635Zm-2.419-4.271a1.113,1.113,0,1,1,.8-.326A1.124,1.124,0,0,1,276.154,296.364Zm0,0" transform="translate(-237.463 -265.545)" fill="#fff"/>
  </g>
</svg>
