<svg xmlns="http://www.w3.org/2000/svg" width="44" height="40" viewBox="0 0 44 40">
  <g id="wc3" transform="translate(0 -21.333)">
    <g id="Group_941" data-name="Group 941" transform="translate(0 21.333)">
      <g id="Group_940" data-name="Group 940" transform="translate(0 0)">
        <path id="Path_1126" data-name="Path 1126" d="M93.365,40.424V37.7a12.762,12.762,0,0,0-9.176-12.191v-.536a3.671,3.671,0,0,0-7.341,0v.536A12.762,12.762,0,0,0,67.671,37.7v2.727c0,6.052-1.437,8.178-2.488,9.731a5.12,5.12,0,0,0-1.183,3c0,2.964,6.237,4,11.293,4.362a5.483,5.483,0,0,0,10.449,0c5.056-.358,11.293-1.4,11.293-4.362a5.119,5.119,0,0,0-1.183-3C94.8,48.6,93.365,46.476,93.365,40.424ZM78.682,24.969a1.835,1.835,0,0,1,3.671,0v.145a11.669,11.669,0,0,0-3.671,0v-.145Zm1.835,34.545a3.644,3.644,0,0,1-3.2-1.888c1.3.054,2.429.069,3.2.069s1.9-.015,3.2-.069A3.644,3.644,0,0,1,80.518,59.515Zm0-3.636c-8.4,0-14.682-1.44-14.682-2.727a3.444,3.444,0,0,1,.873-1.984c1.113-1.648,2.8-4.138,2.8-10.743V37.7a11.012,11.012,0,0,1,22.023,0v2.727c0,6.605,1.685,9.1,2.8,10.743a3.444,3.444,0,0,1,.873,1.984C95.2,54.438,88.922,55.878,80.518,55.878Z" transform="translate(-58.518 -21.333)" fill="#fff"/>
        <path id="Path_1127" data-name="Path 1127" d="M480.278,171.79a.914.914,0,0,0-1.735.578,18.961,18.961,0,0,1,0,12.128.914.914,0,0,0,1.735.578,20.809,20.809,0,0,0,0-13.285Z" transform="translate(-437.366 -158.432)" fill="#fff"/>
        <path id="Path_1128" data-name="Path 1128" d="M438.683,184.71a.915.915,0,0,0-.578,1.156,15.381,15.381,0,0,1,0,9.821.915.915,0,0,0,.578,1.156.931.931,0,0,0,.289.046.914.914,0,0,0,.867-.626,17.218,17.218,0,0,0,0-10.974A.918.918,0,0,0,438.683,184.71Z" transform="translate(-400.392 -170.776)" fill="#fff"/>
        <path id="Path_1129" data-name="Path 1129" d="M1.827,178.451a19.134,19.134,0,0,1,.994-6.064.914.914,0,0,0-1.735-.578,20.826,20.826,0,0,0,0,13.285.914.914,0,0,0,1.735-.578A19.125,19.125,0,0,1,1.827,178.451Z" transform="translate(0 -158.451)" fill="#fff"/>
        <path id="Path_1130" data-name="Path 1130" d="M45.3,195.682a15.381,15.381,0,0,1,0-9.821.914.914,0,1,0-1.735-.577,17.218,17.218,0,0,0,0,10.974.914.914,0,0,0,.867.626.931.931,0,0,0,.289-.046A.915.915,0,0,0,45.3,195.682Z" transform="translate(-39.012 -170.771)" fill="#fff"/>
      </g>
    </g>
  </g>
</svg>
