<svg xmlns="http://www.w3.org/2000/svg" width="40" height="35.245" viewBox="0 0 40 35.245">
  <path id="favicon" d="M10.735,35.951A19.7,19.7,0,0,1,4.7,30.765a6.5,6.5,0,0,0-.383-13,6.768,6.768,0,0,0-3.522.981,18.64,18.64,0,0,1,1.123-5.868A18.919,18.919,0,0,1,5.046,7.388,19.512,19.512,0,0,1,9.788,3.2a19.712,19.712,0,0,1,5.961-2.5A12.607,12.607,0,0,0,9.659,11.7c0,7.909,6.8,10.748,13.453,12.483l2.283.585a26.231,26.231,0,0,1,5.931,2.066c1.526.862,2.237,1.881,2.237,3.208a3.128,3.128,0,0,1-1.892,2.9,12.361,12.361,0,0,1-5.5.967,19.46,19.46,0,0,1-11.953-4.044L10.736,35.95h0ZM0,24.348a3.891,3.891,0,0,1,3.938-3.842,3.844,3.844,0,1,1,0,7.685A3.891,3.891,0,0,1,0,24.348Zm39.985-4.327a25.911,25.911,0,0,0-9.845-4.57l-2.283-.645a22.723,22.723,0,0,1-5.217-1.788A3.386,3.386,0,0,1,20.53,10,3.018,3.018,0,0,1,22.28,7.348a9.716,9.716,0,0,1,4.677-.981A17.389,17.389,0,0,1,37.366,9.712,18.764,18.764,0,0,1,40,19.3c0,.248,0,.492-.013.724h0Z" transform="translate(0 -0.706)" fill="#fff"/>
</svg>
