<svg xmlns="http://www.w3.org/2000/svg" width="194.74" height="46.057" viewBox="0 0 194.74 46.057"><g id="logo_light" transform="translate(-46 -188)"><path id="Union_1" data-name="Union 1" d="M13.687,46.762a25.3,25.3,0,0,1-7.7-6.776,8.5,8.5,0,1,0-4.979-15.7A25.009,25.009,0,0,1,20.08.706a16.571,16.571,0,0,0-7.764,14.367c0,10.335,8.671,14.045,17.153,16.312l2.911.765a32.912,32.912,0,0,1,7.563,2.7c1.946,1.126,2.852,2.458,2.852,4.192a4.094,4.094,0,0,1-2.412,3.791A15.426,15.426,0,0,1,33.375,44.1a24.423,24.423,0,0,1-15.24-5.284l-4.446,7.95h0ZM0,31.6a5.021,5.021,0,1,1,5.021,5.021A5.021,5.021,0,0,1,0,31.6Zm50.981-5.654c-3.034-2.54-7.258-4.549-12.552-5.972l-2.911-.842a28.5,28.5,0,0,1-6.652-2.336c-1.836-1.049-2.69-2.3-2.69-3.944a3.951,3.951,0,0,1,2.23-3.465A12.137,12.137,0,0,1,34.37,8.1a21.807,21.807,0,0,1,13.271,4.371A24.985,24.985,0,0,1,51,25c0,.324-.006.643-.017.946v0Z" transform="translate(46 187.294)" fill="#fff"></path><path id="Subtraction_3" data-name="Subtraction 3" d="M11.087,32.745c5.808,0,9.7-3,9.7-7.524,0-4.422-3.927-6.6-7.854-7.656L11.681,17.2C9.4,16.608,7.655,16.014,7.655,14.5c0-1.254,1.386-2.046,3.531-2.046a9.475,9.475,0,0,1,5.94,2.046l2.541-4.026A13.966,13.966,0,0,0,11.12,7.665c-5.676,0-9.438,3.135-9.438,7.788,0,4.092,3.069,5.874,7.392,7.029l1.254.33c2.706.726,4.488,1.386,4.488,2.97,0,1.452-1.419,2.178-4.059,2.178A10.518,10.518,0,0,1,4.19,25.683L2.012,29.577A13.8,13.8,0,0,0,11.087,32.745Zm29.139-9.6c0-5.445-3.7-9.042-9.207-9.042-5.544,0-9.207,3.828-9.207,9.5,0,5.511,3.8,9.141,9.471,9.141a9.317,9.317,0,0,0,7.92-3.927l-4.356-2.112a4.622,4.622,0,0,1-3.63,1.65,3.169,3.169,0,0,1-3.465-2.97H40.094C40.16,24.759,40.226,23.9,40.226,23.142Zm-9.207-4.653c1.881,0,2.97,1.089,3.333,3.135H27.785C28.148,19.611,29.171,18.489,31.019,18.489Zm16.368-1.881-.1-2.178H41.876V32.415h5.61v-9.24c0-2.343,2.409-3.927,5.841-3.927L53.69,14.1A8.259,8.259,0,0,0,47.387,16.608Zm24.09,6.534c0-5.445-3.7-9.042-9.207-9.042-5.544,0-9.207,3.828-9.207,9.5,0,5.511,3.795,9.141,9.471,9.141a9.317,9.317,0,0,0,7.92-3.927L66.1,26.706a4.622,4.622,0,0,1-3.63,1.65A3.169,3.169,0,0,1,59,25.386H71.345C71.411,24.759,71.477,23.9,71.477,23.142ZM62.27,18.489c1.881,0,2.97,1.089,3.333,3.135H59.036C59.4,19.611,60.422,18.489,62.27,18.489ZM84.149,14.1a7.309,7.309,0,0,0-5.544,2.343l-.066-2.013H73.127V32.415h5.61V21.987c0-1.881,1.353-3.1,3.432-3.1,2.046,0,3.4,1.221,3.4,3.1V32.415h5.61V21.129A6.634,6.634,0,0,0,84.149,14.1Zm12.342-1.749a3.12,3.12,0,0,0,3.234-3.234,3.251,3.251,0,0,0-6.5,0A3.147,3.147,0,0,0,96.491,12.351ZM93.653,32.415h5.61V14.43h-5.61Zm15.84-4.488a2.136,2.136,0,0,1-2.079-2.376V19.017H112.1V14.43h-4.686V9.15H101.8V26.739a5.63,5.63,0,0,0,5.874,6.006,11.959,11.959,0,0,0,4.686-.891V27.366A7.41,7.41,0,0,1,109.493,27.927Zm21.747-4.785c0-5.445-3.7-9.042-9.207-9.042-5.544,0-9.207,3.828-9.207,9.5,0,5.511,3.795,9.141,9.471,9.141a9.317,9.317,0,0,0,7.92-3.927l-4.356-2.112a4.622,4.622,0,0,1-3.63,1.65,3.169,3.169,0,0,1-3.465-2.97h12.342C131.174,24.759,131.24,23.9,131.24,23.142Zm-9.207-4.653c1.881,0,2.97,1.089,3.333,3.135H118.8C119.162,19.611,120.185,18.489,122.033,18.489Z" transform="translate(109 191.117)" fill="#fff" stroke="rgba(0,0,0,0)" stroke-miterlimit="10" stroke-width="1"></path></g></svg>